<?xml version="1.0" encoding="UTF-8" standalone="no"?>
<!-- Created with Inkscape (http://www.inkscape.org/) -->

<svg
   xmlns:dc="http://purl.org/dc/elements/1.1/"
   xmlns:cc="http://creativecommons.org/ns#"
   xmlns:rdf="http://www.w3.org/1999/02/22-rdf-syntax-ns#"
   xmlns:svg="http://www.w3.org/2000/svg"
   xmlns="http://www.w3.org/2000/svg"
   xmlns:sodipodi="http://sodipodi.sourceforge.net/DTD/sodipodi-0.dtd"
   xmlns:inkscape="http://www.inkscape.org/namespaces/inkscape"
   version="1.1"
   id="svg3753"
   width="64"
   height="64"
   viewBox="0 0 64 64"
   sodipodi:docname="car_gas_pointA.svg"
   inkscape:version="0.92.4 (5da689c313, 2019-01-14)">
  <metadata
     id="metadata3759">
    <rdf:RDF>
      <cc:Work
         rdf:about="">
        <dc:format>image/svg+xml</dc:format>
        <dc:type
           rdf:resource="http://purl.org/dc/dcmitype/StillImage" />
        <dc:title></dc:title>
      </cc:Work>
    </rdf:RDF>
  </metadata>
  <defs
     id="defs3757" />
  <sodipodi:namedview
     pagecolor="#ffffff"
     bordercolor="#666666"
     borderopacity="1"
     objecttolerance="10"
     gridtolerance="10"
     guidetolerance="10"
     inkscape:pageopacity="0"
     inkscape:pageshadow="2"
     inkscape:window-width="1920"
     inkscape:window-height="1017"
     id="namedview3755"
     showgrid="false"
     inkscape:zoom="5.2149125"
     inkscape:cx="24.970844"
     inkscape:cy="29.073575"
     inkscape:window-x="775"
     inkscape:window-y="1072"
     inkscape:window-maximized="1"
     inkscape:current-layer="svg3753" />
  <g
     id="g3763"
     transform="translate(0.18320761,0.09442586)">
    <path
       style="fill:#fefefe;stroke-width:0.31999999"
       d="M 0,32 V 0 H 32 64 V 32 64 H 32 0 Z"
       id="path3779"
       inkscape:connector-curvature="0" />
    <path
       style="fill:#f1f1f2;stroke-width:0.31999999"
       d="m 0,62.103226 c 0,-1.667975 0.10170683,-1.976778 0.84315478,-2.56 C 1.4337336,59.078675 2.1526791,58.88 3.2431549,58.88 H 4.8 L 4.80703,32.24 C 4.8136982,6.9551242 4.8443133,5.534889 5.4088816,4.32 6.1065606,2.8186721 8.0993443,0.82137408 9.380832,0.3390521 9.9615245,0.12049292 14.940521,0 23.39111,0 37.866592,0 37.648454,-0.02725418 39.785776,2.0483662 41.943613,4.1439107 41.92,3.9618525 41.92,18.504136 v 13.084692 l 1.84,0.200539 c 2.763107,0.301148 4.137478,0.780169 5.3876,1.877791 2.057565,1.806567 2.388294,2.897306 2.732093,9.010436 0.324912,5.777289 0.617229,7.817596 1.382419,9.648947 0.847885,2.029277 3.155523,2.130496 4.162822,0.182595 0.897152,-1.734902 1.351309,-5.789168 1.423024,-12.703357 l 0.07006,-6.754224 -2.38784,-2.137104 c -1.313317,-1.175409 -2.941868,-2.941168 -3.61901,-3.92391 L 51.68,25.203738 51.569469,20.57719 51.458941,15.950642 47.809469,12.15545 C 44.753542,8.9774992 44.16,8.1984864 44.16,7.3655837 44.16,6.0034336 45.399008,4.8 46.801427,4.8 c 0.966007,0 1.665136,0.6013667 7.161415,6.16 6.278249,6.34948 8.338806,8.725461 9.441331,10.886585 0.613609,1.202776 0.634073,1.78244 0.531712,15.062167 C 63.833318,50.215235 63.803542,50.792029 63.121149,52.6908 61.544333,57.078333 59.62577,58.842461 56.125392,59.123437 52.617197,59.405043 50.114525,57.945578 48.44039,54.64183 47.337632,52.465645 47.053917,50.826669 46.736707,44.8 46.344291,37.34448 46.470563,37.641203 43.523898,37.250314 L 41.92,37.037549 V 47.958774 58.88 h 1.731555 c 1.540701,0 1.822864,0.108518 2.56,0.984554 0.64576,0.767443 0.828445,1.331961 0.828445,2.56 V 64 H 23.52 0 Z"
       id="path3777"
       inkscape:connector-curvature="0" />
    <path
       style="fill:#a8cbe1;stroke-width:0.31999999"
       d="m 0,62.103226 c 0,-1.667975 0.10170683,-1.976778 0.84315478,-2.56 C 1.4337336,59.078675 2.1526791,58.88 3.2431549,58.88 H 4.8 L 4.803136,32.4 4.806272,5.92 5.562673,4.32 C 5.9786736,3.44 6.7332669,2.3316389 7.239527,1.8569753 9.1980147,0.02072039 9.3848624,-6.294848e-4 23.429722,0.00702784 37.661606,0.01478713 37.712998,0.02139994 39.805798,2.1142009 41.903741,4.2121421 41.905213,4.223792 41.912973,18.8 L 41.92,32 h 1.618298 c 2.710617,0 4.444825,0.606282 5.901833,2.063286 1.732295,1.732298 2.399066,4.052186 2.402131,8.357706 0.0029,3.831878 0.671293,8.576867 1.409652,10.004698 0.625635,1.209843 1.781072,1.7628 2.841238,1.359724 2.05745,-0.78224 2.503581,-2.868483 2.699629,-12.624304 l 0.159936,-7.958889 -2.880384,-2.783343 C 51.998765,26.482551 51.722986,25.861908 51.58496,20.32 L 51.473382,15.84 47.995501,12.32 C 46.048637,10.349557 44.427443,8.4277827 44.312771,7.9544653 43.867418,6.116239 45.593142,4.4477952 47.456182,4.9153891 48.249843,5.114585 58.285232,15.145198 61.10729,18.56 c 3.027305,3.66316 2.909603,2.954784 2.881404,17.341235 -0.02643,13.489133 -0.200099,15.38145 -1.711872,18.653453 -1.300665,2.815094 -3.224419,4.255616 -6.072828,4.547382 C 51.92207,59.540672 48.832355,56.98321 47.537088,51.928176 47.256381,50.832672 46.890173,47.436096 46.72329,44.38023 46.556406,41.324362 46.323754,38.573651 46.206288,38.267539 45.933584,37.556883 44.781123,37.12 43.179168,37.12 H 41.92 V 48 58.88 h 1.582157 c 2.285776,0 3.191091,0.863514 3.438781,3.28 L 47.129539,64 H 23.564769 0 Z M 36.136774,23.476845 C 36.767427,22.6751 36.8,22.242198 36.8,14.6623 V 6.6909091 L 36.014544,5.9054544 35.229091,5.12 H 23.409996 C 12.249777,5.12 11.548788,5.154102 10.835451,5.731727 L 10.08,6.3434541 v 8.3146769 c 0,7.72738 0.04306,8.362256 0.609596,8.988273 C 11.288831,24.308551 11.504637,24.32 23.38637,24.32 h 12.087179 z"
       id="path3775"
       inkscape:connector-curvature="0" />
    <path
       style="fill:#91bcd8;stroke-width:0.31999999"
       d="M 0,62.426173 C 0,61.560566 0.08945011,60.619242 0.19877803,60.334336 0.49533578,59.56152 2.0401397,58.88 3.4953302,58.88 H 4.7824429 L 4.8712214,32.08 4.96,5.28 5.8471347,3.7708435 C 6.8281766,2.1019352 8.2316259,0.91868483 9.8877514,0.36419302 10.627788,0.11641933 15.019639,0 23.62672,0 35.801475,0 36.329917,0.02516268 37.658112,0.66813181 39.34889,1.4866222 41.051328,3.4148842 41.548621,5.0747018 41.80361,5.9257786 41.92,10.325719 41.92,19.114129 v 12.799876 l 2.24113,0.16035 c 4.457494,0.318935 6.718668,2.418071 7.330985,6.805645 0.171933,1.232 0.38481,4.04 0.473059,6.24 0.250106,6.235021 1.29953,8.96 3.450605,8.96 1.214199,0 2.037866,-0.899302 2.694899,-2.942368 0.435616,-1.354557 0.575066,-3.336166 0.690048,-9.805606 l 0.1441,-8.107978 L 55.876589,30.1011 C 54.189059,28.383478 52.590474,26.456692 52.324176,25.819354 51.974723,24.982993 51.84,23.482428 51.84,20.426516 v -4.23404 L 48.185114,12.492011 C 44.2964,8.5548003 43.735123,7.5761088 44.604723,6.2489277 45.893014,4.2827504 47.309562,4.4357949 49.842726,6.8148435 54.264643,10.967734 62.005754,19.547994 62.980458,21.37673 L 64,23.289586 v 11.733908 c 0,12.147322 -0.197661,14.848647 -1.34624,18.398445 -1.585904,4.901392 -6.412355,7.072093 -10.763126,4.840727 C 48.656374,56.603917 47.165987,52.755146 46.863264,45.28 46.55481,37.663312 46.332208,37.12 43.52,37.12 h -1.6 V 48 58.88 h 1.259168 c 0.692544,0 1.635507,0.143085 2.095478,0.317965 C 46.24825,59.568128 47.04,61.21489 47.04,62.869722 V 64 H 23.52 0 Z M 36.301856,23.608798 C 36.72144,23.009758 36.8,21.596695 36.8,14.648798 36.8,6.8266666 36.766896,6.3668963 36.16,5.76 35.542499,5.1424992 35.093334,5.12 23.383226,5.12 H 11.246451 L 10.583226,5.9631549 C 9.9518499,6.7658189 9.92,7.1961037 9.92,14.923155 c 0,7.690178 0.033642,8.150487 0.64,8.756845 0.617803,0.617803 1.066667,0.64 12.941855,0.64 h 12.301854 z"
       id="path3773"
       inkscape:connector-curvature="0" />
    <path
       style="fill:#72aacf;stroke-width:0.31999999"
       d="M 0.01017708,62.32 C 0.01577447,61.396 0.20750976,60.393661 0.43625549,60.092579 0.97777843,59.379814 2.3234084,58.88 3.700832,58.88 H 4.8 V 32.850858 C 4.8,4.5796464 4.7732637,5.0340883 6.575575,2.6711364 7.0554442,2.0419954 8.1788835,1.1894611 9.0825504,0.76869066 L 10.72,0.00625211 23.36,0.01015389 C 35.394374,0.01386873 36.068995,0.04533514 37.44,0.6668895 39.231363,1.4790169 40.186026,2.3553215 41.071142,4 c 0.668983,1.2430675 0.691549,1.6654816 0.782074,14.64 L 41.946432,32 h 1.528704 c 2.30705,0 4.694915,0.831386 5.92721,2.06368 1.687692,1.687693 2.124099,3.44055 2.43399,9.77632 0.288381,5.895955 0.77289,8.291069 1.928022,9.53096 1.196215,1.283984 2.926391,0.891318 3.82384,-0.867827 1.005911,-1.971744 1.307098,-4.755562 1.317789,-12.180067 l 0.01024,-7.105364 -3.074073,-3.167982 C 54.151402,28.30733 52.559254,26.381972 52.304035,25.771147 51.977002,24.988445 51.84,23.394672 51.84,20.37289 V 16.085223 L 48,12.052485 C 45.861533,9.8066822 44.16,7.7509053 44.16,7.4130282 c 0,-0.8672778 1.130499,-2.1861248 2.077699,-2.423857 0.473872,-0.1189338 1.189834,-0.00521 1.731895,0.2751043 1.037123,0.5363187 10.989065,10.7921645 13.40238,13.8116525 2.697063,3.374508 2.645111,3.051522 2.620148,16.290306 -0.01206,6.400966 -0.162349,12.546144 -0.333952,13.655945 -1.085037,7.017143 -3.544592,9.973159 -8.29817,9.973159 -3.257475,0 -5.221075,-1.293578 -6.848541,-4.511668 -0.875891,-1.731948 -1.463763,-5.415084 -1.745718,-10.937248 -0.250458,-4.905283 -0.316253,-5.292457 -0.992442,-5.84 C 45.29185,37.31657 44.524662,37.12 43.48455,37.12 H 41.92 V 48 58.88 h 1.07225 c 1.477264,0 3.039161,0.591283 3.414505,1.292621 C 46.57904,60.494538 46.72,61.487392 46.72,62.378963 V 64 H 23.36 0 Z M 36.014544,23.854546 36.8,23.069091 V 14.734546 C 36.8,6.8266666 36.767235,6.3672368 36.16,5.76 35.54248,5.142479 35.093334,5.12 23.372466,5.12 c -12.084319,0 -12.15093,0.00364 -12.8,0.7003395 C 9.9513834,6.4869933 9.92,6.9112826 9.92,14.641377 c 0,8.45335 0.100942,9.160675 1.380919,9.676389 0.384494,0.154917 5.925627,0.290794 12.313627,0.30195 L 35.229091,24.64 Z"
       id="path3771"
       inkscape:connector-curvature="0" />
    <path
       style="fill:#5398c6;stroke-width:0.31999999"
       d="M 0,62.295779 C 0,60.04367 0.75792496,59.279078 3.128798,59.139456 L 4.8175958,59.04 4.8052019,32.942806 C 4.7919418,5.021936 4.785344,5.1475754 6.3826186,2.90441 6.7671805,2.3643424 7.7564122,1.5259135 8.580911,1.0412345 L 10.08,0.16 h 13.28 13.28 l 1.499088,0.8812345 C 38.963587,1.5259135 39.952819,2.3643424 40.337382,2.90441 41.820387,4.9871005 41.92,6.0231264 41.92,19.364584 v 12.542869 l 2.056125,0.192003 c 3.872221,0.361594 6.256201,2.000496 7.063459,4.855882 0.249517,0.882563 0.529101,3.623401 0.621306,6.090748 0.324332,8.679172 1.53686,11.645984 4.459843,10.912362 2.000163,-0.502006 2.741027,-3.79009 2.984141,-13.24409 l 0.183238,-7.125644 -3.17584,-3.274357 C 54.365558,28.513461 52.689734,26.514237 52.388214,25.871639 51.955053,24.948476 51.84,23.793301 51.84,20.367279 V 16.03128 L 48.106666,12.159008 C 45.030342,8.9681958 44.373334,8.1175882 44.373334,7.3255898 c 0,-1.2765984 1.065783,-2.3122564 2.379514,-2.3122564 0.914739,0 1.757875,0.7397914 7.628339,6.6933336 7.044263,7.14395 9.127658,9.8135 9.477043,12.143371 0.118087,0.787446 0.14176,6.867324 0.05261,13.510842 -0.176274,13.135974 -0.347589,14.601424 -2.07932,17.786723 -2.736147,5.032787 -9.87104,5.248176 -12.721613,0.384042 C 47.60593,52.965306 47.123216,50.389798 46.759587,42.991613 46.495402,37.616624 46.325325,37.290666 43.6,36.936109 l -1.68,-0.21856 V 47.958774 59.2 h 1.704221 C 45.929379,59.2 46.72,60.002074 46.72,62.340624 V 64 H 23.36 0 Z M 35.956845,23.976774 36.8,23.313549 V 14.892225 C 36.8,7.0789571 36.75585,6.4163549 36.188563,5.7154509 L 35.57713,4.96 24.108565,4.8667731 C 17.800854,4.8154982 12.312337,4.8551603 11.91186,4.9549126 11.511384,5.054664 10.899384,5.4206163 10.55186,5.7681395 9.9550598,6.3649402 9.92,6.8624547 9.92,14.734546 v 8.334545 L 10.705454,23.854546 11.490909,24.64 H 23.3023 c 11.464724,0 11.836138,-0.01947 12.654545,-0.663226 z"
       id="path3769"
       inkscape:connector-curvature="0" />
    <path
       style="fill:#3386bb;stroke-width:0.31999999"
       d="m 0,62.443155 c 0,-2.341344 0.79916582,-3.185584 3.1309205,-3.30751 L 4.96,59.04 5.12,32 C 5.2953917,2.3588058 5.144161,4.4179645 7.3122522,2.1502972 9.273305,0.09917753 10.0209,0 23.521076,0 c 13.306054,0 13.870425,0.07590555 16.00933,2.1531833 2.11921,2.0581521 2.097511,1.8853073 2.076672,16.5406697 l -0.01878,13.212506 2.005856,0.198543 c 3.994679,0.395396 5.749828,1.357831 7.030832,3.855351 0.552586,1.077347 0.724058,2.201373 0.933591,6.119747 0.365337,6.83201 0.544518,8.108438 1.403955,10.00144 0.85009,1.87241 1.858102,2.507789 3.180742,2.004922 2.109504,-0.802032 2.726317,-3.557895 2.961924,-13.2336 l 0.185724,-7.627239 -3.088704,-2.985068 C 52.100595,26.276461 51.857837,25.715369 51.840838,20.16 l -0.01322,-4.32 -3.672262,-3.68 c -3.17197,-3.1786554 -3.672473,-3.8216842 -3.673807,-4.72 -0.0019,-1.3696544 0.963632,-2.32 2.357414,-2.32 0.980071,0 1.652515,0.5850195 7.336656,6.382812 3.441731,3.510547 6.841011,7.155412 7.553959,8.099701 2.239804,2.966599 2.27119,3.175611 2.264176,15.077721 C 63.984986,49.528147 63.294451,54.00185 60.579866,56.79697 59.072989,58.34855 57.749168,58.88 55.39111,58.88 53.033178,58.88 52.220003,58.581645 50.607558,57.124899 48.175261,54.927462 47.145818,51.173296 46.92079,43.68 46.73713,37.56417 46.436592,37.045568 43.04,36.983421 l -1.28,-0.02342 v 11.04 11.04 l 1.829078,0.09564 C 45.920835,59.257571 46.72,60.101811 46.72,62.443155 V 64 H 23.36 0 Z M 36.306698,23.637452 37.150285,22.634903 37.055142,14.489261 36.96,6.3436198 36.062157,5.5718099 35.16431,4.8 H 23.32761 11.490909 L 10.726662,5.564247 C 9.6461437,6.6447654 9.5495219,7.5716886 9.6609181,15.788267 L 9.76,23.096534 10.657844,23.868267 11.555689,24.64 h 11.953709 11.953709 z"
       id="path3767"
       inkscape:connector-curvature="0" />
    <path
       style="fill:#287fb8;stroke-width:0.31999999"
       d="M 0.26977294,61.917728 C 0.4058465,59.73215 1.0248754,59.2 3.4312019,59.2 H 5.12 V 32.469722 C 5.12,3.2431488 5.0429677,4.488417 6.9769754,2.4506935 7.451639,1.9505749 8.3742634,1.2665749 9.0272518,0.9306935 10.138641,0.35902173 11.052321,0.32 23.32642,0.32 c 7.339238,0 13.457647,0.1314464 13.897199,0.298564 1.106295,0.4206121 3.029075,2.1738794 3.672727,3.3489381 C 41.376013,4.8431824 41.458832,6.5607274 41.6,18.56 l 0.16,13.6 2.560637,0.190742 c 2.696307,0.200848 4.020806,0.697328 5.184089,1.94322 1.393642,1.492608 1.760842,3.042377 2.072276,8.746038 0.300163,5.49728 0.847401,8.659104 1.732489,10.00992 1.028253,1.569309 3.090931,1.541587 4.137453,-0.05561 1.189962,-1.816108 1.492371,-4.010374 1.66185,-12.058339 l 0.165609,-7.864025 -2.432483,-2.185703 c -1.337866,-1.202136 -2.973021,-2.97054 -3.63368,-3.929788 L 52.00704,25.212369 51.893136,20.526185 51.779229,15.84 48.129613,12.130346 C 45.030698,8.9804474 44.48,8.2682387 44.48,7.4103456 44.48,6.1000157 45.462429,5.12 46.775987,5.12 c 0.879949,0 1.654269,0.6320093 5.782823,4.72 5.427369,5.374046 8.957443,9.346489 10.250406,11.534932 L 63.698432,22.88 63.593891,36.8 c -0.102016,13.58399 -0.122342,13.970128 -0.842054,15.99672 -1.504579,4.236646 -3.736515,6.069226 -7.391837,6.069226 -5.448365,0 -8.316282,-4.840157 -8.321853,-14.044717 -0.0022,-3.625562 -0.450653,-6.690877 -1.069401,-7.309626 -0.244567,-0.244566 -1.327588,-0.524729 -2.406708,-0.622579 L 41.6,36.71111 V 47.955555 59.2 h 1.774544 C 45.735885,59.2 46.72,60.089981 46.72,62.225456 V 63.68 l -23.28,3.2e-4 -23.28,3.2e-4 0.10977294,-1.763146 z M 36.291555,23.655448 37.12,22.670896 V 14.670833 6.6707693 L 36.184614,5.7353846 35.249232,4.8 H 23.455817 C 10.589743,4.8 10.722855,4.7817376 9.9475818,6.6534115 9.6794762,7.3006758 9.5954928,9.8510867 9.6634803,15.281018 c 0.095869,7.65675 0.1017485,7.714268 0.8722997,8.533844 L 11.311561,24.64 h 12.075773 12.075773 z"
       id="path3765"
       inkscape:connector-curvature="0" />
  </g>
</svg>
