<?xml version="1.0" encoding="UTF-8" standalone="no"?>
<!-- Created with Inkscape (http://www.inkscape.org/) -->

<svg
   xmlns:dc="http://purl.org/dc/elements/1.1/"
   xmlns:cc="http://creativecommons.org/ns#"
   xmlns:rdf="http://www.w3.org/1999/02/22-rdf-syntax-ns#"
   xmlns:svg="http://www.w3.org/2000/svg"
   xmlns="http://www.w3.org/2000/svg"
   xmlns:sodipodi="http://sodipodi.sourceforge.net/DTD/sodipodi-0.dtd"
   xmlns:inkscape="http://www.inkscape.org/namespaces/inkscape"
   version="1.1"
   id="svg3781"
   width="64"
   height="64"
   viewBox="0 0 64 64"
   sodipodi:docname="car_gas_pointB.svg"
   inkscape:version="0.92.4 (5da689c313, 2019-01-14)">
  <metadata
     id="metadata3787">
    <rdf:RDF>
      <cc:Work
         rdf:about="">
        <dc:format>image/svg+xml</dc:format>
        <dc:type
           rdf:resource="http://purl.org/dc/dcmitype/StillImage" />
        <dc:title></dc:title>
      </cc:Work>
    </rdf:RDF>
  </metadata>
  <defs
     id="defs3785" />
  <sodipodi:namedview
     pagecolor="#ffffff"
     bordercolor="#666666"
     borderopacity="1"
     objecttolerance="10"
     gridtolerance="10"
     guidetolerance="10"
     inkscape:pageopacity="0"
     inkscape:pageshadow="2"
     inkscape:window-width="1920"
     inkscape:window-height="1017"
     id="namedview3783"
     showgrid="false"
     inkscape:zoom="3.6875"
     inkscape:cx="32"
     inkscape:cy="32"
     inkscape:window-x="1912"
     inkscape:window-y="-8"
     inkscape:window-maximized="1"
     inkscape:current-layer="svg3781" />
  <g
     id="g3791">
    <path
       style="fill:#fefefe;stroke-width:0.31999999"
       d="M 0,32 V 0 H 32 64 V 32 64 H 32 0 Z"
       id="path3807"
       inkscape:connector-curvature="0" />
    <path
       style="fill:#f2f1f2;stroke-width:0.31999999"
       d="m 0,62.103226 c 0,-1.667975 0.10170683,-1.976778 0.84315478,-2.56 C 1.4337336,59.078675 2.1526791,58.88 3.2431549,58.88 H 4.8 L 4.80703,32.24 C 4.8136982,6.9551242 4.8443133,5.534889 5.4088816,4.32 6.1065606,2.8186721 8.0993443,0.82137408 9.380832,0.3390521 9.9615245,0.12049292 14.940521,0 23.39111,0 37.866592,0 37.648454,-0.02725418 39.785776,2.0483662 41.943613,4.1439107 41.92,3.9618525 41.92,18.504136 v 13.084692 l 1.84,0.200539 c 2.763107,0.301148 4.137478,0.780169 5.3876,1.877791 2.057565,1.806567 2.388294,2.897306 2.732093,9.010436 0.324912,5.777289 0.617229,7.817596 1.382419,9.648947 0.847885,2.029277 3.155523,2.130496 4.162822,0.182595 0.897152,-1.734902 1.351309,-5.789168 1.423024,-12.703357 l 0.07006,-6.754224 -2.38784,-2.137104 c -1.313317,-1.175409 -2.941868,-2.941168 -3.61901,-3.92391 L 51.68,25.203738 51.569469,20.57719 51.458941,15.950642 47.809469,12.15545 C 44.753542,8.9774992 44.16,8.1984864 44.16,7.3655837 44.16,6.0034336 45.399008,4.8 46.801427,4.8 c 0.966007,0 1.665136,0.6013667 7.161415,6.16 6.278249,6.34948 8.338806,8.725461 9.441331,10.886585 0.613609,1.202776 0.634073,1.78244 0.531712,15.062167 C 63.833318,50.215235 63.803542,50.792029 63.121149,52.6908 61.544333,57.078333 59.62577,58.842461 56.125392,59.123437 52.617197,59.405043 50.114525,57.945578 48.44039,54.64183 47.337632,52.465645 47.053917,50.826669 46.736707,44.8 46.344291,37.34448 46.470563,37.641203 43.523898,37.250314 L 41.92,37.037549 V 47.958774 58.88 h 1.731555 c 1.540701,0 1.822864,0.108518 2.56,0.984554 0.64576,0.767443 0.828445,1.331961 0.828445,2.56 V 64 H 23.52 0 Z"
       id="path3805"
       inkscape:connector-curvature="0" />
    <path
       style="fill:#ee9b93;stroke-width:0.31999999"
       d="M 0,62.27545 C 0,59.854906 0.63695283,59.145981 2.9868387,58.95111 L 4.8,58.800749 4.803136,32.360374 4.806272,5.92 5.562673,4.32 C 5.9786934,3.44 6.7332867,2.3316389 7.2395469,1.8569753 9.1980346,0.02072039 9.3848822,-6.294848e-4 23.429742,0.00702784 c 11.830249,0.00644991 12.997007,0.0555056 14.188137,0.59653293 1.577907,0.71670773 3.550634,2.94404693 3.981629,4.49552663 0.184883,0.6655273 0.317686,6.4901006 0.318726,13.9788306 l 0.0019,12.837918 2.32,0.151495 c 2.392192,0.156208 4.383808,0.915866 5.427779,2.070311 0.301277,0.333158 0.844839,1.277299 1.207914,2.098092 0.649702,1.468762 0.745562,2.282256 1.122291,9.524266 0.214679,4.12679 0.923175,6.837139 2.010919,7.692762 1.016438,0.799526 1.695312,0.792012 2.740768,-0.03034 1.545488,-1.21568 1.873379,-3.149642 2.048771,-12.083956 l 0.15904,-8.101536 -3.035047,-3.098463 C 51.808454,25.938519 51.774314,25.858485 51.819446,20.520372 L 51.856317,16.16 48.189395,12.506396 C 46.172589,10.496915 44.432618,8.494776 44.322794,8.0571994 43.87263,6.2636061 45.670387,4.467183 47.464778,4.9175466 48.372138,5.1452787 59.34464,16.26607 61.563987,19.207299 c 2.622183,3.475094 2.501472,2.573417 2.350935,17.560621 -0.141754,14.112589 -0.247095,15.15968 -1.839012,18.280093 -1.666998,3.26759 -5.612214,4.928099 -8.98816,3.783043 C 48.674675,57.334224 46.841216,52.884438 46.711075,43.354918 46.637171,37.94351 46.170675,37.12 43.179168,37.12 H 41.92 v 10.840374 10.840375 l 1.779014,0.147529 c 2.337162,0.193815 2.997152,0.852762 3.243354,3.238208 L 47.129539,64 H 23.564769 0 Z M 36.16,23.68 c 0.606778,-0.606778 0.64,-1.066667 0.64,-8.859376 0,-7.998607 -0.01869,-8.2392678 -0.695779,-8.9599997 L 35.408438,5.12 H 23.327445 11.246451 L 10.583226,5.9631549 C 9.9528662,6.7645267 9.92,7.1984752 9.92,14.72 c 0,7.521525 0.032866,7.955473 0.663226,8.756845 L 11.246451,24.32 h 12.136775 c 11.710108,0 12.159273,-0.0225 12.776774,-0.64 z"
       id="path3803"
       inkscape:connector-curvature="0" />
    <path
       style="fill:#ed867c;stroke-width:0.31999999"
       d="M 0.01017708,62.32 C 0.01577447,61.396 0.20750976,60.393661 0.43625549,60.092579 0.97777843,59.379814 2.3234084,58.88 3.700832,58.88 H 4.8 V 32.850858 C 4.8,4.6293114 4.7767485,5.0295194 6.5515629,2.7026179 7.0165952,2.0929288 8.0007344,1.2714215 8.7385382,0.87704614 10.054415,0.17367592 10.324073,0.15820641 22.877073,0.06595986 34.121261,-0.01666881 35.841066,0.03566719 37.049709,0.49725251 38.856963,1.1874493 40.185283,2.336199 41.054032,3.9602531 c 0.690736,1.2912727 0.707978,1.6070314 0.79905,14.6350109 l 0.09308,13.315264 2.23719,0.207923 c 2.625882,0.244051 4.848685,1.194515 5.748349,2.457981 1.274144,1.78937 1.629472,3.514883 1.907603,9.263568 0.285332,5.897437 0.768484,8.289523 1.925056,9.53096 1.196215,1.283984 2.926391,0.891318 3.82384,-0.867827 1.005911,-1.971744 1.307098,-4.755562 1.317789,-12.180067 l 0.01024,-7.105364 -3.074073,-3.167982 C 54.151402,28.30733 52.559254,26.381972 52.304035,25.771147 51.976854,24.988096 51.84,23.393662 51.84,20.364898 v -4.295657 l -3.660346,-3.820599 c -2.01319,-2.10133 -3.749328,-4.1751415 -3.858086,-4.6084708 -0.134781,-0.5370077 0.01018,-1.0522093 0.455283,-1.6180605 0.852125,-1.0833021 2.024999,-1.3616979 3.192743,-0.7578352 1.040908,0.5382752 10.992595,10.7966265 13.419705,13.8332425 2.747354,3.437275 2.687207,3.019725 2.532842,17.583759 -0.124573,11.753017 -0.188576,12.953081 -0.811936,15.224416 -0.953671,3.474877 -2.153299,5.269158 -4.230205,6.327101 -1.80256,0.918195 -3.598262,1.082896 -5.566928,0.510588 -4.482198,-1.303011 -6.020195,-4.872838 -6.547331,-15.19696 -0.250458,-4.905283 -0.316253,-5.292457 -0.992442,-5.84 C 45.29185,37.31657 44.524662,37.12 43.48455,37.12 H 41.92 V 48 58.88 h 1.07225 c 1.477264,0 3.039161,0.591283 3.414505,1.292621 C 46.57904,60.494538 46.72,61.487392 46.72,62.378963 V 64 H 23.36 0 Z M 36.014544,23.854546 36.8,23.069091 V 14.734546 C 36.8,6.8266666 36.767235,6.3672368 36.16,5.76 35.542458,5.142456 35.093334,5.12 23.36,5.12 11.626667,5.12 11.177544,5.1424544 10.56,5.76 9.9527632,6.3672368 9.92,6.8266666 9.92,14.734546 v 8.334545 L 10.705454,23.854546 11.490909,24.64 H 23.36 35.229091 Z"
       id="path3801"
       inkscape:connector-curvature="0" />
    <path
       style="fill:#eb776b;stroke-width:0.31999999"
       d="M 0,62.295779 C 0,60.04367 0.75792496,59.279078 3.128798,59.139456 L 4.8175958,59.04 4.8052019,32.942806 C 4.7919418,5.021936 4.785344,5.1475754 6.3826186,2.90441 6.7671805,2.3643424 7.7564122,1.5259135 8.580911,1.0412345 L 10.08,0.16 h 13.28 13.28 l 1.499088,0.8812345 C 38.963587,1.5259135 39.952819,2.3643424 40.337382,2.90441 41.820387,4.9871005 41.92,6.0231264 41.92,19.364584 v 12.542869 l 2.056125,0.192003 c 3.87215,0.361587 6.256109,2.000451 7.063561,4.855882 0.249572,0.882563 0.529671,3.548662 0.622442,5.924662 0.346848,8.883251 1.526496,11.814362 4.458605,11.078448 2.000163,-0.502006 2.741027,-3.79009 2.984141,-13.24409 l 0.183238,-7.125644 -3.17584,-3.274357 C 54.365558,28.513461 52.689734,26.514237 52.388214,25.871639 51.955053,24.948476 51.84,23.793301 51.84,20.367279 V 16.03128 L 48.106666,12.159008 C 45.030342,8.9681958 44.373334,8.1175882 44.373334,7.3255898 c 0,-1.263674 1.066676,-2.3122564 2.352154,-2.3122564 0.868746,0 1.741056,0.7365751 6.600387,5.5733336 6.157562,6.128957 9.169178,9.633769 10.12025,11.777589 0.592832,1.336303 0.615331,2.025376 0.465017,14.24 -0.169856,13.802323 -0.311216,15.12057 -1.973126,18.400192 -1.019878,2.01263 -2.352554,3.105616 -4.574138,3.75145 -3.226867,0.938073 -6.585628,-0.37744 -8.26048,-3.235357 C 47.606301,52.965936 47.122803,50.38137 46.759587,42.991613 46.496102,37.630902 46.332349,37.318304 43.6,36.960154 L 41.92,36.739942 V 47.969971 59.2 h 1.704221 C 45.929379,59.2 46.72,60.002074 46.72,62.340624 V 64 H 23.36 0 Z M 35.956845,23.976774 36.8,23.313549 V 14.892225 C 36.8,7.0789571 36.75585,6.4163549 36.188563,5.7154509 L 35.57713,4.96 24.108565,4.8667731 C 17.800854,4.8154982 12.312337,4.8551603 11.91186,4.9549126 11.511384,5.054664 10.899384,5.4206163 10.55186,5.7681395 9.9550598,6.3649402 9.92,6.8624547 9.92,14.734546 v 8.334545 L 10.705454,23.854546 11.490909,24.64 H 23.3023 c 11.464724,0 11.836138,-0.01947 12.654545,-0.663226 z"
       id="path3799"
       inkscape:connector-curvature="0" />
    <path
       style="fill:#e9675a;stroke-width:0.31999999"
       d="m 0,62.443155 c 0,-2.341344 0.79916582,-3.185584 3.1309205,-3.30751 L 4.96,59.04 5.12,32 C 5.2952678,2.3797098 5.1467235,4.415583 7.296785,2.1661371 9.3464781,0.02169931 9.8395302,-0.04012878 24.04488,0.06594769 L 36.64,0.16 38.139088,1.0412345 C 38.963587,1.5259135 39.952819,2.3643424 40.337382,2.90441 41.820419,4.9871434 41.92,6.0229811 41.92,19.366668 v 12.544951 l 2.101235,0.215277 c 2.838547,0.290819 4.423373,0.983098 5.720925,2.498995 1.361418,1.590509 1.683914,3.037616 1.92408,8.633744 0.216093,5.035181 0.621798,7.589587 1.469261,9.250746 0.643136,1.260653 1.139389,1.569619 2.521075,1.569619 1.069862,0 1.77536,-0.72319 2.381533,-2.441264 0.734867,-2.082835 0.861465,-3.406474 1.060387,-11.086701 l 0.188762,-7.287961 -3.077901,-2.9843 C 52.120445,26.315211 51.856099,25.707773 51.847027,20.25564 L 51.84,16.03128 48.16,12.214326 C 45.068122,9.0073805 44.48,8.2377658 44.48,7.3986858 44.48,6.0767274 45.465949,5.12 46.828282,5.12 c 0.966556,0 1.691152,0.6322723 7.609558,6.64 6.980122,7.085465 9.072221,9.768265 9.41857,12.07788 0.117081,0.780759 0.143027,6.788637 0.05765,13.35084 -0.136198,10.469187 -0.231942,12.230394 -0.781318,14.372176 -1.228442,4.789178 -3.312727,7.003978 -6.830727,7.258448 C 53.383197,59.03047 52.275152,58.69336 50.533626,57.064365 47.994515,54.689322 47.195594,51.73071 46.766755,43.114672 46.492333,37.601059 46.333811,37.29177 43.6,36.936109 l -1.68,-0.21856 V 47.958774 59.2 h 1.704221 C 45.929379,59.2 46.72,60.002074 46.72,62.340624 V 64 H 23.36 0 Z M 36.062157,23.867707 36.96,23.095413 V 14.756596 C 36.96,6.5067546 36.9522,6.4100003 36.231466,5.688889 35.504227,4.9612995 35.482547,4.9598339 24.071464,4.8667731 17.784159,4.8154982 12.312337,4.8551603 11.91186,4.9549126 11.511384,5.054664 10.899384,5.4206163 10.55186,5.7681395 9.9545923,6.3654077 9.92,6.8629798 9.92,14.856774 v 8.456775 l 0.843155,0.663225 C 11.581468,24.620459 11.953355,24.64 23.38531,24.64 h 11.779 z"
       id="path3797"
       inkscape:connector-curvature="0" />
    <path
       style="fill:#e75445;stroke-width:0.31999999"
       d="m 0,62.443155 c 0,-2.341344 0.79916582,-3.185584 3.1309205,-3.30751 L 4.96,59.04 5.12,32 C 5.2992941,1.6993039 5.0996605,4.042913 7.690336,1.8253912 8.4092512,1.2100266 9.6287933,0.54757347 10.40043,0.35327322 11.297757,0.1273235 16.056719,0 23.604698,0 36.838627,0 37.338013,0.0681224 39.5068,2.169244 41.630042,4.2262406 41.6,3.9895094 41.6,18.663449 v 13.244004 l 2,0.197993 c 3.988493,0.394852 5.744576,1.358464 7.024976,3.854807 0.552586,1.077347 0.724058,2.201373 0.93359,6.119747 0.365338,6.83201 0.544519,8.108438 1.403956,10.00144 0.850089,1.87241 1.858102,2.507789 3.180742,2.004922 2.131293,-0.810314 2.727379,-3.441412 2.96153,-13.072064 L 59.29409,33.228595 56.203798,30.241991 C 52.096518,26.27252 51.856064,25.715798 51.847027,20.15478 L 51.84,15.82956 48.16,12.16 C 44.966739,8.9757987 44.48,8.3521923 44.48,7.4452198 44.48,6.070032 45.443818,5.12 46.838963,5.12 c 0.980071,0 1.652515,0.5850195 7.336656,6.382812 6.80608,6.942163 8.591443,9.083139 9.337299,11.197121 0.669575,1.897772 0.689252,20.969465 0.02675,25.940067 -0.965036,7.240627 -3.355395,10.24 -8.16079,10.24 -2.328202,0 -3.931402,-0.709174 -5.409869,-2.393059 C 47.991334,54.234493 47.128928,50.611139 46.920781,43.68 46.73712,37.56417 46.436582,37.045568 43.03999,36.983421 l -1.28,-0.02342 v 11.04 11.04 l 1.829079,0.09564 C 45.920835,59.257571 46.72,60.101811 46.72,62.443155 V 64 H 23.36 0 Z M 36.306698,23.637452 37.150285,22.634903 37.055142,14.489261 36.96,6.3436198 36.062157,5.5718099 35.16431,4.8 H 23.413358 C 10.593682,4.8 10.722642,4.7822496 9.9475818,6.6534115 9.6793024,7.3010957 9.5954486,9.8633155 9.6634803,15.334383 L 9.76,23.096454 10.657844,23.868227 11.555689,24.64 h 11.953709 11.953709 z"
       id="path3795"
       inkscape:connector-curvature="0" />
    <path
       style="fill:#e64b3b;stroke-width:0.31999999"
       d="M 0.26977294,61.917728 C 0.4058465,59.73215 1.0248754,59.2 3.4312019,59.2 H 5.12 V 32.469722 C 5.12,3.2431488 5.0429677,4.488417 6.9769754,2.4506935 7.451639,1.9505749 8.3742634,1.2665749 9.0272518,0.9306935 10.138641,0.35902173 11.052321,0.32 23.32642,0.32 c 7.339238,0 13.457647,0.1314464 13.897199,0.298564 1.106295,0.4206121 3.029075,2.1738794 3.672727,3.3489381 C 41.376013,4.8431824 41.458832,6.5607274 41.6,18.56 l 0.16,13.6 2.560637,0.190742 c 2.696307,0.200848 4.020806,0.697328 5.184089,1.94322 1.393642,1.492608 1.760842,3.042377 2.072276,8.746038 0.300163,5.49728 0.847401,8.659104 1.732489,10.00992 1.028253,1.569309 3.090931,1.541587 4.137453,-0.05561 1.189962,-1.816108 1.492371,-4.010374 1.66185,-12.058339 l 0.165609,-7.864025 -2.432483,-2.185703 c -1.337866,-1.202136 -2.973021,-2.97054 -3.63368,-3.929788 L 52.00704,25.212369 51.893136,20.526185 51.779229,15.84 48.129613,12.130346 C 45.030698,8.9804474 44.48,8.2682387 44.48,7.4103456 44.48,6.1000157 45.462429,5.12 46.775987,5.12 c 0.879949,0 1.654269,0.6320093 5.782823,4.72 5.427369,5.374046 8.957443,9.346489 10.250406,11.534932 L 63.698432,22.88 63.593891,36.8 c -0.102016,13.58399 -0.122342,13.970128 -0.842054,15.99672 -1.504579,4.236646 -3.736515,6.069226 -7.391837,6.069226 -5.448365,0 -8.316282,-4.840157 -8.321853,-14.044717 -0.0022,-3.625562 -0.450653,-6.690877 -1.069401,-7.309626 -0.244567,-0.244566 -1.327588,-0.524729 -2.406708,-0.622579 L 41.6,36.71111 V 47.955555 59.2 h 1.774544 C 45.735885,59.2 46.72,60.089981 46.72,62.225456 V 63.68 l -23.28,3.2e-4 -23.28,3.2e-4 0.10977294,-1.763146 z M 36.291555,23.655448 37.12,22.670896 V 14.670833 6.6707693 L 36.184614,5.7353846 35.249232,4.8 H 23.455817 C 10.589743,4.8 10.722855,4.7817376 9.9475818,6.6534115 9.6794762,7.3006758 9.5954928,9.8510867 9.6634803,15.281018 c 0.095869,7.65675 0.1017485,7.714268 0.8722997,8.533844 L 11.311561,24.64 h 12.075773 12.075773 z"
       id="path3793"
       inkscape:connector-curvature="0" />
  </g>
</svg>
