<?xml version="1.0" encoding="UTF-8" standalone="no"?>
<!-- Created with Inkscape (http://www.inkscape.org/) -->

<svg
   xmlns:dc="http://purl.org/dc/elements/1.1/"
   xmlns:cc="http://creativecommons.org/ns#"
   xmlns:rdf="http://www.w3.org/1999/02/22-rdf-syntax-ns#"
   xmlns:svg="http://www.w3.org/2000/svg"
   xmlns="http://www.w3.org/2000/svg"
   xmlns:sodipodi="http://sodipodi.sourceforge.net/DTD/sodipodi-0.dtd"
   xmlns:inkscape="http://www.inkscape.org/namespaces/inkscape"
   version="1.1"
   id="svg3837"
   width="64"
   height="64"
   viewBox="0 0 64 64"
   sodipodi:docname="drone_h_pointA.svg"
   inkscape:version="0.92.4 (5da689c313, 2019-01-14)">
  <metadata
     id="metadata3843">
    <rdf:RDF>
      <cc:Work
         rdf:about="">
        <dc:format>image/svg+xml</dc:format>
        <dc:type
           rdf:resource="http://purl.org/dc/dcmitype/StillImage" />
        <dc:title></dc:title>
      </cc:Work>
    </rdf:RDF>
  </metadata>
  <defs
     id="defs3841" />
  <sodipodi:namedview
     pagecolor="#ffffff"
     bordercolor="#666666"
     borderopacity="1"
     objecttolerance="10"
     gridtolerance="10"
     guidetolerance="10"
     inkscape:pageopacity="0"
     inkscape:pageshadow="2"
     inkscape:window-width="1920"
     inkscape:window-height="1017"
     id="namedview3839"
     showgrid="false"
     inkscape:zoom="3.6875"
     inkscape:cx="32"
     inkscape:cy="32"
     inkscape:window-x="1912"
     inkscape:window-y="-8"
     inkscape:window-maximized="1"
     inkscape:current-layer="svg3837" />
  <g
     id="g3847"
     transform="translate(0.27118602)">
    <path
       style="fill:#fefefe;stroke-width:0.31999999"
       d="M 0,32 V 0 H 32 64 V 32 64 H 32 0 Z"
       id="path3863"
       inkscape:connector-curvature="0" />
    <path
       style="fill:#f1f1f2;stroke-width:0.31999999"
       d="M 26.08,60.263459 C 18.58044,57.904646 13.474368,54.49935 9.3709475,49.12 7.7158573,46.950272 6.1716291,43.833155 4.9803024,40.257226 3.8839078,36.966246 3.84,36.656531 3.84,32.213805 3.84,28.737412 3.9583789,27.366175 4.3180285,26.676578 4.5809443,26.17246 4.79904,25.544 4.8026858,25.28 4.8198598,24.036329 7.2282259,18.646517 8.7266448,16.498361 12.353306,11.299122 17.699617,7.3027114 23.52,5.4402083 24.752,5.0459722 26.340814,4.524647 27.050699,4.2817078 28.89394,3.6509066 36.093078,3.6763603 37.323421,4.3180285 37.827539,4.5809443 38.528,4.79904 38.88,4.8026858 c 1.575741,0.01632 5.998336,1.9628697 9.095408,4.0032304 5.602208,3.6907518 10.644765,10.7834678 11.878886,16.7085038 0.191821,0.920931 0.483076,1.75743 0.647236,1.858886 0.164182,0.10147 0.293891,2.371573 0.288294,5.04558 -0.0079,3.766669 -0.115955,5.000964 -0.48,5.482276 -0.258403,0.341638 -0.47192,0.917638 -0.47448,1.28 -0.0067,0.943667 -0.830237,3.181408 -2.10761,5.726656 -3.614819,7.202774 -9.3575,12.044377 -17.57071,14.813715 -2.266307,0.764153 -3.120941,0.872579 -7.517024,0.953673 -3.82162,0.0705 -5.327219,-0.024 -6.56,-0.411747 z"
       id="path3861"
       inkscape:connector-curvature="0" />
    <path
       style="fill:#aacadf;stroke-width:0.31999999"
       d="M 26.56,60.003642 C 22.811137,59.015664 20.740856,58.177738 17.821065,56.46665 9.7964778,51.76399 4.2596483,42.344384 3.9219814,32.82065 3.8189552,29.914847 3.9142954,28.937858 4.4840746,27.06065 6.3803373,20.813181 7.8576819,17.8012 10.747427,14.291054 15.640911,8.3469846 24.816748,3.9789603 32.32,4.0217421 c 4.871629,0.027776 11.368912,2.0995581 15.575888,4.9666649 2.227043,1.517757 5.718675,4.947002 7.302061,7.171593 4.565981,6.415006 6.680723,15.402076 4.963856,21.095024 C 59.786118,38.500762 59.318832,40.096 59.123389,40.8 c -0.465875,1.678109 -2.538211,5.895466 -3.824823,7.783792 -1.450976,2.129558 -4.873449,5.467069 -7.254662,7.074563 -2.875174,1.940957 -5.687645,3.140941 -9.874579,4.213143 -4.467837,1.144134 -7.632661,1.18016 -11.609325,0.132144 z M 39.2,55.669853 c 7.290605,-2.287213 13.13528,-7.640874 15.639187,-14.325331 1.354423,-3.615789 1.58209,-4.881879 1.594,-8.864522 0.0091,-3.036817 -0.138765,-4.371668 -0.706851,-6.381892 C 53.335174,17.636793 46.97088,11.275695 38.541891,8.922297 34.984202,7.9289789 29.66368,7.9288867 26.08,8.9220806 17.529804,11.291713 11.060436,17.759272 8.7572358,26.24 c -0.8883568,3.271064 -0.8101267,9.693773 0.1559076,12.8 1.3187366,4.24032 3.0957796,7.223603 6.1182906,10.271328 3.671825,3.702458 7.297749,5.743402 12.168566,6.849389 3.002503,0.68176 9.050822,0.434352 12,-0.490864 z M 20.305454,46.574544 19.52,45.789091 V 32.46993 19.150769 l 0.935385,-0.935384 c 1.143802,-1.143802 2.245328,-1.196218 3.446771,-0.164013 L 24.8,18.822745 24.96,24.211372 25.12,29.6 h 7.2 7.2 l 0.07987,-5.12 c 0.08436,-5.407371 0.279136,-6.256342 1.570339,-6.844654 1.246506,-0.567946 2.014125,-0.420238 3.0144,0.580039 L 45.12,19.150769 v 13.005653 c 0,13.295741 -0.04854,13.86921 -1.252269,14.793402 -0.766035,0.588141 -2.422355,0.486566 -3.272281,-0.200675 -0.726781,-0.587667 -0.761524,-0.81537 -0.91545,-6 L 39.52,35.36 32.24,35.27399 24.96,35.18798 v 5.23928 c 0,5.11784 -0.01819,5.258909 -0.78472,6.08601 -1.051605,1.134697 -2.769203,1.161894 -3.869826,0.06127 z"
       id="path3859"
       inkscape:connector-curvature="0" />
    <path
       style="fill:#8cb9d6;stroke-width:0.31999999"
       d="M 27.2,59.851194 C 22.58186,58.860035 20.267618,57.91535 16.8,55.605869 12.580819,52.79583 7.9931149,47.224528 6.406561,42.98408 5.3469405,40.15199 3.84,33.94599 3.84,32.414266 3.84,29.890991 5.6652656,23.418102 7.3406515,20 10.969588,12.59629 17.557439,7.3196653 25.730858,5.270128 31.527089,3.8166858 34.655811,3.9266032 40.64,5.793912 47.933619,8.0698166 54.193469,13.500204 57.461139,20.386165 58.625597,22.840027 60.8,30.644877 60.8,32.370749 60.8,34.299984 58.781958,41.512682 57.45672,44.32 53.471654,52.761747 46.011446,58.3524 36.518083,60.011341 33.053203,60.616822 30.568324,60.574115 27.2,59.851194 Z M 38.4,56.149661 C 53.684218,52.234794 61.382339,34.637274 53.863885,20.8 49.063994,11.966084 39.569997,6.9567011 29.680935,8.0401824 14.851479,9.6649514 4.9196496,23.85287 8.4998925,38.297942 10.761751,47.423782 18.019914,54.364723 27.52,56.486774 30.109521,57.0652 35.474614,56.898963 38.4,56.149661 Z M 21.28,46.990486 C 19.828628,46.196646 19.84,46.312803 19.84,32.282064 V 18.926451 l 0.843155,-0.663225 c 1.069746,-0.841463 2.043944,-0.841463 3.11369,0 L 24.64,18.926451 v 5.192775 c 0,2.856026 0.136549,5.329574 0.303443,5.496774 0.179286,0.179616 3.256161,0.266487 7.52,0.212316 L 39.68,29.736633 v -5.083765 c 0,-5.002365 0.01325,-5.099528 0.828445,-6.068316 1.044681,-1.241531 2.387417,-1.31778 3.506099,-0.199098 L 44.8,19.170909 v 13.234205 c 0,12.715987 -0.02464,13.260652 -0.629174,13.909545 -0.878816,0.943299 -1.772864,1.156003 -2.796311,0.665271 -1.479321,-0.709319 -1.684659,-1.56792 -1.689798,-7.065828 l -0.0047,-5.045897 -7.44,0.0859 -7.44,0.0859 -0.179223,5.6 c -0.09857,3.08 -0.206573,5.632301 -0.24,5.671782 -0.160971,0.190119 -1.980332,1.047028 -2.204886,1.038487 C 22.035151,47.344918 21.632,47.183014 21.28,46.990486 Z"
       id="path3857"
       inkscape:connector-curvature="0" />
    <path
       style="fill:#6ea7cd;stroke-width:0.31999999"
       d="M 26.72,59.672698 C 15.915324,57.292074 7.9457622,49.529501 5.2085994,38.72 2.958396,29.83358 5.4980016,20.399708 11.998604,13.497172 16.517037,8.6993638 21.01352,6.2722461 27.84,4.9462816 39.022173,2.7742751 51.745856,9.1792074 56.965453,19.607644 c 1.430825,2.858699 2.252355,5.480066 3.048669,9.727784 0.522147,2.785244 0.521552,3.096313 -0.01158,6.079999 -1.545095,8.646954 -4.863671,14.480877 -10.803469,18.992071 -5.03312,3.822582 -10.827552,5.766608 -17.039059,5.716585 -1.936,-0.01558 -4.384,-0.218713 -5.44,-0.451385 z M 37.635027,56.460282 C 46.60721,54.379494 53.81953,47.413901 56.169347,38.56 59.170397,27.252335 53.205411,14.760084 42.510826,9.9554512 28.368263,3.601785 12.069996,11.585572 8.3170301,26.705451 7.7176707,29.120139 7.6312304,30.152091 7.7675395,33.26545 7.9553971,37.556198 8.5067693,39.811264 10.235697,43.36 c 3.082511,6.327056 8.994284,11.100787 16.027988,12.942531 3.008151,0.787674 8.336449,0.861591 11.371342,0.157751 z M 20.625454,46.254544 19.84,45.469091 V 32.369997 c 0,-12.321656 0.03554,-13.142982 0.598771,-13.838546 0.427318,-0.527716 0.932587,-0.739451 1.764571,-0.739451 2.106918,0 2.256227,0.405559 2.436658,6.618536 L 24.8,29.92 h 7.52 7.52 L 40,24.410391 c 0.17265,-5.945195 0.260045,-6.237488 1.991946,-6.662003 0.703424,-0.172419 1.059043,-0.02663 1.84,0.754328 L 44.8,19.470769 V 32.46993 45.469091 l -0.785456,0.785453 c -1.004016,1.004019 -2.396467,1.02657 -3.310509,0.05362 -0.637337,-0.678413 -0.693971,-1.116419 -0.775782,-6 L 39.84,35.04 l -7.6,-0.08579 -7.6,-0.08579 v 5.300339 c 0,5.200851 -0.01474,5.315079 -0.785454,6.085789 C 23.422546,46.686544 22.696,47.04 22.24,47.04 c -0.456,0 -1.182546,-0.353456 -1.614546,-0.785456 z"
       id="path3855"
       inkscape:connector-curvature="0" />
    <path
       style="fill:#5096c4;stroke-width:0.31999999"
       d="M 27.68,59.69449 C 21.474508,58.436506 17.402611,56.373104 13.163461,52.338346 8.6843274,48.075174 6.2377238,43.448749 4.9462816,36.8 4.3070909,33.509245 4.3614563,30.770158 5.1387251,27.104123 7.7137405,14.958909 16.491201,6.7903584 28.956711,4.9384362 c 3.03786,-0.4513156 3.684607,-0.4519264 6.684079,-0.00631 6.564544,0.9752528 11.699453,3.4628435 16.107994,7.8034698 4.263331,4.197652 6.79008,9.206762 7.901677,15.66455 0.622995,3.619269 0.626781,4.630338 0.02995,8.004639 -1.201731,6.794262 -4.060503,12.141753 -8.806797,16.473606 -6.152598,5.61536 -15.526979,8.370288 -23.193619,6.816103 z m 7.954077,-2.744352 C 43.748662,55.777056 50.818483,50.666029 54.517837,43.29839 57.86872,36.624765 57.820634,28.087852 54.394038,21.319702 50.058378,12.755987 41.795686,7.68 32.191331,7.68 c -9.305042,0 -17.574202,5.072268 -21.94033,13.458108 -4.7914842,9.2028 -3.2295543,20.385348 3.913962,28.02179 5.764842,6.162633 13.446577,8.950012 21.469114,7.79024 z M 21.250892,46.735744 c -1.359414,-0.563728 -1.437505,-1.424835 -1.341706,-14.794864 0.08558,-11.943698 0.125956,-12.713168 0.70041,-13.347618 0.766397,-0.846439 2.452248,-0.893114 3.180808,-0.08807 0.445122,0.491854 0.529596,1.380918 0.529596,5.573828 0,2.743747 0.08741,5.216408 0.194236,5.494803 0.169619,0.44202 1.163261,0.506172 7.840001,0.506172 H 40 V 24.84315 c 0,-4.813433 0.05362,-5.305017 0.663226,-6.08 0.484454,-0.615878 0.95687,-0.84315 1.752624,-0.84315 2.084774,0 2.075555,-0.0647 2.079664,14.59287 l 0.0037,13.08713 -0.854628,0.743389 c -0.6287,0.546864 -1.07536,0.689341 -1.689593,0.538941 -1.690359,-0.413892 -1.782928,-0.728912 -1.954967,-6.652864 L 39.84,34.72 32.52015,34.633891 c -5.130476,-0.06036 -7.451499,0.02315 -7.76,0.279181 -0.34036,0.282474 -0.44015,1.539616 -0.44015,5.54495 0,3.651111 -0.118042,5.334186 -0.4,5.703303 -0.503483,0.659117 -1.794737,0.937008 -2.669108,0.574419 z"
       id="path3853"
       inkscape:connector-curvature="0" />
    <path
       style="fill:#3285bb;stroke-width:0.31999999"
       d="M 26.88,59.353034 C 17.588912,57.446442 10.058663,51.167453 6.7387021,42.558506 6.2097325,41.186842 5.4752205,38.379331 5.1064531,36.319597 4.4586538,32.701338 4.4536954,32.461571 4.9599066,29.233381 6.0227373,22.455543 8.2108253,17.815599 12.463113,13.322476 18.234363,7.2243606 27.062277,4.0591843 35.379322,5.1060557 46.283827,6.4786125 55.040749,13.580173 58.357411,23.740493 61.479414,33.304486 59.189027,43.79135 52.391376,51.056838 48.345683,55.38097 43.860029,57.946378 38.128717,59.21385 34.882426,59.931763 29.994937,59.992237 26.88,59.353034 Z M 38.250246,56.637379 C 45.332522,54.826038 51.328301,49.94999 54.576627,43.36 56.337834,39.786986 56.947146,37.501859 57.182237,33.588096 57.880285,21.96718 49.872573,11.204265 38.24,8.1284282 35.232176,7.333112 29.15892,7.3314915 26.258512,8.1252282 c -4.522305,1.2375961 -8.42372,3.5431628 -11.77618,6.9592098 -2.39521,2.44064 -3.301953,3.735761 -4.7442104,6.776264 -1.8368675,3.8724 -2.4801174,7.07258 -2.2908563,11.397052 0.1881152,4.298291 0.7388253,6.552112 2.468432,10.102243 3.1263937,6.417126 9.2845217,11.412995 16.3479877,13.262531 3.319112,0.869098 8.620805,0.875664 11.986561,0.01485 z M 20.658145,46.008797 c -0.431395,-0.615901 -0.496781,-2.448986 -0.487968,-13.68 0.0079,-10.030194 0.102986,-13.090881 0.419765,-13.507582 0.69207,-0.910371 1.89533,-1.017961 2.863908,-0.256077 L 24.32,19.246451 v 5.382538 c 0,4.612974 0.07237,5.410309 0.506172,5.576775 C 25.837397,30.593807 39.53016,30.42184 39.936,30.016 c 0.266883,-0.266883 0.384,-1.956186 0.384,-5.538838 0,-5.557002 0.125251,-6.039546 1.663898,-6.410296 0.669913,-0.161422 1.047145,-0.02491 1.68,0.60794 L 44.48,19.490909 v 12.974547 c 0,12.547878 -0.02106,12.99559 -0.64,13.614544 -0.796029,0.796029 -2.290723,0.827939 -2.982378,0.06367 -0.4307,-0.475916 -0.536905,-1.52127 -0.609596,-6 L 40.16,34.72 h -7.84 -7.84 l -0.16,5.546582 c -0.144706,5.016413 -0.219374,5.589924 -0.781162,6 -0.941289,0.687095 -2.304307,0.565124 -2.880693,-0.257785 z"
       id="path3851"
       inkscape:connector-curvature="0" />
    <path
       style="fill:#287fb8;stroke-width:0.31999999"
       d="M 27.84,59.350618 C 16.966555,57.486899 8.611849,49.842083 5.8182141,39.2 4.1188803,32.72655 4.9205571,25.817548 8.0831907,19.68 10.710838,14.580669 15.128458,10.297323 20.387237,7.7499354 21.445637,7.2372394 22.65549,6.717167 23.0758,6.5942189 27.07276,5.4250368 27.569843,5.3561216 32.16,5.3347952 36.686291,5.3137648 39.947606,5.7386778 40.784,6.4584045 40.9512,6.6022819 41.289264,6.72 41.535254,6.72 c 1.02442,0 5.936637,2.7364656 7.954605,4.431297 4.641475,3.898237 7.634957,8.543445 9.311088,14.448703 0.604483,2.129676 0.738208,11.469949 0.185639,12.966006 C 58.792787,39.090701 58.445987,40.168 58.21592,40.96 57.985853,41.752 57.189978,43.587462 56.447309,45.038806 52.883795,52.002733 46.915139,56.769286 39.2,58.812464 35.180083,59.87705 31.835683,60.035482 27.84,59.350618 Z M 37.877418,56.969414 C 38.252838,56.824893 39.208,56.518458 40,56.288448 44.566906,54.962134 50.337302,50.661011 53.051706,46.56 c 1.779372,-2.688336 3.117622,-5.765706 3.863628,-8.884592 0.520992,-2.178157 0.462589,-8.803539 -0.09573,-10.859795 C 55.685034,22.637055 55.198691,21.536688 53.100054,18.4 50.734848,14.864889 47.497139,12.030346 43.476029,9.9743786 41.255891,8.8392362 40.453309,8.5470736 37.242874,7.705335 34.330451,6.9417318 27.822345,7.3363434 24.48,8.4791974 19.589712,10.151342 14.992173,13.586241 11.629531,18.08 c -0.883687,1.180939 -2.6407166,4.569754 -3.1523528,6.08 -0.9860102,2.910501 -1.2018009,4.454977 -1.184806,8.48 0.01576,3.732973 0.1290745,4.659168 0.8338848,6.815984 2.648225,8.103933 8.412584,14.101914 16.071702,16.723072 1.387123,0.47471 3.386041,0.977514 4.442041,1.117338 2.165441,0.286726 8.197898,0.0732 9.237418,-0.32698 z M 20.759182,45.871094 C 20.40637,45.446205 20.304659,42.862144 20.241992,32.731354 20.153877,18.486708 20.187365,18.24 22.209035,18.24 c 0.58993,0 1.230723,0.190526 1.423983,0.42339 0.217416,0.261971 0.384857,2.549508 0.439183,6 L 24.16,30.24 l 7.977581,0.08572 c 6.168809,0.06628 8.035971,-0.0063 8.235101,-0.32 0.141635,-0.223144 0.259724,-2.788916 0.262419,-5.701716 0.0053,-5.741699 0.09639,-6.064 1.713622,-6.064 1.793776,0 1.790016,-0.02928 1.801101,14.021037 0.0066,8.300736 -0.107946,13.12175 -0.321082,13.52 -0.42702,0.797891 -2.698774,0.883459 -2.994505,0.11279 C 40.727405,45.615434 40.64,43.041066 40.64,40.173011 c 0,-4.032745 -0.09967,-5.297366 -0.439754,-5.579609 -0.309267,-0.256669 -2.754304,-0.339511 -8.239999,-0.279181 L 24.16,34.4 24.0722,39.976608 c -0.05433,3.450493 -0.221767,5.738032 -0.439183,6 -0.494893,0.59631 -2.34755,0.528291 -2.873836,-0.105514 z"
       id="path3849"
       inkscape:connector-curvature="0" />
  </g>
</svg>
