<?xml version="1.0" encoding="UTF-8" standalone="no"?>
<!-- Created with Inkscape (http://www.inkscape.org/) -->

<svg
   xmlns:dc="http://purl.org/dc/elements/1.1/"
   xmlns:cc="http://creativecommons.org/ns#"
   xmlns:rdf="http://www.w3.org/1999/02/22-rdf-syntax-ns#"
   xmlns:svg="http://www.w3.org/2000/svg"
   xmlns="http://www.w3.org/2000/svg"
   xmlns:sodipodi="http://sodipodi.sourceforge.net/DTD/sodipodi-0.dtd"
   xmlns:inkscape="http://www.inkscape.org/namespaces/inkscape"
   version="1.1"
   id="svg3878"
   width="64"
   height="64"
   viewBox="0 0 64 64"
   sodipodi:docname="drone_h_pointB.svg"
   inkscape:version="0.92.4 (5da689c313, 2019-01-14)">
  <metadata
     id="metadata3884">
    <rdf:RDF>
      <cc:Work
         rdf:about="">
        <dc:format>image/svg+xml</dc:format>
        <dc:type
           rdf:resource="http://purl.org/dc/dcmitype/StillImage" />
        <dc:title></dc:title>
      </cc:Work>
    </rdf:RDF>
  </metadata>
  <defs
     id="defs3882" />
  <sodipodi:namedview
     pagecolor="#ffffff"
     bordercolor="#666666"
     borderopacity="1"
     objecttolerance="10"
     gridtolerance="10"
     guidetolerance="10"
     inkscape:pageopacity="0"
     inkscape:pageshadow="2"
     inkscape:window-width="1920"
     inkscape:window-height="1017"
     id="namedview3880"
     showgrid="false"
     inkscape:zoom="1.84375"
     inkscape:cx="356.2531"
     inkscape:cy="-57.553281"
     inkscape:window-x="1912"
     inkscape:window-y="-8"
     inkscape:window-maximized="1"
     inkscape:current-layer="svg3878" />
  <g
     id="g3888">
    <path
       style="fill:#fefefe;stroke-width:0.31999999"
       d="M 0,32 V 0 H 32 64 V 32 64 H 32 0 Z"
       id="path3904"
       inkscape:connector-curvature="0" />
    <path
       style="fill:#f2f1f2;stroke-width:0.31999999"
       d="M 26.08,60.263459 C 18.58044,57.904646 13.474368,54.49935 9.3709475,49.12 7.7158573,46.950272 6.1716291,43.833155 4.9803024,40.257226 3.8839078,36.966246 3.84,36.656531 3.84,32.213805 3.84,28.737412 3.9583789,27.366175 4.3180285,26.676578 4.5809443,26.17246 4.79904,25.544 4.8026858,25.28 4.8198598,24.036329 7.2282259,18.646517 8.7266448,16.498361 12.353306,11.299122 17.699617,7.3027114 23.52,5.4402083 24.752,5.0459722 26.340814,4.524647 27.050699,4.2817078 28.89394,3.6509066 36.093078,3.6763603 37.323421,4.3180285 37.827539,4.5809443 38.528,4.79904 38.88,4.8026858 c 1.575741,0.01632 5.998336,1.9628697 9.095408,4.0032304 5.602208,3.6907518 10.644765,10.7834678 11.878886,16.7085038 0.191821,0.920931 0.483076,1.75743 0.647236,1.858886 0.164182,0.10147 0.293891,2.371573 0.288294,5.04558 -0.0079,3.766669 -0.115955,5.000964 -0.48,5.482276 -0.258403,0.341638 -0.47192,0.917638 -0.47448,1.28 -0.0067,0.943667 -0.830237,3.181408 -2.10761,5.726656 -3.614819,7.202774 -9.3575,12.044377 -17.57071,14.813715 -2.266307,0.764153 -3.120941,0.872579 -7.517024,0.953673 -3.82162,0.0705 -5.327219,-0.024 -6.56,-0.411747 z"
       id="path3902"
       inkscape:connector-curvature="0" />
    <path
       style="fill:#f2d3d1;stroke-width:0.31999999"
       d="M 25.476876,59.850166 C 19.337789,58.110826 14.088816,54.717232 10.348379,50.06921 7.7947856,46.89601 6.7153293,44.828013 5.1328909,40.077507 3.8906714,36.348342 3.84,36.034986 3.84,32.082112 3.84,29.819351 3.9693789,27.8312 4.1275085,27.664 4.2856384,27.4968 4.7185984,26.238894 5.0896416,24.868654 7.621456,15.518824 15.271555,7.8534224 24.64,5.2791898 26.312,4.8197629 27.930046,4.3079978 28.235658,4.1419341 29.0911,3.677103 35.038557,3.7798099 36.739872,4.2887936 c 5.676083,1.6981168 7.437277,2.3807168 9.888349,3.8325133 6.293331,3.7276041 10.983625,9.9303861 12.936806,17.1085601 0.366675,1.347573 0.802707,2.618721 0.968963,2.824772 0.169527,0.210108 0.248503,2.177609 0.179831,4.480001 -0.137536,4.61104 -0.833149,7.427856 -2.918954,11.819962 C 53.107674,54.224499 43.394022,60.48848 32.48,60.679235 c -3.363908,0.0588 -4.232171,-0.04399 -7.003124,-0.829069 z M 36.327389,56.187283 C 46.24791,54.441341 53.802058,47.16328 55.892746,37.336992 56.546982,34.262058 56.303987,28.136939 55.420768,25.44 53.209194,18.686879 49.226218,13.898126 43.36,10.939266 39.327904,8.905519 37.413072,8.4811712 32.32,8.492679 c -3.559911,0.00804 -5.086933,0.1467796 -6.56,0.596001 -4.661867,1.421667 -7.922059,3.456272 -11.252344,7.022308 -3.553782,3.805355 -5.4641216,8.02728 -6.2092624,13.722713 -1.0475258,8.006693 2.7513354,16.871413 9.3584094,21.83804 5.353376,4.024205 12.138342,5.665171 18.670586,4.515542 z M 20.457638,46.793238 19.46518,45.906477 19.480543,32.953238 c 0.0085,-7.124281 0.02079,-13.211784 0.02741,-13.527784 0.01973,-0.941095 1.467204,-2.145454 2.578538,-2.145454 2.665613,0 3.259408,1.403404 3.164675,7.479557 L 25.18069,29.28 32.270346,29.36612 39.36,29.45224 v -5.150737 -5.150738 l 0.935386,-0.935384 c 1.239104,-1.239105 2.797702,-1.275025 3.980979,-0.09175 L 45.12,18.967273 v 13.42098 13.420979 l -0.935386,0.935382 C 42.918781,48.010451 41.821642,47.965642 40.448,46.592 L 39.36,45.504 v -5.158122 -5.158121 l -7.064957,0.08612 -7.064959,0.08612 -0.05504,5.226317 -0.05504,5.226317 -1.045049,0.933683 c -1.308691,1.169232 -2.346169,1.182688 -3.617313,0.04692 z"
       id="path3900"
       inkscape:connector-curvature="0" />
    <path
       style="fill:#eea7a0;stroke-width:0.31999999"
       d="M 27.856609,60.128045 C 22.236708,58.883405 18.569635,57.226749 14.751524,54.207622 10.19549,50.604995 6.8903331,45.524083 5.2594253,39.615728 4.8076538,37.979078 4.3034675,36.309226 4.1390112,35.904944 3.6001517,34.580269 3.7992006,30.215327 4.5180394,27.593253 6.3826838,20.791675 8.261424,17.110958 11.763278,13.398808 14.87832,10.096699 18.049493,7.9200714 22.08,6.3176237 24.251023,5.4544691 30.926003,3.84 32.32367,3.84 33.358778,3.84 39.352643,5.2076358 41.44,5.9200963 48.274957,8.253015 54.071536,13.401222 57.293149,20 c 3.446038,7.058465 4.124848,12.475501 2.345805,18.72 -1.76858,6.207779 -3.979536,9.960774 -8.229261,13.968784 -4.228435,3.98793 -8.431472,6.107187 -14.755213,7.439885 -3.779779,0.796569 -5.198777,0.796467 -8.797871,-6.4e-4 z M 38.08,56.119869 c 4.605178,-1.108339 9.611626,-4.18737 12.64,-7.773763 3.758502,-4.45106 5.544288,-8.920746 5.830128,-14.592375 0.242448,-4.81069 -0.393555,-7.905751 -2.53015,-12.312735 C 52.584202,18.47954 52.046381,17.740525 49.475731,15.196823 46.251885,12.006769 43.333683,10.249326 39.04,8.9120656 37.013094,8.2807891 35.968429,8.1662394 32.32,8.1752016 c -5.521485,0.013565 -8.339171,0.7742781 -12.910563,3.4855744 -2.66836,1.582606 -6.624323,5.638729 -8.297625,8.507709 -2.4634565,4.223751 -3.7203013,10.264219 -3.1013176,14.905112 1.2425546,9.316179 6.9132686,16.717376 15.3570296,20.043398 1.82127,0.717402 2.980962,1.003386 6.712476,1.655312 1.358063,0.237264 5.81281,-0.126041 8,-0.652438 z M 20.577844,46.587962 19.68,45.815923 19.589305,32.920054 C 19.522427,23.41062 19.59983,19.779822 19.884063,19.093622 20.382504,17.890279 21.862205,17.237369 23.107268,17.6714 24.69109,18.223523 24.96,19.255881 24.96,24.784109 V 29.76 h 7.36 7.36 v -5.141037 c 0,-2.914085 0.142723,-5.40772 0.329485,-5.756688 0.848377,-1.585205 2.973072,-1.797007 4.203203,-0.418999 0.564128,0.631942 0.700496,5.25512 0.619766,21.011268 -0.03217,6.278982 -0.03934,6.341437 -0.81791,7.12 -0.994496,0.994496 -2.129859,0.999376 -3.276701,0.01408 L 39.84,45.817254 l -0.16,-5.339536 -0.16,-5.339536 -7.2,0.01469 -7.2,0.01469 -0.16,5.324679 -0.16,5.324681 -0.897844,0.77153 c -1.139445,0.979139 -2.185211,0.978979 -3.324312,-6.4e-4 z"
       id="path3898"
       inkscape:connector-curvature="0" />
    <path
       style="fill:#eb8379;stroke-width:0.31999999"
       d="M 29.551543,60.145427 C 21.96781,59.144768 15.188421,55.504973 10.783148,50.068838 7.7273053,46.29791 5.8883654,42.249542 4.776352,36.845069 3.9712915,32.93241 3.9985539,31.397092 4.9477574,27.192178 6.3369706,21.038045 8.6622211,16.700812 12.71836,12.697862 16.971622,8.5003734 21.290932,6.2457142 27.52,4.9714755 c 7.401299,-1.5140342 16.300147,0.8292378 22.306534,5.8738265 4.839639,4.06467 8.012762,9.146896 9.53122,15.265656 1.188003,4.787166 1.275116,6.491381 0.522912,10.229823 -1.137424,5.652973 -2.586778,9.047382 -5.531933,12.955901 -2.189344,2.905475 -4.523895,4.964931 -7.988727,7.047353 -4.873337,2.928963 -11.707171,4.474499 -16.808463,3.801392 z m 9.273964,-3.94863 C 47.108218,53.87937 53.929037,46.900266 56.218682,38.4 57.002298,35.490829 56.998064,29.409926 56.21033,26.4 53.947277,17.753002 46.880154,10.69183 38.24,8.444807 35.173478,7.647304 29.444863,7.6505363 26.4,8.4514886 17.284318,10.849369 10.62302,17.6218 8.2845603,26.869153 c -0.5665379,2.240354 -0.652423,3.301035 -0.517295,6.388605 0.1866595,4.265027 0.7449606,6.575248 2.4006297,9.933673 3.179831,6.4501 9.077612,11.253242 16.113369,13.122698 2.921869,0.776365 9.572419,0.71416 12.544243,-0.117331 z M 20.53578,46.299376 C 19.84472,45.563776 19.84,45.469584 19.84,32.414826 19.84,20.04937 19.87546,19.227107 20.438771,18.531451 20.866089,18.003735 21.371358,17.792 22.203342,17.792 c 2.10699,0 2.25623,0.405364 2.436658,6.618391 L 24.8,29.92 l 7.337312,0.08615 c 5.656416,0.06642 7.396365,-0.0069 7.595098,-0.32 0.141785,-0.223385 0.259996,-2.611622 0.262691,-5.307192 0.0029,-2.832687 0.148157,-5.168719 0.344355,-5.535318 0.821424,-1.534846 3.35927,-1.390563 4.099034,0.23304 C 44.68792,19.624126 44.8,23.838362 44.8,32.669603 v 12.799488 l -0.785456,0.785453 c -1.004016,1.004019 -2.396467,1.02657 -3.310509,0.05362 -0.637337,-0.678413 -0.693971,-1.116419 -0.775782,-6 L 39.84,35.04 H 32.32 24.8 l -0.16,5.327603 c -0.139747,4.653223 -0.237164,5.412714 -0.769596,6 -0.833928,0.91984 -2.437198,0.887037 -3.334624,-0.06823 z"
       id="path3896"
       inkscape:connector-curvature="0" />
    <path
       style="fill:#e9766a;stroke-width:0.31999999"
       d="M 27.402502,59.663194 C 21.631697,58.516467 17.329071,56.30311 13.163461,52.338346 8.7408051,48.128931 6.3591251,43.669226 4.9507395,36.96 2.9899896,27.619437 7.5321987,16.256956 15.607258,10.30238 19.815785,7.1989984 23.949791,5.5766819 29.625944,4.800999 c 2.434642,-0.3327091 3.344917,-0.3125993 6.16827,0.1362685 1.821677,0.2896176 4.19721,0.8291779 5.278964,1.1990231 9.665564,3.3046016 16.363132,11.0621934 18.422553,21.3382884 0.797431,3.979031 0.819194,5.227399 0.157927,9.059235 -1.285114,7.446842 -5.03592,13.722231 -10.784733,18.04369 -6.039389,4.539891 -14.329379,6.503904 -21.466423,5.08569 z M 38.805158,56.274893 C 49.500675,53.311011 56.96,43.521475 56.96,32.448669 56.96,25.617577 54.497037,19.620917 49.76207,14.923628 44.558819,9.7617789 38.428518,7.4079507 31.122225,7.7665603 27.009452,7.9684243 24.681562,8.555817 21.362943,10.229103 8.360071,16.785304 3.6464723,32.508413 10.951038,44.96 c 1.689007,2.879133 5.849829,7.039955 8.728962,8.728963 2.58426,1.516023 6.44284,2.881159 9.250742,3.272842 2.704869,0.377312 7.149879,0.0681 9.874416,-0.686912 z M 21.355651,46.82464 C 19.929772,46.437459 19.84,45.572371 19.84,32.219046 19.84,19.943623 19.857737,19.58376 20.503226,18.763155 20.978324,18.159165 21.463488,17.92 22.21363,17.92 c 1.923326,0 2.105765,0.541388 2.11127,6.265197 0.0027,2.802142 0.120873,5.27752 0.262618,5.500842 0.198839,0.313274 1.970579,0.386382 7.7551,0.32 L 39.84,29.92 40,24.592398 C 40.180003,18.598785 40.424154,17.92 42.4,17.92 c 2.139453,0 2.098499,-0.281283 2.101747,14.435597 L 44.504627,45.6 43.674448,46.32 c -1.015152,0.880422 -1.768358,0.910214 -2.75904,0.109123 -0.728762,-0.589296 -0.761101,-0.806918 -0.91545,-6.16 L 39.84,34.72 32.52015,34.633891 c -5.130476,-0.06036 -7.451499,0.02315 -7.76,0.279181 -0.34036,0.282474 -0.44015,1.539616 -0.44015,5.54495 0,3.651111 -0.118042,5.334186 -0.4,5.703303 -0.441645,0.578163 -1.689357,0.900909 -2.564349,0.663315 z"
       id="path3894"
       inkscape:connector-curvature="0" />
    <path
       style="fill:#e65647;stroke-width:0.31999999"
       d="M 28.64,59.713181 C 24.901416,59.104448 22.582515,58.357594 19.501487,56.769907 14.167818,54.021408 10.478448,50.229354 7.700047,44.64 6.0431238,41.306742 5.459585,39.378528 4.7785021,34.986218 4.4272912,32.721254 4.4462387,31.931207 4.92048,29.066218 6.0123702,22.469881 8.2317203,17.77971 12.276621,13.520423 15.955709,9.6463376 20.753607,6.8472256 25.92,5.5608237 29.341536,4.7088813 35.690918,4.7877734 39.2,5.7258301 50.94391,8.8652413 59.006358,18.738191 59.724006,30.858702 60.416717,42.558058 53.651402,53.359123 42.812934,57.857837 38.425939,59.678742 32.884061,60.404214 28.64,59.713181 Z M 39.2,56.32215 C 46.092253,54.149744 51.571875,49.526813 54.564218,43.36 57.690342,36.917478 58.056445,30.467269 55.667795,23.916635 54.044848,19.465864 50.776656,15.062958 47.083597,12.352004 42.009136,8.6270067 35.182458,6.8435811 29.16751,7.6715405 23.861655,8.4018934 19.536645,10.440716 15.604386,14.065237 12.857127,16.597496 11.164748,18.848974 9.7441149,21.861523 8.261673,25.005143 7.6693587,27.425902 7.4559642,31.213084 6.7808992,43.19368 15.159998,54.128518 27.04,56.770522 30.246403,57.483597 36.213168,57.263587 39.2,56.32215 Z M 20.689596,46.134803 C 20.214853,45.610218 20.16,44.185034 20.16,32.374803 20.16,19.626667 20.180726,19.179274 20.8,18.56 c 0.352,-0.352 1,-0.64 1.44,-0.64 0.44,0 1.088,0.288 1.44,0.64 0.589486,0.589486 0.64,1.066667 0.64,6.045764 0,4.634152 0.07225,5.433488 0.506172,5.6 0.886349,0.340124 14.212686,0.217366 14.874865,-0.137023 C 40.27552,29.761287 40.32,29.348678 40.32,24.326886 c 0,-5.228398 0.02394,-5.42737 0.711203,-5.908741 1.002461,-0.702151 1.943443,-0.619271 2.753018,0.242479 C 44.474928,19.395849 44.48,19.495648 44.48,32.349421 44.48,46.791744 44.490227,46.72 42.43145,46.72 c -1.929114,0 -2.110842,-0.537981 -2.116349,-6.265197 -0.0026,-2.802141 -0.120842,-5.277472 -0.262551,-5.500729 -0.19894,-0.313434 -2.00248,-0.386349 -7.915097,-0.32 L 24.48,34.72 24.39197,40.14367 c -0.07269,4.47873 -0.178897,5.524084 -0.609596,6 -0.680526,0.751975 -2.408715,0.747018 -3.092782,-0.0089 z"
       id="path3892"
       inkscape:connector-curvature="0" />
    <path
       style="fill:#e64b3b;stroke-width:0.31999999"
       d="M 28,59.379594 C 16.96829,57.508979 8.6341728,49.927123 5.8182141,39.2 4.1188803,32.72655 4.9205571,25.817548 8.0831907,19.68 10.730556,14.542403 15.088996,10.316439 20.387237,7.7499354 21.445637,7.2372394 22.65549,6.717167 23.0758,6.5942189 23.49611,6.4712707 24.632,6.1395654 25.6,5.8570963 28.023632,5.149863 36.551069,5.1383338 39.04,5.8389267 c 5.00849,1.4098039 8.49143,3.3403683 11.934134,6.6149883 3.890276,3.700339 6.318247,7.777088 7.829357,13.146086 0.607328,2.157848 0.743927,11.479293 0.18992,12.96 -0.197552,0.528 -0.544925,1.608 -0.771939,2.4 -0.227018,0.792 -0.531715,1.5768 -0.677114,1.744 -0.145398,0.1672 -0.264358,0.483485 -0.264358,0.702855 0,0.609552 -2.169875,4.206838 -3.81287,6.321091 -2.797568,3.599997 -7.926314,7.112928 -12.66713,8.676349 -2.196845,0.724473 -6.674979,1.431728 -8.8,1.38983 -0.968,-0.01907 -2.768,-0.205622 -4,-0.414531 z m 10.24,-2.589978 c 0.88,-0.24216 1.96,-0.542016 2.4,-0.666342 1.671546,-0.47232 5.675472,-2.815082 7.514259,-4.39672 4.485776,-3.858445 7.058167,-7.839389 8.470032,-13.10794 C 57.3548,35.892646 57.535917,29.662496 56.951597,27.36 55.395962,21.230092 52.724925,16.863368 48.213206,13.074108 45.345187,10.665344 41.585478,8.8237722 37.242874,7.7006474 35.531875,7.2581328 29.091083,7.2611994 27.397126,7.705335 23.199681,8.8058563 20.918936,9.8002381 17.951437,11.823561 16.146691,13.054087 12.86215,16.301772 11.624,18.08 10.705309,19.399421 8.8053018,23.026426 8.522807,24 c -1.1289897,3.890886 -1.2306108,4.57494 -1.2359939,8.32 -0.00547,3.80161 0.131065,4.694762 1.3053709,8.539517 1.1022899,3.608973 4.945558,8.834237 8.42786,11.458429 1.923396,1.449433 5.348638,3.312886 7.008522,3.812886 0.424289,0.127805 1.275434,0.382211 1.891434,0.565344 3.143665,0.934586 9.099171,0.979757 12.32,0.09344 z M 20.658145,45.688797 c -0.430409,-0.614493 -0.497503,-2.409389 -0.493428,-13.2 0.0053,-13.941766 0.01627,-14.021833 1.95003,-14.184977 0.681749,-0.05752 1.286682,0.08052 1.504843,0.34339 0.234166,0.282153 0.396254,2.436652 0.452611,6.01618 L 24.16,30.24 l 7.977581,0.08572 c 6.168809,0.06628 8.035971,-0.0063 8.235101,-0.32 0.141635,-0.223144 0.259724,-2.788916 0.262419,-5.701716 0.0034,-3.6866 0.121593,-5.412694 0.388899,-5.68 0.630973,-0.630972 2.42528,-0.474068 2.810525,0.245769 0.471821,0.881607 0.463123,26.035108 -0.0093,26.917857 -0.278384,0.52016 -0.609207,0.628051 -1.685783,0.549769 L 40.8,46.24 40.64,40.64 c -0.088,-3.08 -0.276499,-5.78 -0.418886,-6 -0.195424,-0.301949 -2.167668,-0.4 -8.045764,-0.4 -6.805417,0 -7.811359,0.0638 -7.981114,0.506173 C 24.087406,35.024566 24,37.587766 24,40.442173 c 0,3.609865 -0.116903,5.306729 -0.384,5.573827 -0.65867,0.658669 -2.402434,0.465773 -2.957855,-0.327203 z"
       id="path3890"
       inkscape:connector-curvature="0" />
  </g>
</svg>
