<?xml version="1.0" encoding="UTF-8" standalone="no"?>
<!-- Created with Inkscape (http://www.inkscape.org/) -->

<svg
   xmlns:dc="http://purl.org/dc/elements/1.1/"
   xmlns:cc="http://creativecommons.org/ns#"
   xmlns:rdf="http://www.w3.org/1999/02/22-rdf-syntax-ns#"
   xmlns:svg="http://www.w3.org/2000/svg"
   xmlns="http://www.w3.org/2000/svg"
   xmlns:sodipodi="http://sodipodi.sourceforge.net/DTD/sodipodi-0.dtd"
   xmlns:inkscape="http://www.inkscape.org/namespaces/inkscape"
   version="1.1"
   id="svg3809"
   width="64"
   height="64"
   viewBox="0 0 64 64"
   sodipodi:docname="drone_h.svg"
   inkscape:version="0.92.4 (5da689c313, 2019-01-14)">
  <metadata
     id="metadata3815">
    <rdf:RDF>
      <cc:Work
         rdf:about="">
        <dc:format>image/svg+xml</dc:format>
        <dc:type
           rdf:resource="http://purl.org/dc/dcmitype/StillImage" />
        <dc:title></dc:title>
      </cc:Work>
    </rdf:RDF>
  </metadata>
  <defs
     id="defs3813" />
  <sodipodi:namedview
     pagecolor="#ffffff"
     bordercolor="#666666"
     borderopacity="1"
     objecttolerance="10"
     gridtolerance="10"
     guidetolerance="10"
     inkscape:pageopacity="0"
     inkscape:pageshadow="2"
     inkscape:window-width="1920"
     inkscape:window-height="1017"
     id="namedview3811"
     showgrid="false"
     inkscape:zoom="3.6875"
     inkscape:cx="32"
     inkscape:cy="32"
     inkscape:window-x="1912"
     inkscape:window-y="-8"
     inkscape:window-maximized="1"
     inkscape:current-layer="svg3809" />
  <g
     id="g3819"
     transform="translate(0.27118654,0.27118673)">
    <path
       style="fill:#fefefe;stroke-width:0.31999999"
       d="M 0,32 V 0 H 32 64 V 32 64 H 32 0 Z"
       id="path3835"
       inkscape:connector-curvature="0" />
    <path
       style="fill:#f1f2f3;stroke-width:0.31999999"
       d="M 26.4,60.333587 C 25.696,60.104848 24.472,59.724042 23.68,59.487347 17.694912,57.698678 11.057356,52.423168 7.8176586,46.88 6.7341478,45.026099 4.8009168,40.428173 4.7980285,39.698224 4.7969405,39.424202 4.5809443,38.787539 4.3180285,38.283421 3.9527354,37.583005 3.84,36.172454 3.84,32.302307 3.84,29.516812 3.9729213,27.155621 4.1353802,27.055216 4.2978394,26.954811 4.5255011,26.406312 4.6412947,25.83633 5.6244765,20.996732 8.4580525,16.092686 12.63598,12 16.418942,8.2942202 19.363437,6.7018022 26.762948,4.3599683 28.883437,3.6888656 35.712726,3.6394986 37.589302,4.2817078 38.299187,4.524647 39.888,5.0415648 41.12,5.4304134 c 7.233613,2.2831021 13.52328,7.8441906 16.78153,14.8375976 1.667363,3.578782 1.93816,4.291491 1.940441,5.107046 9.6e-4,0.387719 0.217085,1.117403 0.48,1.621521 0.361331,0.692821 0.478029,2.074827 0.478029,5.661115 0,2.609494 -0.132922,4.826685 -0.295379,4.927091 -0.162461,0.100406 -0.390122,0.648902 -0.505917,1.218886 -0.361149,1.777725 -1.476122,4.743959 -2.483888,6.608052 C 53.441338,52.946557 47.381661,57.652717 38.371875,60.278813 36.13631,60.930416 28.346582,60.966054 26.4,60.333587 Z"
       id="path3833"
       inkscape:connector-curvature="0" />
    <path
       style="fill:#b5bcc3;stroke-width:0.31999999"
       d="m 28.750848,60.644182 c -0.0857,-0.0857 -1.523756,-0.502825 -3.195679,-0.926944 C 15.591238,57.18968 8.1376314,49.882941 4.9132118,39.482019 4.1427232,36.996672 4.0321498,36.11792 4.0321498,32.48 c 0,-3.634488 0.111678,-4.523816 0.8840512,-7.04 C 7.7065011,16.349956 13.303497,9.8845718 21.343296,6.4641974 27.535751,3.8297392 33.164506,3.325839 38.72,4.9085914 49.267891,7.9136704 56.51656,14.922676 59.358883,24.865092 c 0.442599,1.5482 0.957107,3.110622 1.143354,3.472051 0.204198,0.396264 0.288246,2.111258 0.211718,4.319999 C 60.420256,41.133798 56.172362,49.494384 49.577542,54.575517 44.606579,58.405507 37.786746,60.8 31.849372,60.8 c -1.618488,0 -3.012824,-0.07012 -3.098524,-0.155818 z M 39.034774,55.682723 C 47.20488,53.340938 53.371696,47.011283 55.716989,38.56 c 0.962659,-3.468954 0.96711,-8.837869 0.0103,-12.41175 C 54.584,21.877912 52.764922,18.819713 49.28848,15.323468 46.629066,12.648902 45.832877,12.056834 43.194688,10.79194 39.097181,8.8273674 36.508896,8.2323226 32.16,8.255071 28.023505,8.2767085 24.871225,8.992063 21.556438,10.661363 15.543244,13.689559 11.323719,18.572164 9.223583,24.932273 8.3015731,27.724512 8.2091165,28.373576 8.1940192,32.16 c -0.013594,3.409283 0.115496,4.621981 0.7153306,6.72 2.5291262,8.846035 10.1657422,15.83487 19.0467842,17.43113 2.648932,0.476112 8.354192,0.152496 11.07864,-0.628407 z M 21.202741,47.189334 C 20.656949,46.959846 20.055054,46.48183 19.865196,46.127078 19.634184,45.695427 19.52,41.091773 19.52,32.209485 V 18.936892 l 0.984552,-0.828446 c 1.244305,-1.047014 2.224429,-1.048833 3.463259,-0.0064 l 0.976914,0.82202 0.08764,5.277174 0.08764,5.277175 7.116483,0.06081 c 5.674029,0.04848 7.149626,-0.02557 7.28,-0.365366 0.08993,-0.234395 0.168096,-2.610395 0.173693,-5.28 0.01062,-5.063671 0.117347,-5.511126 1.488787,-6.241558 1.126919,-0.600201 2.007274,-0.435265 3.005651,0.563115 L 45.12,19.150769 v 13.155874 c 0,14.399523 0.0083,14.333184 -1.883568,14.992707 -0.96488,0.336359 -2.451699,-0.113804 -3.148355,-0.953225 -0.265079,-0.319399 -0.420186,-2.171146 -0.479875,-5.729034 L 39.52,35.36 h -7.2 -7.2 l -0.16,5.312147 c -0.111498,3.701818 -0.286888,5.464634 -0.578577,5.815171 -0.722248,0.867962 -2.074002,1.1665 -3.178682,0.702016 z"
       id="path3831"
       inkscape:connector-curvature="0" />
    <path
       style="fill:#9aa4ae;stroke-width:0.31999999"
       d="M 30.72,60.574298 C 26.935922,59.91896 23.620628,59.060589 21.559426,58.202509 15.15906,55.538029 9.581496,50.104496 6.7559603,43.781315 5.4884582,40.944813 3.84,34.545286 3.84,32.461187 3.84,30.546514 5.3889501,24.191945 6.4822624,21.621303 9.0099491,15.678099 13.68193,10.560588 19.171539,7.7219507 22.283226,6.1129197 23.937299,5.5672275 28.56,4.6246202 l 3.76,-0.7666954 3.76,0.7665011 c 2.068,0.4215757 4.73983,1.122512 5.937398,1.5576362 6.679568,2.426951 12.695469,8.0597249 15.741437,14.7389329 1.468839,3.220872 3.133783,10.054072 2.960298,12.149549 -0.170103,2.054608 -1.569667,7.460067 -2.545664,9.831952 -3.261395,7.92592 -10.303248,14.209315 -18.403879,16.421642 -1.972764,0.538774 -7.314032,1.499779 -7.92959,1.426697 -0.176,-0.0209 -0.68,-0.100336 -1.12,-0.176537 z m 5.12,-3.947453 C 45.300458,55.133542 52.623578,48.835907 55.73247,39.52 c 0.659204,-1.975325 0.74546,-2.82607 0.730013,-7.2 -0.01587,-4.495327 -0.09755,-5.199831 -0.871811,-7.52 C 53.494234,18.517768 48.535059,12.955419 42.56,10.184436 38.920054,8.4963811 37.281699,8.1735264 32.32,8.1665366 28.350963,8.1609453 27.33295,8.2677136 25.28,8.904887 15.568417,11.919067 8.9499421,20.144658 7.8176128,30.607536 c -0.4417043,4.081411 1.0788646,10.489978 3.4069352,14.358816 1.48902,2.474486 4.434929,5.63832 6.863726,7.371472 3.185498,2.273123 5.856757,3.32743 11.191726,4.417203 1.262097,0.257808 4.517658,0.194195 6.56,-0.128182 z M 20.64582,46.64 l -0.829868,-0.72 0.0024,-13.409123 c 0.0024,-13.381607 0.0038,-13.410661 0.707804,-14.159999 0.931209,-0.991226 2.488329,-0.999921 3.409819,-0.01904 0.637337,0.678414 0.693969,1.11642 0.775781,6 L 24.8,29.6 l 7.44,0.0859 7.44,0.0859 v -4.98179 c 0,-3.746408 0.116096,-5.206291 0.468163,-5.887119 0.764554,-1.478483 2.39432,-1.752199 3.808682,-0.639661 L 44.8,18.926451 44.789824,32.263226 c -0.01072,14.048889 0.0013,13.930931 -1.488787,14.724505 -1.024803,0.545811 -1.560426,0.462413 -2.563194,-0.399104 L 39.84,45.817254 39.68,40.428627 39.52,35.04 32.342765,34.953725 c -5.528311,-0.06645 -7.236481,0.0071 -7.435101,0.32 -0.141825,0.223453 -0.260069,2.681152 -0.262764,5.461555 -0.0049,5.052899 -0.0053,5.055648 -0.851627,5.84 -1.054028,0.976838 -2.072021,0.997773 -3.147453,0.06472 z"
       id="path3829"
       inkscape:connector-curvature="0" />
    <path
       style="fill:#788593;stroke-width:0.31999999"
       d="M 29.551543,60.15049 C 21.846423,59.113997 15.224876,55.527437 10.64854,49.911677 7.2313754,45.718368 4.6390826,38.972048 4.2577718,33.28 4.0644762,30.394563 5.1760525,25.017176 6.7118464,21.408113 9.3330723,15.248324 14.294869,10.157447 20.578852,7.1803619 34.307347,0.67638323 50.854598,6.6649894 57.433568,20.518431 58.65721,23.09507 60.031232,28.124466 60.351757,31.2 c 0.207357,1.98968 -0.597379,6.807827 -1.670259,10.000224 -3.155674,9.389837 -11.1561,16.469488 -20.852772,18.452813 -3.06424,0.626752 -6.003037,0.803369 -8.277183,0.497453 z M 36.86425,56.613715 C 50.881568,53.75128 59.613235,39.996624 56.145952,26.24 54.1384,18.27494 47.50208,11.331095 39.52,8.8436061 30.48338,6.0274861 20.782539,8.6782662 14.224863,15.755569 2.4739767,28.437589 7.2309638,49.002528 23.388584,55.371267 c 3.756077,1.480506 9.649166,2.023847 13.475666,1.242448 z M 20.53578,46.299376 C 19.84472,45.563776 19.84,45.469584 19.84,32.414826 19.84,20.04937 19.87546,19.227107 20.438771,18.531451 20.866089,18.003735 21.371358,17.792 22.203342,17.792 c 2.10699,0 2.25623,0.405364 2.436658,6.618391 L 24.8,29.92 l 7.337312,0.08615 c 5.656416,0.06642 7.396365,-0.0069 7.595098,-0.32 0.141785,-0.223385 0.259996,-2.680701 0.262691,-5.460701 0.0048,-4.936809 0.0232,-5.072841 0.790355,-5.84 0.870358,-0.87036 1.471741,-0.969137 2.515581,-0.413184 1.488365,0.792708 1.478067,0.692806 1.488787,14.442274 L 44.8,45.469091 44.014544,46.254544 c -0.980698,0.980701 -2.518822,1.04425 -3.297677,0.136253 C 40.251846,45.848669 40.13361,44.85905 40,40.390797 L 39.84,35.04 H 32.32 24.8 l -0.16,5.327603 c -0.139747,4.653223 -0.237164,5.412714 -0.769596,6 -0.833928,0.91984 -2.437198,0.887037 -3.334624,-0.06823 z"
       id="path3827"
       inkscape:connector-curvature="0" />
    <path
       style="fill:#697887;stroke-width:0.31999999"
       d="M 27.2,59.68855 C 14.235762,56.958934 5.2336467,46.515754 4.5735155,33.44 4.1055267,24.170167 8.977033,14.583782 16.740662,9.4968995 20.976035,6.7218006 24.177094,5.5394474 29.52,4.7766838 35.952109,3.8584243 44.00895,6.303752 49.840685,10.944203 c 2.62104,2.085623 5.504,5.682861 7.101251,8.860638 1.853418,3.687433 3.218064,9.022016 3.218064,12.579844 0,2.642182 -1.146765,7.889085 -2.344093,10.725139 C 54.437504,51.112096 47.630336,57.00439 39.2,59.223776 c -3.254026,0.856659 -9.069054,1.081882 -12,0.464774 z m 11.45175,-3.395529 c 2.917754,-0.74184 6.664967,-2.674503 9.260221,-4.776051 C 58.054653,43.303766 59.983002,28.063867 52.183338,17.76 45.509421,8.9433155 34.427062,5.490775 24.168661,9.0324515 16.419746,11.707737 10.616786,18.029389 8.3278944,26.289131 7.4376986,29.50151 7.4318685,35.08744 8.3151072,38.540867 c 0.9159034,3.581149 3.2563958,7.820455 5.8568578,10.608458 6.36704,6.826221 15.381719,9.456886 24.479785,7.143696 z M 20.625454,46.254544 19.84,45.469091 V 32.537699 c 0,-12.597796 0.01711,-12.953141 0.663226,-13.774544 0.829806,-1.054928 2.477089,-1.153097 3.340468,-0.199073 0.517765,0.572124 0.576255,1.20671 0.523528,5.68 -0.03265,2.769755 0.06155,5.218635 0.209327,5.441957 0.207143,0.313035 1.985972,0.386331 7.766069,0.32 L 39.84,29.92 40,24.373534 c 0.144704,-5.01624 0.219382,-5.589823 0.781162,-6 0.925484,-0.675733 2.537132,-0.566753 3.249241,0.219715 0.573527,0.633412 0.615427,1.405004 0.708154,13.04 0.106691,13.387913 -0.0036,14.564005 -1.416563,15.101202 -1.147572,0.436304 -1.553002,0.384867 -2.406544,-0.305328 C 40.186688,45.839827 40.154349,45.622205 40,40.269123 L 39.84,34.72 32.414397,34.634138 c -7.206557,-0.08333 -7.435976,-0.06648 -7.777199,0.571097 -0.22187,0.414567 -0.325766,2.501482 -0.281591,5.656157 0.068,4.85609 0.04916,5.016077 -0.658252,5.588902 -1.001407,0.81089 -2.137667,0.738484 -3.071901,-0.19575 z"
       id="path3825"
       inkscape:connector-curvature="0" />
    <path
       style="fill:#4d6072;stroke-width:0.31999999"
       d="M 29.6,59.949782 C 29.248,59.874992 27.845942,59.599709 26.484316,59.338035 15.560431,57.238726 6.991841,48.155062 4.9892918,36.550906 4.3249302,32.701133 4.3461754,31.456918 5.1442701,27.474579 7.3301565,16.567431 14.545883,8.7265818 25.187679,5.6947405 27.245172,5.1085626 28.489528,4.98468 32.32,4.98468 c 5.374397,0 8.01768,0.5847584 12.277283,2.7160358 3.346944,1.6746314 5.14776,3.0369862 7.875997,5.9583522 4.00583,4.289405 6.200714,8.96974 7.213021,15.380932 0.473974,3.001802 0.475088,3.549283 0.01315,6.454893 -0.664183,4.177657 -1.553066,7.018989 -3.103655,9.920893 -3.227465,6.04015 -8.589593,10.688182 -14.943571,12.953475 -3.731283,1.330262 -9.604803,2.100512 -12.052221,1.580521 z m 9.388365,-3.624201 C 50.52112,53.066928 58.298064,41.571846 56.96017,29.761497 56.563005,26.255506 55.917446,24.098589 54.373798,21.12 50.041306,12.760135 41.776518,7.6695696 32.48,7.6348627 25.258172,7.6079011 19.03741,10.271442 14.170111,15.474601 11.637664,18.181795 9.893416,21.152274 8.6003418,24.96 7.6493088,27.760514 7.5672493,28.327717 7.558688,32.16 7.551158,35.53105 7.6861907,36.802074 8.2706976,38.861891 10.186328,45.612627 14.719943,51.225395 20.8,54.373587 c 2.395742,1.24049 5.881546,2.416272 8,2.698445 2.364794,0.314986 7.855526,-0.08729 10.188365,-0.746451 z M 21.76,46.786163 C 21.496,46.70384 21.028,46.41696 20.72,46.148646 20.203383,45.698602 20.16,44.624858 20.16,32.28855 V 18.916291 l 0.711202,-0.498146 c 0.884813,-0.619747 1.857541,-0.636057 2.667636,-0.04473 0.561788,0.410077 0.636456,0.98359 0.781162,6 l 0.16,5.546584 7.657453,0.08593 c 5.912617,0.06635 7.716157,-0.0066 7.915097,-0.32 0.141709,-0.22326 0.259856,-2.723609 0.262551,-5.556331 0.0044,-4.579474 0.06977,-5.209111 0.590096,-5.68 0.793779,-0.718359 2.157334,-0.667064 2.934803,0.110404 0.61913,0.619131 0.64,1.066667 0.64,13.72455 0,11.997732 -0.04651,13.139146 -0.56,13.741876 -0.814003,0.955478 -2.244307,1.043552 -3.097142,0.190716 C 40.406832,45.801117 40.32,44.813258 40.32,40.496326 c 0,-4.037052 -0.09958,-5.300608 -0.440013,-5.583139 -0.308768,-0.256256 -2.671113,-0.339529 -7.92,-0.279184 L 24.48,34.72 24.39197,40.14367 c -0.07051,4.344212 -0.186087,5.532029 -0.580725,5.9681 -0.568437,0.628115 -1.362465,0.889171 -2.051249,0.674393 z"
       id="path3823"
       inkscape:connector-curvature="0" />
    <path
       style="fill:#33485d;stroke-width:0.31999999"
       d="M 27.36,59.354662 C 20.154713,58.016224 13.679872,53.831565 9.6293942,47.895456 8.4252144,46.130691 6.2607475,41.587181 5.9443277,40.16 4.7299162,34.682518 4.5897731,32.206976 5.2649955,28.16 6.7385658,19.328093 11.594249,12.395264 19.2,8.2639309 23.500639,5.9278867 26.398799,5.2784688 32.48,5.2881571 c 4.662224,0.00743 5.355354,0.084439 7.752304,0.8613341 3.451603,1.1187267 4.577875,1.6579946 7.402528,3.5443878 5.290938,3.533459 8.966202,8.54585 10.959024,14.946121 0.657715,2.112359 0.748227,3.051985 0.75521,7.84 0.0071,4.838048 -0.07392,5.687862 -0.73178,7.68 -2.611161,7.907107 -7.304643,13.420582 -14.297286,16.795146 -1.76,0.849356 -3.632,1.634774 -4.16,1.745376 -5.956131,1.247638 -8.817721,1.393878 -12.8,0.65414 z M 37.44,56.904208 C 41.23361,55.999277 43.129472,55.179843 46.252208,53.09537 53.166154,48.480211 57.279901,40.718797 57.26369,32.32 57.248362,24.38068 53.793562,17.397883 47.539258,12.665103 42.508864,8.8584877 38.076784,7.3486144 32.000118,7.371399 20.580763,7.4142157 10.594278,15.468655 7.8119267,26.88 7.1355053,29.654228 7.2358314,35.708416 8.005841,38.581795 10.76736,48.886726 19.781607,56.51424 30.24,57.395494 c 1.858768,0.156628 5.53561,-0.09426 7.2,-0.491286 z m -16,-10.421386 C 20.215005,46.00648 20.18063,45.627174 20.170177,32.471203 20.158836,18.196654 20.152671,18.24 22.194145,18.24 23.922054,18.24 24,18.503503 24,24.344818 c 0,4.137123 0.09888,5.418883 0.439881,5.701886 0.309022,0.256466 2.712707,0.339519 8.080001,0.279182 L 40.16,30.24 40.32,24.767897 c 0.181101,-6.193732 0.327379,-6.622507 2.205254,-6.464077 1.962848,0.165598 1.96633,0.192393 1.87576,14.444695 L 44.32,45.497034 43.540234,46.128205 c -0.535805,0.433702 -1.036394,0.569475 -1.6,0.433971 C 40.442733,46.202138 40.32,45.703014 40.32,39.973075 40.32,35.394694 40.24743,34.600627 39.813827,34.434237 39.535434,34.327405 36.012499,34.24 31.985087,34.24 c -6.912104,0 -7.341138,0.03469 -7.653828,0.618963 C 24.141097,35.214282 24,37.739235 24,40.786883 v 5.308957 l -0.820832,0.31208 C 22.277376,46.750781 22.14388,46.756531 21.44,46.48282 Z"
       id="path3821"
       inkscape:connector-curvature="0" />
  </g>
</svg>
