<?xml version="1.0" encoding="UTF-8" standalone="no"?>
<svg
   xmlns:dc="http://purl.org/dc/elements/1.1/"
   xmlns:cc="http://creativecommons.org/ns#"
   xmlns:rdf="http://www.w3.org/1999/02/22-rdf-syntax-ns#"
   xmlns:svg="http://www.w3.org/2000/svg"
   xmlns="http://www.w3.org/2000/svg"
   viewBox="0 0 266.66666 266.66666"
   height="266.66666"
   width="266.66666"
   id="svg21"
   version="1.1">
  <metadata
     id="metadata27">
    <rdf:RDF>
      <cc:Work
         rdf:about="">
        <dc:format>image/svg+xml</dc:format>
        <dc:type
           rdf:resource="http://purl.org/dc/dcmitype/StillImage" />
        <dc:title></dc:title>
      </cc:Work>
    </rdf:RDF>
  </metadata>
  <defs
     id="defs25" />
  <g
     
     id="g3734">
    <path
       id="path3750"
       d="M 0,133.33333 V 0 H 133.33333 266.66666 V 133.33333 266.66666 H 133.33333 0 Z"
       style="fill:#fefefe;stroke-width:1.33333325" />
    <path
       id="path3748"
       d="M 36.776928,263.12774 C 20.841634,256.44926 11.699019,247.94778 4.8035161,233.39649 c -3.88164862,-8.1913 -4.13671157,-9.67574 -4.13461449,-24.06316 0.002143,-14.69699 0.18156797,-15.67679 4.32338999,-23.60895 5.6329594,-10.7879 11.2310864,-17.04626 20.7750194,-23.22521 13.205073,-8.54925 31.19331,-11.04943 45.826993,-6.36948 4.766213,1.52427 4.711578,2.72923 -0.475656,10.49053 l -3.087912,4.62023 -11.682036,0.0675 c -9.98412,0.0577 -12.650994,0.58013 -18.348701,3.59409 -13.977309,7.39372 -21.261183,19.41795 -21.261183,35.09798 0,26.7024 24.644495,44.93458 50.556209,37.40184 6.204824,-1.8038 9.306598,-3.79172 15.340009,-9.8314 8.827084,-8.83626 12.03163,-16.54281 12.03163,-28.93464 0,-6.16268 0.584523,-8.73501 2.333334,-10.26835 3.150032,-2.76195 11.092912,-6.71898 11.888982,-5.92291 0.35264,0.35264 1.31109,4.5522 2.1299,9.33234 5.64688,32.96628 -22.325412,65.16483 -56.2717,64.77362 -7.527127,-0.0868 -12.07898,-0.95372 -17.970252,-3.42275 z m 155.085882,-0.32457 c -10.62112,-4.4343 -14.97139,-7.42471 -22.18413,-15.24963 -12.23642,-13.27492 -17.29264,-31.45475 -13.57262,-48.80064 l 1.4394,-6.71169 4.22727,2.13536 C 170.18805,198.42748 172,201.11186 172,209.32823 c 0,11.70136 3.34006,19.5416 12.03162,28.2422 6.03342,6.03968 9.13519,8.0276 15.34002,9.8314 25.91171,7.53274 50.55621,-10.69944 50.55621,-37.40184 0,-15.67563 -7.27342,-27.68642 -21.26119,-35.10917 -5.83296,-3.09532 -8.22132,-3.53897 -19.09829,-3.54761 l -12.43161,-0.009 -3.22822,-5.33334 c -4.22313,-6.97702 -4.0888,-8.18886 1.09146,-9.84642 14.70439,-4.70508 32.66615,-2.22186 45.89935,6.3456 9.54394,6.17894 15.14206,12.4373 20.77502,23.22521 4.14182,7.93216 4.32125,8.91196 4.32338,23.60894 0.003,14.38743 -0.25296,15.87187 -4.13461,24.06316 -7.01117,14.7954 -16.14085,23.17324 -32.49407,29.81815 -11.92958,4.84743 -25.26033,4.70117 -37.50626,-0.41147 z M 43.884147,230.2939 c -9.636191,-6.49383 -13.027612,-18.87855 -7.914333,-28.9014 3.277385,-6.42421 7.790212,-9.64273 17.929847,-12.78744 4.344815,-1.3475 10.578727,-4.49498 13.853137,-6.9944 l 5.953475,-4.54438 8.137522,8.13752 c 7.093825,7.09382 7.922493,8.43628 6.460971,10.46686 -5.149583,7.15463 -7.234836,11.14341 -9.718743,18.59055 -1.515489,4.54365 -3.900998,9.71754 -5.301131,11.49753 -6.13456,7.79883 -21.126247,10.11135 -29.400745,4.53516 z m 153.405673,-0.1288 c -5.26096,-3.57491 -6.80616,-6.10993 -10.66352,-17.49436 -1.4901,-4.39777 -4.4906,-10.2126 -6.66778,-12.92181 C 177.78133,197.03966 176,194.31906 176,193.7031 c 0,-0.61594 3.5862,-4.66869 7.96932,-9.00608 l 7.96932,-7.88617 3.03068,2.77744 c 3.59401,3.29369 11.61938,7.39676 19.03067,9.72963 12.29447,3.86996 18.7777,12.78609 17.67112,24.30239 -0.70356,7.3221 -3.73392,12.2277 -10.32422,16.71302 -6.26907,4.26669 -17.64756,4.18709 -24.05707,-0.16828 z m -111.626439,-49.16537 -8.259582,-8.33367 3.24184,-6.77382 c 4.493052,-9.38831 6.196977,-17.9741 6.196977,-31.22558 0,-12.69413 -1.600682,-21.28535 -5.772734,-30.98355 l -2.825927,-6.569044 8.603496,-8.603496 8.603495,-8.603496 6.281894,2.778781 c 7.10182,3.141471 23.86002,6.647476 31.774,6.647476 7.77185,0 24.92054,-3.823732 30.9547,-6.90213 l 5.261,-2.683963 8.62914,8.629136 8.62914,8.629136 -3.64885,9.12068 c -6.75221,16.87788 -6.10199,44.11262 1.42951,59.87381 l 3.18566,6.66666 -8.58378,8.59787 -8.58379,8.59787 -5.97409,-2.9836 c -17.52402,-8.75192 -46.5376,-8.8515 -63.46101,-0.21782 -2.88103,1.46979 -5.729474,2.67235 -6.329872,2.67235 -0.6004,0 -4.808447,-3.75015 -9.351217,-8.33365 z M 148,124 v -6.66667 h -14.44444 c -7.94445,0 -14.70214,0.25769 -15.01709,0.57264 -0.31496,0.31496 -0.35454,3.31495 -0.088,6.66667 l 0.48467,6.09402 H 133.46758 148 Z M 41.265428,110.98114 C 25.259445,106.65188 13.216357,96.698054 5.0391039,81.039441 0.80614381,72.93375 0.66666665,72.156278 0.66666665,56.666665 c 0,-15.453378 0.1477035,-16.282726 4.32339005,-24.275612 C 12.638665,17.750476 21.381267,9.9194107 37.297592,3.4520288 56.975607,-4.5438646 80.397619,1.4116798 96.351587,18.467762 c 12.857023,13.745201 18.006843,31.73733 14.184903,49.558407 -0.80493,3.753251 -2.27193,7.134313 -3.26,7.51347 -0.98807,0.379159 -4.41127,-1.109637 -7.607112,-3.308434 l -5.810623,-3.997815 0.551533,-8.661661 c 0.818463,-12.85372 -2.345586,-21.053693 -11.754223,-30.46233 -6.050006,-6.050005 -9.156404,-8.04083 -15.36104,-9.844567 -25.911714,-7.53274 -50.556209,10.699429 -50.556209,37.401833 0,15.692617 7.313634,27.754961 21.261183,35.065971 5.412928,2.837343 8.672649,3.53422 17.333333,3.705596 l 10.666666,0.21107 4.333334,5.612328 c 2.383333,3.08679 4.333333,6.18055 4.333333,6.87502 0,4.33189 -21.22067,6.13907 -33.401237,2.84449 z m 161.401232,1.42964 c -5.8323,-0.97879 -12,-3.24569 -12,-4.41053 0,-0.61946 1.95,-3.67603 4.33334,-6.79238 l 4.33333,-5.666102 11.33333,-0.13952 c 9.5004,-0.11696 12.41153,-0.707564 18,-3.651829 13.96405,-7.35691 21.26119,-19.398131 21.26119,-35.083754 0,-26.702404 -24.6445,-44.934573 -50.55621,-37.401833 -6.20464,1.803737 -9.31104,3.794562 -15.36104,9.844567 -9.14407,9.144068 -12.37403,17.274423 -11.86058,29.855134 l 0.34147,8.366735 -5.75259,4.387642 c -3.16392,2.413203 -6.4245,4.169072 -7.24574,3.901933 -0.82124,-0.26714 -2.19488,-3.141114 -3.05252,-6.38661 -4.53935,-17.177673 0.82877,-36.8196 13.87444,-50.766471 15.95396,-17.0560822 39.37597,-23.0116266 59.05399,-15.0157332 16.35322,6.6449102 25.4829,15.0227402 32.49407,29.8181482 3.88165,8.191282 4.13672,9.67573 4.13461,24.063155 -0.003,14.696982 -0.18156,15.676781 -4.32338,23.608946 -2.37664,4.551588 -6.27563,10.507812 -8.66443,13.236053 -11.74173,13.410189 -33.06392,21.132279 -50.34328,18.232449 z M 68.764193,88.077503 C 66.049493,85.920131 61.01699,83.179614 57.580853,81.987465 41.050187,76.252241 35.152639,70.848388 33.713391,60.117989 32.760955,53.017053 35.320987,46.205759 40.725967,41.460124 54.971941,28.951991 71.940022,35.05221 78.586518,55.071423 c 1.656471,4.989283 5.107055,11.816402 7.667963,15.171375 l 4.656198,6.099952 -7.746936,7.828624 c -4.260814,4.305742 -8.133216,7.828624 -8.605334,7.828624 -0.472119,0 -3.079516,-1.765123 -5.794216,-3.922495 z m 113.317127,-3.995328 -7.8352,-7.917822 3.87693,-4.427649 c 3.8468,-4.393214 6.17132,-9.126804 10.55911,-21.502247 4.1289,-11.645271 17.42027,-18.067734 28.13041,-13.592759 13.59501,5.680362 18.85206,18.947917 12.46697,31.463723 -3.1124,6.100825 -8.29913,9.684249 -18.19341,12.569509 -3.80262,1.10888 -9.65782,4.110653 -13.01153,6.670606 -3.35372,2.559954 -6.56127,4.654462 -7.12788,4.654462 -0.5666,0 -4.55604,-3.56302 -8.8654,-7.917823 z"
       style="fill:#f8d3cf;stroke-width:1.33333325" />
    <path
       id="path3746"
       d="M 37.083672,262.75761 C 24.45825,257.4885 16.339914,251.19437 9.7516792,241.56714 1.989446,230.22437 -0.44994055,221.25513 0.24936267,206.62859 0.71689636,196.84972 1.5017338,193.581 5.1724485,186.12472 10.749682,174.79574 20.174017,165.39496 31.593529,159.76966 c 7.755503,-3.8204 10.662642,-4.50224 20.938819,-4.91101 12.444702,-0.49504 22.134317,1.37041 22.134317,4.26131 0,0.92377 -1.578477,4.11396 -3.507728,7.0893 l -3.507727,5.40972 -8.980585,-0.64254 c -13.175666,-0.94272 -21.339135,2.1454 -30.872259,11.67852 -5.761656,5.76166 -8.065533,9.25922 -9.679836,14.69517 -4.695901,15.81281 -1.564658,28.7504 9.679836,39.9949 9.494456,9.49446 17.710377,12.62026 30.723951,11.68914 14.561851,-1.0419 25.610472,-8.37995 32.064775,-21.29615 3.441874,-6.8878 4.079572,-9.6984 4.079572,-17.98036 v -9.8164 l 6.264486,-3.97281 c 3.44546,-2.18505 6.74324,-3.49407 7.32839,-2.90891 0.58515,0.58515 1.7126,4.57299 2.50544,8.86188 2.98967,16.17257 -3.29763,34.81455 -16.008929,47.46684 -16.34193,16.26607 -38.450876,21.39125 -57.672379,13.36935 z M 196,264.10903 c -17.1783,-6.5959 -28.81746,-16.39514 -34.9705,-29.44237 -4.14549,-8.79031 -6.87801,-22.6792 -5.75334,-29.24317 2.43164,-14.19189 2.55434,-14.27983 11.12784,-7.97481 l 5.596,4.11534 v 9.00503 c 0,20.754 15.23686,36.9692 36.14434,38.46512 13.01357,0.93112 21.22949,-2.19468 30.72395,-11.68914 11.2445,-11.2445 14.37574,-24.18209 9.67984,-39.9949 -1.61431,-5.43595 -3.91818,-8.93351 -9.67984,-14.69517 -9.71636,-9.71636 -17.71031,-12.66246 -31.5237,-11.61775 l -9.57038,0.7238 -3.55377,-5.48073 c -1.95458,-3.0144 -3.55378,-6.18266 -3.55378,-7.04056 0,-2.77322 11.27375,-4.86666 23.57229,-4.37716 10.16004,0.40437 13.09848,1.09646 20.83418,4.9071 11.41952,5.6253 20.84385,15.02608 26.42108,26.35506 3.67072,7.45628 4.45556,10.725 4.92309,20.50387 0.69968,14.63458 -1.73869,23.58968 -9.52575,34.98406 C 243.41007,261.33935 215.57211,271.62409 196,264.10903 Z M 45.532314,231.07137 c -8.660922,-4.26728 -13.960223,-17.02806 -10.9098,-26.27092 2.464572,-7.46773 7.758769,-12.04709 17.782242,-15.38127 4.989284,-1.6596 11.823194,-5.11794 15.18647,-7.68518 l 6.115047,-4.66772 8.078834,8.07882 8.078835,8.07884 -4.326973,6.0252 c -2.379836,3.31387 -5.469146,9.34499 -6.865132,13.40249 -3.784319,10.99931 -6.691708,15.1201 -12.730345,18.04335 -6.603847,3.19687 -14.393119,3.34052 -20.409178,0.37639 z m 153.682746,-0.1808 c -5.93485,-3.73218 -9.45894,-8.7538 -11.80374,-16.81966 -1.13099,-3.89045 -4.2258,-10.22738 -6.87735,-14.08206 l -4.821,-7.00849 7.95704,-7.95704 7.95704,-7.95704 6.11505,4.66772 c 3.36328,2.56724 9.92589,5.93588 14.58361,7.48586 10.75248,3.5782 13.74122,5.7108 17.02547,12.14845 4.96575,9.73367 2.01121,21.77311 -6.90047,28.11879 -5.96509,4.24752 -17.59594,4.95004 -23.23565,1.40347 z m -113.668739,-50.00901 -8.376643,-8.45176 2.645185,-4.54824 c 9.760007,-16.78172 9.974525,-50.68168 0.423359,-66.90263 l -2.1714,-3.687732 8.77198,-8.77198 8.77198,-8.77198 5.669298,2.892261 c 7.25886,3.703195 21.16066,6.647529 31.38658,6.647529 9.94878,0 24.75511,-3.059098 31.88843,-6.588385 l 5.40023,-2.671818 8.41381,8.319919 c 5.20588,5.147798 8.15567,9.082458 7.73676,10.31992 -0.37237,1.1 -2.23121,6.404456 -4.13075,11.787686 -5.9347,16.81881 -4.25488,44.25717 3.51672,57.44247 l 2.68979,4.5635 -8.70917,8.70917 -8.70919,8.70919 -5.16921,-2.90526 c -15.95158,-8.96529 -50.33211,-9.09486 -65.32943,-0.24622 -2.429396,1.43337 -4.850116,2.60613 -5.379383,2.60613 -0.529268,0 -4.731793,-3.80329 -9.338946,-8.45177 z M 148,124 v -6.66667 H 132.66666 117.33333 V 124 130.66666 H 132.66666 148 Z M 35.774366,108.82763 C 19.63621,102.18987 6.5706942,88.308588 2.0117661,72.957013 -0.57792337,64.236582 -0.56182865,49.042551 2.0464017,40.259687 10.327054,12.375705 44.803588,-6.8081757 70.018821,2.4375905 c 12.557308,4.6044364 17.329462,7.467435 24.73723,14.8408145 13.012489,12.952085 18.844399,30.661472 15.881629,48.226757 -0.84903,5.033626 -2.07222,9.478693 -2.7182,9.877929 -1.57189,0.971484 -7.978968,-2.432198 -11.127612,-5.91141 C 94.724682,67.187465 94.307403,64.885585 94.531371,57.001841 94.771887,48.535555 94.290104,46.303226 90.65678,39.049016 84.122399,26.002622 73.131852,18.677796 58.522317,17.632489 45.508743,16.701372 37.292822,19.827177 27.798366,29.321633 16.553872,40.566127 13.422629,53.503715 18.11853,69.316528 c 1.614426,5.436359 3.914611,8.928075 9.666667,14.674139 8.96871,8.959371 16.531126,12.009331 29.77729,12.009331 h 9.087451 l 4.008364,5.533382 c 2.204599,3.04336 4.008363,5.98467 4.008363,6.53623 0,2.17154 -8.9542,3.92885 -19.86563,3.89874 -8.90976,-0.0246 -13.153777,-0.72514 -19.026669,-3.14072 z m 159.892294,1.68142 c -4.6303,-1.76534 -4.60396,-3.48171 0.15427,-10.05026 l 3.82093,-5.274644 8.72403,0.555504 c 12.91154,0.822145 21.10114,-2.326698 30.5024,-11.727952 11.2445,-11.244494 14.37574,-24.182082 9.67984,-39.994895 C 245.63867,34.219587 234.27106,22.744834 224.14181,19.380434 205.14782,13.071645 184.88145,21.314526 176.07957,38.928646 172.57653,45.938856 172,48.560865 172,57.482241 V 67.87189 l -6.0112,4.135818 c -3.30618,2.274699 -6.55232,3.801397 -7.21367,3.392658 -2.6412,-1.632351 -4.34617,-18.736581 -2.74693,-27.557141 4.01813,-22.161794 17.09542,-36.779919 40.61964,-45.4056345 19.68297,-7.2172322 46.81649,2.9691063 60.24371,22.6164155 7.78706,11.394373 10.22543,20.349493 9.52575,34.984064 -0.46753,9.778872 -1.25237,13.047598 -4.92309,20.503877 -5.57623,11.326935 -15.00038,20.728723 -26.41772,26.355053 -8.18146,4.03171 -10.22199,4.46249 -22.37284,4.72317 -7.35368,0.15776 -15.02032,-0.34224 -17.03699,-1.11112 z M 67.999998,87.325068 c -3.3,-2.473035 -10.015029,-5.763834 -14.922286,-7.312885 C 42.816679,76.773131 36.987451,71.285404 34.671379,62.684172 32.103157,53.146519 36.873224,42.374891 45.682352,37.819514 c 5.929613,-3.066322 15.855797,-2.734468 21.440045,0.716786 5.62654,3.477394 7.759886,6.640928 10.877601,16.130365 2.721736,8.284192 4.989284,12.35768 9.846374,17.688304 l 3.36066,3.688302 -7.895111,7.978364 c -4.342312,4.388099 -8.213896,7.9382 -8.603519,7.889112 -0.389621,-0.04909 -3.408404,-2.112643 -6.708404,-4.585679 z m 114.100642,-3.223366 -7.81588,-7.898296 4.81277,-5.622649 c 2.64704,-3.092456 5.80485,-8.688223 7.01737,-12.435037 3.89296,-12.029592 6.04883,-15.462602 11.8424,-18.857861 10.39236,-6.090324 22.37281,-3.921392 29.42728,5.327491 9.46136,12.404471 2.96296,29.93774 -12.83467,34.629131 -7.38745,2.193836 -13.70713,5.336882 -19.34243,9.619801 -2.26923,1.724644 -4.388,3.135716 -4.7084,3.135716 -0.32042,0 -4.09971,-3.554234 -8.39844,-7.898296 z"
       style="fill:#f6c1bc;stroke-width:1.33333325" />
    <path
       id="path3744"
       d="M 38.907271,263.36173 C 20.557382,256.72783 7.7416983,243.67631 2.4407742,226.22417 -5.5781839,199.8235 6.5503861,172.10112 31.491509,159.82264 c 7.666303,-3.77411 10.616239,-4.45824 21.223987,-4.92219 12.815233,-0.56049 21.951169,1.24497 21.951169,4.33805 0,0.9341 -1.654596,3.98018 -3.67688,6.76904 l -3.676881,5.0707 -10.656452,-0.23438 c -8.792072,-0.19337 -11.822808,0.3219 -17.32312,2.94516 -25.247708,12.0414 -31.2193025,44.67428 -11.682762,63.8426 8.753805,8.58883 16.037342,11.63605 27.899599,11.67243 8.210136,0.0252 10.730033,-0.5815 17.958844,-4.32362 14.004071,-7.24946 21.828134,-20.42293 21.533471,-36.25617 -0.135952,-7.30523 2.316856,-11.25681 9.215176,-14.84606 4.34337,-2.25988 4.82048,-1.63846 6.45563,8.40829 3.67258,22.56517 -9.85475,47.74364 -31.033583,57.7629 -4.590506,2.17167 -9.360965,3.94898 -10.601019,3.94955 -1.240055,5.7e-4 -2.625464,0.60105 -3.07869,1.33439 -1.516513,2.45377 -18.212613,1.23874 -27.092727,-1.9716 z m 161.759389,1.9716 c -0.45323,-0.73334 -1.83864,-1.33382 -3.07869,-1.33439 -4.85613,-0.003 -19.25339,-8.20405 -25.67684,-14.62749 -10.96211,-10.96211 -18.53555,-31.20118 -16.47903,-44.03812 2.25436,-14.07191 2.40675,-14.18353 10.86858,-7.96064 5.2737,3.87833 5.48618,4.3169 5.32968,11.00105 -0.37584,16.05249 7.41548,29.30145 21.52729,36.60669 7.22881,3.74212 9.7487,4.34879 17.95884,4.32362 11.86226,-0.0364 19.1458,-3.0836 27.8996,-11.67243 19.67748,-19.3066 13.49518,-52.10368 -12.0518,-63.93481 -5.93228,-2.74732 -8.6803,-3.196 -17.52207,-2.86097 -11.38101,0.43125 -13.4654,-0.43471 -16.86348,-7.00586 -2.80821,-5.43048 -2.49268,-6.03388 4.01168,-7.6717 8.33821,-2.09959 23.04151,-1.85315 31.03325,0.52014 16.47368,4.89216 31.22982,19.63971 36.4,36.37882 9.26876,30.00875 -6.28009,59.68193 -36.88966,70.39961 -9.49451,3.32441 -24.89755,4.41646 -26.46735,1.87648 z M 45.872715,230.79482 c -9.072733,-4.12039 -13.99153,-15.11701 -11.274779,-25.20625 1.349215,-5.0106 10.220354,-14.92191 13.355887,-14.92191 3.639017,0 16.852341,-6.12262 20.91897,-9.69317 l 4.654229,-4.08647 8.131395,8.13139 8.131394,8.1314 -3.760264,4.92996 c -2.068146,2.71148 -5.439204,9.43041 -7.49124,14.93096 -4.125552,11.05866 -7.716351,15.74792 -14.16215,18.49444 -5.83789,2.48749 -11.9814,2.25164 -18.503442,-0.71035 z m 155.460615,1.0442 c -5.95296,-2.36679 -10.52843,-8.07696 -13.40975,-16.73532 -1.55018,-4.65831 -4.93174,-11.54173 -7.51456,-15.29649 l -4.69605,-6.82685 8.04667,-8.04667 8.04666,-8.04667 4.62334,4.05935 c 2.54284,2.23264 7.53642,5.12267 11.09685,6.42228 18.44861,6.73404 22.86978,10.84992 24.06898,22.40693 1.60459,15.46376 -15.49848,27.93321 -30.26214,22.06344 z m -114.967793,-51.58849 -8.731954,-8.9172 2.510468,-4 c 9.14836,-14.57635 9.947507,-42.41055 1.798376,-62.63719 l -3.211253,-7.970528 8.397502,-8.397502 8.397503,-8.397504 7.334461,3.357827 c 17.64822,8.079625 43.5168,8.05907 60.47269,-0.04805 L 170,80.052851 l 8.55844,8.544364 8.55845,8.544364 -3.54543,7.900251 c -7.12436,15.87517 -7.00468,43.44494 0.25814,59.46271 l 3.87056,8.53634 -8.26238,8.18892 -8.26236,8.18892 -7.35193,-3.36583 c -18.29843,-8.37729 -46.65773,-8.14355 -63.64875,0.52463 l -5.077252,2.59022 z M 148,124 v -6.66667 H 132.66666 117.33333 V 124 130.66666 H 132.66666 148 Z M 37.618878,109.47851 C 22.79857,104.35932 10.668065,93.033344 3.7793726,77.883335 c -4.33667049,-9.537455 -4.33667049,-32.895884 0,-42.43334 C 10.984359,19.604374 22.584489,9.1440692 39.532659,3.2098146 c 9.494502,-3.3244175 24.897545,-4.4164623 26.467339,-1.8764813 0.453226,0.7333333 1.838635,1.3338066 3.07869,1.3343852 1.240054,5.785e-4 6.010513,1.7778763 10.601019,3.9495505 23.913253,11.312869 36.984193,40.202866 29.430823,65.049396 -1.51373,4.979366 -1.4084,4.937272 -6.17989,2.469838 C 96.239388,70.676325 94.75907,67.907356 94.99319,59.289335 95.455338,42.277474 87.966842,29.170585 73.509013,21.686233 66.280202,17.94411 63.760305,17.337442 55.550169,17.362616 43.687912,17.398988 36.404375,20.446218 27.65057,29.035037 8.1151274,48.202287 14.114544,80.965831 39.333332,92.836024 c 5.184995,2.440518 8.949023,3.140818 16.935945,3.150948 l 10.26928,0.01307 4.064053,5.906898 c 2.235231,3.24875 4.064055,6.22055 4.064055,6.60395 0,0.3834 -2.25,1.32195 -5,2.08567 -7.889141,2.19092 -24.106057,1.62517 -32.047787,-1.11805 z m 158.047782,0.97178 c -4.55469,-1.66352 -4.57626,-2.99441 -0.152,-9.37862 l 3.51467,-5.071672 10.81866,-0.01307 c 8.5642,-0.01027 12.20792,-0.666928 17.48534,-3.150948 25.21878,-11.870193 31.2182,-44.633738 11.68276,-63.800988 -8.7538,-8.588818 -16.03734,-11.636049 -27.8996,-11.672421 -22.85063,-0.07007 -40.0356,17.911804 -39.47259,41.303001 0.19151,7.956917 -2.05258,11.719091 -9.21258,15.444639 -3.45314,1.796759 -3.61118,1.717099 -4.8806,-2.460018 -7.5466,-24.832332 5.53069,-53.723744 29.43624,-65.0329683 4.5905,-2.1716742 9.36096,-3.948972 10.60101,-3.9495506 1.24005,-5.372e-4 2.62546,-0.6010105 3.07869,-1.3343438 1.5698,-2.539981 16.97284,-1.4479362 26.46735,1.8764813 30.60957,10.7176794 46.15842,40.3908444 36.88966,70.3996074 -5.17018,16.739108 -19.92632,31.486651 -36.4,36.378811 -7.59248,2.25473 -26.30781,2.52533 -31.95701,0.46206 z M 68.157901,87.268954 C 64.830834,84.652757 58.424935,81.516343 53.277805,79.983461 42.901211,76.893178 37.031018,71.4472 34.684831,62.734126 31.04205,49.205868 41.130495,35.999999 55.108005,35.999999 c 12.689309,0 18.3133,4.959968 23.601782,20.815128 1.494854,4.481653 4.882611,10.677419 7.52835,13.76837 l 4.810433,5.619909 -7.815881,7.898296 c -4.298735,4.344062 -8.134664,7.867429 -8.524287,7.829702 -0.389621,-0.03772 -3.337348,-2.135828 -6.550501,-4.66245 z m 114.025549,-3.083571 -7.73308,-7.814614 3.57571,-3.852052 c 4.42518,-4.7672 6.99134,-9.637613 9.46274,-17.959736 3.57831,-12.049423 11.61554,-18.558982 22.91445,-18.558982 8.5167,0 14.60974,4.014509 18.74576,12.35098 6.66303,13.429866 -0.0456,26.056402 -16.75902,31.543055 -4.94123,1.622092 -11.85179,5.009516 -15.35679,7.52761 -3.505,2.518095 -6.54012,4.578354 -6.74472,4.578354 -0.20458,0 -3.85186,-3.516576 -8.10505,-7.814615 z"
       style="fill:#f4b4ad;stroke-width:1.33333325" />
    <path
       id="path3742"
       d="M 44.666666,265.06394 C 29.40923,259.62441 25.700533,257.63146 18.597137,251.05498 9.755149,242.86885 5.2205421,235.8043 2.1454959,225.42466 -1.8824289,211.82862 0.2667353,194.17852 7.4407743,181.93694 12.592552,173.1461 25.331095,162.04572 34.287226,158.5429 c 13.168895,-5.15045 40.379439,-4.71798 40.379439,0.64178 0,2.86414 -7.973688,12.98896 -9.490871,12.05129 -0.770313,-0.47608 -5.20045,-0.8656 -9.844749,-0.8656 -14.696643,0 -28.678807,8.65391 -35.542905,21.99837 -4.3479,8.45273 -4.975603,23.89556 -1.308267,32.18619 4.498766,10.1702 10.208968,16.29401 19.423326,20.83022 17.71339,8.72028 37.640736,3.98288 49.688335,-11.81258 5.18637,-6.79979 7.45609,-14.16236 7.62028,-24.71888 0.112253,-7.217 0.473653,-8.10695 4.737818,-11.66667 6.743948,-5.62985 9.030328,-5.12052 10.136838,2.25816 0.50409,3.36152 0.63212,10.54343 0.28452,15.9598 -1.42238,22.16367 -17.856352,41.92191 -40.247736,48.38905 -8.702082,2.51336 -20.340345,3.09394 -25.456588,1.26991 z m 155.999994,-0.0349 c -2.2,-0.74468 -6.4892,-2.20727 -9.53154,-3.25018 -14.54926,-4.98742 -28.72276,-20.40352 -33.33007,-36.25209 -2.04655,-7.03991 -2.17987,-29.59638 -0.18669,-31.58956 0.84785,-0.84784 6.6616,1.99394 10.94082,5.34791 1.9273,1.51058 2.62228,3.90404 2.81472,9.6937 0.3551,10.68232 2.6288,17.94339 7.70123,24.59378 12.0476,15.79546 31.97494,20.53286 49.68833,11.81258 9.21436,-4.53621 14.92456,-10.66002 19.42333,-20.83022 3.66734,-8.29063 3.03963,-23.73346 -1.30828,-32.18619 -8.18458,-15.91164 -28.37016,-25.58353 -44.47197,-21.3087 -3.0435,0.80801 -4.0911,0.28977 -6.84524,-3.38635 -1.78849,-2.3872 -3.64644,-5.64173 -4.12877,-7.23231 -0.78921,-2.60256 -0.16183,-3.05198 6.26968,-4.49129 9.84126,-2.20239 25.30693,-1.03947 34.67722,2.60749 8.95536,3.48547 21.68395,14.57023 26.84646,23.37936 9.74285,16.62492 9.68953,39.54885 -0.13107,56.33885 -11.326,19.36379 -40.62525,32.77939 -58.4282,26.75322 z M 47.333332,231.44351 c -9.719728,-4.33848 -15.08315,-15.29441 -12.503177,-25.54042 1.917185,-7.61383 8.003725,-13.08311 18.271542,-16.41855 4.639268,-1.50704 11.283971,-4.83138 14.766007,-7.38742 l 6.330973,-4.64738 7.63169,7.71218 7.631689,7.71216 -4.734029,7.03473 c -2.603716,3.8691 -5.687254,10.31372 -6.852309,14.32136 -4.456809,15.33089 -17.849561,22.87889 -30.542386,17.21334 z m 153.267218,0.0144 c -5.29617,-2.30686 -10.79695,-8.9287 -11.98365,-14.42593 -1.17492,-5.44267 -5.21577,-13.64675 -9.6011,-19.49294 l -3.3463,-4.46103 7.6851,-7.76612 7.68509,-7.76613 6.24587,4.2964 c 3.43522,2.36302 10.10129,5.68032 14.81347,7.37177 10.21948,3.66829 16.77656,9.46792 18.67483,16.51754 4.68105,17.38414 -13.58009,32.954 -30.17331,25.72644 z M 86.624379,180.624 l -8.469581,-8.54554 2.978703,-5.96428 C 89.907184,148.54658 89.77296,118.5064 80.845965,101.7617 78.85399,98.025274 78.898641,97.941059 87.491079,89.228499 l 8.650565,-8.771497 6.262506,2.985456 c 16.50298,7.867277 43.85729,7.878153 61.01246,0.02425 l 6.94504,-3.179546 8.44272,8.518442 8.44273,8.518443 -2.1617,3.671303 c -4.53472,7.70155 -6.90834,19.31293 -6.88312,33.67131 0.0252,14.34156 1.4822,22.01513 5.93365,31.25044 1.39191,2.88775 2.53073,5.76355 2.53073,6.39069 0,0.62714 -3.56005,4.74479 -7.91124,9.15034 l -7.91124,8.01008 -6.42209,-3.23494 c -17.32031,-8.72458 -46.88066,-8.49624 -64.541779,0.49858 l -4.786352,2.43769 -8.46958,-8.54555 z M 148,124 v -6.66667 H 132.66666 117.33333 V 124 130.66666 H 132.66666 148 Z M 36.553527,108.91986 C 27.043505,105.29624 22.656938,102.32134 15.205186,94.441727 7.9024419,86.719682 4.5098678,80.754286 2.0499279,71.30994 -3.494886,50.021961 2.2247165,30.769659 18.597137,15.611686 28.939055,6.0368928 46.468326,-0.85297913 57.4734,0.33138771 79.194046,2.6689651 96.351787,14.220474 105.39863,32.597214 c 3.76209,7.641898 4.54832,10.869854 5.0095,20.567009 0.52612,11.062439 -1.32621,22.835775 -3.59281,22.835775 -0.59504,0 -3.52523,-1.769951 -6.51154,-3.933224 l -5.429662,-3.933224 0.14527,-9.066775 C 95.202338,47.648423 93.10865,40.327511 87.591534,33.094086 75.543935,17.298628 55.616589,12.561228 37.903199,21.281501 28.688841,25.817714 22.978639,31.941529 18.479873,42.111738 14.812537,50.402357 15.44024,65.845181 19.78814,74.297919 26.94463,88.210827 40.735816,96.412708 56.836801,96.331463 l 9.765481,-0.04928 4.057194,6.125247 c 3.748315,5.65892 3.877651,6.22774 1.698857,7.47158 -1.297084,0.74049 -8.058335,1.52316 -15.025001,1.73928 -10.646212,0.33026 -13.96079,-0.10017 -20.779805,-2.69843 z m 159.779803,1.6489 c -5.39473,-1.63296 -5.4566,-3.8633 -0.27099,-9.7694 3.96063,-4.510901 4.30687,-4.62449 13.82717,-4.536193 16.05588,0.148911 29.81752,-8.023185 36.989,-21.965248 4.34791,-8.452738 4.97562,-23.895562 1.30828,-32.186181 -4.49877,-10.170209 -10.20897,-16.294024 -19.42333,-20.830237 -17.71339,-8.720273 -37.64073,-3.982873 -49.68833,11.812585 -5.25389,6.88831 -7.47933,14.209623 -7.62911,25.098419 -0.12186,8.863525 -2.10481,12.355953 -9.05634,15.950726 -3.59151,1.857242 -3.62723,1.830847 -5.1474,-3.803171 -0.848,-3.142848 -1.28679,-10.803916 -0.98375,-17.175837 0.46117,-9.697155 1.24741,-12.925111 5.00951,-20.567009 9.04684,-18.37674 26.20457,-29.9282489 47.92522,-32.26582629 5.98636,-0.64425326 11.30351,0.54895643 23.96924,5.37889659 8.30419,3.1667124 21.02716,14.2942977 25.93236,22.6805867 9.82056,16.789991 9.87388,39.713923 0.13107,56.338846 -5.14267,8.775293 -17.88967,19.888963 -26.84646,23.406493 -8.63516,3.39122 -28.4593,4.72904 -36.0461,2.43255 z M 68.402292,87.36215 C 65.323553,84.924454 58.906009,81.632614 54.141085,80.046949 39.504119,75.176079 34.666666,69.461738 34.666666,57.042391 c 0,-12.407463 8.727393,-21.042392 21.267718,-21.042392 10.057284,0 18.637474,7.073384 21.503647,17.727292 1.99437,7.413313 4.397096,11.899515 9.463843,17.670221 l 4.185341,4.766841 -7.835204,7.917822 c -4.309362,4.354803 -8.153986,7.871547 -8.543609,7.814987 -0.389621,-0.05656 -3.227372,-2.097316 -6.30611,-4.535012 z m 115.027828,-3.264341 -7.55884,-7.638554 4.73402,-7.034738 c 2.60372,-3.869107 5.67728,-10.27941 6.83015,-14.24512 3.58453,-12.330377 11.42776,-19.179398 21.96349,-19.179398 14.77619,0 24.96464,12.937366 21.19965,26.919462 -2.14473,7.964912 -8.25628,13.432297 -19.00336,17.00039 -4.98928,1.656471 -11.66675,4.992834 -14.83883,7.414139 l -5.76743,4.402372 z"
       style="fill:#ef948a;stroke-width:1.33333325" />
    <path
       id="path3740"
       d="m 47.999999,265.33333 c -1.1,-0.71088 -3.269385,-1.3017 -4.820857,-1.31292 -1.551472,-0.0107 -7.02012,-2.12122 -12.152551,-4.68887 C 7.4777894,247.55055 -4.7336589,221.23053 1.8599028,196.46692 7.9866253,173.45662 27.762719,156.8207 51.086617,155.05672 c 9.316063,-0.70458 23.60986,1.36418 23.558114,3.4096 -0.012,0.47685 -1.381293,3.26701 -3.042733,6.20034 L 68.5812,170 57.957267,170.15673 c -6.210551,0.0916 -13.068316,1.06824 -16.508068,2.35091 -21.807058,8.13182 -31.8769424,34.20338 -21.348512,55.27263 7.165951,14.34034 19.235671,21.81011 35.43158,21.92807 7.738407,0.0564 10.915161,-0.60716 16.880725,-3.52584 14.130397,-6.91335 22.622126,-20.15396 23.015528,-35.88664 0.159882,-6.3938 0.889762,-9.77092 2.495124,-11.54482 2.589896,-2.86182 9.780246,-6.15826 10.928356,-5.01015 0.42157,0.42156 1.08245,5.83095 1.46862,12.02084 1.35925,21.78712 -7.48076,39.3018 -26.195039,51.90012 -5.051006,3.4003 -23.192276,9.00809 -29.06466,8.9844 -2.783508,-0.0112 -5.960922,-0.60204 -7.060922,-1.31292 z m 146.489571,-2.465 c -11.41688,-4.09502 -19.42656,-9.68726 -26.84191,-18.74064 -7.94169,-9.696 -10.83976,-18.57944 -10.91605,-33.46103 -0.0357,-6.96667 0.37428,-13.73765 0.91109,-15.04662 0.88292,-2.15286 1.32854,-2.1977 4.66983,-0.46984 6.90261,3.56948 8.70635,6.78329 8.9094,15.87438 0.48537,21.73171 18.21497,38.82779 40.1114,38.67812 15.9803,-0.1092 28.10114,-7.65104 35.23264,-21.92243 3.43609,-6.87621 4.10069,-9.75789 4.10069,-17.78028 0,-20.85966 -13.63019,-36.22063 -35.40361,-39.89923 -2.95262,-0.49884 -7.86538,-0.34595 -10.91724,0.33976 -6.18207,1.38901 -7.51561,0.52885 -11.56124,-7.45722 -2.19532,-4.33357 -2.18961,-4.35612 1.50588,-5.95765 2.05147,-0.88904 9.66924,-1.62504 17.04288,-1.64661 12.2602,-0.0359 14.05484,0.30252 22.29777,4.20428 24.96076,11.81509 37.9582,38.4764 31.17565,63.94975 -6.4196,24.11028 -27.4988,40.88614 -53.47342,42.55678 -4.74575,0.30524 -9.59908,-0.623 -16.84376,-3.22152 z M 48.825735,231.9541 c -4.571333,-1.36872 -9.695847,-5.91017 -12.285755,-10.88789 -2.729637,-5.24628 -2.362117,-15.58154 0.734682,-20.66044 3.250401,-5.3308 6.761049,-7.64755 16.796658,-11.08445 4.360773,-1.49343 10.513001,-4.56362 13.671618,-6.82262 6.501825,-4.65002 5.477731,-5.02213 16.538617,6.00927 5.126043,5.11239 5.158525,5.20864 2.699615,8 -4.1826,4.74809 -6.442573,9.1077 -9.487809,18.30246 -3.191567,9.6366 -6.275756,13.31456 -13.802068,16.45926 -5.421254,2.26514 -9.031032,2.43134 -14.865558,0.68441 z m 151.684255,-1.17244 c -6.68014,-3.03356 -8.96731,-6.13591 -12.62346,-17.12261 -1.54999,-4.65772 -4.79921,-11.06391 -7.22052,-14.23599 l -4.40237,-5.76742 7.73254,-7.65187 7.73255,-7.65185 6.15819,4.23694 c 3.38701,2.33034 9.56595,5.4094 13.73098,6.84238 14.37073,4.94425 19.03551,10.45226 19.04377,22.48625 0.007,8.96121 -3.65414,14.97909 -11.41597,18.76896 -6.72467,3.28342 -11.65977,3.3085 -18.73571,0.0952 z m -113.948776,-50.2214 -8.421268,-8.49678 2.990368,-5.32064 c 8.740317,-15.55131 8.883602,-47.06082 0.290597,-63.9045 l -2.590454,-5.077714 8.438625,-8.363618 8.438625,-8.363615 9.146143,3.810805 c 8.58065,3.575186 10.30029,3.810804 27.81281,3.810804 17.51252,0 19.23216,-0.235618 27.81282,-3.810804 l 9.14614,-3.810805 8.37694,8.302475 8.37693,8.302476 -3.13004,6.847496 c -8.17144,17.87641 -7.06388,49.70413 2.24853,64.61568 1.65986,2.65782 1.16723,3.49486 -6.77026,11.50354 l -8.56039,8.63716 -4.19271,-2.59124 c -15.14444,-9.35977 -50.47787,-9.35309 -66.816714,0.012 l -4.175426,2.39344 -8.421266,-8.4968 z M 148,124 v -6.66667 H 132.66666 117.33333 V 124 130.66666 H 132.66666 148 Z M 42.327896,110.55244 C 28.898402,107.38734 14.00331,96.018499 7.4067857,83.89851 -12.639458,47.066956 10.574207,5.5146995 54.0493,0.40882038 61.73491,-0.49380669 79.606701,5.5704936 88.126094,11.971842 c 14.309686,10.752095 22.548156,27.266449 22.533136,45.168603 -0.007,8.917231 -1.98171,18.897494 -3.7219,18.815258 -0.51554,-0.02436 -3.32641,-1.695921 -6.24639,-3.714573 L 95.38189,68.570852 95.32431,57.952092 C 95.25728,45.590686 92.474451,38.151192 84.697619,29.543169 77.132866,21.169891 67.176012,16.873509 55.532267,16.95832 39.336358,17.076286 27.266638,24.546053 20.100687,38.886388 16.664605,45.762599 16,48.644279 16,56.666665 c 0,8.022387 0.664605,10.904067 4.100687,17.780277 7.159976,14.328378 19.309285,21.699696 36.355237,22.057712 8.50381,0.178605 9.385594,0.485952 13,4.531176 2.132574,2.38676 3.877407,5.2019 3.877407,6.25586 0,4.06884 -19.068084,6.07417 -31.005435,3.26075 z m 155.005434,-0.0405 c -5.99487,-1.8219 -5.87079,-1.60502 -3.51956,-6.15177 3.34308,-6.464802 5.82611,-7.680027 16.05753,-7.85873 17.32089,-0.302528 29.4756,-7.607821 36.69467,-22.054458 3.43609,-6.87621 4.10069,-9.75789 4.10069,-17.780277 0,-8.022386 -0.6646,-10.904066 -4.10069,-17.780277 -7.16595,-14.340335 -19.23567,-21.810102 -35.43158,-21.928068 -22.54163,-0.164188 -39.52174,16.994644 -39.84283,40.262211 -0.13174,9.541931 -0.29454,10.019179 -4.66364,13.666666 -5.96802,4.982318 -7.56038,4.771625 -9.22448,-1.220532 -5.51963,-19.875229 3.47361,-44.422711 21.13713,-57.694823 8.51939,-6.4013484 26.39118,-12.46564869 34.07678,-11.56302162 26.25664,3.08367882 45.92084,19.18173362 52.1894,42.72476362 6.75754,25.379408 -6.27633,52.249635 -30.94385,63.792966 -7.18549,3.36249 -10.78161,4.16773 -20.29777,4.54504 -6.36083,0.25221 -13.66513,-0.17965 -16.2318,-0.95969 z M 71.260497,89.248719 C 68.027046,85.670646 58.507809,80.778066 50.676929,78.669429 39.471171,75.652031 33.376043,65.671194 35.06218,53.100105 36.260492,44.166023 45.867754,35.999999 55.180319,35.999999 c 10.914902,0 18.132755,5.919124 22.229426,18.229621 1.550185,4.658309 4.93174,11.541736 7.514565,15.296504 l 4.696046,6.826849 -7.883014,7.883014 -7.883013,7.883013 z m 112.128723,-5.192232 -7.59973,-7.679876 4.43388,-6.290394 c 2.43863,-3.459717 5.936,-10.541273 7.77192,-15.736792 4.17576,-11.817098 9.93475,-17.080526 19.71709,-18.020486 13.30704,-1.278637 22.95428,7.672475 22.95428,21.297928 0,12.097889 -4.82469,17.221067 -21.7514,23.097079 -3.52995,1.225399 -9.00742,4.204492 -12.17218,6.620206 l -5.75411,4.39221 z"
       style="fill:#ed8479;stroke-width:1.33333325" />
    <path
       id="path3738"
       d="m 49.333332,265.52477 c -1.1,-0.65056 -4.4,-1.61039 -7.333333,-2.13295 C 28.266747,260.9453 12.217759,247.80698 5.7038223,233.67837 -10.307182,198.95078 12.511506,158.52156 50.010793,155.17706 c 8.982688,-0.80114 24.664008,1.26696 24.649041,3.2508 -0.0037,0.498 -1.459638,3.30547 -3.235292,6.2388 L 68.196081,170 H 57.09804 c -9.436823,0 -12.227778,0.55478 -18.645433,3.70637 -8.740058,4.29208 -16.241304,12.01693 -20.195065,20.79709 -3.754153,8.33688 -3.733802,22.46508 0.04464,30.99307 14.104017,31.83296 57.331383,32.91517 73.368316,1.8368 2.671526,-5.17722 3.502272,-8.90084 3.71836,-16.66667 l 0.278254,-10 5.508028,-3.92508 c 7.17342,-5.11184 8.42205,-3.80148 9.20109,9.65604 1.59457,27.54523 -15.141002,50.17881 -42.376232,57.31063 -9.992442,2.61661 -16.279334,3.22841 -18.666666,1.81652 z m 155.999998,0 c -1.1,-0.65056 -4.36687,-1.60888 -7.25969,-2.12962 -12.00875,-2.16162 -27.81044,-13.69053 -34.56732,-25.22025 -5.48132,-9.35317 -7.89794,-19.99543 -7.2159,-31.77728 0.33418,-5.7726 1.21728,-11.10533 1.96246,-11.8505 0.91758,-0.91759 3.17426,0.0664 6.99225,3.04901 5.57836,4.35774 5.64119,4.50162 5.99853,13.7372 0.8545,22.08444 17.93675,38.54497 40.08967,38.63058 22.34578,0.0864 39.69824,-17.33472 39.80648,-39.96392 0.0527,-11.01327 -2.96196,-18.84377 -10.44219,-27.12349 -9.03023,-9.99537 -25.73213,-15.59178 -37.13541,-12.44318 -5.05899,1.39685 -5.06348,1.39448 -8.93668,-4.71292 -2.13133,-3.36078 -3.58353,-6.58235 -3.22709,-7.15907 1.36938,-2.21573 16.15153,-4.1964 25.25742,-3.38427 18.61021,1.65982 36.49699,14.20584 44.26176,31.0458 14.78603,32.0674 -2.62356,68.65401 -36.87879,77.50157 -10.09078,2.6063 -16.32774,3.20658 -18.7055,1.80034 z M 48.911737,231.44509 c -9.267353,-3.3844 -14.245071,-10.41215 -14.245071,-20.11176 0,-10.84152 5.821884,-17.73569 17.955989,-21.26317 3.90525,-1.1353 10.266089,-4.19447 14.135195,-6.79819 l 7.034739,-4.73403 7.638553,7.55884 7.638553,7.55886 -4.522642,5.92498 c -2.487455,3.25875 -5.505852,9.33623 -6.707552,13.50551 -1.201699,4.16929 -3.354495,9.23958 -4.783989,11.26732 -4.994854,7.08517 -15.617636,10.20536 -24.143775,7.09164 z m 153.333323,-0.0435 c -6.9751,-2.48764 -9.77317,-5.33639 -12.34137,-12.56487 -4.50397,-12.67701 -5.18952,-14.11026 -9.3664,-19.58229 l -4.27365,-5.59878 7.63854,-7.55886 7.63856,-7.55884 6.88467,4.63303 c 3.78656,2.54817 10.09534,5.56641 14.0195,6.7072 12.70443,3.69328 18.22175,10.31174 18.22175,21.85844 0,8.37284 -3.98377,14.56728 -11.95995,18.59672 -6.79906,3.43478 -9.3601,3.60097 -16.46165,1.06825 z m -36.57198,-45.0137 c -9.79943,-5.94703 -31.49682,-8.99627 -45.67308,-6.41868 -4.76667,0.8667 -12.49011,3.09873 -17.16321,4.96008 l -8.496536,3.38426 -7.962841,-7.96284 -7.96284,-7.96284 2.690556,-5.27392 c 7.100594,-13.91832 8.925578,-36.22618 4.380036,-53.5398 -1.383159,-5.26834 -3.438843,-10.98902 -4.568187,-12.71262 -1.989952,-3.037046 -1.790212,-3.39461 6.468996,-11.580404 l 8.522349,-8.446595 6.379167,2.894405 c 10.64913,4.831805 18.06406,5.970613 34.73356,5.33449 12.98899,-0.495669 17.11536,-1.198445 24.30139,-4.138834 l 8.65576,-3.541787 8.26233,8.188896 8.26235,8.188895 -2.59047,5.077714 c -8.64031,16.9364 -8.54285,46.91126 0.20828,64.06491 l 2.79873,5.48596 -8.45972,8.31231 -8.4597,8.3123 z M 148,124.66666 v -7.33333 H 132.66666 117.33333 V 124.66666 132 H 132.66666 148 Z M 42.976092,110.67052 C 34.001218,108.76801 21.715959,101.48068 15.046086,94.103084 -13.299913,62.749373 1.4881788,13.84104 42.627828,2.8825919 51.965487,0.39530167 58.743544,0.39962754 67.999998,2.8987849 82.708975,6.870073 96.287346,16.751721 103.14408,28.474862 c 6.98286,11.938773 9.4837,30.465686 5.75345,42.623059 l -1.5642,5.097922 -5.94636,-4.002426 L 95.440615,68.190992 95.31145,57.095495 C 95.204292,47.890447 94.590054,44.864134 91.706339,39.333332 81.208406,19.198897 57.808588,10.8677 38.452607,20.373042 23.865275,27.536595 15.633666,40.558654 15.485476,56.706076 c -0.206308,22.480091 17.167049,39.681716 40.401721,40.002359 9.541932,0.13168 10.01918,0.294537 13.666667,4.663635 4.366313,5.23014 4.714781,7.30361 1.446134,8.60485 -3.860244,1.53676 -21.935935,1.98414 -28.023906,0.6936 z m 155.103038,-0.0812 c -2.88981,-0.72595 -5.48405,-1.54977 -5.76499,-1.8307 -0.82822,-0.82823 3.31615,-8.12524 5.77268,-10.163986 1.50214,-1.246668 5.67711,-1.886257 12.42124,-1.902889 8.37757,-0.02067 11.48183,-0.674861 17.70599,-3.731429 8.74006,-4.292072 16.2413,-12.016931 20.19506,-20.797084 3.75416,-8.33688 3.73382,-22.465079 -0.0447,-30.993079 -14.10603,-31.837549 -57.25729,-32.9175584 -73.38817,-1.836791 -2.75872,5.315474 -3.50136,8.746981 -3.66407,16.930749 -0.12627,6.352327 -0.88639,11.086203 -1.99437,12.421248 -1.63328,1.967992 -8.24619,5.981336 -9.85563,5.981336 -1.45551,0 -3.44773,-10.432556 -3.45477,-18.091332 -0.0234,-25.449012 16.87844,-46.7159752 42.65922,-53.6765481 9.25645,-2.49915736 16.03451,-2.50348323 25.37217,-0.016193 10.79356,2.8751022 20.73742,8.7777251 27.62942,16.4006821 24.81494,27.446792 16.82426,70.458498 -16.11403,86.737486 -8.11819,4.01223 -11.28825,4.81767 -20.89548,5.30912 -6.22897,0.31864 -13.6898,-0.0146 -16.57961,-0.74058 z M 68.843273,87.302286 c -2.942216,-2.580363 -8.954388,-5.772983 -14,-7.434364 C 43.848556,76.247663 39.601308,73.329306 36.831048,67.491418 28.981635,50.950009 42.682926,33.204926 60.695173,36.584043 c 7.614157,1.428425 13.358717,7.566293 16.659754,17.800386 1.587572,4.921898 4.991796,11.883281 7.564943,15.469743 l 4.678448,6.520839 -7.79916,7.724896 -7.79916,7.724895 z m 114.581587,-3.209793 -7.66888,-7.749743 4.77647,-6.257514 c 2.62705,-3.441634 5.68373,-9.368752 6.79261,-13.171376 2.9891,-10.250349 6.65872,-15.400572 13.03581,-18.295434 7.24619,-3.289386 12.14514,-3.271846 18.88483,0.06761 7.09963,3.517808 10.37804,8.262513 11.1322,16.111104 1.29748,13.503234 -3.01424,19.269636 -18.41804,24.631859 -6.06116,2.109952 -12.93138,5.621381 -15.79624,8.07359 l -5.06989,4.339638 -7.66887,-7.749741 z"
       style="fill:#e96456;stroke-width:1.33333325" />
    <path
       id="path3736"
       d="M 42.939607,263.37431 C 20.399926,258.27723 4.5220104,240.16917 0.66948328,215.16707 -0.47402479,207.74595 2.1283562,194.29116 6.437945,185.34308 16.462648,164.52856 41.925266,151.709 64.70553,156.00733 c 9.748391,1.83939 10.646608,3.45309 5.501308,9.88347 -2.974193,3.71701 -3.614105,3.89725 -14.32671,4.0353 -9.369376,0.12067 -12.309816,0.72275 -17.880129,3.66067 -25.603995,13.50419 -30.6695517,46.28358 -10.122486,65.50296 16.382429,15.32385 40.309788,15.0759 55.965622,-0.57994 8.039116,-8.0391 11.367616,-15.9655 11.692067,-27.84313 l 0.273161,-10 5.706237,-3.67246 c 5.28781,-3.40319 5.80683,-3.50095 7.0782,-1.33334 0.75458,1.28652 1.33936,7.73913 1.2995,14.33913 -0.055,9.10598 -0.78471,13.81514 -3.02572,19.52643 -10.131009,25.8192 -36.856238,39.9696 -63.926973,33.84789 z m 157.295443,0.53235 c -26.72896,-5.26005 -46.28692,-31.39645 -43.75815,-58.47648 0.44038,-4.71595 1.389,-9.16276 2.10804,-9.8818 0.85426,-0.85425 3.11143,-0.11346 6.51268,2.13738 5.1421,3.40286 5.21307,3.5651 5.84118,13.35251 0.7561,11.78158 4.23405,19.82084 11.88473,27.47152 15.65583,15.65584 39.58318,15.90379 55.96561,0.57994 8.52663,-7.97566 12.44053,-17.11454 12.45824,-29.08974 0.0233,-15.76258 -8.00023,-28.70622 -22.58072,-36.42745 -5.72444,-3.03142 -8.34353,-3.53986 -18.53125,-3.59745 -11.73933,-0.0664 -11.89929,-0.11213 -15.15203,-4.32997 -1.80809,-2.3446 -2.96744,-5.09683 -2.57632,-6.11608 0.40312,-1.0505 4.4947,-2.56707 9.44649,-3.50142 16.88752,-3.18644 35.28692,2.61559 47.90258,15.10551 30.73086,30.42454 15.44432,83.30533 -26.66047,92.22666 -10.05488,2.13047 -14.29773,2.23198 -22.86061,0.54687 z M 51.033396,231.92745 c -6.380041,-1.35071 -10.675886,-4.66624 -13.682913,-10.56051 -3.382469,-6.63019 -3.41434,-13.37457 -0.09396,-19.88305 3.118249,-6.11228 6.254245,-8.28459 16.643137,-11.52869 4.344815,-1.35675 10.571933,-4.5066 13.838042,-6.99968 l 5.93838,-4.53287 7.765536,7.68451 7.765537,7.6845 -3.60358,4.11631 c -3.582049,4.0917 -5.963629,8.99256 -10.241545,21.07517 -1.287645,3.63685 -3.80437,7.43299 -5.932473,8.94833 -4.748621,3.38132 -12.917736,5.1558 -18.396162,3.99598 z m 154.090114,0.12 c -5.61737,-1.71882 -11.45895,-5.59071 -12.98487,-8.60659 -0.77202,-1.52583 -2.7059,-6.37424 -4.29754,-10.77424 -1.59162,-4.4 -4.72617,-10.57431 -6.96564,-13.72068 l -4.07177,-5.72069 7.55359,-7.5536 7.5536,-7.55359 3.04456,2.79048 c 3.58836,3.2889 11.5769,7.38403 19.04455,9.76272 7.58004,2.4145 11.98696,5.86995 14.6539,11.49009 2.91413,6.14108 2.13758,16.58048 -1.6071,21.60459 -4.99289,6.69881 -14.8843,10.43529 -21.92328,8.28151 z M 86.156939,180.1586 c -7.479394,-7.55827 -7.6869,-7.95546 -5.746712,-11 9.169259,-14.38842 10.433991,-44.26155 2.693076,-63.61079 l -3.416894,-8.54089 7.823461,-7.819025 7.823461,-7.819025 8.071679,3.262876 c 19.64099,7.939625 45.11084,7.398245 61.96445,-1.317103 l 4.3094,-2.228477 8.35578,8.28149 8.35576,8.281491 -2.468,4.182953 c -8.7195,14.77843 -8.67006,47.04386 0.0999,65.19556 l 2.6897,5.56702 -7.90487,7.90486 -7.90487,7.90487 -6.3586,-2.98889 C 146.31793,176.84841 118.7436,176.76949 101.22351,185.23426 98.075098,186.75542 95.143035,188 94.70782,188 c -0.435214,0 -4.28311,-3.52863 -8.550881,-7.8414 z M 148.66666,124 v -7.33334 L 133,116.29102 117.33333,115.91537 V 124 132.08462 L 133,131.70898 148.66666,131.33333 Z M 43.999999,110.18345 C 21.760219,105.35219 5.4993403,88.307476 1.3617145,65.489845 -0.28534647,56.406851 0.26891685,49.968412 3.61344,39.333332 15.38931,1.8878388 63.114292,-10.432139 92.716723,16.331742 c 10.429817,9.429713 17.949937,26.138585 17.949937,39.882761 0,7.487942 -2.67043,18.452162 -4.49418,18.452162 -0.8836,0 -3.56764,-1.65 -5.96453,-3.666667 C 96.02211,67.478161 95.837427,66.91201 95.532303,56.666665 95.149128,43.800551 92.166852,36.410644 84.131725,28.416693 68.125873,12.492864 44.382526,12.138423 27.877513,27.57693 11.586105,42.815634 10.920971,68.402593 26.399133,84.448529 34.639972,92.99166 42.922979,96.52359 55.333332,96.786264 l 10.666666,0.225768 3.666667,5.025548 c 2.016667,2.76405 3.666666,5.45351 3.666666,5.97658 0,1.15598 -13.763571,4.02957 -18.555707,3.87409 -1.894361,-0.0615 -6.744292,-0.82862 -10.777625,-1.7048 z m 155.999991,0.29789 c -3.29999,-0.761 -6.46294,-1.82356 -7.02875,-2.36125 -0.56583,-0.53769 0.64458,-3.28531 2.68981,-6.10581 l 3.71857,-5.128184 11.31019,-0.145017 c 9.47385,-0.121467 12.3926,-0.715908 17.97685,-3.661185 25.604,-13.504191 30.66955,-46.28359 10.12248,-65.502964 -16.38243,-15.323844 -40.30978,-15.075902 -55.96561,0.579932 -8.32711,8.327102 -11.43101,15.931804 -11.63644,28.509803 l -0.17423,10.666667 -5.48858,3.906734 c -3.01872,2.148703 -5.81851,3.576817 -6.22174,3.173585 -2.34756,-2.347553 -3.7186,-17.81342 -2.30878,-26.043862 5.27018,-30.767191 32.85874,-50.7881556 62.98342,-45.7069693 27.27989,4.6013491 46.07955,27.0417533 45.80073,54.6705123 -0.29434,29.167781 -21.62894,51.595908 -51.24845,53.875258 -4.69121,0.36101 -11.22947,0.0337 -14.52947,-0.72725 z M 67.508334,85.90967 C 63.937918,83.383023 57.637919,80.335919 53.508335,79.138325 39.967192,75.211347 32.946867,64.918694 35.290103,52.428173 37.275988,41.842498 50.323807,34.368775 61.544021,37.390064 c 7.708771,2.075758 12.188653,7.123291 15.707706,17.698048 1.657272,4.980104 5.107831,11.798821 7.667908,15.152706 l 4.654687,6.097971 -7.074948,7.163937 c -3.891223,3.940166 -7.395445,7.127242 -7.787163,7.082392 -0.391717,-0.04485 -3.633462,-2.148803 -7.203877,-4.675448 z m 115.177786,-2.556637 -7.22278,-7.313632 3.45496,-3.686368 C 182.56744,68.459513 188,58.562105 188,55.807415 c 0,-4.033934 5.90446,-13.276236 10.16293,-15.908115 6.58048,-4.066956 20.13808,-3.266077 25.29916,1.49448 7.39714,6.823093 9.19042,17.486535 4.49012,26.69988 -2.78703,5.463038 -6.40792,7.710951 -20.19974,12.540354 -3.43613,1.203213 -8.46863,3.952784 -11.18334,6.110156 -2.71469,2.157372 -5.3238,3.922494 -5.79801,3.922494 -0.47423,0 -4.11247,-3.291134 -8.085,-7.313631 z"
       style="fill:#e64b3b;stroke-width:1.33333325" />
  </g>
</svg>
