<?xml version="1.0" encoding="UTF-8" standalone="no"?>
<!-- Created with Inkscape (http://www.inkscape.org/) -->

<svg
   xmlns:dc="http://purl.org/dc/elements/1.1/"
   xmlns:cc="http://creativecommons.org/ns#"
   xmlns:rdf="http://www.w3.org/1999/02/22-rdf-syntax-ns#"
   xmlns:svg="http://www.w3.org/2000/svg"
   xmlns="http://www.w3.org/2000/svg"
   xmlns:sodipodi="http://sodipodi.sourceforge.net/DTD/sodipodi-0.dtd"
   xmlns:inkscape="http://www.inkscape.org/namespaces/inkscape"
   version="1.1"
   id="svg3906"
   width="266.66666"
   height="266.66666"
   viewBox="0 0 266.66666 266.66666"
   sodipodi:docname="droneIcon.svg"
   inkscape:version="0.92.4 (5da689c313, 2019-01-14)">
  <metadata
     id="metadata3912">
    <rdf:RDF>
      <cc:Work
         rdf:about="">
        <dc:format>image/svg+xml</dc:format>
        <dc:type
           rdf:resource="http://purl.org/dc/dcmitype/StillImage" />
        <dc:title></dc:title>
      </cc:Work>
    </rdf:RDF>
  </metadata>
  <defs
     id="defs3910" />
  <sodipodi:namedview
     pagecolor="#ffffff"
     bordercolor="#666666"
     borderopacity="1"
     objecttolerance="10"
     gridtolerance="10"
     guidetolerance="10"
     inkscape:pageopacity="0"
     inkscape:pageshadow="2"
     inkscape:window-width="1920"
     inkscape:window-height="1017"
     id="namedview3908"
     showgrid="false"
     inkscape:zoom="0.88500003"
     inkscape:cx="133.33333"
     inkscape:cy="133.33333"
     inkscape:window-x="1912"
     inkscape:window-y="-8"
     inkscape:window-maximized="1"
     inkscape:current-layer="svg3906" />
  <g
     id="g3916"
     transform="translate(1.1299482,1.1299439)">
    <path
       style="fill:#fdfdfd;stroke-width:1.33333325"
       d="M 0,133.33333 V 0 H 133.33333 266.66666 V 133.33333 266.66666 H 133.33333 0 Z"
       id="path3932"
       inkscape:connector-curvature="0" />
    <path
       style="fill:#bbc2c9;stroke-width:1.33333325"
       d="M 38.666666,263.68989 C 22.660885,257.77323 11.376206,247.53511 4.369526,232.5735 1.0248876,225.43158 0.66666665,223.24778 0.66666665,209.99999 c 0,-13.24778 0.35822095,-15.43158 3.70285935,-22.5735 10.131283,-21.63369 27.962664,-33.07464 51.630473,-33.12709 11.801133,-0.0261 18.666666,1.71501 18.666666,4.73404 0,0.97136 -1.578477,4.20048 -3.507728,7.17582 l -3.507727,5.40972 -9.053987,-0.6478 c -16.265677,-1.16381 -30.715392,6.96698 -38.264097,21.53102 -4.868529,9.39306 -5.082169,25.17522 -0.462477,34.16446 4.187125,8.14753 10.15645,14.21473 18.12935,18.42661 5.594733,2.95556 8.38176,3.52278 17.333333,3.52767 12.619424,0.007 19.873426,-2.79949 27.847442,-10.77351 7.291025,-7.29102 10.53587,-15.19376 11.413388,-27.79701 l 0.739169,-10.61625 6.352079,-3.92056 c 3.49364,-2.15632 6.68792,-3.58472 7.0984,-3.17424 0.41048,0.41048 1.41626,4.65736 2.23507,9.4375 2.67415,15.61162 -2.50767,32.73716 -13.720868,45.34647 -15.211753,17.10571 -38.994208,23.82553 -58.631346,16.56655 z M 192.3239,262.89831 c -23.52024,-10.05054 -36.58358,-28.32416 -36.86254,-51.56498 -0.14434,-12.02529 1.0829,-18 3.69732,-18 0.976,0 4.26457,1.80376 7.30793,4.00836 5.42097,3.92693 5.53339,4.1697 5.53339,11.94998 0,15.63743 9.02877,30.19311 22.66666,36.54194 9.21565,4.29014 25.13364,3.94354 34,-0.74034 7.97289,-4.21188 13.94223,-10.27908 18.12935,-18.42661 4.61969,-8.98924 4.40605,-24.7714 -0.46247,-34.16446 -7.66096,-14.78062 -21.59457,-22.4741 -39.20301,-21.64606 l -10.14747,0.47719 -3.49153,-6.34524 c -4.12163,-7.49032 -3.77043,-7.93048 8.20804,-10.28711 24.36353,-4.79322 49.34526,8.69807 60.59757,32.72551 3.34463,7.14192 3.70285,9.32572 3.70285,22.5735 0,13.24779 -0.35822,15.43159 -3.70285,22.57351 -4.87679,10.41357 -11.29635,18.0674 -19.9266,23.75785 -16.47401,10.8623 -34.46897,13.22355 -50.04664,6.56696 z M 43.863843,230.32257 c -5.233589,-3.478 -10.543761,-13.05462 -10.501228,-18.93843 0.04232,-5.85412 4.388205,-14.55796 8.815347,-17.65518 2.102121,-1.47064 7.376885,-3.77639 11.721699,-5.1239 4.344815,-1.3475 10.571933,-4.4898 13.838043,-6.98288 l 5.938379,-4.53286 7.828624,7.74693 c 8.332803,8.24585 9.050407,9.82324 5.724613,12.5834 -2.580614,2.14172 -7.845625,12.48365 -9.119737,17.91368 -1.482734,6.31913 -6.78979,13.38622 -11.858773,15.79161 -6.814915,3.23389 -16.854785,2.87405 -22.386967,-0.80237 z m 156.802817,1.75384 c -4.7956,-1.95642 -9.86008,-8.21454 -12.62229,-15.59722 -1.49107,-3.98524 -2.71104,-7.77744 -2.71104,-8.42709 0,-0.64965 -2.1,-3.93233 -4.66667,-7.29485 C 178.1,197.39474 176,194.18 176,193.61338 c 0,-0.5666 3.55174,-4.54488 7.89276,-8.8406 l 7.89274,-7.8104 5.06223,4.17271 c 2.78421,2.29499 8.98246,5.45433 13.7739,7.02077 15.87184,5.18888 22.25564,12.91164 21.04948,25.46445 -1.12388,11.69646 -9.98378,19.772 -21.53496,19.6285 -3.74156,-0.0465 -8.00282,-0.57407 -9.46949,-1.1724 z M 85.492309,180.82706 c -8.208282,-8.28189 -8.375656,-8.5902 -6.345576,-11.68849 9.130353,-13.93468 10.459158,-44.00404 2.791566,-63.17 l -3.585788,-8.96306 8.550309,-8.55031 8.55031,-8.550309 7.49678,3.315434 c 4.12323,1.823488 12.69027,4.041963 19.03785,4.929947 14.05174,1.96574 29.49358,0.08107 40.61636,-4.957227 l 7.27078,-3.293455 8.55296,8.55296 8.55296,8.55296 -3.66634,9.16391 c -2.91831,7.29419 -3.79738,12.02034 -4.30854,23.16391 -0.73994,16.13129 0.85102,26.47253 5.59315,36.35565 l 3.34805,6.97768 -8.64008,8.65416 c -8.03536,8.04847 -8.84184,8.52818 -11.52268,6.85395 -15.66766,-9.78461 -49.44663,-10.51735 -67.21594,-1.45803 -2.82276,1.43912 -5.472756,2.61659 -5.888882,2.61659 -0.416128,0 -4.55039,-3.82781 -9.187249,-8.50627 z M 148,123.95633 v -6.71034 l -14.80394,0.37701 -14.80394,0.377 -0.24969,6.33333 -0.24969,6.33333 H 132.94637 148 Z M 45.999999,111.94786 C 26.315427,107.91267 12.838512,97.324302 4.369526,79.240177 -1.1081585,67.543485 -1.1081585,45.789846 4.369526,34.093154 11.096364,19.7291 23.191394,8.4256081 36.666666,3.9096471 c 2.933333,-0.9830466 5.903333,-2.2648726 6.6,-2.8485022 C 43.963332,0.47751519 49.099564,0 54.680513,0 65.632433,0 75.753605,3.1068147 86.111442,9.6480995 92.574792,13.7299 101.931,24.026402 105.4765,30.959333 108.77331,37.405979 112,49.897817 112,56.214503 c 0,7.598214 -2.70181,18.54934 -4.77244,19.343916 -1.01499,0.389487 -4.39586,-1.167449 -7.513056,-3.459858 L 94.046882,67.930545 94.461244,58.96118 C 95.22189,42.496095 86.412818,27.54263 71.999998,20.83305 63.196366,16.734708 46.873925,16.898141 38.666666,21.16681 30.466581,25.431749 24.422807,31.402243 20.277179,39.333332 c -2.911438,5.569936 -3.484706,8.421436 -3.484706,17.333333 0,8.940471 0.572987,11.772155 3.540653,17.497798 7.322099,14.126839 21.710561,22.483347 37.236978,21.626432 l 8.29059,-0.457564 4.456263,5.840169 c 2.450944,3.21209 4.233657,6.51209 3.961586,7.33333 -0.594505,1.79451 -11.76921,4.57765 -18.278544,4.55242 -2.566667,-0.01 -7.066667,-0.51008 -10,-1.11139 z m 158.666661,0.8007 c -0.73333,-0.2916 -3.43333,-0.88814 -6,-1.32566 -8.10421,-1.38143 -8.68348,-2.3932 -4.84836,-8.46841 4.53384,-7.182082 5.46694,-7.619379 15.21208,-7.129215 15.64617,0.786977 29.98319,-7.538099 37.30316,-21.660812 2.96765,-5.725643 3.54064,-8.557327 3.54064,-17.497798 0,-8.911897 -0.57327,-11.763397 -3.48471,-17.333333 -4.14562,-7.931089 -10.1894,-13.901583 -18.38948,-18.166522 -4.82732,-2.510733 -8.08476,-3.121268 -16.66666,-3.123793 -12.61941,-0.0037 -19.87539,2.80415 -27.84744,10.776206 -7.475,7.474996 -10.55823,15.157529 -11.42101,28.457922 l -0.73155,11.277145 -5.67492,3.981266 c -6.89325,4.835989 -7.86429,4.145731 -9.95071,-7.073342 -7.34397,-39.490209 34.12358,-75.785816 71.53685,-62.6145867 16.51839,5.8152469 27.89063,15.9523467 35.05259,31.2455267 3.34463,7.141924 3.70285,9.325724 3.70285,22.573511 0,13.247788 -0.35822,15.431588 -3.70285,22.573512 -7.06881,15.094286 -17.87613,25.131593 -32.46327,30.150303 -7.11478,2.44785 -22.34548,4.48009 -25.16721,3.35808 z M 68.764193,88.077503 C 66.049493,85.920131 61.01699,83.155231 57.580853,81.933282 54.144716,80.711333 49.75178,79.132015 47.818773,78.423689 33.444035,73.15624 29.06253,53.290409 39.887915,42.465024 52.102707,30.250233 70.999156,34.307008 76.71509,50.371249 c 1.232009,3.462479 2.892655,8.053442 3.690324,10.202137 0.797668,2.148698 3.487672,6.575816 5.977785,9.838043 l 4.52748,5.931321 -7.746936,7.828624 c -4.260814,4.305742 -8.133216,7.828624 -8.605334,7.828624 -0.472119,0 -3.079516,-1.765123 -5.794216,-3.922495 z m 113.257217,-4.055868 -7.89512,-7.978364 3.45131,-3.688302 c 4.22596,-4.516164 7.38549,-10.624229 9.93305,-19.202804 2.26843,-7.638622 9.24907,-15.248446 15.46529,-16.859233 14.11259,-3.656939 27.61789,5.769664 28.63227,19.985105 0.91842,12.871085 -4.96099,19.170966 -24.08172,25.803929 -3.56043,1.235109 -8.43964,3.971937 -10.84269,6.081842 -2.40304,2.109904 -4.90875,3.83619 -5.56823,3.83619 -0.65948,0 -4.75185,-3.590264 -9.09416,-7.978363 z"
       id="path3930"
       inkscape:connector-curvature="0" />
    <path
       style="fill:#b4bbc3;stroke-width:1.33333325"
       d="M 38.907271,263.36173 C 22.537402,257.44365 10.831348,246.73846 3.6645539,231.13226 1.1692326,225.69851 0.69308406,222.3215 0.68102076,209.97195 c -0.0136444,-13.96817 0.204983,-15.14023 4.42197794,-23.70617 5.6285973,-11.4333 15.0245023,-20.84866 26.3885103,-26.44314 7.666303,-3.77411 10.616239,-4.45824 21.223987,-4.92219 12.169977,-0.53228 21.951169,1.22148 21.951169,3.93583 0,2.12849 -3.666973,8.56081 -5.970057,10.4722 -1.41458,1.174 -5.216212,1.68134 -11.155193,1.48873 -22.338291,-0.72451 -39.904511,14.90219 -41.308733,36.74774 -0.690041,10.73503 2.358807,19.81279 9.304472,27.70348 8.444214,9.59314 15.549462,13.10108 27.995087,13.82155 9.734628,0.56353 11.142383,0.29731 19.073405,-3.60713 14.513434,-7.14494 22.296313,-19.75503 22.296313,-36.12528 v -9.24214 l 6.133851,-4.06289 c 3.37361,-2.23458 6.63492,-3.56181 7.24734,-2.9494 1.81854,1.81855 3.7229,16.3576 2.90548,22.18233 -2.6919,19.18194 -13.969747,36.04467 -29.311933,43.82744 -16.279821,8.25843 -28.559433,9.47835 -42.969426,4.26882 z m 159.759389,1.67704 c -1.83333,-0.79608 -6.59141,-2.87176 -10.5735,-4.61263 -19.20122,-8.39423 -32.21978,-27.97031 -32.52372,-48.90609 -0.14998,-10.32983 1.3887,-18.18672 3.56164,-18.18672 0.9223,0 4.12773,1.80236 7.12318,4.00524 5.38927,3.9633 5.4468,4.09584 5.49622,12.6622 0.0911,15.77609 8.06361,28.44834 22.31053,35.46208 7.93102,3.90444 9.33878,4.17066 19.07341,3.60713 12.44563,-0.72047 19.55087,-4.22841 27.99508,-13.82155 13.67125,-15.53137 12.48165,-38.65026 -2.76557,-53.74657 -7.71244,-7.6361 -17.59427,-11.15826 -29.86864,-10.64601 -6.67835,0.27871 -10.18483,-0.15828 -11.76003,-1.46559 -2.34822,-1.94885 -6.0686,-8.37617 -6.0686,-10.4841 0,-2.5416 12.03249,-4.56412 23.80469,-4.0013 10.03492,0.47978 13.23623,1.24151 20.73726,4.93426 11.33237,5.5789 20.73146,15.00354 26.35505,26.42666 4.217,8.56594 4.43563,9.738 4.42197,23.70617 -0.012,12.34955 -0.4882,15.72656 -2.98353,21.16031 -7.30124,15.89899 -18.95713,26.40336 -35.86809,32.32459 -9.82347,3.4396 -22.55934,4.14732 -28.46735,1.58192 z M 45.130407,230.64278 c -8.581525,-4.53376 -13.138901,-15.37467 -10.532471,-25.05421 1.349215,-5.0106 10.220354,-14.92191 13.355887,-14.92191 3.639017,0 16.852341,-6.12262 20.91897,-9.69317 l 4.654229,-4.08647 8.131395,8.13139 8.131394,8.1314 -3.760264,4.92996 c -2.068146,2.71148 -5.439204,9.43041 -7.49124,14.93096 -2.052036,5.50054 -5.112625,11.50068 -6.801309,13.33364 -6.546928,7.10624 -17.838929,8.93052 -26.606591,4.29841 z m 156.202923,1.26884 c -6.02207,-2.52541 -10.54224,-8.19104 -13.40975,-16.80792 -1.55018,-4.65831 -4.93174,-11.54173 -7.51456,-15.29649 l -4.69605,-6.82685 8.04667,-8.04667 8.04666,-8.04667 4.62334,4.05935 c 2.54284,2.23264 7.53642,5.12267 11.09685,6.42228 14.32617,5.22929 17.41186,7.01084 20.33502,11.74063 9.19098,14.87129 0.57098,32.74361 -16.29104,33.77707 -3.79709,0.23272 -8.40381,-0.20592 -10.23714,-0.97473 z m -115.455173,-51.7394 -8.121842,-8.83889 2.973459,-5.15932 c 8.863476,-15.37921 8.60435,-49.74731 -0.491552,-65.19508 l -2.1714,-3.687732 8.77198,-8.77198 8.77198,-8.77198 5.669298,2.892261 c 7.42031,3.785559 21.19602,6.641757 32.1733,6.67068 9.63279,0.02539 27.82415,-4.093292 32.9693,-7.464521 3.20516,-2.100107 3.41154,-1.986739 11.97778,6.579497 l 8.71643,8.716424 -3.41052,7.762541 c -4.33855,9.8748 -5.25253,15.25214 -5.22081,30.7162 0.0272,13.24769 2.46001,24.3986 7.0419,32.2765 l 2.65419,4.5635 -8.56288,8.56288 -8.56289,8.56289 -5.48596,-2.79873 c -17.52552,-8.94086 -48.264,-8.94952 -65.770165,-0.0185 -2.764771,1.41048 -5.200759,2.49202 -5.413307,2.4034 -0.212548,-0.0885 -4.04128,-4.1386 -8.508291,-9 z M 148,124 v -6.66667 H 132.66666 117.33333 V 124 130.66666 H 132.66666 148 Z M 37.618878,109.47851 C 22.835545,104.37209 10.644114,92.997416 3.6645539,77.79893 1.1663421,72.358896 0.69537486,69.006925 0.69537486,56.666665 0.69537486,44.326406 1.1663421,40.974435 3.6645539,35.5344 10.965801,19.635416 22.621697,9.1310408 39.532659,3.2098146 54.136944,-1.9037489 65.502802,-0.73239666 81.876697,7.5737418 99.232204,16.377833 111.10948,36.327426 111.10487,56.666665 c -0.002,8.308659 -2.2493,19.333333 -3.94116,19.333333 -1.60727,0 -8.063819,-3.980196 -10.052294,-6.196828 C 95.459982,67.962252 94.913935,64.873241 94.967027,57.672272 95.027784,49.431597 94.416528,46.748303 90.809439,39.421264 86.016991,29.686419 81.153909,25.023527 70.857337,20.290494 61.053658,15.78403 46.05181,16.429448 36.976134,21.748149 13.117028,35.730515 8.973443,66.026838 28.302727,85.164803 35.564359,92.35456 45.326812,95.999998 57.319295,95.999998 h 9.219262 l 4.064053,5.906902 c 2.235231,3.24879 4.064055,6.1901 4.064055,6.53623 0,0.34613 -1.889533,1.28803 -4.198964,2.0931 -6.625989,2.30983 -24.793133,1.72486 -32.848823,-1.05772 z m 158.047782,1.04475 C 193.65,109.74658 192,108.40039 192,107.53173 c 0,-2.42077 6.55234,-11.518075 8.38139,-11.636772 0.89023,-0.05777 5.24732,-0.02081 9.68243,0.08212 34.07869,0.790961 53.34533,-39.247825 31.06568,-64.558844 -8.40595,-9.549661 -15.56369,-13.101916 -27.83112,-13.812066 -8.94448,-0.517788 -11.31421,-0.154068 -17.48905,2.684327 -10.26455,4.718307 -15.1578,9.392148 -19.88396,18.992339 -3.50065,7.110828 -4.16067,9.98725 -4.16067,18.13255 0,10.380938 -0.89254,11.967949 -9.33338,16.59535 -3.51346,1.926131 -3.59422,1.879279 -5.21806,-3.027162 -2.41569,-7.299088 -2.04645,-22.454027 0.7549,-30.983573 4.49484,-13.685873 15.06157,-26.460531 26.82181,-32.4262572 16.37389,-8.30613846 27.73974,-9.4774907 42.34404,-4.3639272 16.91096,5.9212262 28.56685,16.4256014 35.86809,32.3245854 2.49533,5.43374 2.97148,8.810759 2.98353,21.160301 0.0136,13.968181 -0.20497,15.140241 -4.42197,23.706174 -5.63731,11.451005 -15.02767,20.850215 -26.44696,26.471925 -8.11051,3.99278 -10.23691,4.44304 -22.37284,4.73738 -7.3758,0.17888 -15.06053,-0.31023 -17.0772,-1.08692 z M 67.999998,87.25309 c -3.3,-2.512624 -9.996043,-5.781799 -14.880097,-7.264835 C 46.587462,78.00469 43.165447,76.068202 40.176008,72.66342 26.951461,57.601493 36.16794,35.999999 55.8188,35.999999 c 12.374626,0 17.822734,5.161243 23.37659,22.145721 1.225193,3.746814 4.393373,9.342581 7.040401,12.435037 l 4.812779,5.622649 -7.815881,7.898296 c -4.298735,4.344062 -8.134664,7.858133 -8.524287,7.809045 -0.389621,-0.04909 -3.408404,-2.145033 -6.708404,-4.657657 z m 114.122682,-3.129117 -7.79384,-7.876026 3.58952,-3.790641 c 4.49328,-4.745042 7.12717,-9.670864 9.57046,-17.898325 3.57831,-12.049423 11.61554,-18.558982 22.91445,-18.558982 8.5167,0 14.60974,4.014509 18.74576,12.35098 2.55382,5.14742 2.97647,7.497872 2.23607,12.435226 -1.24036,8.271287 -8.13244,15.873837 -16.69579,18.416878 -7.61314,2.260863 -13.86589,5.33007 -19.60035,9.620988 -2.3344,1.74676 -4.45319,3.175927 -4.7084,3.175927 -0.25523,0 -3.97127,-3.544212 -8.25788,-7.876025 z"
       id="path3928"
       inkscape:connector-curvature="0" />
    <path
       style="fill:#97a2ac;stroke-width:1.33333325"
       d="M 38.904326,263.25781 C 27.262098,258.89514 22.692501,255.82447 14.213417,246.66605 5.2818377,237.01889 1.2305344,227.25838 0.33092793,213.22002 -0.78879446,195.74677 4.7867413,181.94781 18.025753,169.4269 c 10.167084,-9.61561 19.744281,-13.68768 33.974246,-14.44533 12.130471,-0.64585 22.666666,1.30872 22.666666,4.20492 0,0.96271 -1.654596,4.03219 -3.67688,6.82105 l -3.676881,5.0707 -10.656452,-0.23438 c -8.800921,-0.19357 -11.840993,0.32443 -17.459349,2.97488 -8.044538,3.79502 -15.354162,10.74431 -19.511842,18.55 -4.335356,8.13927 -4.335356,27.12324 0,35.26251 7.375145,13.84621 20.308938,21.66784 35.864908,21.68905 8.191989,0.0107 10.746012,-0.60603 17.958844,-4.33987 14.093957,-7.296 21.436619,-19.72062 21.706235,-36.72948 0.113894,-7.18497 0.326075,-7.60788 5.980882,-11.92063 3.22454,-2.45927 6.32842,-3.98966 6.89752,-3.40086 1.94175,2.00896 3.28355,14.38779 2.50859,23.14313 -1.49272,16.86446 -13.575304,35.268 -27.979087,42.61627 -16.571533,8.45416 -29.691644,9.82532 -43.718827,4.56895 z m 157.717244,0.76545 c -19.71305,-6.82387 -31.20143,-17.61237 -37.94339,-35.63189 -3.96201,-10.58943 -3.78865,-35.05804 0.24839,-35.05804 0.71728,0 3.90459,1.86748 7.08288,4.14997 5.58436,4.01037 5.77333,4.3804 5.61832,11.00104 -0.37317,15.93855 7.45637,29.21068 21.52988,36.49609 7.21282,3.73384 9.76685,4.35104 17.95884,4.33987 15.55597,-0.0212 28.48976,-7.84284 35.8649,-21.68905 4.33536,-8.13927 4.33536,-27.12324 0,-35.26251 -4.24468,-7.96904 -11.58257,-14.84774 -19.9018,-18.65641 -6.08212,-2.78449 -8.76864,-3.21255 -17.97322,-2.86377 -10.64248,0.40326 -10.87189,0.34426 -13.81335,-3.55258 -1.64513,-2.17945 -3.38406,-5.26402 -3.8643,-6.8546 -0.78651,-2.60492 -0.15422,-3.05284 6.37066,-4.51304 10.80649,-2.41838 26.58393,-1.03577 35.87148,3.1435 8.74703,3.93605 20.73755,14.6447 25.50328,22.77681 8.19169,13.97807 9.59849,33.43776 3.55663,49.19745 -3.17092,8.27109 -14.20374,21.42924 -22.01662,26.25788 -14.04428,8.67984 -30.97529,11.25996 -44.09258,6.71928 z M 45.999999,230.67321 c -13.08212,-6.51986 -16.030561,-23.65763 -5.87312,-34.13745 2.759105,-2.84668 7.40597,-5.494 12.786646,-7.28458 4.648828,-1.54704 11.361147,-4.81364 14.916263,-7.25913 l 6.463847,-4.44635 7.652468,7.73316 7.652467,7.73316 -4.710755,6.84824 c -2.590914,3.76652 -5.655754,10.09892 -6.810756,14.07197 -4.794827,16.49364 -18.363903,23.57532 -32.07706,16.74098 z m 155.333331,1.16581 c -5.96231,-2.37051 -10.52823,-8.07636 -13.42245,-16.77352 -1.55719,-4.67932 -4.90312,-11.58665 -7.43543,-15.34964 l -4.60417,-6.84178 7.5842,-7.66419 7.58421,-7.66419 6.46824,4.44938 c 3.55753,2.44714 9.6236,5.47322 13.48016,6.72461 10.66053,3.45917 15.18873,6.75985 18.4139,13.42216 8.55191,17.66588 -9.71614,36.99381 -28.06866,29.69717 z m -114.670237,-51.17596 -8.430868,-8.50648 3.44651,-7.74496 c 4.001252,-8.99157 6.321263,-20.40942 6.321263,-31.10989 0,-8.05159 -3.910491,-25.34935 -7.144535,-31.6033 -1.94051,-3.752538 -1.874649,-3.878255 6.609276,-12.615774 l 8.56932,-8.825465 6.411931,3.09322 c 16.49662,7.958229 44.11711,7.908316 60.88734,-0.110026 L 170,80.052853 l 8.53585,8.521773 8.53585,8.521774 -2.7397,5.82849 c -8.52875,18.14413 -8.4874,46.33225 0.0928,63.26447 l 3.40621,6.72182 -8.40385,8.32915 -8.40384,8.32915 -5.471,-2.7911 c -17.68978,-9.02465 -47.90041,-9.11705 -65.37934,-0.19997 l -5.079021,2.59113 z M 148,124 v -6.66667 H 132.66666 117.33333 V 124 130.66666 H 132.66666 148 Z M 37.631374,109.44705 C 28.035154,105.89173 23.07977,102.61976 15.870257,95.078483 3.928575,82.587274 -0.73568497,70.091125 0.33092793,53.446633 1.2305344,39.408276 5.2818377,29.647779 14.213417,20.000607 22.865203,10.655646 27.250001,7.7639513 39.513032,3.3159681 c 13.912045,-5.0461053 26.44337,-3.83538101 41.971818,4.055142 17.79817,9.0438439 29.09533,27.7885919 29.3186,48.6467029 0.10825,10.112889 -1.88719,19.982185 -4.04014,19.982185 -0.56643,0 -3.48957,-1.781793 -6.49586,-3.95954 l -5.465988,-3.95954 0.12856,-9.040459 C 95.177864,41.611879 88.07562,29.226895 73.509013,21.686233 66.296181,17.952382 63.742158,17.335185 55.550169,17.346358 c -15.55597,0.02122 -28.489763,7.842836 -35.864908,21.689053 -2.471093,4.639269 -2.999472,7.74514 -2.999472,17.631254 0,13.639128 2.278701,19.542268 10.85368,28.117248 7.742201,7.742199 16.606793,11.187705 28.823228,11.203059 l 10.362699,0.01303 3.979664,6.275268 c 3.671883,5.78997 3.798509,6.37872 1.637301,7.61268 -1.2883,0.73557 -8.042363,1.52375 -15.009029,1.75151 -10.027771,0.32783 -14.132356,-0.12893 -19.701958,-2.19241 z m 158.701956,1.13423 c -5.24892,-1.60398 -5.36476,-2.9496 -0.81867,-9.50961 l 3.51467,-5.071672 10.81866,-0.01307 c 12.70664,-0.01529 21.42878,-3.352635 29.2792,-11.20306 8.57498,-8.57498 10.85368,-14.478119 10.85368,-28.117247 0,-9.886115 -0.52838,-12.991985 -2.99948,-17.631254 -7.37514,-13.846217 -20.30893,-21.667837 -35.8649,-21.689053 -22.86999,-0.03119 -40.03537,17.937251 -39.47259,41.319258 0.19183,7.970154 -2.05168,11.718762 -9.25737,15.467795 -3.59009,1.867885 -3.62333,1.843363 -5.14089,-3.792413 -2.33622,-8.676056 -1.65312,-23.818558 1.44845,-32.108255 6.82856,-18.250933 18.33971,-28.9168245 38.48772,-35.6615526 10.26248,-3.43545761 19.04892,-3.21712118 29.97182,0.7447773 12.26303,4.4479832 16.64783,7.3396783 25.29962,16.6846393 8.93157,9.647172 12.98288,19.407669 13.88248,33.446026 1.11973,17.473265 -4.45582,31.272223 -17.69483,43.79313 -10.75165,10.168481 -19.68688,13.779471 -35.30757,14.268861 -6.96667,0.21827 -14.61667,-0.19904 -17,-0.92734 z M 68.402292,87.36215 C 65.323553,84.924454 58.906009,81.632614 54.141085,80.046949 39.504119,75.176079 34.666666,69.461738 34.666666,57.042391 c 0,-12.344119 8.728165,-21.042392 21.114705,-21.042392 10.435971,0 17.098767,4.937636 20.794006,15.409933 4.016924,11.383948 5.775434,14.804206 10.205923,19.850254 l 4.305915,4.904167 -7.835204,7.917822 c -4.309362,4.354803 -8.153986,7.871547 -8.543609,7.814987 -0.389621,-0.05656 -3.227372,-2.097316 -6.30611,-4.535012 z m 114.236528,-3.448205 -7.36116,-7.696531 3.10099,-3.775374 c 4.22969,-5.149563 7.70935,-12.00806 9.53832,-18.800379 1.80545,-6.704942 7.79205,-13.978667 13.42566,-16.312182 5.35646,-2.218719 16.60494,-1.034508 21.09002,2.220304 1.96204,1.423845 4.98441,5.4147 6.71638,8.868565 6.74176,13.444333 -0.22336,26.349141 -16.96624,31.434635 -4.97545,1.511247 -11.816,4.862563 -15.20121,7.447368 -3.38522,2.584805 -6.34093,4.612004 -6.56826,4.504885 -0.22732,-0.10712 -3.72584,-3.658198 -7.7745,-7.891291 z"
       id="path3926"
       inkscape:connector-curvature="0" />
    <path
       style="fill:#788694;stroke-width:1.33333325"
       d="M 39.388198,263.12802 C 22.745974,257.05995 12.142418,247.55361 4.8509425,232.1645 1.0284933,224.09698 0.66666665,222.18035 0.66666665,209.99999 c 0,-12.18035 0.36182665,-14.09698 4.18427585,-22.1645 7.2501315,-15.30184 18.3049365,-25.25981 33.9262885,-30.56017 7.058168,-2.39486 10.540249,-2.78506 19.889434,-2.22882 6.233333,0.37087 12.401215,1.10818 13.706401,1.63847 2.885023,1.17216 2.062895,4.7622 -2.480146,10.83023 -3.021524,4.03577 -3.339879,4.13729 -9.112788,2.90605 -11.488112,-2.45017 -29.631647,4.87296 -36.713383,14.81833 -5.715775,8.02707 -8.007235,15.12051 -8.037467,24.88079 -0.06935,22.38717 17.256623,39.60512 39.853602,39.60512 21.761725,0 38.94804,-17.15064 39.43073,-39.34888 0.14061,-6.46656 0.845942,-9.67628 2.536964,-11.54484 2.845242,-3.14396 9.871932,-6.22037 11.192172,-4.90013 0.52649,0.52649 0.95725,7.66986 0.95725,15.87417 0,14.20592 -0.21146,15.34645 -4.43633,23.9284 -12.506644,25.40458 -41.633642,38.34221 -66.175472,29.39381 z m 163.278462,2.20531 c -1.1,-0.71088 -3.11421,-1.3017 -4.47604,-1.31292 -5.16442,-0.0425 -19.669,-8.31776 -26.18893,-14.94135 -3.67981,-3.73832 -8.63557,-10.7478 -11.0128,-15.57663 -4.09335,-8.31477 -4.32223,-9.56961 -4.32223,-23.69662 0,-8.20431 0.39424,-15.31116 0.8761,-15.79301 1.17201,-1.17202 7.84768,2.367 10.96734,5.8142 1.80118,1.99027 2.58551,5.12049 2.79494,11.15442 0.98474,28.37147 30.21866,47.03927 55.48015,35.42777 10.23175,-4.70304 15.13028,-9.32244 19.8041,-18.67558 6.85789,-13.72387 5.39408,-29.31617 -3.98938,-42.49403 -7.16701,-10.06513 -25.21568,-17.27056 -36.97714,-14.76208 -7.23605,1.5433 -8.56185,0.82918 -12.38937,-6.6734 l -2.57171,-5.04096 2.92113,-1.56333 c 1.60662,-0.85984 8.05773,-1.8478 14.33581,-2.19547 9.36503,-0.51862 12.95107,-0.1108 19.9708,2.27098 15.62135,5.30036 26.67615,15.25833 33.92628,30.56017 3.82246,8.06752 4.18428,9.98415 4.18428,22.1645 0,12.18036 -0.36182,14.09699 -4.18428,22.16451 -7.46564,15.75671 -18.07908,25.08967 -35.2857,31.02859 -10.28867,3.55117 -20.29183,4.44833 -23.86335,2.14024 z M 48.000683,231.83539 c -14.409812,-5.74597 -18.25104,-26.01897 -6.879801,-36.30979 1.499974,-1.35746 6.791874,-3.9435 11.759777,-5.74675 4.967904,-1.80325 11.825962,-5.28551 15.24013,-7.73835 l 6.20758,-4.45969 7.566844,7.64663 7.566843,7.64664 -4.734029,7.03473 c -2.603716,3.8691 -5.662901,10.22994 -6.798188,14.1352 -2.608041,8.97134 -6.265679,13.63037 -13.158375,16.76088 -5.985717,2.71857 -11.662624,3.0674 -16.770781,1.0305 z m 151.773297,-1.20445 c -5.8575,-3.0942 -9.65085,-8.09623 -11.61038,-15.30984 -1.7702,-6.51657 -6.16256,-14.95644 -9.89678,-19.0165 l -2.78565,-3.02874 7.21387,-7.3046 c 3.96762,-4.01753 7.69358,-7.3046 8.27992,-7.3046 0.58633,0 4.20684,2.04946 8.04554,4.55434 3.83872,2.50488 10.41293,5.60924 14.60937,6.89857 9.29996,2.85735 15.42731,8.72312 17.1579,16.42544 2.27512,10.12578 -2.17931,19.63164 -11.25902,24.02705 -7.05069,3.41317 -13.36922,3.43201 -19.75477,0.0589 z M 86.567023,180.56613 c -7.900785,-7.97164 -8.391336,-8.80709 -6.731685,-11.46461 9.743769,-15.60226 10.540093,-48.71088 1.593384,-66.24787 l -2.596464,-5.089495 8.917202,-8.731952 8.917204,-8.731953 3.999526,2.499648 c 12.22137,7.638178 43.18146,8.633852 59.81329,1.923589 l 9.14614,-3.690094 8.3248,8.250805 8.3248,8.250806 -3.26385,8.080476 c -7.67299,18.9964 -6.71936,47.70945 2.08315,62.72249 l 2.15258,3.67131 -8.50129,8.57753 -8.50129,8.57753 -6.12226,-3.06628 c -17.60232,-8.81593 -45.30888,-8.81593 -62.91119,0 l -6.122264,3.06628 z M 148,124 v -6.66667 H 132.66666 117.33333 V 124 130.66666 H 132.66666 148 Z M 38.104903,109.19556 C 23.11393,104.04018 11.97686,93.870852 4.8509425,78.831169 1.0284933,70.763656 0.66666665,68.847026 0.66666665,56.666665 c 0,-12.180361 0.36182665,-14.09699 4.18427585,-22.164503 C 12.367512,18.637984 22.916274,9.4172416 40.486642,3.352766 48.099413,0.72519022 52.57252,-0.07185344 57.116896,0.3894924 78.877111,2.5985934 96.412168,14.343125 105.49422,32.791383 c 3.65942,7.433356 4.4555,10.733843 4.91391,20.37284 0.52629,11.066167 -1.32639,22.835775 -3.59462,22.835775 -0.59604,0 -3.42292,-1.696188 -6.28195,-3.769305 L 95.333331,68.461388 95.253988,57.89736 C 95.196176,50.199984 94.422863,45.660886 92.404218,41.170126 83.175143,20.638755 59.532168,11.224981 39.881459,20.257471 29.649726,24.96051 24.751191,29.579907 20.07737,38.93305 16.654548,45.782726 16,48.645021 16,56.763132 c 0,8.313277 0.61093,10.850698 4.352899,18.079214 7.326055,14.152038 19.677189,21.499904 36.506273,21.7181 8.833776,0.114533 12.355778,2.098005 15.901872,8.955394 1.801769,3.48424 1.758083,3.53807 -4.060267,5.00315 -9.022998,2.27201 -21.740534,1.72192 -30.595874,-1.32343 z m 162.561757,2.14914 c -0.73333,-0.24463 -2.98333,-0.80869 -5,-1.25348 -4.7052,-1.03775 -4.62281,-2.99034 0.38242,-9.06253 3.9378,-4.777251 4.2767,-4.904672 12.33333,-4.637128 17.09364,0.567644 30.39358,-6.988196 37.93136,-21.549216 3.74196,-7.228516 4.35289,-9.765937 4.35289,-18.079214 0,-43.275136 -58.64566,-55.2457736 -76.3921,-15.593006 -1.93368,4.320624 -2.79478,9.139526 -2.88026,16.118618 l -0.12186,9.955412 -5.86367,4.472365 c -5.46143,4.165568 -5.96239,4.305824 -7.30285,2.044588 -0.79611,-1.342973 -1.43919,-8.993815 -1.43919,-17.12248 0,-13.954145 0.22357,-15.148849 4.43633,-23.706174 9.15294,-18.592262 26.6231,-30.3274189 48.44677,-32.5429626 4.54438,-0.46134584 9.01748,0.33569782 16.63026,2.9632736 17.57036,6.0644756 28.11913,15.285218 35.63569,31.149396 3.82239,8.067513 4.18421,9.984142 4.18421,22.164503 0,12.180361 -0.36182,14.096991 -4.18428,22.164504 -9.88841,20.870106 -29.00236,33.317021 -50.77365,33.063561 -4.97313,-0.0579 -9.64207,-0.30541 -10.3754,-0.55003 z M 71.936221,89.92315 C 69.23261,86.665499 59.689009,81.493202 52.373045,79.320594 40.210174,75.708609 34.666666,68.727378 34.666666,57.022021 c 0,-11.733177 9.250742,-20.954882 21.066213,-21.000089 10.425882,-0.03989 17.343735,5.605703 21.432952,17.491219 3.062587,8.901563 5.63967,13.867955 9.879095,19.038377 l 3.185346,3.884862 -7.781803,7.781804 c -4.279992,4.279992 -8.008338,7.781804 -8.285211,7.781804 -0.276875,0 -1.279041,-0.934582 -2.227037,-2.076848 z m 111.555859,-5.762732 -7.6208,-7.701163 4.60417,-6.841787 c 2.53231,-3.762984 5.87824,-10.670324 7.43543,-15.349645 1.57401,-4.729924 4.44266,-10.045088 6.46017,-11.969683 13.93869,-13.296785 36.6033,-4.085088 36.6033,14.876873 0,11.020931 -5.9754,18.709454 -16.80758,21.626261 -6.97163,1.877264 -14.05068,5.484611 -19.09896,9.73245 l -3.95493,3.327856 z"
       id="path3924"
       inkscape:connector-curvature="0" />
    <path
       style="fill:#687887;stroke-width:1.33333325"
       d="M 43.333332,264.18102 C 20.045439,257.46735 5.2767857,241.57209 1.0101175,218.62925 -4.5947228,188.49076 19.255549,157.69376 50.208113,155.10165 c 8.758984,-0.73352 24.466229,1.40317 24.451721,3.32621 -0.0037,0.498 -1.459654,3.30547 -3.235328,6.2388 L 68.196009,170 57.098004,170.0756 c -9.277304,0.0631 -12.349978,0.67781 -18.729354,3.74678 -7.966445,3.83247 -15.165629,11.04459 -19.283296,19.31796 -3.401746,6.83492 -3.401746,26.88452 0,33.71944 7.228237,14.52325 20.555441,22.97301 36.247978,22.98207 22.553889,0.0133 39.510243,-16.84744 40.068376,-39.84179 l 0.226544,-9.33333 5.527458,-3.92508 c 7.80077,-5.53936 8.85595,-3.98107 8.79725,12.99174 -0.0604,17.4487 -3.09107,25.69015 -13.635616,37.07952 -14.399206,15.55279 -35.400891,22.43715 -52.984012,17.36811 z m 160.666658,1.15231 c -1.1,-0.71088 -3.21693,-1.3017 -4.70427,-1.31292 -6.30844,-0.0476 -21.28572,-8.92431 -28.84934,-17.09832 -10.64977,-11.50923 -13.67217,-19.69402 -13.73268,-37.18876 -0.058,-16.77745 0.88027,-18.10991 8.54684,-12.1372 5.52848,4.30701 5.65966,4.59448 5.96451,13.07053 0.80872,22.48537 17.90915,39.18793 40.10828,39.17512 15.69253,-0.009 29.01974,-8.45881 36.24797,-22.98207 3.40175,-6.83492 3.40175,-26.88451 0,-33.71943 -8.19067,-16.457 -27.11652,-26.35971 -43.35235,-22.68354 l -5.77103,1.3067 -3.85378,-6.07676 c -2.11957,-3.34223 -3.56214,-6.54863 -3.2057,-7.12535 1.33021,-2.15235 16.18406,-4.203 25.0601,-3.45968 18.06277,1.51265 35.71875,13.47275 43.63885,29.56077 16.5759,33.67041 -1.15624,70.42001 -38.53842,79.87033 -9.61816,2.4315 -14.67831,2.6622 -17.55898,0.80058 z M 48.666665,231.78453 c -8.759754,-3.19135 -13.999999,-10.84631 -13.999999,-20.4512 0,-11.13051 5.66958,-17.80615 18.221743,-21.45516 3.924168,-1.14079 10.232949,-4.15903 14.019515,-6.7072 l 6.884665,-4.63303 7.638553,7.55884 7.638553,7.55886 -4.429992,5.8036 c -2.436496,3.19198 -5.433692,9.25621 -6.660434,13.47606 -2.647047,9.10552 -6.14464,14.39224 -11.277759,17.04668 -5.258985,2.71952 -13.30933,3.52413 -18.034845,1.80255 z m 151.843325,-1.00287 c -6.68014,-3.03356 -8.96731,-6.13591 -12.62346,-17.12261 -1.54999,-4.65772 -4.79921,-11.06391 -7.22052,-14.23599 l -4.40237,-5.76742 7.70293,-7.62256 7.70293,-7.62255 5.59104,4.05012 c 3.07507,2.22757 9.46945,5.34079 14.20973,6.91825 15.0009,4.99198 20.00499,11.51899 18.91436,24.67061 -0.50792,6.12479 -1.37016,8.1525 -5.10541,12.0063 -7.07836,7.30302 -15.53928,8.91732 -24.76923,4.72585 z m -113.803491,-50.07481 -8.275982,-8.3502 2.790425,-5.46968 c 8.843253,-17.33421 8.923766,-47.47007 0.171984,-64.37323 l -2.495393,-4.819594 8.405087,-8.330378 8.405087,-8.330375 9.146143,3.697481 c 16.4287,6.641573 43.47244,6.143004 58.91409,-1.086119 l 5.76794,-2.700305 8.48349,8.408088 8.48351,8.408088 -2.68399,5.261044 c -8.28825,16.24631 -8.43961,43.78734 -0.34129,62.09909 l 3.26952,7.39298 -8.10246,8.17512 -8.10245,8.17512 -6.27111,-3.10262 c -17.68476,-8.7495 -49.27797,-8.32714 -65.113194,0.87048 l -4.175426,2.42522 z m 61.029841,-56.6045 0.40302,-6.76902 h -15.40302 -15.40301 v 6.44444 c 0,3.54445 0.24972,6.69445 0.55494,7 0.30521,0.30556 7.05521,0.45162 14.99999,0.32458 l 14.44507,-0.23098 z M 42.156984,110.60184 C 15.299221,103.85613 -3.6345718,75.389774 0.94683688,48.643696 5.0548593,24.661227 20.89999,8.1674366 45.767402,1.9882898 c 9.062134,-2.25179247 11.039457,-2.19811951 21.991763,0.5969499 16.77518,4.2810885 33.313065,18.2966593 38.980525,33.0353193 3.68193,9.575127 4.83212,26.634734 2.34377,34.762867 l -1.75013,5.716763 -5.97568,-3.785933 -5.975688,-3.785932 -0.07143,-10.597496 C 95.221359,44.70045 91.569063,35.733784 83.083197,27.911786 74.446841,19.951072 66.60588,16.81837 55.333332,16.824878 c -15.692537,0.0091 -29.019741,8.458819 -36.247978,22.982069 -3.401746,6.834916 -3.401746,26.884521 0,33.719436 7.278489,14.624219 20.401293,22.862628 36.751955,23.072633 9.516021,0.122227 9.96238,0.276162 13.666667,4.713304 4.415478,5.28903 4.771978,7.35626 1.496022,8.67497 -3.924252,1.57968 -23.352281,1.99362 -28.843014,0.61455 z m 155.922146,-0.0162 c -2.88981,-0.72395 -5.48405,-1.54614 -5.76499,-1.82707 -0.83318,-0.83319 3.3229,-8.13083 5.80276,-10.189034 1.51786,-1.259765 5.71589,-1.931536 12.42125,-1.98765 16.60599,-0.13897 29.69082,-8.28291 37.04315,-23.05552 3.40175,-6.834916 3.40175,-26.88452 0,-33.719436 -7.22823,-14.523253 -20.55544,-22.973013 -36.24797,-22.982072 -22.69767,-0.01307 -39.66872,16.978758 -40.02565,40.074717 -0.1597,10.333247 -1.27868,12.649355 -7.72084,15.980722 -4.73547,2.448804 -5.72788,1.414732 -7.05295,-7.348975 -1.30717,-8.645337 0.13584,-21.215366 3.43369,-29.910783 5.57602,-14.7022 22.12886,-28.745074 38.93992,-33.0353193 10.95229,-2.79506941 12.92963,-2.84874237 21.99176,-0.5969499 24.86741,6.1791468 40.71255,22.6729372 44.82056,46.6554062 4.00163,23.361288 -9.30237,47.728302 -31.80932,58.260574 -6.96676,3.26014 -10.85064,4.15656 -19.63111,4.53095 -6.02033,0.2567 -13.31045,-0.1256 -16.20026,-0.84956 z M 69.106654,87.52996 C 66.415316,85.167798 60.115316,81.810995 55.106655,80.070397 50.097995,78.329799 44.423971,75.813713 42.497715,74.479094 35.361968,69.535048 32.401557,56.247809 36.618776,48.092607 45.69103,30.548803 70.897149,32.98787 76.529655,51.954577 c 2.294655,7.726942 5.340626,13.895217 9.804707,19.855129 l 3.352885,4.476376 -7.843624,7.76936 -7.843625,7.76936 z m 114.337726,-3.417742 -7.77509,-7.857072 4.36297,-5.429126 c 2.39963,-2.98602 5.92404,-10.037874 7.83202,-15.670785 4.25804,-12.570977 9.41768,-17.487052 19.55583,-18.63268 13.06532,-1.476401 23.24655,7.803915 23.24655,21.189521 0,11.107512 -4.38009,16.727387 -16.20919,20.797191 -9.77765,3.364007 -15.73498,6.453847 -19.84774,10.294259 l -3.39027,3.165764 z"
       id="path3922"
       inkscape:connector-curvature="0" />
    <path
       style="fill:#4e6072;stroke-width:1.33333325"
       d="m 50.532555,266.0881 c -0.437564,-0.43756 -4.204692,-1.68353 -8.371396,-2.76881 -11.03994,-2.87555 -17.715548,-6.69978 -25.789961,-14.77419 -21.3550832,-21.35508 -21.2620928,-55.82812 0.208512,-77.29873 12.978627,-12.97863 30.662887,-18.57181 48.589966,-15.36807 5.223344,0.93347 9.493914,2.09272 9.490158,2.57612 -0.0037,0.4834 -1.459638,3.27891 -3.235292,6.21224 L 68.196081,170 H 57.09804 c -9.436823,0 -12.227778,0.55478 -18.645433,3.70637 -14.643437,7.19111 -22.96645,20.34387 -22.96645,36.29362 0,35.29422 42.28224,53.38412 67.629038,28.9342 8.257185,-7.96501 12.017381,-16.56021 12.366375,-28.26753 l 0.298098,-10 5.451752,-3.92508 c 6.93894,-4.9958 8.23788,-3.81753 9.10175,8.25617 1.99717,27.91312 -15.144136,51.71424 -42.294334,58.72668 -9.381073,2.42299 -16.487476,3.38248 -17.506281,2.36367 z m 154.800775,-0.62435 c -1.1,-0.617 -4.4,-1.54937 -7.33333,-2.07193 -8.38354,-1.49349 -20.22092,-8.53021 -27.20518,-16.17211 -7.22049,-7.90037 -11.47986,-16.06558 -13.64362,-26.15482 -1.63162,-7.60796 -0.90087,-24.51523 1.14813,-26.56423 0.85565,-0.85565 3.26279,0.21551 6.95629,3.09547 5.60766,4.37249 5.65002,4.47034 5.94748,13.7372 0.7038,21.92525 17.96866,38.54493 40.13023,38.63058 22.34409,0.0864 39.84717,-17.468 39.84717,-39.96392 0,-11.01471 -3.04316,-18.88859 -10.48288,-27.12349 -9.03023,-9.99537 -25.73213,-15.59178 -37.13541,-12.44318 -5.05899,1.39685 -5.06348,1.39448 -8.93668,-4.71292 -2.13133,-3.36078 -3.59204,-6.56858 -3.24601,-7.12847 0.34602,-0.55988 4.90084,-1.78136 10.12179,-2.7144 17.9225,-3.20293 35.60834,2.39155 48.58564,15.36884 21.46956,21.46957 21.56256,55.94469 0.20851,77.29873 -8.46389,8.46391 -14.45503,11.74593 -28.13195,15.41107 -11.03893,2.95822 -13.8026,3.20578 -16.83018,1.50758 z M 48.911737,231.39941 c -9.234297,-3.28943 -14.245071,-10.34778 -14.245071,-20.06608 0,-10.84152 5.821884,-17.73569 17.955989,-21.26317 3.90525,-1.1353 10.266089,-4.19447 14.135195,-6.79819 l 7.034739,-4.73403 7.638553,7.55884 7.638553,7.55886 -4.522642,5.92498 c -2.487455,3.25875 -5.42991,9.03623 -6.53879,12.83884 -1.10888,3.80263 -3.187838,8.83473 -4.619909,11.18247 -4.57006,7.49214 -15.531178,10.98401 -24.476617,7.79748 z m 154.810073,0.61604 c -6.68731,-2.01584 -11.4448,-6.52103 -13.76219,-13.03231 -4.58141,-12.87259 -5.23745,-14.24623 -9.42233,-19.72872 l -4.27365,-5.59878 7.63854,-7.55886 7.63856,-7.55884 6.88467,4.63303 c 3.78656,2.54817 10.09534,5.56641 14.0195,6.7072 12.70443,3.69328 18.22175,10.31174 18.22175,21.85844 0,8.37284 -3.98377,14.56728 -11.95995,18.59672 -6.24326,3.154 -9.05505,3.46964 -14.9849,1.68212 z M 164.43229,185.7638 c -6.13304,-3.51143 -22.522,-7.1101 -32.21625,-7.07399 -8.60473,0.032 -23.62793,3.33064 -31.27875,6.86776 l -6.396048,2.957 -8.063335,-8.06333 -8.063334,-8.06334 2.799064,-5.48661 c 8.860455,-17.36793 8.960061,-50.21742 0.197301,-65.06919 l -2.468003,-4.182953 8.495924,-8.420407 8.495925,-8.420406 5.032606,2.427139 c 17.20774,8.298995 42.36166,8.911433 60.76151,1.479398 l 8.2493,-3.332036 8.20065,8.127755 8.20064,8.127754 -3.17955,6.945046 c -8.10969,17.71391 -7.70033,45.42114 0.92075,62.31986 l 2.79873,5.48596 -8.45972,8.28117 -8.4597,8.28118 z m -15.94612,-60.80989 c -0.0736,-3.50868 -0.45932,-6.70483 -0.85704,-7.10256 -0.39773,-0.39773 -7.227,-0.72553 -15.17614,-0.72845 L 118,117.1176 l -0.40115,7.4841 -0.40116,7.4841 15.71119,-0.37624 15.71118,-0.37623 z M 41.667564,109.93981 C 31.105427,107.09567 24.282862,103.12344 16.371198,95.211775 -4.8830209,73.957557 -4.8830209,39.375774 16.371198,18.121556 24.322134,10.170619 30.795119,6.4172024 42.292666,3.0907669 51.712113,0.36556067 58.386913,0.31159046 68.038836,2.8825919 88.698378,8.3857142 104.70923,24.455867 109.28161,44.27812 c 1.74653,7.571552 1.5615,20.483288 -0.38408,26.801869 l -1.5642,5.07999 -6.20331,-4.119517 -6.203313,-4.119516 0.70816,-7.809717 C 97.12672,43.658806 87.043976,26.720879 71.69348,19.89227 61.297146,15.267501 48.471413,15.453002 38.452607,20.373042 18.166926,30.334942 9.5251763,54.072217 19.076746,73.594923 c 7.188309,14.692375 20.23548,22.884775 36.810451,23.113512 9.541932,0.13168 10.01918,0.294537 13.666667,4.663635 2.078706,2.48996 3.779467,5.25014 3.779467,6.13374 0,1.92783 -11.253898,4.52882 -19.065627,4.40644 -3.080571,-0.0483 -8.750634,-0.93586 -12.60014,-1.97244 z m 156.999096,0.45106 c -3.3,-0.72796 -6.19424,-1.50794 -6.43165,-1.73331 -0.77379,-0.73454 3.5306,-8.13652 5.85181,-10.062953 1.50214,-1.246668 5.67711,-1.886257 12.42124,-1.902889 8.37757,-0.02067 11.48183,-0.674862 17.70599,-3.73143 14.64344,-7.191105 22.96645,-20.343867 22.96645,-36.293623 0,-15.949755 -8.32301,-29.102518 -22.96645,-36.293623 -26.91428,-13.2170738 -59.73249,9.259344 -57.24889,39.208402 0.60718,7.321832 0.57317,7.402921 -4.71016,11.230153 -2.92698,2.120287 -5.80355,3.855068 -6.39238,3.855068 -1.7581,0 -3.84953,-9.483429 -3.8226,-17.333333 0.0895,-26.089011 16.92582,-47.6151048 42.5878,-54.4507401 9.65192,-2.57100144 16.32672,-2.51703123 25.74617,0.208175 11.49755,3.3264355 17.97054,7.0798521 25.92147,15.0307891 21.25423,21.254218 21.25423,55.836001 0,77.090219 -13.95943,13.959435 -32.47728,19.403765 -51.6288,15.179095 z M 73.330754,91.319998 c -0.0043,-2.21393 -12.221932,-9.581652 -19.997422,-12.059273 -9.919068,-3.16066 -13.001754,-5.38368 -16.223854,-11.699519 -6.969379,-13.661109 1.574445,-29.327935 16.909426,-31.00685 11.555434,-1.26512 19.132318,4.977294 23.935149,19.719595 1.264914,3.882659 4.40234,9.993759 6.972054,13.580221 l 4.672211,6.520839 -8.132493,8.132494 c -4.472872,4.472871 -8.133653,7.538493 -8.135071,6.812493 z m 110.109736,-7.211712 -7.68451,-7.765536 4.6562,-6.099952 c 2.56091,-3.354973 5.95392,-9.999636 7.54004,-14.765915 3.6197,-10.877188 6.51523,-14.574132 13.65099,-17.429301 8.27453,-3.310814 15.98848,-1.813298 22.64534,4.396168 5.73146,5.346234 7.54474,11.799429 5.85156,20.824791 -1.11502,5.943627 -8.41149,13.482025 -14.30148,14.775682 -7.18674,1.578476 -15.12324,5.444239 -20.04003,9.761247 l -4.6336,4.068353 z"
       id="path3920"
       inkscape:connector-curvature="0" />
    <path
       style="fill:#33485d;stroke-width:1.33333325"
       d="M 42.939607,263.29875 C 24.726393,259.34401 9.2206266,245.16334 3.61344,227.33333 0.27517065,216.71813 -0.28598683,210.26334 1.3466873,201.25969 6.8397568,170.96724 34.534916,151.03006 64.176558,156.02978 c 10.333268,1.74292 11.283145,3.29622 6.03028,9.86102 -2.974193,3.71701 -3.614105,3.89725 -14.32671,4.0353 -9.369376,0.12067 -12.309816,0.72275 -17.880129,3.66067 -14.554089,7.67619 -22.594517,20.63411 -22.594517,36.41322 0,15.77546 8.030283,28.7204 22.594517,36.42276 9.192372,4.86142 24.93221,5.08832 34.259829,0.49388 14.486896,-7.1357 22.835251,-20.13776 23.275374,-36.24997 l 0.273161,-10 5.706237,-3.67246 c 6.68447,-4.30206 7.31577,-3.77563 8.58991,7.16291 1.87188,16.07018 -5.26809,35.2474 -17.075631,45.8634 -8.43738,7.58594 -14.422588,10.72951 -25.320239,13.29879 -10.051843,2.36988 -13.774341,2.36679 -24.769033,-0.0205 z m 155.407193,-0.0425 c -21.54991,-5.22316 -37.0939,-21.78039 -41.11963,-43.80004 -1.51652,-8.29493 -0.5236,-22.90957 1.64764,-24.25148 0.70351,-0.4348 3.56264,0.72064 6.35363,2.56763 4.98804,3.30093 5.08536,3.52701 5.71036,13.26596 1.04196,16.2359 9.33741,28.91813 23.46804,35.87836 9.32761,4.59444 25.06745,4.36753 34.25982,-0.49388 14.56424,-7.70236 22.59452,-20.64731 22.59452,-36.42276 0,-15.77364 -8.02527,-28.71217 -22.59452,-36.42745 -5.72444,-3.03143 -8.34353,-3.53987 -18.53125,-3.59746 -11.73933,-0.0664 -11.89929,-0.11213 -15.15203,-4.32997 -1.80809,-2.3446 -2.96141,-5.11255 -2.56292,-6.15099 0.43682,-1.13833 4.39807,-2.50772 9.97547,-3.44846 29.73982,-5.01627 57.42256,14.87513 62.92404,45.21402 5.06818,27.94931 -14.10055,56.14113 -42.22431,62.10011 -10.98183,2.32688 -14.78692,2.31094 -24.74886,-0.1036 z M 51.033396,231.92745 c -6.380041,-1.35071 -10.675886,-4.66624 -13.682913,-10.56051 -3.382469,-6.63019 -3.41434,-13.37457 -0.09396,-19.88305 3.118249,-6.11228 6.254245,-8.28459 16.643137,-11.52869 4.344815,-1.35675 10.571933,-4.5066 13.838042,-6.99968 l 5.93838,-4.53287 7.813269,7.73175 7.813271,7.73173 -3.171288,3.39027 c -3.418799,3.65486 -8.798003,13.59001 -8.798003,16.24951 0,3.32515 -5.567219,12.98731 -8.645149,15.00404 -4.4475,2.91411 -12.562002,4.47567 -17.654786,3.3975 z m 154.090114,0.12 c -5.61737,-1.71882 -11.45895,-5.59071 -12.98487,-8.60659 -0.77202,-1.52583 -2.7059,-6.37424 -4.29754,-10.77424 -1.59162,-4.4 -4.72617,-10.57431 -6.96564,-13.72068 l -4.07177,-5.72069 7.55359,-7.5536 7.5536,-7.55359 3.04456,2.79048 c 3.58836,3.2889 11.5769,7.38403 19.04455,9.76272 7.58004,2.4145 11.98696,5.86995 14.6539,11.49009 2.91413,6.14108 2.13758,16.58048 -1.6071,21.60459 -4.99289,6.69881 -14.8843,10.43529 -21.92328,8.28151 z M 86.156939,180.1586 c -7.479394,-7.55827 -7.6869,-7.95546 -5.746712,-11 9.169259,-14.38842 10.433991,-44.26155 2.693076,-63.61079 l -3.416894,-8.54089 7.823461,-7.819025 7.823461,-7.819025 7.999999,3.225739 c 19.99074,8.060614 44.97011,7.545225 62.03613,-1.279966 l 4.3094,-2.228477 8.35578,8.28149 8.35576,8.281491 -2.468,4.182953 c -5.86423,9.93911 -8.38319,34.81143 -5.10791,50.4356 0.81464,3.8861 2.90257,10.06563 4.63987,13.7323 l 3.1587,6.66666 -7.85541,7.86887 -7.8554,7.86888 -6.3586,-2.98889 C 146.31793,176.84841 118.7436,176.76949 101.22351,185.23426 98.075098,186.75542 95.143035,188 94.70782,188 c -0.435214,0 -4.28311,-3.52863 -8.550881,-7.8414 z M 148.66666,124 v -7.33334 L 133,116.29102 117.33333,115.91537 V 124 132.08462 L 133,131.70898 148.66666,131.33333 Z M 43.999999,110.18345 C 21.837917,105.36907 5.4791217,88.195978 1.3466873,65.406974 0.50814329,60.782682 0.20340149,54.524357 0.66948328,51.499585 4.7608536,24.947455 21.835037,6.8550632 46.770735,2.649113 86.088882,-3.9827512 118.20009,31.950302 108.44757,71.666665 107.47887,75.61163 105.49863,75.45141 100.20795,70.999998 96.02211,67.478161 95.837427,66.91201 95.532303,56.666665 95.149128,43.800551 92.166852,36.410644 84.131725,28.416693 75.313339,19.643497 67.989509,16.661858 55.333332,16.692444 46.400707,16.71403 43.58289,17.29138 37.999999,20.243913 13.184186,33.36785 7.4955353,64.851505 26.399133,84.448529 34.639972,92.99166 42.922979,96.52359 55.333332,96.786264 l 10.666666,0.225768 3.666667,5.025548 c 2.016667,2.76405 3.666666,5.47475 3.666666,6.02378 0,1.05174 -15.069827,4.01795 -19.44255,3.82689 -1.406597,-0.0615 -5.857449,-0.82862 -9.890782,-1.7048 z m 156.666661,0.25414 c -3.66666,-0.69529 -7.12961,-1.72113 -7.69542,-2.27964 -0.56583,-0.55852 0.64458,-3.32317 2.68981,-6.14367 l 3.71857,-5.128184 11.31019,-0.145017 c 9.47385,-0.121467 12.3926,-0.715908 17.97685,-3.661185 14.55409,-7.676193 22.59452,-20.634113 22.59452,-36.413229 0,-15.775446 -8.03028,-28.720402 -22.59452,-36.422752 -5.58289,-2.952533 -8.40071,-3.529883 -17.33333,-3.551469 -12.56696,-0.03037 -20.00669,2.96131 -28.5098,11.464418 -8.31771,8.317697 -11.42877,15.931826 -11.64889,28.509803 l -0.18668,10.666667 -5.02555,3.666666 c -2.76405,2.016667 -5.4938,3.666667 -6.06612,3.666667 -0.57231,0 -1.76901,-3.45 -2.65933,-7.666667 -3.61926,-17.141153 3.3971,-38.632731 16.47046,-50.450218 25.12879,-22.7148086 64.55651,-18.356471 82.65436,9.136609 8.13555,12.358995 11.34183,26.575619 8.95819,39.720585 -4.25242,23.450678 -21.45971,40.878246 -44.56486,45.135336 -9.00314,1.65881 -10.83877,1.64924 -20.08845,-0.10472 z M 67.508334,85.90967 C 63.937918,83.383023 57.637919,80.335919 53.508335,79.138325 39.967192,75.211347 32.946867,64.918694 35.290103,52.428173 37.239535,42.03681 50.334997,34.371788 61.159269,37.286462 c 7.450789,2.006289 11.653377,5.868177 14.213481,13.061206 1.236963,3.475449 2.901661,8.077023 3.699331,10.225718 0.797668,2.148698 3.486992,6.574926 5.976273,9.836062 l 4.525968,5.929341 -7.074948,7.163937 c -3.891223,3.940166 -7.395445,7.127242 -7.787163,7.082392 -0.391717,-0.04485 -3.633462,-2.148803 -7.203877,-4.675448 z m 115.177786,-2.556637 -7.22278,-7.313632 3.44944,-3.686368 c 4.21252,-4.501844 7.38315,-10.620643 9.90666,-19.118198 3.54334,-11.931736 11.91295,-17.067473 25.34687,-15.553276 13.54363,1.526564 20.59094,17.073125 13.7859,30.412101 -2.78703,5.463038 -6.40792,7.710951 -20.19974,12.540354 -3.43613,1.203213 -8.46863,3.952784 -11.18334,6.110156 -2.71469,2.157372 -5.3238,3.922494 -5.79801,3.922494 -0.47423,0 -4.11247,-3.291134 -8.085,-7.313631 z"
       id="path3918"
       inkscape:connector-curvature="0" />
  </g>
</svg>
