<?xml version="1.0" encoding="UTF-8" standalone="no"?>
<!-- Created with Inkscape (http://www.inkscape.org/) -->

<svg
   xmlns:dc="http://purl.org/dc/elements/1.1/"
   xmlns:cc="http://creativecommons.org/ns#"
   xmlns:rdf="http://www.w3.org/1999/02/22-rdf-syntax-ns#"
   xmlns:svg="http://www.w3.org/2000/svg"
   xmlns="http://www.w3.org/2000/svg"
   xmlns:sodipodi="http://sodipodi.sourceforge.net/DTD/sodipodi-0.dtd"
   xmlns:inkscape="http://www.inkscape.org/namespaces/inkscape"
   version="1.1"
   id="svg23"
   width="6.6666665"
   height="6.6666665"
   viewBox="0 0 6.6666665 6.6666665"
   sodipodi:docname="racecarIcon.svg"
   inkscape:version="0.92.4 (5da689c313, 2019-01-14)">
  <metadata
     id="metadata29">
    <rdf:RDF>
      <cc:Work
         rdf:about="">
        <dc:format>image/svg+xml</dc:format>
        <dc:type
           rdf:resource="http://purl.org/dc/dcmitype/StillImage" />
        <dc:title></dc:title>
      </cc:Work>
    </rdf:RDF>
  </metadata>
  <defs
     id="defs27" />
  <sodipodi:namedview
     pagecolor="#ffffff"
     bordercolor="#666666"
     borderopacity="1"
     objecttolerance="10"
     gridtolerance="10"
     guidetolerance="10"
     inkscape:pageopacity="0"
     inkscape:pageshadow="2"
     inkscape:window-width="1920"
     inkscape:window-height="1017"
     id="namedview25"
     showgrid="false"
     inkscape:zoom="45.078058"
     inkscape:cx="6.673164"
     inkscape:cy="4.2236187"
     inkscape:window-x="1912"
     inkscape:window-y="-8"
     inkscape:window-maximized="1"
     inkscape:current-layer="svg23" />
  <g
     id="g73"
     transform="translate(2.8666912e-8,0.02218374)">
    <path
       style="fill:#fefefe;stroke-width:0.03333333"
       d="M 0,3.3333333 V 0 H 3.3333333 6.6666665 V 3.3333333 6.6666665 H 3.3333333 0 Z"
       id="path89"
       inkscape:connector-curvature="0" />
    <path
       style="fill:#bbc1c8;stroke-width:0.03333333"
       d="M 0.73914378,5.3895182 C 0.62788878,5.2710925 0.64854532,5.1844575 0.83000485,5.0084399 1.0077944,4.8359819 1.0661673,4.6919625 1.0664807,4.4249999 l 1.859e-4,-0.1583333 h 0.2 c 0.1777778,0 0.2,-0.00741 0.2,-0.066667 0,-0.055556 0.022222,-0.066667 0.1333334,-0.066667 0.1111111,0 0.1333333,0.011111 0.1333333,0.066667 0,0.059038 0.022222,0.066667 0.1941895,0.066667 0.1598851,0 0.2069929,0.013629 0.2666667,0.077148 0.067031,0.071351 0.072477,0.1109897 0.072477,0.527523 0,0.6272673 0.04317,0.5953286 -0.8046712,0.5953286 -0.63672979,0 -0.65189505,-0.00162 -0.72285152,-0.077148 z M 4.3391436,5.2561849 c -0.065748,-0.069986 -0.072477,-0.1127714 -0.072477,-0.4608564 0,-0.3579863 0.00517,-0.3885663 0.077148,-0.4561849 0.0504,-0.047349 0.119742,-0.072477 0.2,-0.072477 0.1006293,0 0.1228517,-0.012059 0.1228517,-0.066667 0,-0.055556 0.022222,-0.066667 0.1333333,-0.066667 0.111111,0 0.1333333,0.011111 0.1333333,0.066667 0,0.044444 0.022222,0.066667 0.066667,0.066667 0.044444,0 0.066667,-0.022222 0.066667,-0.066667 0,-0.055556 0.022222,-0.066667 0.1333334,-0.066667 0.111111,0 0.1333333,0.011111 0.1333333,0.066667 0,0.055049 0.022222,0.066667 0.127523,0.066667 0.090199,0 0.1487353,0.02258 0.2,0.077148 0.065748,0.069986 0.072477,0.1127713 0.072477,0.4608563 0,0.5444287 0.02201,0.528662 -0.7380047,0.528662 -0.5670436,0 -0.5857769,-0.0022 -0.6561853,-0.077148 z M 0.04,4.8933332 c -0.057579,-0.057579 -0.057579,-3.0624209 0,-3.1199999 0.05768316,-0.057683 0.44314975,-0.050426 0.56109108,0.010564 0.19664157,0.1016873 0.1989089,0.1193491 0.1989089,1.5494358 0,1.4300866 -0.002267,1.4477482 -0.1989089,1.5494356 C 0.48314975,4.9437589 0.09768316,4.9510165 0.04,4.8933332 Z m 5.8666665,0 c -0.025861,-0.025861 -0.04,-0.1596987 -0.04,-0.3786436 V 4.1760462 l 0.3416667,-0.085541 c 0.1879166,-0.047048 0.3679166,-0.095763 0.4,-0.1082563 0.053784,-0.020944 0.058333,0.012135 0.058333,0.4241847 0,0.3031443 -0.012867,0.4597666 -0.04,0.4868996 -0.025556,0.025556 -0.1555557,0.04 -0.36,0.04 -0.2044443,0 -0.3344443,-0.014444 -0.3599997,-0.04 z m -3.3465799,-0.285 C 2.5324515,4.5762499 2.436536,4.4262499 2.3469411,4.2749999 l -0.1628996,-0.275 H 1.6253541 1.0666666 V 3.3333333 2.6666666 h 0.5586875 0.5586874 l 0.1628996,-0.275 C 2.5989247,1.9662792 2.5308193,2 3.137985,2 h 0.5276526 l 0.4644393,0.3333333 0.4644397,0.3333333 0.4110749,2.533e-4 c 0.4579484,2.79e-4 0.6881817,0.030173 1.1777417,0.1529201 0.491519,0.1232381 0.4833333,0.1145417 0.4833333,0.5134933 0,0.3940663 0.00383,0.3896469 -0.4333333,0.5006113 C 5.7481785,3.9570916 5.4315319,3.9999072 5.0055915,3.9999542 L 4.5945166,3.9999999 4.1300769,4.3333332 3.6656376,4.6666666 H 3.137985 c -0.4611628,0 -0.5339841,-0.00735 -0.5778984,-0.058333 z M 3.8226859,3.6469802 C 3.8743752,3.6086529 3.9378442,3.5173986 3.9637279,3.4441929 4.0064332,3.3234124 4.0048906,3.2990076 3.9470612,3.1805458 3.8499866,2.9816897 3.7220622,2.9334473 3.2916666,2.9333851 l -0.3583333,-5.18e-5 v 0.4027916 0.4027917 l 0.3976858,-0.011125 c 0.3405335,-0.00953 0.4111921,-0.02114 0.4916668,-0.080811 z M 6.4166665,2.6310788 c -0.11,-0.034562 -0.27875,-0.079257 -0.375,-0.099323 l -0.175,-0.036483 V 2.1543033 c 0,-0.2207544 0.014103,-0.3550728 0.04,-0.38097 0.054482,-0.054482 0.6655177,-0.054482 0.72,0 0.044475,0.044475 0.05884,0.928958 0.015,0.9236261 -0.01375,-0.00167 -0.115,-0.031319 -0.225,-0.065881 z M 1.4666666,2.4666666 c 0,-0.059259 -0.022222,-0.066667 -0.2,-0.066667 h -0.2 V 2.2392712 C 1.0666666,1.9881329 0.9813178,1.7852289 0.81356961,1.637571 0.64481448,1.4890268 0.62480232,1.3842837 0.74381501,1.2724771 0.81758308,1.2031756 0.84945998,1.2 1.4713379,1.2 c 0.838619,0 0.7953287,-0.032913 0.7953287,0.6046712 0,0.4276721 -0.00389,0.4540279 -0.077148,0.5228516 -0.060535,0.056869 -0.1179605,0.072477 -0.2666666,0.072477 -0.1672961,0 -0.1895183,0.00782 -0.1895183,0.066667 0,0.055556 -0.022222,0.066667 -0.1333333,0.066667 -0.1111111,0 -0.1333334,-0.011111 -0.1333338,-0.066667 z m 3.2,0 c 0,-0.055049 -0.022222,-0.066667 -0.127523,-0.066667 -0.090199,0 -0.1487354,-0.02258 -0.2,-0.077148 -0.065748,-0.069986 -0.072477,-0.1127712 -0.072477,-0.4608562 0,-0.5444287 -0.02201,-0.5286621 0.7380046,-0.5286621 0.7511553,0 0.728662,-0.016608 0.728662,0.5380046 0,0.3579862 -0.00517,0.3885662 -0.077148,0.4561849 -0.0504,0.047349 -0.119742,0.072477 -0.2,0.072477 -0.1006294,0 -0.1228517,0.012059 -0.1228517,0.066667 0,0.055556 -0.022222,0.066667 -0.1333333,0.066667 -0.111111,0 -0.1333334,-0.011111 -0.1333334,-0.066667 0,-0.044444 -0.022222,-0.066667 -0.066667,-0.066667 -0.044444,0 -0.066667,0.022222 -0.066667,0.066667 0,0.055556 -0.022222,0.066667 -0.1333333,0.066667 -0.111111,0 -0.1333333,-0.011111 -0.1333329,-0.066667 z"
       id="path87"
       inkscape:connector-curvature="0" />
    <path
       style="fill:#8f9ba6;stroke-width:0.03333333"
       d="M 0.74848481,5.3848482 C 0.62708768,5.2634512 0.64191962,5.1585692 0.79479041,5.0574039 0.96077454,4.9475609 1.0434434,4.7715375 1.0604874,4.4916666 l 0.013702,-0.225 h 0.1962385 c 0.1740162,0 0.1962384,-0.00755 0.1962384,-0.066667 0,-0.055556 0.022222,-0.066667 0.1333334,-0.066667 0.1111111,0 0.1333333,0.011111 0.1333333,0.066667 0,0.058652 0.022222,0.066667 0.1848485,0.066667 0.1518144,0 0.1994701,0.014622 0.2666666,0.081818 0.078535,0.078535 0.081818,0.099326 0.081818,0.5181816 0,0.4188554 -0.00328,0.4396464 -0.081818,0.5181817 -0.081154,0.081155 -0.086981,0.081818 -0.7181818,0.081818 -0.63120085,0 -0.63702739,-6.633e-4 -0.71818149,-0.081818 z M 4.3484849,5.2515149 c -0.077033,-0.077032 -0.081818,-0.1034417 -0.081818,-0.451515 0,-0.3480733 0.00479,-0.3744827 0.081818,-0.451515 0.056099,-0.0561 0.1189673,-0.081818 0.2,-0.081818 0.095959,0 0.1181817,-0.012536 0.1181817,-0.066667 0,-0.055556 0.022222,-0.066667 0.1333333,-0.066667 0.111111,0 0.1333333,0.011111 0.1333333,0.066667 0,0.044444 0.022222,0.066667 0.066667,0.066667 0.044444,0 0.066667,-0.022222 0.066667,-0.066667 0,-0.055556 0.022222,-0.066667 0.1333334,-0.066667 0.111111,0 0.1333333,0.011111 0.1333333,0.066667 0,0.054131 0.022222,0.066667 0.1181817,0.066667 0.081033,0 0.1439006,0.025719 0.2,0.081818 0.077033,0.077032 0.081818,0.1034417 0.081818,0.451515 0,0.3480733 -0.00479,0.3744826 -0.081818,0.451515 -0.080486,0.080486 -0.091096,0.081818 -0.651515,0.081818 -0.560419,0 -0.5710293,-0.00133 -0.6515157,-0.081818 z M 0.04,4.8933332 c -0.057579,-0.057579 -0.057579,-3.0624209 0,-3.1199999 0.06071408,-0.060714 0.44836802,-0.05064 0.55867222,0.014518 0.20210806,0.1193882 0.20132776,0.1133983 0.20132776,1.545482 0,1.4320836 7.8033e-4,1.4260936 -0.20132776,1.5454819 C 0.48836802,4.9439735 0.10071408,4.9540472 0.04,4.8933332 Z m 5.8666665,0 c -0.025889,-0.025889 -0.04,-0.1600897 -0.04,-0.3804033 V 4.1725266 l 0.1415853,-0.023921 c 0.077872,-0.013157 0.2578717,-0.057729 0.4,-0.099049 l 0.2584147,-0.075129 v 0.4394527 c 0,0.2973519 -0.012934,0.4523869 -0.04,0.4794526 -0.025556,0.025556 -0.1555557,0.04 -0.36,0.04 -0.2044443,0 -0.3344443,-0.014444 -0.36,-0.04 z M 2.4882405,4.4916666 C 2.4272283,4.3954166 2.3359893,4.2454166 2.2854872,4.1583332 L 2.1936651,3.9999999 H 1.6301659 1.0666666 V 3.3333333 2.6666666 h 0.56169 0.56169 l 0.1966433,-0.325 0.1966434,-0.325 0.5333333,-0.00782 0.5333333,-0.00782 0.465117,0.3328228 0.465117,0.3328227 h 0.357471 c 0.196609,0 0.47453,0.016281 0.617602,0.036181 0.3259173,0.045331 1.0019546,0.2145173 1.0644626,0.2663945 0.066731,0.055382 0.066731,0.6728009 0,0.7281826 -0.062508,0.051877 -0.7385453,0.2210636 -1.0644626,0.2663943 -0.143072,0.0199 -0.420993,0.036181 -0.617602,0.036181 h -0.357471 l -0.465117,0.3323507 -0.465117,0.3323503 -0.525414,9.83e-4 -0.525414,9.827e-4 z M 3.8744522,3.6076922 c 0.09368,-0.09376 0.108881,-0.132064 0.108881,-0.2743589 0,-0.1422949 -0.015201,-0.1805988 -0.108881,-0.274359 L 3.7655716,2.9499999 3.3494522,2.938948 2.9333333,2.9278962 V 3.3333333 3.7387702 L 3.3494522,3.7277186 3.7655716,3.7166666 Z M 6.5241025,2.6465045 c -0.069243,-0.024 -0.2454933,-0.069336 -0.3916667,-0.100747 L 5.8666665,2.4886465 V 2.1509899 c 0,-0.2181774 0.014154,-0.3518105 0.04,-0.3776566 0.05958,-0.05958 0.6733407,-0.054254 0.7235787,0.00628 0.025775,0.031057 0.03534,0.1884156 0.029081,0.4784036 l -0.00933,0.4321245 z M 1.4666666,2.4666666 c 0,-0.059259 -0.022222,-0.066667 -0.2,-0.066667 h -0.2 V 2.1961775 c 0,-0.2476521 -0.11905952,-0.4946508 -0.28908649,-0.5997332 C 0.64177835,1.5125142 0.63128292,1.3990201 0.74848481,1.2818181 0.82963921,1.2006637 0.83546575,1.2 1.4666666,1.2 c 0.6312009,0 0.6370274,6.637e-4 0.7181818,0.081818 0.078535,0.078535 0.081818,0.099327 0.081818,0.5181819 0,0.4188552 -0.00328,0.4396464 -0.081818,0.5181818 -0.067197,0.067197 -0.1148522,0.081818 -0.2666666,0.081818 -0.1626263,0 -0.1848485,0.00801 -0.1848485,0.066667 0,0.055556 -0.022222,0.066667 -0.1333333,0.066667 -0.1111111,0 -0.1333334,-0.011111 -0.1333334,-0.066667 z m 3.2,0 c 0,-0.054131 -0.022222,-0.066667 -0.1181817,-0.066667 -0.081033,0 -0.1439007,-0.025719 -0.2,-0.081818 -0.077033,-0.077033 -0.081818,-0.1034419 -0.081818,-0.4515152 0,-0.3480733 0.00479,-0.3744825 0.081818,-0.4515151 0.080486,-0.080486 0.091096,-0.081818 0.651515,-0.081818 0.560419,0 0.5710293,0.00133 0.651515,0.081818 0.077033,0.077033 0.081818,0.1034418 0.081818,0.4515151 0,0.3480733 -0.00479,0.3744825 -0.081818,0.4515152 -0.056099,0.056099 -0.1189674,0.081818 -0.2,0.081818 -0.095959,0 -0.1181817,0.012536 -0.1181817,0.066667 0,0.055556 -0.022222,0.066667 -0.1333333,0.066667 -0.111111,0 -0.1333334,-0.011111 -0.1333334,-0.066667 0,-0.044444 -0.022222,-0.066667 -0.066667,-0.066667 -0.044444,0 -0.066667,0.022222 -0.066667,0.066667 0,0.055556 -0.022222,0.066667 -0.1333333,0.066667 -0.111111,0 -0.1333333,-0.011111 -0.1333326,-0.066667 z"
       id="path85"
       inkscape:connector-curvature="0" />
    <path
       style="fill:#788694;stroke-width:0.03333333"
       d="M 0.81666665,5.4264059 C 0.62789818,5.3181472 0.62302378,5.1819522 0.80344911,5.0570949 0.97938298,4.9353459 1.064984,4.7455145 1.0659346,4.4749999 l 7.32e-4,-0.2083333 h 0.2 c 0.1777778,0 0.2,-0.00741 0.2,-0.066667 0,-0.055556 0.022222,-0.066667 0.1333334,-0.066667 0.1111111,0 0.1333333,0.011111 0.1333333,0.066667 0,0.056932 0.022222,0.066667 0.1521914,0.066667 0.1603989,0 0.2709924,0.042629 0.3384151,0.1304446 0.026933,0.03508 0.040607,0.1931894 0.040607,0.4695553 0,0.4340964 -0.014494,0.486909 -0.1540218,0.561222 -0.098723,0.05258 -1.20179352,0.051316 -1.29385795,-0.00148 z M 4.4166666,5.2930725 c -0.036667,-0.021028 -0.08494,-0.061822 -0.1072734,-0.090653 -0.055281,-0.071363 -0.055281,-0.7333073 0,-0.8053083 0.05798,-0.075516 0.1724094,-0.1304446 0.2717487,-0.1304446 0.063302,0 0.085525,-0.017322 0.085525,-0.066667 0,-0.055556 0.022222,-0.066667 0.1333333,-0.066667 0.111111,0 0.1333333,0.011111 0.1333333,0.066667 0,0.044444 0.022222,0.066667 0.066667,0.066667 0.044444,0 0.066667,-0.022222 0.066667,-0.066667 0,-0.055556 0.022222,-0.066667 0.1333334,-0.066667 0.111111,0 0.1333333,0.011111 0.1333333,0.066667 0,0.049344 0.022222,0.066667 0.085525,0.066667 0.099339,0 0.213769,0.054928 0.2717486,0.1304446 0.025984,0.033843 0.040606,0.1789277 0.040606,0.4028887 0,0.363986 -0.018122,0.4221746 -0.1540217,0.4945553 -0.097964,0.052176 -1.0691246,0.050935 -1.1605246,-0.00148 z M 0.04166667,4.8960362 C 0.00956471,4.8631359 0,4.5038189 0,3.3307481 0,2.0229244 0.00700162,1.8023521 0.04963907,1.7669662 c 0.03280813,-0.027228 0.12903818,-0.03671 0.28380879,-0.027965 0.21109466,0.011928 0.24479803,0.02386 0.34202759,0.1210896 L 0.78333331,1.9679487 V 3.3333333 4.6987179 L 0.67500708,4.8070442 c -0.0990212,0.099021 -0.12908559,0.1093297 -0.34999999,0.1200107 -0.16601205,0.00803 -0.2547185,-0.00168 -0.28334042,-0.031019 z m 5.86499983,-0.0027 c -0.025822,-0.025822 -0.039959,-0.158744 -0.039883,-0.375 l 1.333e-4,-0.335 0.34155,-0.082862 c 0.1878523,-0.045574 0.3678,-0.087867 0.3998833,-0.093985 0.05311,-0.010127 0.058333,0.027289 0.058333,0.4178616 0,0.2892107 -0.013033,0.442018 -0.04,0.468985 -0.025556,0.025556 -0.1555557,0.04 -0.36,0.04 -0.2044444,0 -0.3344443,-0.014444 -0.36,-0.04 z M 2.5760362,4.6249999 C 2.5583664,4.6020832 2.4655229,4.4520832 2.3697173,4.2916666 L 2.1955252,3.9999999 H 1.6310959 1.0666666 V 3.3333333 2.6666666 h 0.5644222 0.5644221 l 0.1961105,-0.325 0.1961105,-0.325 0.5243521,-0.00919 0.5243519,-0.00919 0.4585597,0.3291132 0.4585593,0.3291131 0.4982223,0.019189 c 0.58266,0.022441 1.4287376,0.1832782 1.5732226,0.2990655 0.05889,0.047193 0.057708,0.6704181 -0.00136,0.7194438 -0.1421393,0.1179647 -1.198028,0.305784 -1.7190666,0.305784 H 4.5676956 L 4.1032562,4.3333332 3.6388166,4.6666666 H 3.1234898 c -0.372905,0 -0.5242058,-0.011515 -0.5474536,-0.041667 z M 3.7986722,3.6788152 C 3.9880036,3.5669742 4.0547389,3.3196185 3.9454819,3.134661 3.8456666,2.965687 3.7451272,2.9333333 3.3198569,2.9333333 H 2.9333333 v 0.4 0.3999999 h 0.3865236 c 0.2979717,0 0.4076673,-0.01249 0.4788153,-0.054518 z m 2.5013276,-1.096403 c -0.1558333,-0.042919 -0.3170833,-0.07902 -0.3583333,-0.080223 -0.072782,-0.00212 -0.075,-0.012344 -0.075,-0.3455221 0,-0.2225926 0.014067,-0.3574002 0.04,-0.3833333 0.054482,-0.054482 0.6655177,-0.054482 0.72,0 0.057752,0.057753 0.056186,0.8945414 -0.00167,0.8902234 -0.022917,-0.00171 -0.1691666,-0.038225 -0.325,-0.081145 z M 1.4666666,2.4666666 c 0,-0.059259 -0.022222,-0.066667 -0.2,-0.066667 h -0.2 V 2.1938574 c 0,-0.2606287 -0.0952589,-0.4683851 -0.27017295,-0.5892379 C 0.66433928,1.5133105 0.63643438,1.4254712 0.70939342,1.3304447 0.79709161,1.216221 0.89125994,1.2 1.4666666,1.2 c 0.8007079,0 0.7978798,-0.00213 0.7978798,0.6 0,0.2763659 -0.013673,0.4344753 -0.040607,0.4695552 -0.067423,0.087816 -0.1780162,0.1304447 -0.3384151,0.1304447 -0.1299692,0 -0.1521914,0.00973 -0.1521914,0.066667 0,0.055556 -0.022222,0.066667 -0.1333333,0.066667 -0.1111111,0 -0.1333334,-0.011111 -0.133333,-0.066667 z m 3.2,0 c 0,-0.049344 -0.022222,-0.066667 -0.085525,-0.066667 -0.099339,0 -0.213769,-0.054928 -0.2717487,-0.1304447 -0.055269,-0.071986 -0.055269,-0.7337909 0,-0.8057771 0.085986,-0.1119941 0.183669,-0.1304448 0.6906067,-0.1304448 0.5069376,0 0.6046203,0.018451 0.6906066,0.1304448 0.055269,0.071986 0.055269,0.7337908 0,0.8057771 -0.05798,0.075516 -0.1724093,0.1304447 -0.2717486,0.1304447 -0.063302,0 -0.085525,0.017322 -0.085525,0.066667 0,0.055556 -0.022222,0.066667 -0.1333333,0.066667 -0.111111,0 -0.1333334,-0.011111 -0.1333334,-0.066667 0,-0.044444 -0.022222,-0.066667 -0.066667,-0.066667 -0.044444,0 -0.066667,0.022222 -0.066667,0.066667 0,0.055556 -0.022222,0.066667 -0.1333333,0.066667 -0.111111,0 -0.1333333,-0.011111 -0.1333333,-0.066667 z"
       id="path83"
       inkscape:connector-curvature="0" />
    <path
       style="fill:#697887;stroke-width:0.03333333"
       d="M 0.81213605,5.4276802 C 0.70698728,5.3767662 0.61213252,5.1333332 0.69744248,5.1333332 c 0.0169267,0 0.0790612,-0.040629 0.1380766,-0.090288 C 0.98750628,4.9151569 1.0650597,4.7239635 1.0659346,4.4749999 l 7.32e-4,-0.2083333 h 0.2 c 0.1777778,0 0.2,-0.00741 0.2,-0.066667 0,-0.055556 0.022222,-0.066667 0.1333334,-0.066667 0.1111111,0 0.1333333,0.011111 0.1333333,0.066667 0,0.056686 0.022222,0.066667 0.1484316,0.066667 0.1863546,0 0.3003329,0.050862 0.3478926,0.155244 0.020355,0.044674 0.037009,0.2448146 0.037009,0.4447559 0,0.3951857 -0.030614,0.5062054 -0.1552442,0.562991 -0.1039621,0.047368 -1.20082382,0.045699 -1.29928635,-0.00198 z M 4.4121359,5.2943469 C 4.3729776,5.2753859 4.3242276,5.2231955 4.3038026,5.1783679 4.2557392,5.0728802 4.2556476,4.5273206 4.3036692,4.4219106 c 0.041409,-0.09087 0.158024,-0.155244 0.2812324,-0.155244 0.059543,0 0.081765,-0.018119 0.081765,-0.066667 0,-0.055556 0.022222,-0.066667 0.1333333,-0.066667 0.111111,0 0.1333333,0.011111 0.1333333,0.066667 0,0.044444 0.022222,0.066667 0.066667,0.066667 0.044444,0 0.066667,-0.022222 0.066667,-0.066667 0,-0.055556 0.022222,-0.066667 0.1333334,-0.066667 0.111111,0 0.1333333,0.011111 0.1333333,0.066667 0,0.048548 0.022222,0.066667 0.081765,0.066667 0.1232083,0 0.239823,0.064374 0.281226,0.155244 0.020355,0.044674 0.037009,0.2148146 0.037009,0.3780893 0,0.329985 -0.034874,0.44148 -0.155244,0.4963243 -0.103166,0.047005 -1.0681723,0.045369 -1.1659533,-0.00198 z M 0.05833333,4.8973299 C 0.00411807,4.8657525 0,4.7553072 0,3.3328497 0,1.5901577 -0.02680556,1.7333333 0.29946394,1.7333333 c 0.20751998,0 0.34874314,0.068127 0.43521884,0.2099516 0.0615387,0.1009269 0.0650748,0.1759603 0.0651926,1.3833704 1.3667e-4,1.4096892 -4.04e-4,1.4136682 -0.20982703,1.5413606 -0.11744733,0.071612 -0.42955194,0.088819 -0.53171502,0.029314 z M 5.9217359,4.8911622 C 5.8725869,4.8552235 5.8654875,4.8006005 5.8736985,4.5215649 l 0.00963,-0.3274257 0.3666666,-0.095687 c 0.2016667,-0.052628 0.3779167,-0.096309 0.3916667,-0.09707 0.01375,-7.6e-4 0.025,0.1930893 0.025,0.4307777 0,0.3931489 -0.00582,0.4352753 -0.064475,0.4666666 -0.092936,0.049738 -0.609916,0.043914 -0.6804553,-0.00767 z M 2.5944349,4.6249999 C 2.5660327,4.6020832 2.464659,4.4520832 2.3691599,4.2916666 L 2.1955252,3.9999999 H 1.6310959 1.0666666 V 3.3333333 2.6666666 H 1.6310959 2.1955252 L 2.3691599,2.3749999 C 2.464659,2.2145833 2.5660327,2.0645833 2.5944349,2.0416666 2.6304583,2.0126007 2.7930172,2 3.1319664,2 3.6854816,2 3.5809746,1.9597657 4.2166666,2.4175984 l 0.3333333,0.2400705 0.5,0.020192 c 0.5183993,0.020935 0.9829829,0.099125 1.3821543,0.232619 l 0.2178456,0.072854 v 0.35 0.3499999 L 6.4321542,3.7561869 C 6.0350352,3.8889949 5.5678569,3.9678676 5.0499999,3.9895326 l -0.5,0.020918 -0.4619347,0.328108 -0.4619343,0.328108 H 3.1361031 c -0.3422586,0 -0.5056001,-0.012565 -0.5416682,-0.041667 z m 1.206656,-0.942231 C 3.8548702,3.6549586 3.9216252,3.5882036 3.9494356,3.5344242 4.0527292,3.3346762 3.9836466,3.0783006 3.8010909,2.9838975 3.7302486,2.9472635 3.5972482,2.9333333 3.3183219,2.9333333 H 2.9333333 v 0.4 0.3999999 h 0.3849886 c 0.2789263,0 0.4119267,-0.01393 0.482769,-0.050564 z m 2.4322423,-1.1170545 -0.35,-0.091279 -0.00963,-0.3283798 c -0.0119,-0.4055715 -0.00523,-0.412722 0.3848637,-0.412722 0.418346,0 0.4081043,-0.012577 0.4081043,0.5011728 0,0.3260856 -0.010227,0.4309734 -0.041667,0.427324 -0.022921,-0.00266 -0.199171,-0.045912 -0.391671,-0.096116 z M 1.4666666,2.4666666 c 0,-0.059259 -0.022222,-0.066667 -0.2,-0.066667 h -0.2 l -7.32e-4,-0.208333 C 1.0650597,1.9427031 0.98750628,1.7515098 0.83551908,1.623621 0.77650368,1.573963 0.71436918,1.533333 0.69744248,1.533333 c -0.0909637,0 0.0119754,-0.2450691 0.12446833,-0.2963243 C 0.87120671,1.2145483 1.1246617,1.2 1.4666666,1.2 c 0.6015299,0 0.7015273,0.020346 0.7629909,0.1552441 0.048038,0.1054312 0.048038,0.7840805 0,0.8895117 -0.04756,0.1043823 -0.161538,0.1552441 -0.3478926,0.1552441 -0.1262094,0 -0.1484316,0.00998 -0.1484316,0.066667 0,0.055556 -0.022222,0.066667 -0.1333333,0.066667 -0.1111111,0 -0.1333334,-0.011111 -0.1333334,-0.066667 z m 3.2,0 c 0,-0.048548 -0.022222,-0.066667 -0.081765,-0.066667 -0.1232084,0 -0.239823,-0.064374 -0.281226,-0.1552441 -0.020355,-0.044674 -0.037009,-0.2148145 -0.037009,-0.3780892 0,-0.3299849 0.034874,-0.4414801 0.155244,-0.4963242 0.107831,-0.049131 1.0483476,-0.049131 1.1561786,0 0.1203697,0.054844 0.155244,0.1663393 0.155244,0.4963242 0,0.1632747 -0.016654,0.3334148 -0.037009,0.3780892 -0.041403,0.09087 -0.1580177,0.1552441 -0.281226,0.1552441 -0.059543,0 -0.081765,0.018119 -0.081765,0.066667 0,0.055556 -0.022222,0.066667 -0.1333333,0.066667 -0.111111,0 -0.1333334,-0.011111 -0.1333334,-0.066667 0,-0.044444 -0.022222,-0.066667 -0.066667,-0.066667 -0.044444,0 -0.066667,0.022222 -0.066667,0.066667 0,0.055556 -0.022222,0.066667 -0.1333333,0.066667 -0.111111,0 -0.1333333,-0.011111 -0.1333326,-0.066667 z"
       id="path81"
       inkscape:connector-curvature="0" />
    <path
       style="fill:#4d6072;stroke-width:0.03333333"
       d="M 0.76410255,5.3692305 C 0.67170165,5.2768299 0.63115228,5.1333332 0.69744248,5.1333332 c 0.0615514,0 0.24040876,-0.1781783 0.30401912,-0.302865 0.045042,-0.088289 0.065205,-0.1952226 0.065205,-0.345807 V 4.2666666 h 0.2 c 0.1777778,0 0.2,-0.00741 0.2,-0.066667 0,-0.055556 0.022222,-0.066667 0.1333334,-0.066667 0.1111111,0 0.1333333,0.011111 0.1333333,0.066667 0,0.057912 0.022222,0.066667 0.1692308,0.066667 0.1426,0 0.1845635,0.015333 0.2666666,0.097436 0.097003,0.097003 0.097436,0.099235 0.097436,0.5025639 0,0.403329 -4.327e-4,0.405561 -0.097436,0.502564 l -0.097436,0.097436 H 1.4666666 0.86153845 Z M 4.3641026,5.2358972 c -0.094898,-0.094898 -0.097436,-0.1062527 -0.097436,-0.4358973 0,-0.3296447 0.00254,-0.3409997 0.097436,-0.4358973 0.06547,-0.06547 0.131084,-0.097436 0.2,-0.097436 0.080342,0 0.102564,-0.014444 0.102564,-0.066667 0,-0.055556 0.022222,-0.066667 0.1333333,-0.066667 0.111111,0 0.1333333,0.011111 0.1333333,0.066667 0,0.044444 0.022222,0.066667 0.066667,0.066667 0.044444,0 0.066667,-0.022222 0.066667,-0.066667 0,-0.055556 0.022222,-0.066667 0.1333334,-0.066667 0.111111,0 0.1333333,0.011111 0.1333333,0.066667 0,0.052222 0.022222,0.066667 0.102564,0.066667 0.068916,0 0.13453,0.031966 0.2,0.097436 0.094898,0.094898 0.097436,0.1062526 0.097436,0.4358973 0,0.3296446 -0.00254,0.3409996 -0.097436,0.4358973 l -0.097436,0.097436 H 4.9999999 4.4615382 Z M 0.05238095,4.8809522 C 0.00631888,4.8348902 0,4.6481962 0,3.3333333 0,1.6312773 -0.01768695,1.7332966 0.27738095,1.7333851 c 0.22237744,6.67e-5 0.38974437,0.08417 0.4642339,0.2332815 0.0523763,0.1048457 0.0582815,0.2433199 0.0582815,1.3666667 0,1.4015986 -0.003847,1.4270252 -0.23322973,1.5416149 -0.14897376,0.074421 -0.44244295,0.077847 -0.5142857,0.006 z M 5.9178832,4.8797879 C 5.8747202,4.8366249 5.8661795,4.7649089 5.8738355,4.5099196 l 0.0095,-0.316323 0.3833333,-0.096677 c 0.2108333,-0.053172 0.3870833,-0.096732 0.3916667,-0.096798 0.00458,-6.66e-5 0.00833,0.1863074 0.00833,0.4141644 0,0.5220699 0.00233,0.5190476 -0.4,0.5190476 -0.2266773,0 -0.3076723,-0.012434 -0.3487833,-0.053545 z M 2.5827475,4.6083332 C 2.5552842,4.5762499 2.4608299,4.4299999 2.3728491,4.2833332 L 2.2128841,4.0166666 1.6397754,4.0075462 1.0666666,3.9984256 V 3.3333333 2.6682409 l 0.5731088,-0.00912 0.5731087,-0.00912 0.159965,-0.2666666 C 2.6219612,1.9680558 2.5588762,2 3.1298751,2 h 0.4971945 l 0.461465,0.32859 0.4614653,0.32859 0.4833333,0.021654 c 0.6790093,0.03042 1.5660266,0.2178872 1.6132516,0.3409538 0.026085,0.067976 0.026085,0.5591162 0,0.6270918 C 6.5993058,3.770087 5.7116322,3.95755 5.0333332,3.9875736 L 4.5499999,4.0089672 4.0878182,4.3378169 3.6256366,4.6666666 H 3.1291587 c -0.4315917,0 -0.5030039,-0.00762 -0.5464112,-0.058333 z M 3.8010909,3.6827689 C 3.8548702,3.6549586 3.9216252,3.5882036 3.9494356,3.5344242 4.0527292,3.3346762 3.9836466,3.0783006 3.8010909,2.9838975 3.7302486,2.9472635 3.5972482,2.9333333 3.3183219,2.9333333 H 2.9333333 v 0.4 0.3999999 h 0.3849886 c 0.2789263,0 0.4119267,-0.01393 0.482769,-0.050564 z m 2.4322423,-1.1170545 -0.35,-0.091279 -0.0095,-0.3170057 c -0.012386,-0.4134258 -0.0025,-0.4240961 0.392831,-0.4240961 0.402329,0 0.4,-0.00302 0.4,0.5190476 0,0.3117858 -0.010309,0.4130891 -0.041667,0.4094492 -0.022914,-0.00266 -0.199164,-0.045912 -0.391664,-0.096116 z M 1.4666666,2.4666666 c 0,-0.059259 -0.022222,-0.066667 -0.2,-0.066667 h -0.2 l -7.32e-4,-0.208333 C 1.0650597,1.9427031 0.98750628,1.7515098 0.83551908,1.623621 0.77650368,1.573963 0.71436918,1.533333 0.69744248,1.533333 c -0.0662902,0 -0.0257408,-0.1434965 0.0666601,-0.2358974 L 0.86153845,1.2 H 1.4666666 2.0717948 l 0.097436,0.097436 c 0.097003,0.097003 0.097436,0.099235 0.097436,0.5025641 0,0.4033288 -4.328e-4,0.4055609 -0.097436,0.502564 -0.082103,0.082103 -0.1240666,0.097436 -0.2666666,0.097436 -0.1470086,0 -0.1692308,0.00875 -0.1692308,0.066667 0,0.055556 -0.022222,0.066667 -0.1333333,0.066667 -0.1111111,0 -0.1333334,-0.011111 -0.1333335,-0.066667 z m 3.2,0 c 0,-0.052222 -0.022222,-0.066667 -0.102564,-0.066667 -0.068916,0 -0.13453,-0.031966 -0.2,-0.097436 -0.094898,-0.094898 -0.097436,-0.1062528 -0.097436,-0.4358974 0,-0.3296446 0.00254,-0.3409997 0.097436,-0.4358974 l 0.097436,-0.097436 h 0.5384617 0.5384616 l 0.097436,0.097436 c 0.094898,0.094898 0.097436,0.1062528 0.097436,0.4358974 0,0.3296446 -0.00254,0.3409997 -0.097436,0.4358974 -0.06547,0.06547 -0.131084,0.097436 -0.2,0.097436 -0.080342,0 -0.102564,0.014444 -0.102564,0.066667 0,0.055556 -0.022222,0.066667 -0.1333333,0.066667 -0.111111,0 -0.1333334,-0.011111 -0.1333334,-0.066667 0,-0.044444 -0.022222,-0.066667 -0.066667,-0.066667 -0.044444,0 -0.066667,0.022222 -0.066667,0.066667 0,0.055556 -0.022222,0.066667 -0.1333333,0.066667 -0.111111,0 -0.1333333,-0.011111 -0.1333333,-0.066667 z"
       id="path79"
       inkscape:connector-curvature="0" />
    <path
       style="fill:#3d5164;stroke-width:0.03333333"
       d="M 0.83333331,5.4246499 C 0.78749998,5.4008525 0.72932602,5.3382645 0.70405782,5.2855655 0.65960525,5.1928555 0.66243358,5.1861619 0.79128701,5.0791292 0.99748488,4.9078495 1.0447348,4.8136789 1.0651383,4.5333332 l 0.018195,-0.25 0.1881868,-0.00989 c 0.1539409,-0.00809 0.1912852,-0.021741 0.2052127,-0.075 0.023674,-0.090528 0.2223685,-0.09241 0.245925,-0.00233 0.012878,0.049244 0.055746,0.066039 0.1988601,0.077907 0.3022378,0.025064 0.328482,0.072414 0.328482,0.5926496 0,0.6045987 0.030114,0.5805767 -0.7425087,0.592292 -0.4342217,0.00658 -0.61291272,-0.00251 -0.67415789,-0.034309 z M 4.4339902,5.2917279 C 4.2953106,5.2195305 4.2635599,5.1144185 4.2739022,4.7617532 c 0.010857,-0.3702093 0.053873,-0.4494163 0.26216,-0.4827226 0.083757,-0.013393 0.130223,-0.04064 0.1412557,-0.082828 0.023866,-0.091262 0.2222983,-0.088203 0.246357,0.0038 0.00959,0.036667 0.043935,0.066667 0.076325,0.066667 0.03239,0 0.066736,-0.03 0.076325,-0.066667 0.024059,-0.092001 0.2224913,-0.095059 0.246357,-0.0038 0.011033,0.042188 0.057499,0.069435 0.1412556,0.082828 0.2174094,0.034765 0.252729,0.1079316 0.252729,0.5235429 0,0.517707 0.00824,0.5113317 -0.675835,0.5231447 -0.3786529,0.00654 -0.5471166,-0.0029 -0.6068413,-0.03399 z M 0.1,4.9110565 C 0.0725,4.8994775 0.03897969,4.8735029 0.02551043,4.8533352 -0.01150565,4.7979105 -0.00459721,1.8588706 0.03268752,1.8 0.08491255,1.717539 0.50374015,1.731682 0.62273755,1.819925 c 0.1647596,0.1221772 0.17349963,0.1984149 0.17349963,1.5134087 0,1.3048236 -0.009593,1.3918939 -0.16613386,1.5079092 C 0.54132015,4.9070415 0.19788421,4.9522715 0.1,4.9110565 Z m 5.8666665,-4.4e-4 c -0.086529,-0.035671 -0.098966,-0.08588 -0.09949,-0.4016476 l -5.104e-4,-0.307699 0.091667,-0.020302 c 0.104448,-0.023133 0.5621043,-0.1413133 0.65,-0.1678493 0.05337,-0.016113 0.05829,0.017324 0.057823,0.3929683 -2.667e-4,0.225819 -0.014724,0.4330796 -0.032097,0.4605796 -0.023526,0.03724 -0.1063343,0.051858 -0.3244897,0.057281 -0.1610966,0.004 -0.3154033,-0.00199 -0.3429029,-0.013331 z M 2.6325128,4.6462932 c -0.027951,-0.00822 -0.13377,-0.153255 -0.235153,-0.32229 L 2.2130272,4.0166666 1.6481803,3.9999999 1.0833333,3.9833332 v -0.6499999 -0.65 l 0.564847,-0.016667 0.5648469,-0.016667 0.1849386,-0.308346 C 2.6158327,1.978407 2.589099,1.9893325 3.220301,2.0055827 l 0.4305266,0.011084 0.449586,0.3249169 0.4495863,0.324917 0.2166666,1.1e-4 c 0.5912114,3.033e-4 1.7281513,0.1996351 1.853474,0.3249578 0.051969,0.051969 0.066514,0.591976 0.018005,0.6684517 -0.032977,0.051989 -0.5117163,0.1878086 -0.9048126,0.2566983 -0.1558333,0.02731 -0.4888533,0.059495 -0.7400443,0.071523 L 4.5365779,4.010111 4.0936972,4.330055 3.6508169,4.649999 3.1670751,4.655622 c -0.266058,0.00309 -0.506611,-0.00111 -0.5345623,-0.00933 z m 1.2552178,-1.032 c 0.095725,-0.101498 0.1122693,-0.1429013 0.1122693,-0.2809599 0,-0.1380586 -0.016545,-0.1794622 -0.1122693,-0.28096 l -0.112269,-0.11904 H 3.3543972 2.9333333 v 0.4 0.3999999 H 3.3543972 3.7754616 Z M 6.3333332,2.5834967 c -0.1558334,-0.042464 -0.3245834,-0.086408 -0.375,-0.097653 l -0.091667,-0.020447 5.1e-4,-0.3076983 C 5.8674575,1.9884642 5.8819105,1.8275 5.8992945,1.8 c 0.024681,-0.039043 0.105184,-0.05 0.367372,-0.05 0.262188,0 0.342691,0.010957 0.367372,0.05 0.037169,0.058798 0.044316,0.8680605 0.00763,0.8636851 -0.01375,-0.00164 -0.1525,-0.037725 -0.3083333,-0.080188 z M 1.4767328,2.4682262 c -0.013927,-0.053259 -0.051272,-0.066907 -0.2052127,-0.075 L 1.0833333,2.3833333 1.0660007,2.1499999 C 1.0455214,1.874306 0.98463214,1.7481406 0.79672995,1.5920586 0.66227195,1.4803704 0.65949318,1.4740448 0.70405782,1.3811011 0.78417865,1.2140014 0.85890851,1.1978735 1.5074912,1.207708 2.2801141,1.2194232 2.2499999,1.1954014 2.2499999,1.8 c 0,0.5202356 -0.026244,0.5675856 -0.328482,0.5926495 -0.1431146,0.011868 -0.1859824,0.028662 -0.1988601,0.077907 -0.023556,0.090081 -0.2222514,0.088198 -0.245925,-0.00233 z m 3.2005851,0.00224 C 4.6662852,2.4282755 4.6198192,2.4010292 4.5360622,2.3876359 4.3186529,2.3528708 4.2833332,2.2797042 4.2833332,1.864093 c 0,-0.332522 0.00623,-0.3684703 0.075926,-0.4381671 C 4.4322969,1.352888 4.4566696,1.35 4.9999999,1.35 c 0.5433303,0 0.567703,0.00289 0.6407406,0.075926 0.069697,0.069697 0.075926,0.1056451 0.075926,0.4381671 0,0.4156112 -0.03532,0.4887778 -0.252729,0.523543 -0.083757,0.013393 -0.130223,0.04064 -0.1412556,0.082828 -0.023866,0.091262 -0.2222984,0.088203 -0.246357,-0.0038 -0.00959,-0.036667 -0.043935,-0.066667 -0.076325,-0.066667 -0.03239,0 -0.066736,0.03 -0.076325,0.066667 -0.024059,0.092001 -0.2224914,0.095059 -0.246357,0.0038 z"
       id="path77"
       inkscape:connector-curvature="0" />
    <path
       style="fill:#33485d;stroke-width:0.03333333"
       d="M 0.75826445,5.3749999 C 0.65968332,5.2645565 0.67994458,5.1905722 0.85639701,5.0166665 1.0002648,4.8748752 1.0315349,4.8208232 1.0659082,4.6545149 c 0.022222,-0.107517 0.033689,-0.2306083 0.025483,-0.2735367 -0.014176,-0.074156 -0.00477,-0.078541 0.1885107,-0.087848 0.1699406,-0.00818 0.202669,-0.0194 0.1988016,-0.06813 -0.00366,-0.046078 0.021825,-0.058333 0.1212963,-0.058333 0.099471,0 0.1249533,0.012255 0.1212963,0.058333 -0.00385,0.048552 0.028818,0.060049 0.1948411,0.068563 0.3085237,0.015822 0.3171959,0.031491 0.3171959,0.5731036 0,0.399756 -0.00756,0.463174 -0.060958,0.5115004 -0.052339,0.047366 -0.1529413,0.055166 -0.7115003,0.055166 -0.57750656,0 -0.65638805,-0.00655 -0.70261035,-0.058333 z M 4.3551662,5.2390419 c -0.044611,-0.049294 -0.055166,-0.134411 -0.055166,-0.4448337 0,-0.438412 0.021584,-0.4815873 0.25,-0.5000803 0.1028943,-0.00833 0.1322763,-0.024112 0.1287036,-0.069128 -0.00366,-0.046078 0.021825,-0.058333 0.1212964,-0.058333 0.099471,0 0.1249533,0.012255 0.1212963,0.058333 -0.00327,0.041235 0.019797,0.058333 0.078704,0.058333 0.058907,0 0.081976,-0.017099 0.078704,-0.058333 -0.00366,-0.046078 0.021825,-0.058333 0.1212964,-0.058333 0.099471,0 0.1249533,0.012255 0.1212963,0.058333 -0.00357,0.045016 0.025809,0.060798 0.1287037,0.069128 0.2289866,0.018539 0.25,0.061059 0.25,0.505872 0,0.5266923 0.037678,0.5 -0.7057917,0.5 -0.5233163,0 -0.5895976,-0.00632 -0.639042,-0.060958 z M 0.04859768,4.8583332 C 0.03981052,4.8354165 0.03653129,4.1341666 0.04131051,3.2999999 L 0.05,1.7833333 0.30340218,1.7736866 c 0.24056207,-0.00916 0.25871914,-0.00468 0.35833334,0.088374 l 0.10493113,0.09802 v 1.3732527 1.3732526 l -0.10352517,0.096707 c -0.0950005,0.088744 -0.12390703,0.096707 -0.35104616,0.096707 -0.16727367,0 -0.25270067,-0.013509 -0.26349764,-0.041667 z m 5.86867922,0.00117 c -0.00818,-0.023562 -0.019157,-0.182281 -0.024404,-0.3527093 -0.00944,-0.306601 -0.00866,-0.3100673 0.073794,-0.328564 0.1865817,-0.041855 0.597659,-0.1460983 0.6390463,-0.1620536 0.035961,-0.013864 0.041154,0.066041 0.02762,0.4250406 l -0.016667,0.4421137 -0.3422627,0.00951 c -0.255739,0.0071 -0.3460206,-0.00132 -0.3571269,-0.033333 z M 2.5412644,4.5416666 C 2.5064631,4.4912499 2.4201079,4.3524999 2.349364,4.2333332 2.2786201,4.1141666 2.2048225,4.0056462 2.1853693,3.9921769 2.1659161,3.9787076 1.91,3.9674576 1.6166666,3.9671769 L 1.0833333,3.9666666 V 3.3333333 2.6999999 h 0.5403524 c 0.3901485,0 0.5507303,-0.011582 0.5776861,-0.041667 0.020533,-0.022917 0.1153262,-0.1691667 0.2106504,-0.325 l 0.1733167,-0.2833334 0.5390099,-0.00915 0.5390101,-0.00915 0.459987,0.3298104 0.4599873,0.3298105 0.55,0.018147 c 0.55597,0.018344 1.0652926,0.1054998 1.376567,0.2355585 l 0.123433,0.051574 V 3.333335 3.6700699 l -0.123433,0.051574 C 6.1986258,3.8517006 5.6893032,3.9388562 5.1333332,3.9572006 l -0.55,0.018147 -0.4588476,0.3289927 -0.458848,0.3289926 H 3.1350886 2.6045395 Z M 3.8093582,3.6912022 C 4.0783846,3.5148839 4.0784179,3.1518905 3.8094249,2.9754642 3.7363006,2.9275047 3.6457582,2.9166666 3.3182214,2.9166666 H 2.9166666 l -0.00948,0.3812952 c -0.00522,0.2097124 -0.00133,0.4025384 0.00863,0.4285021 0.028373,0.073939 0.7716825,0.044606 0.8935445,-0.035262 z M 6.2666665,2.5636798 c -0.1925,-0.051323 -0.3575,-0.094112 -0.3666666,-0.095088 -0.00917,-9.756e-4 -0.00917,-0.1555579 0,-0.3435163 l 0.016667,-0.3417426 h 0.35 0.35 l 0.016667,0.4417353 c 0.00917,0.2429544 0.00917,0.4395279 0,0.4368301 -0.00917,-0.0027 -0.1741667,-0.046896 -0.3666674,-0.098218 z M 1.4787037,2.4416666 c 0.00386,-0.048696 -0.0288,-0.059947 -0.19772,-0.068102 l -0.2023496,-0.00977 0.014292,-0.097379 C 1.1228654,2.0624289 1.0349216,1.8345109 0.85646388,1.6535938 0.68145485,1.476173 0.66096898,1.4006696 0.75826445,1.2916666 c 0.0462521,-0.051818 0.12537969,-0.058333 0.70840215,-0.058333 0.5935128,0 0.6616144,0.00583 0.7115004,0.060958 0.045605,0.050393 0.055166,0.1390435 0.055166,0.5115004 0,0.5351011 -0.00918,0.5515155 -0.3171959,0.5673119 -0.1660234,0.00851 -0.1986945,0.020011 -0.1948411,0.068563 0.00366,0.046078 -0.021825,0.058333 -0.1212963,0.058333 -0.099471,0 -0.1249533,-0.012255 -0.121296,-0.058333 z m 3.1999998,0 c 0.00357,-0.045016 -0.025809,-0.060798 -0.1287036,-0.069128 -0.2289867,-0.018539 -0.25,-0.061059 -0.25,-0.5058719 0,-0.5266922 -0.037678,-0.5 0.7057916,-0.5 0.7314217,0 0.6942084,-0.027113 0.6942084,0.5057918 0,0.4384118 -0.021584,0.4815873 -0.25,0.5000801 -0.1028944,0.00833 -0.1322764,0.024112 -0.1287037,0.069128 0.00366,0.046078 -0.021825,0.058333 -0.1212963,0.058333 -0.099471,0 -0.1249534,-0.012255 -0.1212964,-0.058333 0.00327,-0.041235 -0.019797,-0.058333 -0.078704,-0.058333 -0.058907,0 -0.081976,0.017099 -0.078704,0.058333 0.00366,0.046078 -0.021825,0.058333 -0.1212963,0.058333 -0.099471,0 -0.1249534,-0.012255 -0.1212957,-0.058333 z"
       id="path75"
       inkscape:connector-curvature="0" />
  </g>
</svg>
