<?xml version="1.0" encoding="UTF-8" standalone="no"?>
<svg
   xmlns:dc="http://purl.org/dc/elements/1.1/"
   xmlns:cc="http://creativecommons.org/ns#"
   xmlns:rdf="http://www.w3.org/1999/02/22-rdf-syntax-ns#"
   xmlns:svg="http://www.w3.org/2000/svg"
   xmlns="http://www.w3.org/2000/svg"
   viewBox="0 0 6.6666665 6.6666665"
   height="6.6666665"
   width="6.6666665"
   id="svg3752"
   version="1.1">
  <metadata
     id="metadata3758">
    <rdf:RDF>
      <cc:Work
         rdf:about="">
        <dc:format>image/svg+xml</dc:format>
        <dc:type
           rdf:resource="http://purl.org/dc/dcmitype/StillImage" />
        <dc:title></dc:title>
      </cc:Work>
    </rdf:RDF>
  </metadata>
  <defs
     id="defs3756" />
  <g
     
     id="g3762">
    <path
       id="path3778"
       d="M 0,3.3333333 V 0 H 3.3333333 6.6666665 V 3.3333333 6.6666665 H 3.3333333 0 Z"
       style="fill:#fefefe;stroke-width:0.03333333" />
    <path
       id="path3776"
       d="M 0.73914378,5.3895182 C 0.62939345,5.2726942 0.64704388,5.1731915 0.80087408,5.0415185 0.97969774,4.8884522 1.0338513,4.7734209 1.0569836,4.4974996 l 0.019352,-0.230833 H 1.271501 c 0.1729432,0 0.1951654,-0.00759 0.1951654,-0.066667 0,-0.055556 0.022222,-0.066667 0.1333334,-0.066667 0.1111111,0 0.1333333,0.011111 0.1333333,0.066667 0,0.059038 0.022222,0.066667 0.1941895,0.066667 0.1598851,0 0.2069929,0.013629 0.2666667,0.077148 0.067031,0.071351 0.072477,0.1109897 0.072477,0.527523 0,0.6272673 0.04317,0.5953286 -0.8046712,0.5953286 -0.63672979,0 -0.65189505,-0.00162 -0.72285132,-0.077148 z M 4.3391436,5.2561849 c -0.065748,-0.069986 -0.072477,-0.1127714 -0.072477,-0.4608564 0,-0.3579863 0.00517,-0.3885663 0.077148,-0.4561849 0.0504,-0.047349 0.119742,-0.072477 0.2,-0.072477 0.1006293,0 0.1228517,-0.012059 0.1228517,-0.066667 0,-0.055556 0.022222,-0.066667 0.1333333,-0.066667 0.111111,0 0.1333333,0.011111 0.1333333,0.066667 0,0.044444 0.022222,0.066667 0.066667,0.066667 0.044444,0 0.066667,-0.022222 0.066667,-0.066667 0,-0.055556 0.022222,-0.066667 0.1333334,-0.066667 0.111111,0 0.1333333,0.011111 0.1333333,0.066667 0,0.055049 0.022222,0.066667 0.127523,0.066667 0.090199,0 0.1487353,0.02258 0.2,0.077148 0.065748,0.069986 0.072477,0.1127713 0.072477,0.4608563 0,0.5444287 0.02201,0.528662 -0.7380047,0.528662 -0.5670436,0 -0.5857769,-0.0022 -0.6561853,-0.077148 z M 0.0152681,4.8916665 C 0.00648299,4.8687499 0.00320377,4.1524999 0.00798092,3.2999999 L 0.01666667,1.75 0.29474577,1.74027 0.57282489,1.73054 0.68641242,1.8509779 0.79999998,1.9714158 v 1.3619199 1.3619199 l -0.11226923,0.11904 c -0.11091833,0.1176077 -0.11554343,0.11904 -0.38437949,0.11904 -0.18694709,0 -0.27710934,-0.013041 -0.28808316,-0.041667 z m 5.8746508,0.020475 C 5.8771302,4.8993522 5.8666665,4.7266745 5.8666665,4.5284129 V 4.1679366 l 0.091667,-0.020865 c 0.2253633,-0.051298 0.607888,-0.1489926 0.6566523,-0.1677053 0.047914,-0.018387 0.052582,0.029924 0.044287,0.458374 l -0.00927,0.4789266 -0.3684143,0.00936 c -0.202628,0.00515 -0.378878,-0.0011 -0.3916666,-0.013889 z M 2.3799766,4.3416666 2.1833333,4.0166666 1.625,4.0075272 1.0666666,3.9983879 V 3.3333333 2.6682785 L 1.625,2.6591392 2.1833333,2.6499999 2.3799766,2.3249999 2.5766199,2 h 0.5445089 0.5445088 l 0.458848,0.3289926 0.4588476,0.3289926 0.55,0.018147 c 0.543967,0.017948 0.989726,0.093072 1.3833333,0.2331312 l 0.1333333,0.047445 V 3.3333333 3.7099579 L 6.5166665,3.7574026 C 6.1230592,3.8974622 5.6773002,3.9725856 5.1333332,3.9905339 l -0.55,0.018147 -0.4588476,0.3289927 -0.458848,0.3289927 H 3.1211288 2.5766199 Z M 3.8225642,3.6468162 c 0.2037627,-0.1512493 0.2037627,-0.4757166 0,-0.6269659 C 3.7420759,2.9601051 3.6709469,2.9482864 3.3308977,2.9381557 L 2.9333333,2.9263114 V 3.3333333 3.7403549 L 3.3308977,3.7285109 C 3.6709469,3.7183799 3.7420759,3.7065616 3.8225642,3.6468162 Z M 6.2406202,2.5907071 5.8645742,2.4902691 5.8739535,2.1201345 5.8833332,1.75 h 0.3833333 0.3833333 l 0.00925,0.4749999 c 0.00509,0.26125 -0.00241,0.4730077 -0.016667,0.4705726 C 6.6283285,2.6931375 6.4474458,2.645948 6.2406202,2.5907071 Z M 1.4666666,2.4666666 c 0,-0.059259 -0.022222,-0.066667 -0.2,-0.066667 h -0.2 V 2.25605 C 1.0666666,1.9960169 0.980747,1.7847264 0.81605728,1.6397608 0.64475262,1.4889724 0.62426108,1.3847922 0.74381501,1.2724771 0.81758308,1.2031756 0.84945998,1.2 1.4713379,1.2 c 0.838619,0 0.7953287,-0.032913 0.7953287,0.6046712 0,0.4276721 -0.00389,0.4540279 -0.077148,0.5228516 -0.060535,0.056869 -0.1179605,0.072477 -0.2666666,0.072477 -0.1672961,0 -0.1895183,0.00782 -0.1895183,0.066667 0,0.055556 -0.022222,0.066667 -0.1333333,0.066667 -0.1111111,0 -0.1333334,-0.011111 -0.1333338,-0.066667 z m 3.2,0 c 0,-0.055049 -0.022222,-0.066667 -0.127523,-0.066667 -0.090199,0 -0.1487354,-0.02258 -0.2,-0.077148 -0.065748,-0.069986 -0.072477,-0.1127712 -0.072477,-0.4608562 0,-0.5444287 -0.02201,-0.5286621 0.7380046,-0.5286621 0.7511553,0 0.728662,-0.016608 0.728662,0.5380046 0,0.3579862 -0.00517,0.3885662 -0.077148,0.4561849 -0.0504,0.047349 -0.119742,0.072477 -0.2,0.072477 -0.1006294,0 -0.1228517,0.012059 -0.1228517,0.066667 0,0.055556 -0.022222,0.066667 -0.1333333,0.066667 -0.111111,0 -0.1333334,-0.011111 -0.1333334,-0.066667 0,-0.044444 -0.022222,-0.066667 -0.066667,-0.066667 -0.044444,0 -0.066667,0.022222 -0.066667,0.066667 0,0.055556 -0.022222,0.066667 -0.1333333,0.066667 -0.111111,0 -0.1333333,-0.011111 -0.1333329,-0.066667 z"
       style="fill:#f8d6d2;stroke-width:0.03333333" />
    <path
       id="path3774"
       d="M 0.74848481,5.3848482 C 0.62988558,5.2662492 0.64460028,5.1752832 0.80452781,5.0383912 0.98207144,4.8864202 1.0650024,4.7023979 1.0659346,4.4583332 l 7.32e-4,-0.1916666 h 0.2 c 0.1777778,0 0.2,-0.00741 0.2,-0.066667 0,-0.055556 0.022222,-0.066667 0.1333334,-0.066667 0.1111111,0 0.1333333,0.011111 0.1333333,0.066667 0,0.058652 0.022222,0.066667 0.1848485,0.066667 0.1518144,0 0.1994701,0.014622 0.2666666,0.081818 0.078535,0.078535 0.081818,0.099326 0.081818,0.5181816 0,0.4188554 -0.00328,0.4396464 -0.081818,0.5181817 -0.081154,0.081155 -0.086981,0.081818 -0.7181818,0.081818 -0.63120085,0 -0.63702739,-6.633e-4 -0.71818179,-0.081818 z M 4.3484849,5.2515149 c -0.077033,-0.077032 -0.081818,-0.1034417 -0.081818,-0.451515 0,-0.3480733 0.00479,-0.3744827 0.081818,-0.451515 0.056099,-0.0561 0.1189673,-0.081818 0.2,-0.081818 0.095959,0 0.1181817,-0.012536 0.1181817,-0.066667 0,-0.055556 0.022222,-0.066667 0.1333333,-0.066667 0.111111,0 0.1333333,0.011111 0.1333333,0.066667 0,0.044444 0.022222,0.066667 0.066667,0.066667 0.044444,0 0.066667,-0.022222 0.066667,-0.066667 0,-0.055556 0.022222,-0.066667 0.1333334,-0.066667 0.111111,0 0.1333333,0.011111 0.1333333,0.066667 0,0.054131 0.022222,0.066667 0.1181817,0.066667 0.081033,0 0.1439006,0.025719 0.2,0.081818 0.077033,0.077032 0.081818,0.1034417 0.081818,0.451515 0,0.3480733 -0.00479,0.3744826 -0.081818,0.451515 -0.080486,0.080486 -0.091096,0.081818 -0.651515,0.081818 -0.560419,0 -0.5710293,-0.00133 -0.6515157,-0.081818 z M 0.04,4.8933332 c -0.057579,-0.057579 -0.057579,-3.0624209 0,-3.1199999 0.05768316,-0.057683 0.44314975,-0.050426 0.56109108,0.010564 0.19664157,0.1016873 0.1989089,0.1193491 0.1989089,1.5494358 0,1.4300866 -0.002267,1.4477482 -0.1989089,1.5494356 C 0.48314975,4.9437589 0.09768316,4.9510165 0.04,4.8933332 Z m 5.8666665,0 c -0.025833,-0.025833 -0.04,-0.1592943 -0.04,-0.376825 v -0.336825 l 0.4,-0.100898 0.4,-0.1008983 v 0.4377233 c 0,0.2960067 -0.01295,0.4506733 -0.04,0.477723 -0.025556,0.025556 -0.1555557,0.04 -0.36,0.04 -0.2044443,0 -0.3344443,-0.014444 -0.36,-0.04 z m -3.3465799,-0.285 C 2.5324515,4.5762499 2.436536,4.4262499 2.3469411,4.2749999 l -0.1628996,-0.275 H 1.6253541 1.0666666 V 3.3333333 2.6666666 h 0.5586875 0.5586874 l 0.1628996,-0.275 C 2.5987983,1.9664927 2.5315725,2 3.1327432,2 h 0.5224107 l 0.4683627,0.3333333 0.4683626,0.3333333 h 0.399694 c 0.415308,0 0.802686,0.052904 1.2584266,0.1718629 0.422037,0.1101614 0.4166667,0.1037839 0.4166667,0.4948038 0,0.3910199 0.00537,0.3846423 -0.4166667,0.4948036 -0.4557406,0.118959 -0.8431186,0.171863 -1.2584266,0.171863 H 4.5918792 L 4.1235166,4.3333332 3.6551539,4.6666666 H 3.1327432 c -0.4561706,0 -0.5287818,-0.0074 -0.5726566,-0.058333 z m 1.190254,-0.922994 c 0.1280626,-0.053508 0.24941,-0.2247723 0.24941,-0.3520059 0,-0.1272337 -0.1213474,-0.2984979 -0.24941,-0.3520059 C 3.6750436,2.9498662 3.5145379,2.9333333 3.2844039,2.9333333 H 2.9333333 v 0.4 0.3999999 h 0.3510706 c 0.230134,0 0.3906397,-0.016533 0.4659367,-0.047994 z M 6.2583332,2.5840332 5.8666665,2.4834092 v -0.335038 c 0,-0.2161406 0.014195,-0.349233 0.04,-0.3750379 0.05958,-0.05958 0.6733407,-0.054254 0.7235787,0.00628 0.025755,0.031033 0.035336,0.1877374 0.029081,0.475662 l -0.00933,0.4293829 z M 1.4666666,2.4666666 c 0,-0.059259 -0.022222,-0.066667 -0.2,-0.066667 h -0.2 L 1.0659346,2.2083333 C 1.0650024,1.9642687 0.98207144,1.7802462 0.80452781,1.6282755 0.64460028,1.4913834 0.62988558,1.4004174 0.74848481,1.2818181 0.82963921,1.2006637 0.83546575,1.2 1.4666666,1.2 c 0.6312009,0 0.6370274,6.637e-4 0.7181818,0.081818 0.078535,0.078535 0.081818,0.099327 0.081818,0.5181819 0,0.4188552 -0.00328,0.4396464 -0.081818,0.5181818 -0.067197,0.067197 -0.1148522,0.081818 -0.2666666,0.081818 -0.1626263,0 -0.1848485,0.00801 -0.1848485,0.066667 0,0.055556 -0.022222,0.066667 -0.1333333,0.066667 -0.1111111,0 -0.1333334,-0.011111 -0.1333334,-0.066667 z m 3.2,0 c 0,-0.054131 -0.022222,-0.066667 -0.1181817,-0.066667 -0.081033,0 -0.1439007,-0.025719 -0.2,-0.081818 -0.077033,-0.077033 -0.081818,-0.1034419 -0.081818,-0.4515152 0,-0.3480733 0.00479,-0.3744825 0.081818,-0.4515151 0.080486,-0.080486 0.091096,-0.081818 0.651515,-0.081818 0.560419,0 0.5710293,0.00133 0.651515,0.081818 0.077033,0.077033 0.081818,0.1034418 0.081818,0.4515151 0,0.3480733 -0.00479,0.3744825 -0.081818,0.4515152 -0.056099,0.056099 -0.1189674,0.081818 -0.2,0.081818 -0.095959,0 -0.1181817,0.012536 -0.1181817,0.066667 0,0.055556 -0.022222,0.066667 -0.1333333,0.066667 -0.111111,0 -0.1333334,-0.011111 -0.1333334,-0.066667 0,-0.044444 -0.022222,-0.066667 -0.066667,-0.066667 -0.044444,0 -0.066667,0.022222 -0.066667,0.066667 0,0.055556 -0.022222,0.066667 -0.1333333,0.066667 -0.111111,0 -0.1333333,-0.011111 -0.1333326,-0.066667 z"
       style="fill:#f6c2bd;stroke-width:0.03333333" />
    <path
       id="path3772"
       d="M 0.74848481,5.3848482 C 0.62708768,5.2634512 0.64191962,5.1585692 0.79479041,5.0574039 0.96077454,4.9475609 1.0434434,4.7715375 1.0604874,4.4916666 l 0.013702,-0.225 h 0.1962385 c 0.1740162,0 0.1962384,-0.00755 0.1962384,-0.066667 0,-0.055556 0.022222,-0.066667 0.1333334,-0.066667 0.1111111,0 0.1333333,0.011111 0.1333333,0.066667 0,0.058652 0.022222,0.066667 0.1848485,0.066667 0.1518144,0 0.1994701,0.014622 0.2666666,0.081818 0.078535,0.078535 0.081818,0.099326 0.081818,0.5181816 0,0.4188554 -0.00328,0.4396464 -0.081818,0.5181817 -0.081154,0.081155 -0.086981,0.081818 -0.7181818,0.081818 -0.63120085,0 -0.63702739,-6.633e-4 -0.71818149,-0.081818 z M 4.3484849,5.2515149 c -0.077033,-0.077032 -0.081818,-0.1034417 -0.081818,-0.451515 0,-0.3480733 0.00479,-0.3744827 0.081818,-0.451515 0.056099,-0.0561 0.1189673,-0.081818 0.2,-0.081818 0.095959,0 0.1181817,-0.012536 0.1181817,-0.066667 0,-0.055556 0.022222,-0.066667 0.1333333,-0.066667 0.111111,0 0.1333333,0.011111 0.1333333,0.066667 0,0.044444 0.022222,0.066667 0.066667,0.066667 0.044444,0 0.066667,-0.022222 0.066667,-0.066667 0,-0.055556 0.022222,-0.066667 0.1333334,-0.066667 0.111111,0 0.1333333,0.011111 0.1333333,0.066667 0,0.054131 0.022222,0.066667 0.1181817,0.066667 0.081033,0 0.1439006,0.025719 0.2,0.081818 0.077033,0.077032 0.081818,0.1034417 0.081818,0.451515 0,0.3480733 -0.00479,0.3744826 -0.081818,0.451515 -0.080486,0.080486 -0.091096,0.081818 -0.651515,0.081818 -0.560419,0 -0.5710293,-0.00133 -0.6515157,-0.081818 z M 0.04,4.8933332 c -0.057579,-0.057579 -0.057579,-3.0624209 0,-3.1199999 0.06071408,-0.060714 0.44836802,-0.05064 0.55867222,0.014518 0.20210806,0.1193882 0.20132776,0.1133983 0.20132776,1.545482 0,1.4320836 7.8033e-4,1.4260936 -0.20132776,1.5454819 C 0.48836802,4.9439735 0.10071408,4.9540472 0.04,4.8933332 Z m 5.8666665,0 c -0.025889,-0.025889 -0.04,-0.1600897 -0.04,-0.3804033 V 4.1725266 l 0.1415853,-0.023921 c 0.077872,-0.013157 0.2578717,-0.057729 0.4,-0.099049 l 0.2584147,-0.075129 v 0.4394527 c 0,0.2973519 -0.012934,0.4523869 -0.04,0.4794526 -0.025556,0.025556 -0.1555557,0.04 -0.36,0.04 -0.2044443,0 -0.3344443,-0.014444 -0.36,-0.04 z M 2.4882405,4.4916666 C 2.4272283,4.3954166 2.3359893,4.2454166 2.2854872,4.1583332 L 2.1936651,3.9999999 H 1.6301659 1.0666666 V 3.3333333 2.6666666 h 0.56169 0.56169 l 0.1966433,-0.325 0.1966434,-0.325 0.5333333,-0.00782 0.5333333,-0.00782 0.465117,0.3328228 0.465117,0.3328227 h 0.357471 c 0.196609,0 0.47453,0.016281 0.617602,0.036181 0.3259173,0.045331 1.0019546,0.2145173 1.0644626,0.2663945 0.066731,0.055382 0.066731,0.6728009 0,0.7281826 -0.062508,0.051877 -0.7385453,0.2210636 -1.0644626,0.2663943 -0.143072,0.0199 -0.420993,0.036181 -0.617602,0.036181 h -0.357471 l -0.465117,0.3323507 -0.465117,0.3323503 -0.525414,9.83e-4 -0.525414,9.827e-4 z M 3.8744522,3.6076922 c 0.09368,-0.09376 0.108881,-0.132064 0.108881,-0.2743589 0,-0.1422949 -0.015201,-0.1805988 -0.108881,-0.274359 L 3.7655716,2.9499999 3.3494522,2.938948 2.9333333,2.9278962 V 3.3333333 3.7387702 L 3.3494522,3.7277186 3.7655716,3.7166666 Z M 6.5241025,2.6465045 c -0.069243,-0.024 -0.2454933,-0.069336 -0.3916667,-0.100747 L 5.8666665,2.4886465 V 2.1509899 c 0,-0.2181774 0.014154,-0.3518105 0.04,-0.3776566 0.05958,-0.05958 0.6733407,-0.054254 0.7235787,0.00628 0.025775,0.031057 0.03534,0.1884156 0.029081,0.4784036 l -0.00933,0.4321245 z M 1.4666666,2.4666666 c 0,-0.059259 -0.022222,-0.066667 -0.2,-0.066667 h -0.2 V 2.1961775 c 0,-0.2476521 -0.11905952,-0.4946508 -0.28908649,-0.5997332 C 0.64177835,1.5125142 0.63128292,1.3990201 0.74848481,1.2818181 0.82963921,1.2006637 0.83546575,1.2 1.4666666,1.2 c 0.6312009,0 0.6370274,6.637e-4 0.7181818,0.081818 0.078535,0.078535 0.081818,0.099327 0.081818,0.5181819 0,0.4188552 -0.00328,0.4396464 -0.081818,0.5181818 -0.067197,0.067197 -0.1148522,0.081818 -0.2666666,0.081818 -0.1626263,0 -0.1848485,0.00801 -0.1848485,0.066667 0,0.055556 -0.022222,0.066667 -0.1333333,0.066667 -0.1111111,0 -0.1333334,-0.011111 -0.1333334,-0.066667 z m 3.2,0 c 0,-0.054131 -0.022222,-0.066667 -0.1181817,-0.066667 -0.081033,0 -0.1439007,-0.025719 -0.2,-0.081818 -0.077033,-0.077033 -0.081818,-0.1034419 -0.081818,-0.4515152 0,-0.3480733 0.00479,-0.3744825 0.081818,-0.4515151 0.080486,-0.080486 0.091096,-0.081818 0.651515,-0.081818 0.560419,0 0.5710293,0.00133 0.651515,0.081818 0.077033,0.077033 0.081818,0.1034418 0.081818,0.4515151 0,0.3480733 -0.00479,0.3744825 -0.081818,0.4515152 -0.056099,0.056099 -0.1189674,0.081818 -0.2,0.081818 -0.095959,0 -0.1181817,0.012536 -0.1181817,0.066667 0,0.055556 -0.022222,0.066667 -0.1333333,0.066667 -0.111111,0 -0.1333334,-0.011111 -0.1333334,-0.066667 0,-0.044444 -0.022222,-0.066667 -0.066667,-0.066667 -0.044444,0 -0.066667,0.022222 -0.066667,0.066667 0,0.055556 -0.022222,0.066667 -0.1333333,0.066667 -0.111111,0 -0.1333333,-0.011111 -0.1333326,-0.066667 z"
       style="fill:#f19e95;stroke-width:0.03333333" />
    <path
       id="path3770"
       d="M 0.81666665,5.4264059 C 0.62789818,5.3181472 0.62302378,5.1819522 0.80344911,5.0570949 0.97938298,4.9353459 1.064984,4.7455145 1.0659346,4.4749999 l 7.32e-4,-0.2083333 h 0.2 c 0.1777778,0 0.2,-0.00741 0.2,-0.066667 0,-0.055556 0.022222,-0.066667 0.1333334,-0.066667 0.1111111,0 0.1333333,0.011111 0.1333333,0.066667 0,0.056932 0.022222,0.066667 0.1521914,0.066667 0.1603989,0 0.2709924,0.042629 0.3384151,0.1304446 0.026933,0.03508 0.040607,0.1931894 0.040607,0.4695553 0,0.4340964 -0.014494,0.486909 -0.1540218,0.561222 -0.098723,0.05258 -1.20179352,0.051316 -1.29385795,-0.00148 z M 4.4166666,5.2930725 c -0.036667,-0.021028 -0.08494,-0.061822 -0.1072734,-0.090653 -0.055281,-0.071363 -0.055281,-0.7333073 0,-0.8053083 0.05798,-0.075516 0.1724094,-0.1304446 0.2717487,-0.1304446 0.063302,0 0.085525,-0.017322 0.085525,-0.066667 0,-0.055556 0.022222,-0.066667 0.1333333,-0.066667 0.111111,0 0.1333333,0.011111 0.1333333,0.066667 0,0.044444 0.022222,0.066667 0.066667,0.066667 0.044444,0 0.066667,-0.022222 0.066667,-0.066667 0,-0.055556 0.022222,-0.066667 0.1333334,-0.066667 0.111111,0 0.1333333,0.011111 0.1333333,0.066667 0,0.049344 0.022222,0.066667 0.085525,0.066667 0.099339,0 0.213769,0.054928 0.2717486,0.1304446 0.025984,0.033843 0.040606,0.1789277 0.040606,0.4028887 0,0.363986 -0.018122,0.4221746 -0.1540217,0.4945553 -0.097964,0.052176 -1.0691246,0.050935 -1.1605246,-0.00148 z M 0.04166667,4.8960362 C 0.00956471,4.8631359 0,4.5038189 0,3.3307481 0,2.0229244 0.00700162,1.8023521 0.04963907,1.7669662 c 0.03280813,-0.027228 0.12903818,-0.03671 0.28380879,-0.027965 0.21109466,0.011928 0.24479803,0.02386 0.34202759,0.1210896 L 0.78333331,1.9679487 V 3.3333333 4.6987179 L 0.67500708,4.8070442 c -0.0990212,0.099021 -0.12908559,0.1093297 -0.34999999,0.1200107 -0.16601205,0.00803 -0.2547185,-0.00168 -0.28334042,-0.031019 z m 5.86499983,-0.0027 c -0.025822,-0.025822 -0.039959,-0.158744 -0.039883,-0.375 l 1.333e-4,-0.335 0.3248833,-0.075649 c 0.1786857,-0.041607 0.3586334,-0.084607 0.3998834,-0.095555 0.074934,-0.019887 0.075,-0.019527 0.075,0.4106497 0,0.290431 -0.013018,0.4435723 -0.04,0.4705543 -0.025556,0.025556 -0.1555557,0.04 -0.36,0.04 -0.2044444,0 -0.3344443,-0.014444 -0.36,-0.04 z M 2.5760362,4.6249999 C 2.5583664,4.6020832 2.4655229,4.4520832 2.3697173,4.2916666 L 2.1955252,3.9999999 H 1.6310959 1.0666666 V 3.3333333 2.6666666 h 0.5644222 0.5644221 l 0.1961105,-0.325 0.1961105,-0.325 0.5243521,-0.00919 0.5243519,-0.00919 0.4585597,0.3291132 0.4585593,0.3291131 0.4982223,0.019189 c 0.58266,0.022441 1.4287376,0.1832782 1.5732226,0.2990655 0.05927,0.047498 0.057672,0.6704481 -0.00185,0.7198441 -0.062142,0.051573 -0.65646,0.1969667 -1.0437363,0.255339 -0.1811797,0.027308 -0.4829357,0.04974 -0.6705697,0.049848 l -0.341152,2e-4 L 4.1032559,4.3333366 3.6388162,4.6666699 H 3.1234895 c -0.372905,0 -0.5242059,-0.011515 -0.5474537,-0.041667 z M 3.7986722,3.6788152 C 3.9880036,3.5669742 4.0547389,3.3196185 3.9454819,3.134661 3.8456666,2.965687 3.7451272,2.9333333 3.3198569,2.9333333 H 2.9333333 v 0.4 0.3999999 h 0.3865236 c 0.2979717,0 0.4076673,-0.01249 0.4788153,-0.054518 z m 2.5013276,-1.096403 c -0.1558333,-0.042919 -0.3170833,-0.07902 -0.3583333,-0.080223 -0.072782,-0.00212 -0.075,-0.012344 -0.075,-0.3455221 0,-0.2225926 0.014067,-0.3574002 0.04,-0.3833333 0.054482,-0.054482 0.6655177,-0.054482 0.72,0 0.057752,0.057753 0.056186,0.8945414 -0.00167,0.8902234 -0.022917,-0.00171 -0.1691666,-0.038225 -0.325,-0.081145 z M 1.4666666,2.4666666 c 0,-0.059259 -0.022222,-0.066667 -0.2,-0.066667 h -0.2 V 2.1938574 c 0,-0.2606287 -0.0952589,-0.4683851 -0.27017295,-0.5892379 C 0.66433928,1.5133105 0.63643438,1.4254712 0.70939342,1.3304447 0.79709161,1.216221 0.89125994,1.2 1.4666666,1.2 c 0.8007079,0 0.7978798,-0.00213 0.7978798,0.6 0,0.2763659 -0.013673,0.4344753 -0.040607,0.4695552 -0.067423,0.087816 -0.1780162,0.1304447 -0.3384151,0.1304447 -0.1299692,0 -0.1521914,0.00973 -0.1521914,0.066667 0,0.055556 -0.022222,0.066667 -0.1333333,0.066667 -0.1111111,0 -0.1333334,-0.011111 -0.133333,-0.066667 z m 3.2,0 c 0,-0.049344 -0.022222,-0.066667 -0.085525,-0.066667 -0.099339,0 -0.213769,-0.054928 -0.2717487,-0.1304447 -0.055269,-0.071986 -0.055269,-0.7337909 0,-0.8057771 0.085986,-0.1119941 0.183669,-0.1304448 0.6906067,-0.1304448 0.5069376,0 0.6046203,0.018451 0.6906066,0.1304448 0.055269,0.071986 0.055269,0.7337908 0,0.8057771 -0.05798,0.075516 -0.1724093,0.1304447 -0.2717486,0.1304447 -0.063302,0 -0.085525,0.017322 -0.085525,0.066667 0,0.055556 -0.022222,0.066667 -0.1333333,0.066667 -0.111111,0 -0.1333334,-0.011111 -0.1333334,-0.066667 0,-0.044444 -0.022222,-0.066667 -0.066667,-0.066667 -0.044444,0 -0.066667,0.022222 -0.066667,0.066667 0,0.055556 -0.022222,0.066667 -0.1333333,0.066667 -0.111111,0 -0.1333333,-0.011111 -0.1333333,-0.066667 z"
       style="fill:#ed857a;stroke-width:0.03333333" />
    <path
       id="path3768"
       d="M 0.81213605,5.4276802 C 0.70698728,5.3767662 0.61213252,5.1333332 0.69744248,5.1333332 c 0.0169267,0 0.0790612,-0.040629 0.1380766,-0.090288 C 0.98750628,4.9151569 1.0650597,4.7239635 1.0659346,4.4749999 l 7.32e-4,-0.2083333 h 0.2 c 0.1777778,0 0.2,-0.00741 0.2,-0.066667 0,-0.055556 0.022222,-0.066667 0.1333334,-0.066667 0.1111111,0 0.1333333,0.011111 0.1333333,0.066667 0,0.056686 0.022222,0.066667 0.1484316,0.066667 0.1863546,0 0.3003329,0.050862 0.3478926,0.155244 0.020355,0.044674 0.037009,0.2448146 0.037009,0.4447559 0,0.3951857 -0.030614,0.5062054 -0.1552442,0.562991 -0.1039621,0.047368 -1.20082382,0.045699 -1.29928635,-0.00198 z M 4.4121359,5.2943469 C 4.3729776,5.2753859 4.3242276,5.2231955 4.3038026,5.1783679 4.2557392,5.0728802 4.2556476,4.5273206 4.3036692,4.4219106 c 0.041409,-0.09087 0.158024,-0.155244 0.2812324,-0.155244 0.059543,0 0.081765,-0.018119 0.081765,-0.066667 0,-0.055556 0.022222,-0.066667 0.1333333,-0.066667 0.111111,0 0.1333333,0.011111 0.1333333,0.066667 0,0.044444 0.022222,0.066667 0.066667,0.066667 0.044444,0 0.066667,-0.022222 0.066667,-0.066667 0,-0.055556 0.022222,-0.066667 0.1333334,-0.066667 0.111111,0 0.1333333,0.011111 0.1333333,0.066667 0,0.048548 0.022222,0.066667 0.081765,0.066667 0.1232083,0 0.239823,0.064374 0.281226,0.155244 0.020355,0.044674 0.037009,0.2148146 0.037009,0.3780893 0,0.329985 -0.034874,0.44148 -0.155244,0.4963243 -0.103166,0.047005 -1.0681723,0.045369 -1.1659533,-0.00198 z M 0.05238095,4.8809522 C 0.00631888,4.8348902 0,4.6481962 0,3.3333333 c 0,-1.6975574 -0.01647003,-1.6 0.27011823,-1.6 0.21971439,0 0.38024052,0.071635 0.46236059,0.2063275 0.0643982,0.1056256 0.067272,0.1651612 0.067272,1.3936725 0,1.2285113 -0.002874,1.2880469 -0.067272,1.3936726 -0.0369996,0.060686 -0.1189617,0.1319363 -0.1821381,0.1583333 -0.15560216,0.065015 -0.43098423,0.062589 -0.49795977,-0.00439 z M 5.9178832,4.8797879 C 5.8747202,4.8366249 5.8661795,4.7649089 5.8738355,4.5099196 l 0.0095,-0.316323 0.3833333,-0.096677 c 0.2108333,-0.053172 0.3870833,-0.096732 0.3916667,-0.096798 0.00458,-6.66e-5 0.00833,0.1863074 0.00833,0.4141644 0,0.5220699 0.00233,0.5190476 -0.4,0.5190476 -0.2266773,0 -0.3076723,-0.012434 -0.3487833,-0.053545 z M 2.5944349,4.6249999 C 2.5660327,4.6020832 2.464659,4.4520832 2.3691599,4.2916666 L 2.1955252,3.9999999 H 1.6310959 1.0666666 V 3.3333333 2.6666666 H 1.6310959 2.1955252 L 2.3691599,2.3749999 C 2.464659,2.2145833 2.5660327,2.0645833 2.5944349,2.0416666 2.630503,2.0125646 2.7938445,2 3.1361031,2 h 0.4900278 l 0.4619343,0.3281079 0.4619347,0.3281079 0.5,0.020918 c 0.676044,0.028283 1.5477129,0.2152952 1.5965373,0.3425288 0.026146,0.068136 0.026146,0.5592045 0,0.6273412 -0.048824,0.1272333 -0.9204933,0.3142457 -1.5965373,0.3425287 l -0.5,0.020918 -0.4619347,0.328108 -0.4619343,0.328108 H 3.1361031 c -0.3422586,0 -0.5056001,-0.012565 -0.5416682,-0.041667 z m 1.206656,-0.942231 C 3.8548702,3.6549586 3.9216252,3.5882036 3.9494356,3.5344242 4.0527292,3.3346762 3.9836466,3.0783006 3.8010909,2.9838975 3.7302486,2.9472635 3.5972482,2.9333333 3.3183219,2.9333333 H 2.9333333 v 0.4 0.3999999 h 0.3849886 c 0.2789263,0 0.4119267,-0.01393 0.482769,-0.050564 z m 2.4322423,-1.1170545 -0.35,-0.091279 -0.0095,-0.3170057 c -0.012386,-0.4134258 -0.0025,-0.4240961 0.392831,-0.4240961 0.402329,0 0.4,-0.00302 0.4,0.5190476 0,0.3117858 -0.010309,0.4130891 -0.041667,0.4094492 -0.022914,-0.00266 -0.199164,-0.045912 -0.391664,-0.096116 z M 1.4666666,2.4666666 c 0,-0.059259 -0.022222,-0.066667 -0.2,-0.066667 h -0.2 l -7.32e-4,-0.208333 C 1.0650597,1.9427031 0.98750628,1.7515098 0.83551908,1.623621 0.77650368,1.573963 0.71436918,1.533333 0.69744248,1.533333 c -0.0909637,0 0.0119754,-0.2450691 0.12446833,-0.2963243 C 0.87120671,1.2145483 1.1246617,1.2 1.4666666,1.2 c 0.6015299,0 0.7015273,0.020346 0.7629909,0.1552441 0.048038,0.1054312 0.048038,0.7840805 0,0.8895117 -0.04756,0.1043823 -0.161538,0.1552441 -0.3478926,0.1552441 -0.1262094,0 -0.1484316,0.00998 -0.1484316,0.066667 0,0.055556 -0.022222,0.066667 -0.1333333,0.066667 -0.1111111,0 -0.1333334,-0.011111 -0.1333334,-0.066667 z m 3.2,0 c 0,-0.048548 -0.022222,-0.066667 -0.081765,-0.066667 -0.1232084,0 -0.239823,-0.064374 -0.281226,-0.1552441 -0.020355,-0.044674 -0.037009,-0.2148145 -0.037009,-0.3780892 0,-0.3299849 0.034874,-0.4414801 0.155244,-0.4963242 0.107831,-0.049131 1.0483476,-0.049131 1.1561786,0 0.1203697,0.054844 0.155244,0.1663393 0.155244,0.4963242 0,0.1632747 -0.016654,0.3334148 -0.037009,0.3780892 -0.041403,0.09087 -0.1580177,0.1552441 -0.281226,0.1552441 -0.059543,0 -0.081765,0.018119 -0.081765,0.066667 0,0.055556 -0.022222,0.066667 -0.1333333,0.066667 -0.111111,0 -0.1333334,-0.011111 -0.1333334,-0.066667 0,-0.044444 -0.022222,-0.066667 -0.066667,-0.066667 -0.044444,0 -0.066667,0.022222 -0.066667,0.066667 0,0.055556 -0.022222,0.066667 -0.1333333,0.066667 -0.111111,0 -0.1333333,-0.011111 -0.1333326,-0.066667 z"
       style="fill:#eb7468;stroke-width:0.03333333" />
    <path
       id="path3766"
       d="M 0.83333331,5.4246499 C 0.78749998,5.4008525 0.72932602,5.3382645 0.70405782,5.2855655 0.65948795,5.1926109 0.66226405,5.1863029 0.79699631,5.0743865 0.99309614,4.9114952 1.0666666,4.7506085 1.0666666,4.4846612 V 4.2666666 h 0.2 c 0.1777778,0 0.2,-0.00741 0.2,-0.066667 0,-0.055556 0.022222,-0.066667 0.1333334,-0.066667 0.1081777,0 0.1333333,0.011799 0.1333333,0.062539 0,0.051821 0.03176,0.065173 0.1853141,0.077907 0.3054935,0.025334 0.3313525,0.071603 0.3313525,0.5928876 0,0.6045987 0.030114,0.5805767 -0.7425087,0.592292 -0.4342217,0.00658 -0.61291272,-0.00251 -0.67415789,-0.034308 z M 4.4339902,5.2917279 C 4.2953106,5.2195305 4.2635599,5.1144185 4.2739022,4.7617532 c 0.010889,-0.371285 0.053736,-0.4493943 0.2650547,-0.4831856 0.095309,-0.015241 0.1277097,-0.036254 0.1277097,-0.082828 0,-0.050585 0.025256,-0.062406 0.1333333,-0.062406 0.111111,0 0.1333333,0.011111 0.1333333,0.066667 0,0.044444 0.022222,0.066667 0.066667,0.066667 0.044444,0 0.066667,-0.022222 0.066667,-0.066667 0,-0.055556 0.022222,-0.066667 0.1333334,-0.066667 0.108077,0 0.1333333,0.011821 0.1333333,0.062406 0,0.046574 0.0324,0.067587 0.1277097,0.082828 0.220475,0.035255 0.2556236,0.107307 0.2556236,0.5240059 0,0.517707 0.00824,0.5113317 -0.675835,0.5231447 -0.3786529,0.00654 -0.5471166,-0.0029 -0.606842,-0.03399 z M 0.0564286,4.8849999 C 0.00508997,4.8336612 0,4.6936979 0,3.3333333 0,1.596577 -0.02389494,1.7142608 0.32308698,1.7421132 c 0.24626994,0.019768 0.36442057,0.086513 0.4296972,0.2427422 0.0691998,0.1656183 0.0691998,2.5313375 0,2.6969558 -0.0652766,0.156229 -0.18342726,0.222974 -0.4296972,0.242742 -0.16867723,0.01354 -0.22138306,0.00572 -0.26665838,-0.039553 z m 5.8626189,-0.00405 c -0.040181,-0.040181 -0.052381,-0.12528 -0.052381,-0.3653816 v -0.313001 l 0.1416667,-0.035363 c 0.2083043,-0.051998 0.5330323,-0.135905 0.6,-0.155035 0.053332,-0.015235 0.058333,0.019045 0.058333,0.399868 0,0.5246173 0.00255,0.521294 -0.4,0.521294 -0.2239537,0 -0.3078853,-0.012647 -0.3476187,-0.052381 z m -3.3363,-0.272619 C 2.5552842,4.5762499 2.4608299,4.4299999 2.3728491,4.2833332 L 2.2128841,4.0166666 1.6397754,4.0075462 1.0666666,3.9984256 V 3.3333333 2.6682409 l 0.5731088,-0.00912 0.5731087,-0.00912 0.159965,-0.2666666 C 2.6218928,1.9681699 2.559251,2 3.1272507,2 h 0.4945699 l 0.4683626,0.3333333 0.4683627,0.3333333 0.2623936,5.777e-4 c 0.1443164,3.166e-4 0.4048937,0.015507 0.5790604,0.033753 0.3883993,0.040691 1.1505016,0.2209328 1.2175206,0.2879518 0.069636,0.069636 0.069636,0.6191327 0,0.6887681 C 6.4955012,3.7997369 5.3747622,3.9999999 4.8139199,3.9999999 H 4.5585459 L 4.0901832,4.3333332 3.6218206,4.6666666 H 3.1272507 c -0.4297746,0 -0.5011119,-0.00764 -0.5445032,-0.058333 z m 1.3049831,-0.99404 c 0.095725,-0.101498 0.1122693,-0.1429013 0.1122693,-0.2809599 0,-0.1380586 -0.016545,-0.1794622 -0.1122693,-0.28096 L 3.7754616,2.933331 H 3.3543972 2.9333333 v 0.4 0.3999999 h 0.4210639 0.4210644 z m 2.4456026,-1.0315 C 6.1774998,2.540666 6.0087498,2.4976786 5.9583332,2.4872658 L 5.8666665,2.4683333 V 2.1532142 c 0,-0.4097883 0.00961,-0.4198809 0.4,-0.4198809 0.402329,0 0.4,-0.00302 0.4,0.5190476 0,0.2278571 -0.01125,0.4126481 -0.025,0.4106465 -0.01375,-0.002 -0.1525,-0.038107 -0.3083333,-0.080234 z M 1.4666666,2.4666666 c 0,-0.059259 -0.022222,-0.066667 -0.2,-0.066667 h -0.2 V 2.1820053 c 0,-0.2659472 -0.0735705,-0.426834 -0.26967029,-0.5897254 C 0.66226405,1.4803638 0.65948795,1.4740558 0.70405782,1.3811011 0.78417865,1.2140014 0.85890851,1.1978735 1.5074912,1.207708 2.2801141,1.2194232 2.2499999,1.1954014 2.2499999,1.8 c 0,0.5212843 -0.025859,0.5675537 -0.3313525,0.5928876 -0.1535542,0.012734 -0.1853141,0.026086 -0.1853141,0.077907 0,0.05074 -0.025156,0.062539 -0.1333333,0.062539 -0.1111111,0 -0.1333334,-0.011111 -0.1333334,-0.066667 z m 3.2,0.00426 c 0,-0.046574 -0.0324,-0.067587 -0.1277097,-0.082828 -0.220475,-0.035255 -0.2556237,-0.107307 -0.2556237,-0.5240059 0,-0.332522 0.00623,-0.3684703 0.075926,-0.4381671 C 4.4322969,1.352888 4.4566696,1.35 4.9999999,1.35 c 0.5433303,0 0.567703,0.00289 0.6407406,0.075926 0.069697,0.069697 0.075926,0.1056451 0.075926,0.4381671 0,0.4166989 -0.035149,0.4887505 -0.2556236,0.5240059 -0.095309,0.015241 -0.1277097,0.036254 -0.1277097,0.082828 0,0.050585 -0.025256,0.062406 -0.1333333,0.062406 -0.111111,0 -0.1333334,-0.011111 -0.1333334,-0.066667 0,-0.044444 -0.022222,-0.066667 -0.066667,-0.066667 -0.044444,0 -0.066667,0.022222 -0.066667,0.066667 0,0.055556 -0.022222,0.066667 -0.1333333,0.066667 -0.108077,0 -0.1333333,-0.011821 -0.1333326,-0.062406 z"
       style="fill:#e75445;stroke-width:0.03333333" />
    <path
       id="path3764"
       d="M 0.75826445,5.3749999 C 0.65968332,5.2645565 0.67994458,5.1905722 0.85639701,5.0166665 1.0002648,4.8748752 1.0315349,4.8208232 1.0659082,4.6545149 c 0.022222,-0.107517 0.033689,-0.2306083 0.025483,-0.2735367 -0.014176,-0.074156 -0.00477,-0.078541 0.1885107,-0.087848 0.1699406,-0.00818 0.202669,-0.0194 0.1988016,-0.06813 -0.00366,-0.046078 0.021825,-0.058333 0.1212963,-0.058333 0.099471,0 0.1249533,0.012255 0.1212963,0.058333 -0.00385,0.048552 0.028818,0.060049 0.1948411,0.068563 0.3085237,0.015822 0.3171959,0.031491 0.3171959,0.5731036 0,0.399756 -0.00756,0.463174 -0.060958,0.5115004 -0.052339,0.047366 -0.1529413,0.055166 -0.7115003,0.055166 -0.57750656,0 -0.65638805,-0.00655 -0.70261035,-0.058333 z M 4.3551662,5.2390419 c -0.044611,-0.049294 -0.055166,-0.134411 -0.055166,-0.4448337 0,-0.438412 0.021584,-0.4815873 0.25,-0.5000803 0.1028943,-0.00833 0.1322763,-0.024112 0.1287036,-0.069128 -0.00366,-0.046078 0.021825,-0.058333 0.1212964,-0.058333 0.099471,0 0.1249533,0.012255 0.1212963,0.058333 -0.00327,0.041235 0.019797,0.058333 0.078704,0.058333 0.058907,0 0.081976,-0.017099 0.078704,-0.058333 -0.00366,-0.046078 0.021825,-0.058333 0.1212964,-0.058333 0.099471,0 0.1249533,0.012255 0.1212963,0.058333 -0.00357,0.045016 0.025809,0.060798 0.1287037,0.069128 0.2289866,0.018539 0.25,0.061059 0.25,0.505872 0,0.5266923 0.037678,0.5 -0.7057917,0.5 -0.5233163,0 -0.5895976,-0.00632 -0.639042,-0.060958 z M 0.04859768,4.8583332 C 0.03981052,4.8354165 0.03653129,4.1341666 0.04131051,3.2999999 L 0.05,1.7833333 0.30340218,1.7736866 c 0.24056207,-0.00916 0.25871914,-0.00468 0.35833334,0.088374 l 0.10493113,0.09802 v 1.3732527 1.3732526 l -0.10352517,0.096707 c -0.0950005,0.088744 -0.12390703,0.096707 -0.35104616,0.096707 -0.16727367,0 -0.25270067,-0.013509 -0.26349764,-0.041667 z m 5.86867922,0.00117 c -0.00818,-0.023562 -0.019157,-0.182281 -0.024404,-0.3527093 -0.00944,-0.306601 -0.00866,-0.3100673 0.073794,-0.328564 0.1865817,-0.041855 0.597659,-0.1460983 0.6390463,-0.1620536 0.035961,-0.013864 0.041154,0.066041 0.02762,0.4250406 l -0.016667,0.4421137 -0.3422627,0.00951 c -0.255739,0.0071 -0.3460206,-0.00132 -0.3571269,-0.033333 z M 2.4166666,4.3447756 C 2.3249999,4.1867369 2.2301785,4.0370099 2.2059523,4.0120492 2.1723673,3.9774462 2.0338085,3.9666666 1.622619,3.9666666 H 1.0833333 V 3.3333333 2.6999999 H 1.622619 c 0.4111895,0 0.5497483,-0.01078 0.5833333,-0.045383 0.024226,-0.02496 0.1190476,-0.1746874 0.2107143,-0.3327263 l 0.1666667,-0.2873435 0.5411522,-6.07e-4 0.5411521,-6.07e-4 0.4644393,0.3333333 0.4644397,0.3333333 h 0.4402203 c 0.4621876,0 1.0751299,0.097333 1.4212496,0.2256892 l 0.16068,0.059587 0.00951,0.3419033 0.00951,0.3419034 -0.1246127,0.052066 C 6.1986575,3.8516876 5.6900242,3.9388322 5.1333332,3.9572006 l -0.55,0.018147 -0.4588476,0.3289927 -0.458848,0.3289926 -0.5411521,-6.07e-4 -0.5411522,-6.07e-4 z M 3.8093582,3.6912022 C 4.0783846,3.5148839 4.0784179,3.1518905 3.8094249,2.9754642 3.7363006,2.9275047 3.6457582,2.9166666 3.3182214,2.9166666 H 2.9166666 l -0.00948,0.3812952 c -0.00522,0.2097124 -0.00133,0.4025384 0.00863,0.4285021 0.028373,0.073939 0.7716825,0.044606 0.8935445,-0.035262 z M 6.2666665,2.5636798 c -0.1925,-0.051323 -0.3575,-0.094112 -0.3666666,-0.095088 -0.00917,-9.756e-4 -0.00917,-0.1555579 0,-0.3435163 l 0.016667,-0.3417426 h 0.35 0.35 l 0.016667,0.4417353 c 0.00917,0.2429544 0.00917,0.4395279 0,0.4368301 -0.00917,-0.0027 -0.1741667,-0.046896 -0.3666674,-0.098218 z M 1.4787037,2.4416666 c 0.0038,-0.047934 -0.031025,-0.061305 -0.1953704,-0.075 l -0.2,-0.016667 -0.00628,-0.1889748 C 1.0694433,1.9320374 0.9835733,1.7510148 0.81047508,1.5990326 0.67579552,1.4807824 0.66199338,1.3995245 0.75826708,1.2916663 c 0.0462521,-0.051818 0.12537969,-0.058333 0.70840212,-0.058333 0.5935128,0 0.6616144,0.00583 0.7115004,0.060958 0.045605,0.050393 0.055166,0.1390435 0.055166,0.5115004 0,0.5351011 -0.00918,0.5515155 -0.3171959,0.5673119 -0.1660234,0.00851 -0.1986945,0.020011 -0.1948411,0.068563 0.00366,0.046078 -0.021825,0.058333 -0.1212963,0.058333 -0.099471,0 -0.1249533,-0.012255 -0.1212963,-0.058333 z m 3.1999998,0 c 0.00357,-0.045016 -0.025809,-0.060798 -0.1287036,-0.069128 -0.2289867,-0.018539 -0.25,-0.061059 -0.25,-0.5058719 0,-0.5266922 -0.037678,-0.5 0.7057916,-0.5 0.7314217,0 0.6942084,-0.027113 0.6942084,0.5057918 0,0.4384118 -0.021584,0.4815873 -0.25,0.5000801 -0.1028944,0.00833 -0.1322764,0.024112 -0.1287037,0.069128 0.00366,0.046078 -0.021825,0.058333 -0.1212963,0.058333 -0.099471,0 -0.1249534,-0.012255 -0.1212964,-0.058333 0.00327,-0.041235 -0.019797,-0.058333 -0.078704,-0.058333 -0.058907,0 -0.081976,0.017099 -0.078704,0.058333 0.00366,0.046078 -0.021825,0.058333 -0.1212963,0.058333 -0.099471,0 -0.1249534,-0.012255 -0.1212957,-0.058333 z"
       style="fill:#e64b3b;stroke-width:0.03333333" />
  </g>
</svg>
