<?xml version="1.0" encoding="UTF-8" standalone="no"?>
<!-- Created with Inkscape (http://www.inkscape.org/) -->

<svg
   xmlns:dc="http://purl.org/dc/elements/1.1/"
   xmlns:cc="http://creativecommons.org/ns#"
   xmlns:rdf="http://www.w3.org/1999/02/22-rdf-syntax-ns#"
   xmlns:svg="http://www.w3.org/2000/svg"
   xmlns="http://www.w3.org/2000/svg"
   xmlns:sodipodi="http://sodipodi.sourceforge.net/DTD/sodipodi-0.dtd"
   xmlns:inkscape="http://www.inkscape.org/namespaces/inkscape"
   version="1.1"
   id="svg3934"
   width="64"
   height="64"
   viewBox="0 0 64 64"
   sodipodi:docname="robot_charge.svg"
   inkscape:version="0.92.4 (5da689c313, 2019-01-14)">
  <metadata
     id="metadata3940">
    <rdf:RDF>
      <cc:Work
         rdf:about="">
        <dc:format>image/svg+xml</dc:format>
        <dc:type
           rdf:resource="http://purl.org/dc/dcmitype/StillImage" />
        <dc:title></dc:title>
      </cc:Work>
    </rdf:RDF>
  </metadata>
  <defs
     id="defs3938" />
  <sodipodi:namedview
     pagecolor="#ffffff"
     bordercolor="#666666"
     borderopacity="1"
     objecttolerance="10"
     gridtolerance="10"
     guidetolerance="10"
     inkscape:pageopacity="0"
     inkscape:pageshadow="2"
     inkscape:window-width="1920"
     inkscape:window-height="1017"
     id="namedview3936"
     showgrid="false"
     inkscape:zoom="3.6875"
     inkscape:cx="32"
     inkscape:cy="32"
     inkscape:window-x="1912"
     inkscape:window-y="-8"
     inkscape:window-maximized="1"
     inkscape:current-layer="svg3934" />
  <g
     id="g3944">
    <path
       style="fill:#fefefe;stroke-width:0.31999999"
       d="M 0,32 V 0 H 32 64 V 32 64 H 32 0 Z"
       id="path3960"
       inkscape:connector-curvature="0" />
    <path
       style="fill:#f1f1f2;stroke-width:0.31999999"
       d="M 25.480548,63.494314 C 12.609924,60.62792 3.0644903,50.929949 0.45940646,38.073331 -0.34833702,34.08695 -0.05287984,27.056354 1.0815467,23.269093 2.8184697,17.470411 5.4385466,13.085377 9.6027539,9.0077616 13.988092,4.7136141 19.699547,1.7177431 25.885959,0.4666143 c 4.006113,-0.81018918 11.042467,-0.52421649 14.798383,0.6014385 3.817508,1.1441139 6.011994,2.1642682 9.156724,4.2566989 3.42816,2.2810179 6.553164,5.4060233 8.834182,8.8341813 2.070134,3.111221 3.086115,5.284067 4.281498,9.156725 0.794006,2.57232 0.85328,3.175569 0.85328,8.684342 0,5.508771 -0.05927,6.112022 -0.85328,8.684342 -1.758272,5.696231 -4.347325,10.080029 -8.26985,14.002554 -3.942445,3.942448 -8.379942,6.556432 -14.002554,8.248448 -2.371401,0.713629 -3.492131,0.847293 -7.884342,0.940342 -3.764125,0.07974 -5.702457,-0.02125 -7.319452,-0.381372 z"
       id="path3958"
       inkscape:connector-curvature="0" />
    <path
       style="fill:#bcc2c8;stroke-width:0.31999999"
       d="M 26.08,63.54928 C 19.388982,62.251715 13.39979,58.930778 8.6370403,53.877354 4.9829709,50.000272 2.336088,45.251194 0.90254355,40 0.26571956,37.667261 0.16,36.528259 0.16,32 0.16,27.47174 0.26571956,26.33274 0.90254355,24 3.4248563,14.760555 9.5561117,7.3307677 18.08,3.1845501 23.159363,0.71382963 25.708274,0.16 32,0.16 c 6.291725,0 8.840637,0.55382963 13.92,3.0245501 C 54.44583,7.3317126 60.588861,14.777421 63.093645,24 c 0.631894,2.32663 0.738729,3.4836 0.738729,8 0,6.297821 -0.555056,8.858835 -3.016924,13.92 -3.337709,6.861738 -8.514868,11.949072 -15.474167,15.205693 -4.205539,1.967993 -7.041219,2.594499 -12.381283,2.735481 -3.077913,0.08126 -5.394111,-0.02374 -6.88,-0.311894 z m 13.44,-3.354115 c 5.722429,-1.495053 11.60961,-5.302845 15.216829,-9.842151 2.9288,-3.685587 5.337891,-8.871913 5.918,-12.740355 L 60.872669,36.16 h -1.804256 c -1.674563,0 -1.828087,0.06325 -2.135821,0.88 C 54.795379,42.712259 49.923027,47.147446 43.970496,48.839085 42.452013,49.270618 40.175155,49.404502 32.4,49.519446 l -9.68,0.143108 V 46.111277 42.56 H 15.540832 C 8.5611875,42.56 6.8825776,42.36679 6.3314128,41.499981 6.1985258,41.290992 6.0875952,40.08161 6.0849002,38.812467 6.077048,35.114726 5.8642355,35.2 15.10034,35.2 H 22.72 V 32.16 29.12 H 15.504109 C 6.1117722,29.12 6.08,29.105948 6.08,24.951973 6.08,21.685709 5.8698051,21.76 15.111202,21.76 H 22.72 v -3.52 -3.52 h 9.388813 c 10.815174,0 12.442438,0.253357 16.92727,2.635494 3.17553,1.686694 5.223066,3.876275 7.036368,7.524506 l 1.312176,2.64 h 1.707687 C 60.68048,27.52 60.8,27.466368 60.8,26.753707 60.8,25.703528 59.638698,22.019171 58.546384,19.603857 56.624272,15.353708 52.47152,10.426238 48.521056,7.7082483 46.279853,6.1662586 42.056614,4.2469482 39.2,3.4721626 35.533622,2.4777483 28.466378,2.4777483 24.8,3.4721626 20.010403,4.7712221 15.501932,7.2698797 12.04148,10.543113 6.7723376,15.527181 3.5669302,22.005626 2.9273013,28.963768 2.4210708,34.470749 3.2263616,39.329696 5.4256131,44.038026 9.576471,52.924512 17.109676,58.807824 26.72,60.668598 c 3.183232,0.616346 9.526858,0.381716 12.8,-0.473433 z m 5.492624,-18.921607 c 2.286579,-1.120566 3.70472,-2.603849 4.875021,-5.098956 1.099277,-2.343687 1.155462,-6.109751 0.125177,-8.390816 C 49.061936,25.678505 46.96233,23.526203 44.845283,22.48655 43.300045,21.727705 42.648192,21.60045 40.32,21.603126 c -3.221974,0.0037 -4.918438,0.647969 -7.169194,2.722644 -4.066676,3.74853 -4.373834,10.282643 -0.688227,14.640505 2.910922,3.441875 8.236832,4.421027 12.550045,2.307283 z M 35.52,39.91424 c 0,-0.121757 0.582013,-1.682259 1.293363,-3.467779 0.711347,-1.785523 1.251347,-3.285683 1.2,-3.333693 -0.05135,-0.04801 -0.951593,0.179747 -2.000541,0.506125 -1.048947,0.326381 -1.940614,0.559984 -1.981481,0.519117 -0.04087,-0.04087 2.033619,-2.334382 4.609971,-5.096699 2.576349,-2.762316 4.736214,-4.970451 4.799699,-4.906965 0.06349,0.06349 -0.39943,1.448568 -1.028704,3.077962 -0.629273,1.629394 -1.083673,3.022992 -1.009782,3.096883 0.07389,0.07389 0.894688,-0.09145 1.823993,-0.367421 0.929303,-0.275974 1.825847,-0.50177 1.992317,-0.50177 0.333626,0 -0.702819,1.170003 -6.083843,6.867808 C 37.146746,38.413104 35.52,40.035997 35.52,39.91424 Z M 11.254803,40.430403 C 12.09553,39.669555 12.025396,37.926147 11.128798,37.298144 9.630409,36.248634 7.68,37.174218 7.68,38.934803 c 0,1.782093 2.2281616,2.714295 3.574803,1.4956 z M 11.128798,26.701855 c 0.862924,-0.604416 0.9582,-2.218531 0.181606,-3.076658 C 10.65052,22.896034 9.041929,22.866663 8.2651971,23.569596 7.0183699,24.697959 7.9995027,27.2 9.6887981,27.2 c 0.4008389,0 1.0488389,-0.224165 1.4399999,-0.498145 z"
       id="path3956"
       inkscape:connector-curvature="0" />
    <path
       style="fill:#97a1ab;stroke-width:0.31999999"
       d="M 26.20619,63.523149 C 6.0822883,59.704557 -5.3478595,38.405018 2.5482536,19.437701 5.5118448,12.318836 12.318836,5.5118448 19.437701,2.5482536 24.131129,0.59437482 26.195042,0.21025516 32,0.21025516 c 5.804957,0 7.86887,0.38411966 12.562298,2.33799844 7.118867,2.9635912 13.925856,9.7705824 16.889449,16.8894474 1.953879,4.693428 2.337997,6.757341 2.337997,12.562299 0,4.384118 -0.114643,5.696746 -0.675677,7.736138 -1.635309,5.94447 -4.33328,10.632764 -8.539222,14.838707 -4.228554,4.228553 -9.016285,6.974931 -14.838707,8.511901 -3.261239,0.860886 -10.126047,1.082307 -13.529948,0.436403 z M 38.448717,60.49385 C 46.66009,58.677917 53.683936,53.415334 57.716531,46.057542 58.901923,43.894701 60.605203,39.075658 60.903763,37.04 l 0.176,-1.2 h -1.909926 c -1.534429,0 -1.946675,0.110096 -2.096858,0.56 -1.314112,3.936662 -3.903907,7.358794 -7.275609,9.613926 -4.439719,2.969466 -4.90658,3.058362 -16.75737,3.190842 l -10.32,0.11537 V 45.780067 42.24 H 14.985197 C 5.7228307,42.24 6.08,42.375821 6.08,38.853629 6.08,36.720685 6.1503722,36.471098 6.9231549,35.863226 7.7215104,35.235238 8.1635744,35.2 15.243155,35.2 H 22.72 V 32 28.8 H 15.140624 C 7.7991197,28.8 7.5380051,28.778163 6.8206243,28.10422 6.1781968,27.50069 6.08,27.100033 6.08,25.082365 6.08,21.664717 5.8209933,21.76 15.111202,21.76 H 22.72 v -3.52 -3.52 h 8.973491 c 10.41721,0 12.447466,0.281758 16.557357,2.297823 1.457965,0.715191 3.293072,1.92452 4.078016,2.687398 1.716864,1.668599 3.860566,4.904722 4.365552,6.590213 L 57.061306,27.52 h 2.035443 2.035443 L 60.941728,26.64 C 59.535507,20.14288 56.708867,15.088204 51.929066,10.523298 42.19952,1.2311868 27.279303,-0.08862506 15.961122,7.3416474 4.2546099,15.026855 -0.44436432,30.045777 4.8145552,42.968448 8.4771498,51.968493 16.582756,58.651302 26.24,60.633034 c 3.173919,0.651308 8.931021,0.585676 12.208717,-0.139184 z m 6.453251,-19.04026 c 2.045168,-0.96752 4.151488,-3.121993 5.120317,-5.237376 C 51.069174,33.93039 51.00471,29.87932 49.883904,27.52 48.876992,25.400429 47.122736,23.594002 44.96,22.449662 c -1.405661,-0.743759 -1.969245,-0.846586 -4.64,-0.846586 -2.677533,0 -3.230771,0.101528 -4.64,0.851522 -2.073267,1.103397 -4.100733,3.213162 -5.021564,5.225402 -1.017534,2.223559 -1.03884,6.373456 -0.04382,8.536214 1.327499,2.885447 4.174663,5.25952 7.267847,6.060202 1.785881,0.462282 5.132163,0.07003 7.01951,-0.822826 z M 35.83904,39.428016 c -6.4e-4,-0.125408 0.51823,-1.569258 1.152797,-3.20855 0.634566,-1.639296 1.096281,-3.038016 1.026029,-3.108266 -0.07025,-0.07025 -0.834788,0.08506 -1.69897,0.345146 -0.864182,0.26008 -1.67841,0.4348 -1.809392,0.388262 C 34.378522,33.798074 36.346448,31.6 38.882669,28.96 l 4.611312,-4.8 -1.231072,3.2 c -0.677088,1.76 -1.205053,3.230181 -1.173255,3.267068 0.03181,0.03689 0.972983,-0.217763 2.091524,-0.565892 1.118537,-0.348128 2.07079,-0.594308 2.116118,-0.547068 0.04533,0.04724 -2.064022,2.348498 -4.68744,5.113908 -2.623421,2.765408 -4.770288,4.925408 -4.770816,4.8 z M 10.669656,40.924714 C 12.781546,39.96247 12.126731,36.8 9.815601,36.8 c -2.1121312,0 -2.960321,2.504822 -1.2924461,3.816774 0.975312,0.767181 1.099479,0.784996 2.1465011,0.30794 z M 11.261764,26.64 c 1.183306,-1.377779 0.85069,-2.956952 -0.763655,-3.625636 -0.8126031,-0.336591 -1.0544776,-0.302968 -1.7984892,0.25001 -1.0646844,0.791316 -1.3180752,2.435442 -0.5125308,3.325559 0.69956,0.773005 2.429585,0.801176 3.074675,0.05007 z"
       id="path3954"
       inkscape:connector-curvature="0" />
    <path
       style="fill:#788593;stroke-width:0.31999999"
       d="M 28.16,63.775629 C 23.873012,63.308858 17.755528,60.952595 13.720766,58.21409 11.109314,56.441622 7.5583773,52.890685 5.7859114,50.279235 3.7702781,47.309514 1.7200534,42.77847 0.9088336,39.500781 -0.03905132,35.670906 -0.11164691,28.883546 0.75502102,25.12 3.5535552,12.967234 12.962094,3.5589798 25.12,0.75575869 28.882446,-0.11173996 35.669091,-0.03950012 39.500781,0.9088336 44.988186,2.2669522 50.569213,5.4202493 54.574483,9.4255184 64.271197,19.122233 66.693456,34.020563 60.56,46.24 54.505008,58.303114 41.674781,65.24713 28.16,63.775629 Z m 9.12,-3.003085 c 5.738704,-0.974288 10.642941,-3.470582 14.99568,-7.632912 2.763456,-2.642573 4.66649,-5.290131 6.284928,-8.743786 1.017462,-2.171209 2.546192,-7.142627 2.557149,-8.315846 0.0013,-0.132 -0.866275,-0.24 -1.927799,-0.24 -1.550873,0 -1.968172,0.110016 -2.124118,0.56 -1.658698,4.786218 -5.149187,8.768675 -9.578163,10.928157 C 43.884176,49.085155 42.421133,49.270045 32.08,49.27527 L 22.72,49.28 V 45.76 42.24 H 15.111202 C 5.8734221,42.24 6.08,42.3128 6.08,39.057306 c 0,-1.675101 0.1429402,-2.363072 0.611232,-2.941856 0.6075203,-0.750861 0.6580422,-0.756032 8.32,-0.851616 L 22.72,35.16767 V 31.983835 28.8 H 15.063226 7.4064512 L 6.7304067,27.940548 C 6.1615718,27.217392 6.0690816,26.723919 6.1471808,24.828806 6.2757645,21.708675 6.0913594,21.770543 15.28,21.764717 L 22.72,21.76 v -3.550917 -3.550918 l 9.84,0.142261 c 10.779696,0.155847 11.71833,0.289273 15.748954,2.238707 3.051488,1.47587 6.237593,4.785777 7.691046,7.989892 l 1.12,2.469025 2,0.01098 c 1.1,0.006 1.997533,-0.09702 1.994515,-0.229025 -0.0029,-0.132 -0.268822,-1.248 -0.590678,-2.48 C 57.836755,14.514436 50.252326,6.6627728 40.094909,3.6512634 36.627978,2.6233747 30.984102,2.2747238 27.336652,2.8631209 12.574827,5.2444589 1.8210589,18.573526 2.6675091,33.44 2.9712349,38.774435 4.8313754,44.339667 7.7082483,48.521056 10.461397,52.522621 15.579127,56.778454 19.976545,58.7232 25.198538,61.032614 31.412955,61.768621 37.28,60.772544 Z M 44.536214,41.680416 C 46.531146,40.79591 48.822941,38.634512 49.867101,36.652848 50.613568,35.236157 50.71711,34.670272 50.718461,32 50.720381,28.44424 50.042042,26.665199 47.848422,24.471579 45.655821,22.278979 43.875741,21.6 40.32,21.6 c -3.552611,0 -5.336755,0.679376 -7.51929,2.863233 -3.864985,3.867331 -4.048023,10.509625 -0.398704,14.468671 2.436871,2.64369 4.916324,3.682285 8.397994,3.517754 1.364944,-0.0645 2.824496,-0.365008 3.736214,-0.769242 z M 36.593917,37.44 c 0.420099,-1.144 0.990976,-2.62 1.268621,-3.28 0.588016,-1.397805 0.41998,-1.468867 -1.702538,-0.72 -0.748256,0.264 -1.499786,0.48 -1.67007,0.48 -0.170282,0 1.670182,-2.08964 4.089923,-4.643644 2.419737,-2.554005 4.456659,-4.586509 4.526493,-4.516677 0.06983,0.06983 -0.383383,1.392617 -1.007146,2.939521 -0.623763,1.546904 -1.084605,2.86206 -1.024099,2.922569 0.06051,0.06051 0.995366,-0.165536 2.077459,-0.502322 1.082093,-0.336785 1.96159,-0.519436 1.954445,-0.405891 C 45.099869,29.8271 43.009629,32.08 40.462054,34.72 l -4.631952,4.8 z M 11.374546,40.494544 C 12.243454,39.625638 12.343039,39.02567 11.792095,37.978963 11.296134,37.036714 10.899066,36.810685 9.7295962,36.804899 7.748239,36.795098 6.8685299,39.188531 8.32,40.64 c 0.8648749,0.864874 2.103183,0.805907 3.054546,-0.145456 z m 0.255665,-14.3339 c 0.522822,-0.703204 0.592446,-1.053784 0.347564,-1.750101 -0.701602,-1.994995 -3.3358172,-2.209733 -4.1235996,-0.33615 -0.4572925,1.087578 -0.3623444,1.673726 0.4181084,2.58113 0.7489533,0.87078 2.5386832,0.607016 3.3579272,-0.494879 z"
       id="path3952"
       inkscape:connector-curvature="0" />
    <path
       style="fill:#677686;stroke-width:0.31999999"
       d="M 28.96,63.811718 C 23.999648,63.111146 21.074312,62.228598 17.277142,60.287094 8.7766074,55.940752 2.6525843,47.727792 0.59903725,37.92 0.3779329,36.864 0.19702932,34.2 0.19702932,32 c 0,-2.2 0.18090358,-4.864 0.40200793,-5.92 C 3.3458365,12.961217 12.961217,3.3458365 26.08,0.59903725 c 2.473848,-0.51797217 9.36615,-0.51797217 11.84,0 C 51.040045,3.3461005 60.619917,12.924271 63.405494,26.08 c 0.225188,1.063528 0.393732,3.847062 0.377828,6.24 -0.02358,3.550093 -0.176653,4.890301 -0.858829,7.52 C 59.368634,53.547398 47.401437,63.241786 33.335491,63.809459 31.456972,63.885274 29.488,63.886288 28.96,63.811699 Z M 39.020781,60.45264 C 42.034554,59.750176 46.687034,57.643264 49.12,55.879126 54.688698,51.841283 58.794941,45.788515 60.507082,39.094109 61.376496,35.694736 61.441987,35.84 59.04,35.84 c -1.558221,0 -2.08,0.111114 -2.08,0.442944 0,0.243622 -0.576397,1.594554 -1.280883,3.002074 -2.089936,4.175564 -5.695162,7.206297 -10.871923,9.139484 C 43.189178,49.028726 42.182349,49.094701 32.88,49.206035 L 22.72,49.327632 V 45.783818 42.24 H 15.04 C 7.7866666,42.24 7.3244445,42.204445 6.72,41.6 5.8218234,40.701824 5.8037126,37.212208 6.691536,36.11545 L 7.3030723,35.36 h 7.7083157 7.708317 L 22.719852,32.08 22.72,28.8 H 15.185454 7.6509091 L 6.8654544,28.014546 c -0.6690243,-0.669025 -0.784728,-1.084077 -0.7805542,-2.8 0.00269,-1.108 0.1136256,-2.185537 0.2465126,-2.394526 C 6.8825776,21.953211 8.5611875,21.76 15.540832,21.76 H 22.72 v -3.556575 -3.556574 l 9.84,0.162037 c 11.093757,0.182683 11.928922,0.315559 16.198106,2.577151 3.227865,1.709955 5.544204,4.162676 7.164396,7.586217 l 1.197498,2.530372 2,0.0087 c 1.1,0.0048 2,-0.112279 2,-0.260125 0,-0.961431 -1.425514,-5.528079 -2.35073,-7.530587 C 55.814525,13.325439 51.108547,8.5560506 44.684147,5.4456886 39.765363,3.0642673 38.207862,2.7309176 32,2.7309176 c -6.16638,0 -7.702991,0.3255565 -12.64,2.6779934 -16.3280756,7.78017 -21.8247821,28.229867 -11.6080912,43.186219 2.4290202,3.555875 6.4716832,7.121142 10.5444062,9.299222 6.187217,3.308906 13.585773,4.222205 20.724466,2.558288 z M 44.96,41.527971 c 2.006934,-1.030163 4.084179,-3.111011 5.011741,-5.020438 0.970608,-1.998035 1.175065,-5.779109 0.433267,-8.012458 C 47.97232,21.170939 38.350154,18.913006 32.8804,24.382758 30.595176,26.667982 29.91926,28.40955 29.924088,32 c 0.0047,3.507875 0.555316,4.929709 2.829378,7.306406 2.347667,2.453626 4.451948,3.274583 8.046534,3.139236 1.989965,-0.07493 2.916272,-0.279264 4.16,-0.917671 z M 36.484669,37.76 c 0.349433,-0.88 0.921229,-2.32 1.270662,-3.2 0.717063,-1.805837 0.663994,-1.84169 -1.675331,-1.131843 -0.836,0.253677 -1.52,0.384173 -1.52,0.28999 0,-0.247529 8.413098,-9.091715 8.533773,-8.971042 0.05562,0.05563 -0.40921,1.366791 -1.032973,2.913695 -0.623763,1.546904 -1.063946,2.88272 -0.978186,2.96848 0.08576,0.08576 0.894583,-0.08942 1.797386,-0.38928 0.902803,-0.299863 1.721501,-0.465167 1.819325,-0.367342 0.147869,0.14787 -8.473197,9.487342 -8.757562,9.487342 -0.05083,0 0.193475,-0.72 0.542906,-1.6 z m -25.110123,2.734544 c 1.296918,-1.296918 0.93379,-2.970358 -0.800428,-3.688698 -0.8201871,-0.339731 -1.0926866,-0.321763 -1.7609708,0.116112 -1.599817,1.04824 -1.7840608,2.905834 -0.3853808,3.885508 0.9878899,0.691945 2.0552586,0.578601 2.9467796,-0.312922 z M 10.891255,27.03418 c 1.680501,-0.869021 1.574869,-3.256818 -0.179435,-4.056132 -1.126061,-0.513068 -2.4361848,-0.0013 -2.9981077,1.171093 -0.384872,0.803008 -0.3836176,1.048557 0.00893,1.747927 0.2511872,0.447522 0.8123514,0.993635 1.2470314,1.213586 0.9760262,0.493876 0.8055248,0.500662 1.9215823,-0.07647 z"
       id="path3950"
       inkscape:connector-curvature="0" />
    <path
       style="fill:#4d5f72;stroke-width:0.31999999"
       d="M 28,63.634512 C 17.404115,62.288595 8.0300723,55.551818 3.3507453,45.92 -2.6179058,33.634269 -0.17894876,19.151852 9.4864515,9.4864515 19.151852,-0.17894876 33.634269,-2.6179058 45.92,3.3507453 52.291427,6.446111 57.574534,11.727962 60.652755,18.08 c 4.302131,8.877621 4.300861,18.980006 -0.0035,27.84 -4.776166,9.831149 -14.069897,16.397389 -25.120861,17.74848 -3.074515,0.375888 -4.346933,0.370147 -7.528393,-0.03397 z m 8.48,-2.661123 C 48.286365,59.175872 57.438957,50.885779 60.518691,39.2 61.421744,35.773446 61.449546,35.84 59.11511,35.84 h -2.004889 l -0.54521,1.535069 c -1.389001,3.910822 -5.002093,7.861606 -8.979517,9.818771 -3.7172,1.829117 -5.582182,2.074307 -15.825494,2.080605 L 22.72,49.28 v -3.52 -3.52 h -7.68 c -9.1598909,0 -8.96,0.07496 -8.96,-3.36 0,-3.43496 -0.1998909,-3.36 8.96,-3.36 h 7.68 V 32.16 28.8 H 15.185454 7.6509091 L 6.8654544,28.014546 c -0.6690243,-0.669025 -0.784728,-1.084077 -0.7805542,-2.8 C 6.0875882,24.106546 6.2261392,22.984 6.3927754,22.72 6.644136,22.321773 8.0470669,22.212742 14.627876,22.08 L 22.56,21.92 l 0.09083,-3.44 0.09083,-3.44 h 9.681942 c 10.96606,0 11.813801,0.120174 16.154198,2.289997 3.340038,1.669729 5.647152,4.098252 7.476557,7.870003 l 1.28047,2.64 h 1.892592 c 2.266218,0 2.254976,0.04211 1.075383,-4.028412 C 55.459318,7.0977718 37.442029,-1.8143052 21.202395,4.4709581 14.701821,6.9868899 8.8544899,12.36607 5.6396227,18.787738 1.8708204,26.315886 1.5711147,35.814077 4.8621795,43.426262 c 1.4200061,3.284452 3.119801,5.807591 5.8564245,8.693149 2.747312,2.896826 5.352588,4.786819 8.85147,6.421283 5.548674,2.592 10.85222,3.35498 16.909926,2.432695 z m 8.48,-19.394256 c 6.680214,-3.189232 8.081021,-12.537704 2.618218,-17.473017 -2.087604,-1.886026 -4.458832,-2.802304 -7.273498,-2.810587 -2.090035,-0.0061 -2.701827,0.133958 -4.543155,1.040441 -4.115234,2.025922 -6.147404,5.492898 -5.945931,10.14403 0.204852,4.729155 2.956952,8.266314 7.624366,9.79928 1.564995,0.514006 5.803379,0.119395 7.52,-0.700147 z M 37.129619,36.21417 C 37.82833,34.412413 38.4,32.884342 38.4,32.818458 c 0,-0.06588 -0.86409,0.141836 -1.920198,0.461603 l -1.920196,0.581389 0.56824,-0.722404 c 0.312535,-0.397321 2.26074,-2.508148 4.329344,-4.690725 L 43.218291,24.48 42.436829,26.56 c -0.429802,1.144 -0.941946,2.495971 -1.138096,3.00438 -0.196151,0.508409 -0.294813,0.986206 -0.219248,1.06177 0.07557,0.07557 0.89608,-0.08792 1.823373,-0.363293 0.927289,-0.275376 1.739654,-0.447013 1.805251,-0.381416 0.102758,0.102758 -4.450099,5.082287 -7.774973,8.503605 l -1.073894,1.105047 z M 11.374546,40.494544 C 12.634943,39.234147 12.272086,37.390102 10.641704,36.77023 9.1150768,36.189808 7.36,37.505098 7.36,39.229603 7.36,40.000054 8.8581814,41.28 9.76,41.28 c 0.456,0 1.182546,-0.353456 1.614546,-0.785456 z M 11.6,26.510904 c 0.308,-0.363993 0.56,-1.012398 0.56,-1.4409 0,-1.024131 -1.354081,-2.350004 -2.4,-2.350004 -0.9018186,0 -2.4,1.279945 -2.4,2.050397 0,2.332861 2.774905,3.471951 4.24,1.740507 z"
       id="path3948"
       inkscape:connector-curvature="0" />
    <path
       style="fill:#33485d;stroke-width:0.31999999"
       d="M 28.96,63.665504 C 21.602073,63.042083 15.116024,59.947069 9.5787776,54.417165 3.256305,48.103072 0.26838455,40.908886 0.26838455,32 0.26838455,23.086792 3.2681814,15.856246 9.5690755,9.5821235 15.934362,3.2438819 23.100459,0.26838455 32,0.26838455 c 8.906608,0 16.096374,2.98554405 22.421222,9.31039305 C 60.750925,15.908479 63.720342,23.06808 63.720342,32 c 0,8.93192 -2.969417,16.09152 -9.29912,22.421222 C 47.487574,61.35487 38.822038,64.501094 28.96,63.665504 Z m 10.157491,-3.152611 c 4.853677,-1.264461 8.206192,-2.959171 11.956592,-6.044099 4.244595,-3.49144 8.001024,-9.454628 9.398637,-14.919981 C 61.445155,35.746106 61.480778,35.84 59.065718,35.84 h -2.054284 l -0.532788,1.604074 C 55.223037,41.224362 51.58071,45.190598 47.552653,47.163856 43.843958,48.980662 41.577971,49.28 31.533491,49.28 H 22.72 V 45.76 42.24 H 15.243155 C 8.1635744,42.24 7.7215104,42.204762 6.9231549,41.576774 6.1856512,40.996653 6.08,40.68128 6.08,39.05993 c 0,-1.390714 0.1656275,-2.064183 0.6632256,-2.696775 L 7.4064512,35.52 H 15.063226 22.72 V 32.16 28.8 H 15.386172 C 11.352567,28.8 7.8192406,28.71055 7.5343366,28.601222 6.6980426,28.280306 6.08,26.716377 6.08,24.921088 6.08,22.026258 5.9126022,22.08 14.929596,22.08 H 22.72 v -3.540068 -3.540068 l 10.32,0.103875 c 11.658842,0.117351 12.19455,0.210093 16.653443,2.883034 2.999104,1.797854 5.766365,5.232335 6.972154,8.653227 l 0.422973,1.2 h 2.015715 c 2.376675,0 2.401277,-0.065 1.395209,-3.686432 C 57.815869,14.493614 50.258854,6.6872646 40.708806,3.7099098 24.732645,-1.2708717 7.9016688,8.1505392 3.3180323,24.64 2.8658707,26.266635 2.7415249,27.87085 2.7475447,32 c 0.00702,4.818486 0.083331,5.526045 0.8729951,8.094909 C 7.074047,51.329542 16.229111,59.325018 27.68,61.106976 c 2.877648,0.447811 8.573856,0.151939 11.437491,-0.594083 z m 5.157575,-18.603565 c 2.429564,-0.909014 4.451628,-2.79688 5.689996,-5.312362 0.882199,-1.792 1.029981,-2.438563 1.03842,-4.543155 0.0082,-2.031618 -0.147821,-2.800207 -0.90648,-4.467086 -3.017293,-6.629407 -11.488074,-8.477118 -16.832848,-3.671708 -5.99116,5.386569 -4.307423,15.11281 3.118518,18.014362 2.134723,0.834106 5.63321,0.825219 7.892394,-0.02006 z M 36.16,38.890333 c 0,-0.09125 0.521654,-1.469258 1.159229,-3.062231 0.637574,-1.592969 1.092038,-2.9635 1.009917,-3.045622 -0.08212,-0.08212 -0.765879,0.06822 -1.519463,0.334102 -2.537174,0.895168 -2.536435,0.893997 3.388493,-5.367357 l 2.962557,-3.130775 -1.135111,2.909364 c -0.62431,1.60015 -1.048406,2.99607 -0.942428,3.102045 0.169139,0.169139 1.782089,-0.211168 3.350115,-0.789902 0.28968,-0.106917 -0.112016,0.515354 -0.892656,1.382824 C 41.124774,33.907376 36.16,39.065139 36.16,38.890333 Z M 11.419376,40.584221 C 11.860014,40.170262 12.16,39.516298 12.16,38.969674 12.16,37.812534 10.87546,36.48 9.76,36.48 c -0.456,0 -1.1825456,0.353456 -1.6145456,0.785456 -2.2033152,2.203315 1.0023018,5.452838 3.2739216,3.318765 z M 11.374546,26.734546 C 12.908894,25.200196 11.891311,22.72 9.7274451,22.72 8.5225062,22.72 7.36,23.926825 7.36,25.1777 c 0,1.017549 1.3573853,2.3423 2.4,2.3423 0.456,0 1.182546,-0.353454 1.614546,-0.785454 z"
       id="path3946"
       inkscape:connector-curvature="0" />
  </g>
</svg>
