<?xml version="1.0" encoding="UTF-8" standalone="no"?>
<svg
   xmlns:dc="http://purl.org/dc/elements/1.1/"
   xmlns:cc="http://creativecommons.org/ns#"
   xmlns:rdf="http://www.w3.org/1999/02/22-rdf-syntax-ns#"
   xmlns:svg="http://www.w3.org/2000/svg"
   xmlns="http://www.w3.org/2000/svg"
   viewBox="0 0 64 64"
   height="64"
   width="64"
   id="svg3808"
   version="1.1">
  <metadata
     id="metadata3814">
    <rdf:RDF>
      <cc:Work
         rdf:about="">
        <dc:format>image/svg+xml</dc:format>
        <dc:type
           rdf:resource="http://purl.org/dc/dcmitype/StillImage" />
        <dc:title></dc:title>
      </cc:Work>
    </rdf:RDF>
  </metadata>
  <defs
     id="defs3812" />
  <g
     id="g3836">
    <path
       id="path3852"
       d="M 0,32 V 0 H 32 64 V 32 64 H 32 0 Z"
       style="fill:#fefefe;stroke-width:0.31999999" />
    <path
       id="path3850"
       d="M 25.496618,63.497562 C 12.621389,60.628189 3.0616137,50.91575 0.45613888,38.057203 -0.34338173,34.111408 -0.05012658,27.046632 1.0680528,23.315658 2.2121667,19.49815 3.232321,17.303663 5.3247517,14.158933 7.6057696,10.730775 10.730775,7.6057696 14.158933,5.3247517 17.270154,3.254617 19.443,2.238638 23.315658,1.0432532 25.887978,0.24924774 26.491227,0.18997561 32,0.18997561 c 5.508771,0 6.112022,0.0592721 8.684342,0.85327759 5.696231,1.7582731 10.080029,4.3473257 14.002554,8.2698502 3.922525,3.9225246 6.511578,8.3063226 8.26985,14.0025546 0.794006,2.57232 0.85328,3.175569 0.85328,8.684342 0,5.508771 -0.05927,6.112022 -0.85328,8.684342 -1.758272,5.696231 -4.347325,10.080029 -8.26985,14.002554 -3.942445,3.942448 -8.379942,6.556432 -14.002554,8.248448 -2.371401,0.713629 -3.492131,0.847293 -7.884342,0.940342 -3.751236,0.07947 -5.703698,-0.02163 -7.303382,-0.378124 z"
       style="fill:#f2f1f2;stroke-width:0.31999999" />
    <path
       id="path3848"
       d="M 26.08,63.54928 C 19.388982,62.251715 13.39979,58.930778 8.6370403,53.877354 4.9829709,50.000272 2.336088,45.251194 0.90254355,40 0.26571956,37.667261 0.16,36.528259 0.16,32 0.16,27.47174 0.26571956,26.33274 0.90254355,24 3.4248563,14.760555 9.5561117,7.3307677 18.08,3.1845501 23.159363,0.71382963 25.708274,0.16 32,0.16 c 6.291725,0 8.840637,0.55382963 13.92,3.0245501 C 54.44583,7.3317126 60.588861,14.777421 63.093645,24 c 0.631894,2.32663 0.738729,3.4836 0.738729,8 0,6.297821 -0.555056,8.858835 -3.016924,13.92 -3.337709,6.861738 -8.514868,11.949072 -15.474167,15.205693 -4.205539,1.967993 -7.041219,2.594499 -12.381283,2.735481 -3.077913,0.08126 -5.394111,-0.02374 -6.88,-0.311894 z m 13.44,-3.354115 c 5.722429,-1.495053 11.60961,-5.302845 15.216829,-9.842151 2.9288,-3.685587 5.337891,-8.871913 5.918,-12.740355 L 60.872669,36.16 h -1.804256 c -1.674563,0 -1.828087,0.06325 -2.135821,0.88 C 54.795379,42.712259 49.923027,47.147446 43.970496,48.839085 42.452013,49.270618 40.175155,49.404502 32.4,49.519446 l -9.68,0.143108 V 46.111277 42.56 H 15.540832 C 8.5611875,42.56 6.8825776,42.36679 6.3314128,41.499981 6.1985258,41.290992 6.0875952,40.08161 6.0849002,38.812467 6.077048,35.114726 5.8642355,35.2 15.10034,35.2 H 22.72 V 32.16 29.12 H 15.504109 C 6.1117722,29.12 6.08,29.105948 6.08,24.951973 6.08,21.685709 5.8698051,21.76 15.111202,21.76 H 22.72 v -3.52 -3.52 h 9.388813 c 10.815174,0 12.442438,0.253357 16.92727,2.635494 3.17553,1.686694 5.223066,3.876275 7.036368,7.524506 l 1.312176,2.64 h 1.707687 C 60.690912,27.52 60.8,27.46995 60.8,26.736519 60.8,25.390457 59.199549,20.744897 57.89225,18.296315 54.819363,12.540772 50.339546,8.2678134 44.403011,5.4299478 40.04209,3.34528 37.388314,2.7778258 32,2.7778258 c -5.388314,0 -8.042091,0.5674542 -12.403011,2.652122 C 16.322351,6.995336 14.459125,8.2562675 12.04148,10.543113 1.5171644,20.498036 -0.28184519,36.459066 7.7835475,48.32 12.175477,54.778755 18.91647,59.176067 26.72,60.672704 c 3.188845,0.61159 9.53792,0.37472 12.8,-0.477539 z m 5.492624,-18.921607 c 2.286579,-1.120566 3.70472,-2.603849 4.875021,-5.098956 1.099277,-2.343687 1.155462,-6.109751 0.125177,-8.390816 C 49.061936,25.678505 46.96233,23.526203 44.845283,22.48655 43.300045,21.727705 42.648192,21.60045 40.32,21.603126 c -3.221974,0.0037 -4.918438,0.647969 -7.169194,2.722644 -4.066676,3.74853 -4.373834,10.282643 -0.688227,14.640505 2.910922,3.441875 8.236832,4.421027 12.550045,2.307283 z M 35.52,39.91424 c 0,-0.121757 0.582013,-1.682259 1.293363,-3.467779 0.711347,-1.785523 1.251347,-3.285683 1.2,-3.333693 -0.05135,-0.04801 -0.951593,0.179747 -2.000541,0.506125 -1.048947,0.326381 -1.940614,0.559984 -1.981481,0.519117 -0.04087,-0.04087 2.033619,-2.334382 4.609971,-5.096699 2.576349,-2.762316 4.736214,-4.970451 4.799699,-4.906965 0.06349,0.06349 -0.39943,1.448568 -1.028704,3.077962 -0.629273,1.629394 -1.083673,3.022992 -1.009782,3.096883 0.07389,0.07389 0.894688,-0.09145 1.823993,-0.367421 0.929303,-0.275974 1.825847,-0.50177 1.992317,-0.50177 0.333626,0 -0.702819,1.170003 -6.083843,6.867808 C 37.146746,38.413104 35.52,40.035997 35.52,39.91424 Z M 11.254803,40.430403 C 12.09553,39.669555 12.025396,37.926147 11.128798,37.298144 9.630409,36.248634 7.68,37.174218 7.68,38.934803 c 0,1.782093 2.2281616,2.714295 3.574803,1.4956 z M 11.128798,26.701855 c 0.862924,-0.604416 0.9582,-2.218531 0.181606,-3.076658 C 10.65052,22.896034 9.041929,22.866663 8.2651971,23.569596 7.0183699,24.697959 7.9995027,27.2 9.6887981,27.2 c 0.4008389,0 1.0488389,-0.224165 1.4399999,-0.498145 z"
       style="fill:#efc2be;stroke-width:0.31999999" />
    <path
       id="path3846"
       d="M 26.20619,63.523149 C 6.0822883,59.704557 -5.3478595,38.405018 2.5482536,19.437701 5.5118448,12.318836 12.318836,5.5118448 19.437701,2.5482536 24.131129,0.59437482 26.195042,0.21025516 32,0.21025516 c 5.804957,0 7.86887,0.38411966 12.562298,2.33799844 7.118867,2.9635912 13.925856,9.7705824 16.889449,16.8894474 1.953879,4.693428 2.337997,6.757341 2.337997,12.562299 0,4.384118 -0.114643,5.696746 -0.675677,7.736138 -1.635309,5.94447 -4.33328,10.632764 -8.539222,14.838707 -4.228554,4.228553 -9.016285,6.974931 -14.838707,8.511901 -3.261239,0.860886 -10.126047,1.082307 -13.529948,0.436403 z M 38.448717,60.49385 C 46.66009,58.677917 53.683936,53.415334 57.716531,46.057542 58.901923,43.894701 60.605203,39.075658 60.903763,37.04 l 0.176,-1.2 h -1.909926 c -1.534429,0 -1.946675,0.110096 -2.096858,0.56 -1.314112,3.936662 -3.903907,7.358794 -7.275609,9.613926 -4.439719,2.969466 -4.90658,3.058362 -16.75737,3.190842 l -10.32,0.11537 V 45.780067 42.24 H 14.985197 C 5.7228307,42.24 6.08,42.375821 6.08,38.853629 6.08,36.720685 6.1503722,36.471098 6.9231549,35.863226 7.7215104,35.235238 8.1635744,35.2 15.243155,35.2 H 22.72 V 32 28.8 H 15.140624 C 7.7991197,28.8 7.5380051,28.778163 6.8206243,28.10422 6.1781968,27.50069 6.08,27.100033 6.08,25.082365 6.08,21.664717 5.8209933,21.76 15.111202,21.76 H 22.72 v -3.52 -3.52 h 8.973491 c 10.41721,0 12.447466,0.281758 16.557357,2.297823 1.457965,0.715191 3.293072,1.92452 4.078016,2.687398 1.716864,1.668599 3.860566,4.904722 4.365552,6.590213 L 57.061306,27.52 h 2.035443 2.035443 L 60.941728,26.64 C 59.535507,20.14288 56.708867,15.088204 51.929066,10.523298 42.19952,1.2311868 27.279303,-0.08862506 15.961122,7.3416474 4.2546099,15.026855 -0.44436432,30.045777 4.8145552,42.968448 8.4771498,51.968493 16.582756,58.651302 26.24,60.633034 c 3.173919,0.651308 8.931021,0.585676 12.208717,-0.139184 z m 6.453251,-19.04026 c 2.045168,-0.96752 4.151488,-3.121993 5.120317,-5.237376 C 51.069174,33.93039 51.00471,29.87932 49.883904,27.52 48.876992,25.400429 47.122736,23.594002 44.96,22.449662 c -1.405661,-0.743759 -1.969245,-0.846586 -4.64,-0.846586 -2.677533,0 -3.230771,0.101528 -4.64,0.851522 -2.073267,1.103397 -4.100733,3.213162 -5.021564,5.225402 -1.017534,2.223559 -1.03884,6.373456 -0.04382,8.536214 1.327499,2.885447 4.174663,5.25952 7.267847,6.060202 1.785881,0.462282 5.132163,0.07003 7.01951,-0.822826 z M 35.83904,39.428016 c -6.4e-4,-0.125408 0.51823,-1.569258 1.152797,-3.20855 0.634566,-1.639296 1.096281,-3.038016 1.026029,-3.108266 -0.07025,-0.07025 -0.834788,0.08506 -1.69897,0.345146 -0.864182,0.26008 -1.67841,0.4348 -1.809392,0.388262 C 34.378522,33.798074 36.346448,31.6 38.882669,28.96 l 4.611312,-4.8 -1.231072,3.2 c -0.677088,1.76 -1.205053,3.230181 -1.173255,3.267068 0.03181,0.03689 0.972983,-0.217763 2.091524,-0.565892 1.118537,-0.348128 2.07079,-0.594308 2.116118,-0.547068 0.04533,0.04724 -2.064022,2.348498 -4.68744,5.113908 -2.623421,2.765408 -4.770288,4.925408 -4.770816,4.8 z M 10.669656,40.924714 C 12.781546,39.96247 12.126731,36.8 9.815601,36.8 c -2.1121312,0 -2.960321,2.504822 -1.2924461,3.816774 0.975312,0.767181 1.099479,0.784996 2.1465011,0.30794 z M 11.261764,26.64 c 1.183306,-1.377779 0.85069,-2.956952 -0.763655,-3.625636 -0.8126031,-0.336591 -1.0544776,-0.302968 -1.7984892,0.25001 -1.0646844,0.791316 -1.3180752,2.435442 -0.5125308,3.325559 0.69956,0.773005 2.429585,0.801176 3.074675,0.05007 z"
       style="fill:#eea39c;stroke-width:0.31999999" />
    <path
       id="path3844"
       d="M 28.16,63.775629 C 23.873012,63.308858 17.755528,60.952595 13.720766,58.21409 11.109314,56.441622 7.5583773,52.890685 5.7859114,50.279235 3.7702781,47.309514 1.7200534,42.77847 0.9088336,39.500781 -0.03905132,35.670906 -0.11164691,28.883546 0.75502102,25.12 3.551512,12.976106 12.976106,3.551512 25.12,0.75502102 28.883546,-0.11164691 35.670906,-0.03905132 39.500781,0.9088336 44.988186,2.2669522 50.569213,5.4202493 54.574483,9.4255184 62.920083,17.771122 66.012179,30.228703 62.510026,41.396643 57.898643,56.101786 43.548157,65.451104 28.16,63.775629 Z m 9.12,-3.003085 c 5.738704,-0.974288 10.642941,-3.470582 14.99568,-7.632912 2.763456,-2.642573 4.66649,-5.290131 6.284928,-8.743786 1.017462,-2.171209 2.546192,-7.142627 2.557149,-8.315846 0.0013,-0.132 -0.864845,-0.24 -1.924618,-0.24 -1.801811,0 -1.950118,0.05711 -2.285261,0.88 -2.110355,5.181661 -4.8464,8.286755 -9.291132,10.544365 C 44.081344,49.060099 42.379427,49.28 32.016829,49.28 H 22.72 V 45.76 42.24 H 15.111202 C 5.8734221,42.24 6.08,42.3128 6.08,39.057306 c 0,-1.675101 0.1429402,-2.363072 0.611232,-2.941856 0.6075203,-0.750861 0.6580422,-0.756032 8.32,-0.851616 L 22.72,35.16767 V 31.983835 28.8 H 15.063226 7.4064512 L 6.7304067,27.940548 C 6.1615718,27.217392 6.0690816,26.723919 6.1471808,24.828806 6.2757645,21.708675 6.0913594,21.770543 15.28,21.764717 L 22.72,21.76 v -3.550917 -3.550918 l 9.84,0.142261 c 10.779696,0.155847 11.71833,0.289273 15.748954,2.238707 3.051488,1.47587 6.237593,4.785777 7.691046,7.989892 l 1.12,2.469025 2.014499,0.01098 2.014503,0.01098 -0.217943,-1.2 C 60.81119,25.66 60.311706,23.92958 59.821091,22.474623 56.405818,12.346317 47.569341,4.7716986 36.981229,2.8963137 c -2.438007,-0.4318243 -7.52445,-0.4318243 -9.962458,0 C 16.88872,4.6905661 7.9470515,12.060433 4.5201971,21.44 3.0171198,25.554039 2.7422427,27.205087 2.7621004,32 2.7844217,37.389798 3.362808,40.078758 5.4299478,44.403011 7.026737,47.743338 8.1908954,49.43193 10.814175,52.212746 17.44001,59.236477 27.383982,62.45264 37.28,60.772544 Z M 44.536214,41.680416 C 46.531146,40.79591 48.822941,38.634512 49.867101,36.652848 50.613568,35.236157 50.71711,34.670272 50.718461,32 50.720381,28.44424 50.042042,26.665199 47.848422,24.471579 45.655821,22.278979 43.875741,21.6 40.32,21.6 c -3.552611,0 -5.336755,0.679376 -7.51929,2.863233 -3.864985,3.867331 -4.048023,10.509625 -0.398704,14.468671 2.436871,2.64369 4.916324,3.682285 8.397994,3.517754 1.364944,-0.0645 2.824496,-0.365008 3.736214,-0.769242 z M 36.593917,37.44 c 0.420099,-1.144 0.990976,-2.62 1.268621,-3.28 0.588016,-1.397805 0.41998,-1.468867 -1.702538,-0.72 -0.748256,0.264 -1.499786,0.48 -1.67007,0.48 -0.170282,0 1.670182,-2.08964 4.089923,-4.643644 2.419737,-2.554005 4.448941,-4.594228 4.509337,-4.533831 0.0604,0.0604 -0.390857,1.385141 -1.00279,2.943875 -0.611933,1.558734 -1.065059,2.881609 -1.006944,2.939723 0.05812,0.05811 0.991011,-0.16989 2.073104,-0.506676 1.082093,-0.336785 1.96159,-0.519436 1.954445,-0.405891 C 45.099869,29.8271 43.009629,32.08 40.462054,34.72 l -4.631952,4.8 z M 11.374546,40.494544 C 12.243454,39.625638 12.343039,39.02567 11.792095,37.978963 11.296134,37.036714 10.899066,36.810685 9.7295962,36.804899 7.748239,36.795098 6.8685299,39.188531 8.32,40.64 c 0.8648749,0.864874 2.103183,0.805907 3.054546,-0.145456 z m 0.255665,-14.3339 c 0.522822,-0.703204 0.592446,-1.053784 0.347564,-1.750101 -0.701602,-1.994995 -3.3358172,-2.209733 -4.1235996,-0.33615 -0.4572925,1.087578 -0.3623444,1.673726 0.4181084,2.58113 0.7489533,0.87078 2.5386832,0.607016 3.3579272,-0.494879 z"
       style="fill:#ea847a;stroke-width:0.31999999" />
    <path
       id="path3842"
       d="M 27.825659,63.669814 C 17.559948,62.236048 8.3268998,55.746864 3.7129046,46.722858 1.1406948,41.692154 0.19702932,37.740522 0.19702932,32 c 0,-2.2 0.18090358,-4.864 0.40200793,-5.92 C 3.3458365,12.961217 12.961217,3.3458365 26.08,0.59903725 27.136,0.3779329 29.8,0.19702932 32,0.19702932 c 5.740522,0 9.692154,0.94366548 14.722858,3.51587528 C 54.579907,7.7302314 60.635706,15.370537 62.929475,24.16 c 0.714608,2.738299 0.835098,3.869467 0.835098,7.84 0,3.970534 -0.12049,5.101702 -0.835098,7.84 -3.580873,13.721501 -15.498473,23.377107 -29.593984,23.97697 -1.878519,0.07994 -4.357944,0.01373 -5.509832,-0.147156 z m 11.174978,-3.21239 C 49.428464,58.027206 57.788794,49.722518 60.507082,39.094109 61.376496,35.694736 61.441987,35.84 59.04,35.84 c -1.475152,0 -2.08,0.118941 -2.08,0.409027 0,0.224967 -0.508163,1.469389 -1.129251,2.765383 -1.446304,3.017929 -4.859591,6.526806 -7.784819,8.002838 C 44.065907,49.02551 42.255485,49.28 31.948812,49.28 H 22.72 v -3.52 -3.52 h -7.68 c -9.1598909,0 -8.96,0.07496 -8.96,-3.36 0,-2.383626 0.5293571,-3.192768 2.3021514,-3.518928 0.5818166,-0.107043 4.0459926,-0.151075 7.6981676,-0.09785 L 22.720638,35.36 22.720319,32.08 22.72,28.8 H 15.185454 7.6509091 L 6.8654544,28.014546 c -0.6690243,-0.669025 -0.784728,-1.084077 -0.7805542,-2.8 0.00269,-1.108 0.1136256,-2.185537 0.2465126,-2.394526 C 6.8825776,21.953211 8.5611875,21.76 15.540832,21.76 H 22.72 v -3.559077 -3.559078 l 9.84,0.168351 c 11.093878,0.189803 11.951421,0.326171 16.198106,2.575843 3.227865,1.709955 5.544204,4.162676 7.164396,7.586217 l 1.197498,2.530372 2,0.0087 c 1.1,0.0048 2,-0.112279 2,-0.260125 0,-0.961431 -1.425514,-5.528079 -2.35073,-7.530587 C 55.814278,13.324909 51.107258,8.5547078 44.684147,5.4464221 40.295434,3.3226266 38.39375,2.8581355 33.251325,2.6539257 29.897054,2.5207251 28.295813,2.6041969 26.248875,3.0189598 14.65195,5.3687971 5.5642893,14.444842 3.164002,26.074324 c -3.02796733,14.670617 5.7428927,29.410332 20.17949,33.912287 4.993019,1.55704 10.310188,1.716928 15.657145,0.470813 z M 44.96,41.527971 c 3.60919,-1.852601 5.64353,-4.960918 5.855222,-8.946342 0.296183,-5.576099 -3.000848,-9.911117 -8.397916,-11.041784 -3.648653,-0.764381 -7.080016,0.330952 -9.80682,3.130456 -2.154517,2.211961 -2.954476,4.462372 -2.776133,7.809699 0.158604,2.976829 1.03767,5.01609 3.013772,6.991354 2.308329,2.307356 4.444473,3.106352 7.951875,2.974288 1.989965,-0.07493 2.916272,-0.279264 4.16,-0.917671 z M 36.484669,37.76 C 36.834102,36.88 37.408,35.434669 37.76,34.548154 c 0.352,-0.886516 0.64,-1.662932 0.64,-1.72537 0,-0.06244 -0.828,0.14416 -1.84,0.459107 -1.012,0.314947 -1.893174,0.522192 -1.958163,0.460541 -0.06499,-0.06165 1.798659,-2.131271 4.141437,-4.599159 2.342777,-2.467889 4.302806,-4.44386 4.355619,-4.391048 0.05281,0.05281 -0.41433,1.361671 -1.038093,2.908575 -0.623763,1.546904 -1.063946,2.88272 -0.978186,2.96848 0.08576,0.08576 0.894583,-0.08942 1.797386,-0.38928 0.902803,-0.299863 1.721501,-0.465167 1.819325,-0.367342 0.147869,0.14787 -8.473197,9.487342 -8.757562,9.487342 -0.05083,0 0.193475,-0.72 0.542906,-1.6 z m -25.110123,2.734544 c 1.296918,-1.296918 0.93379,-2.970358 -0.800428,-3.688698 -0.8201871,-0.339731 -1.0926866,-0.321763 -1.7609708,0.116112 -1.599817,1.04824 -1.7840608,2.905834 -0.3853808,3.885508 0.9878899,0.691945 2.0552586,0.578601 2.9467796,-0.312922 z M 10.857113,27.051835 c 1.527354,-0.789825 1.749747,-2.314066 0.517433,-3.546381 -1.370196,-1.370195 -3.414555,-0.733443 -3.87357,1.206492 -0.1653802,0.698946 -0.014246,1.064015 0.7617395,1.84 1.1027296,1.10273 1.3401639,1.148479 2.5943975,0.499889 z"
       style="fill:#e9776b;stroke-width:0.31999999" />
    <path
       id="path3840"
       d="M 28.178607,63.641053 C 21.199092,62.832378 15.150228,59.906656 9.8449056,54.773389 1.3718987,46.575165 -1.813936,34.87384 1.301355,23.393589 3.6366992,14.787542 10.425071,6.8419811 18.714584,3.0119906 c 8.24326,-3.808621 18.332149,-3.80650583 26.582894,0.00557 8.248288,3.8109434 15.007092,11.7036794 17.391984,20.3098604 3.151453,11.372394 -0.0751,23.261034 -8.534368,31.445965 -5.455251,5.278333 -11.315289,8.052073 -18.795094,8.896301 -3.229274,0.36448 -3.80839,0.362172 -7.181393,-0.02864 z m 7.669787,-2.539059 c 9.187075,-1.145181 17.358755,-6.699495 21.959081,-14.925648 1.333805,-2.38506 2.811853,-6.513044 3.157619,-8.818781 L 61.192669,35.84 h -2.041226 -2.041222 l -0.54521,1.535069 c -1.389001,3.910822 -5.002093,7.861606 -8.979517,9.818771 -3.7172,1.829117 -5.582182,2.074307 -15.825494,2.080605 L 22.72,49.28 v -3.52 -3.52 h -7.68 c -9.1598909,0 -8.96,0.07496 -8.96,-3.36 0,-3.43496 -0.1998909,-3.36 8.96,-3.36 h 7.68 V 32.16 28.8 H 15.185454 7.6509091 L 6.8654544,28.014546 C 6.199976,27.349067 6.08,26.925224 6.08,25.239742 6.08,21.975914 5.7884832,22.08 14.929596,22.08 H 22.72 v -3.52 -3.52 h 9.692768 c 11.651232,0 12.355421,0.130689 18.209718,3.379501 1.506685,0.836127 4.043527,4.007621 5.40657,6.759153 L 57.347424,27.84 h 1.922621 1.922624 l -0.216371,-1.44286 c -0.119005,-0.793573 -0.546804,-2.413573 -0.950666,-3.6 C 56.577488,12.667511 48.348352,5.272441 37.997606,3.0017723 34.96656,2.3368447 29.033438,2.3368447 26.002395,3.0017723 17.21213,4.9301142 9.6838349,10.718812 5.7686682,18.56 3.5094848,23.08463 2.5584169,27.017569 2.5624173,31.818771 c 0.00647,7.759555 2.6261833,14.442525 7.8177617,19.943309 3.030628,3.21113 5.582608,5.09351 9.189895,6.778614 5.307092,2.479149 10.448063,3.288052 16.27832,2.5613 z m 7.954889,-19.00904 c 3.014903,-1.063719 5.508234,-3.559245 6.643591,-6.64944 0.282844,-0.76984 0.502112,-2.380157 0.503603,-3.698486 0.0022,-1.971509 -0.15297,-2.651056 -0.997018,-4.365564 C 46.75969,20.891996 38.585709,19.24397 33.173168,23.996245 30.866041,26.021928 29.734092,28.648211 29.723484,32 c -0.01434,4.53297 2.752522,8.515206 7.000548,10.0756 1.598221,0.587062 5.437853,0.596474 7.079251,0.01734 z m -6.650422,-5.899232 c 0.711264,-1.811876 1.246841,-3.337952 1.190173,-3.391284 -0.05667,-0.05333 -0.930612,0.160592 -1.942096,0.475383 l -1.839066,0.572342 0.824253,-0.979568 c 0.453337,-0.538761 2.405651,-2.647048 4.338473,-4.685081 L 43.238819,24.48 42.544662,26.24 c -1.167948,2.961271 -1.597536,4.253793 -1.459641,4.391687 0.07252,0.07252 0.890544,-0.09345 1.817837,-0.36883 0.927289,-0.275376 1.73583,-0.450836 1.796755,-0.389912 0.09336,0.09336 -4.804179,5.452105 -7.924787,8.671074 l -0.915172,0.944019 z M 11.374546,40.494544 C 12.634943,39.234147 12.272086,37.390102 10.641704,36.77023 9.1150768,36.189808 7.36,37.505098 7.36,39.229603 7.36,40.000054 8.8581814,41.28 9.76,41.28 c 0.456,0 1.182546,-0.353456 1.614546,-0.785456 z M 11.6,26.510904 C 12.343665,25.632044 12.307299,24.59357 11.496774,23.563155 10.629781,22.460951 9.214328,22.436581 8.1454544,23.505454 7.2738531,24.377056 7.1892886,24.875215 7.7165062,26.032332 8.4228784,27.58265 10.478745,27.835999 11.6,26.510904 Z"
       style="fill:#e65647;stroke-width:0.31999999" />
    <path
       id="path3838"
       d="M 28.96,63.638976 C 18.280481,62.720515 8.3838368,55.927472 3.5495603,46.197283 1.2378568,41.544403 0.2816,37.390054 0.2816,32 0.2816,26.499587 1.1761678,22.626342 3.5632691,17.791232 7.9513606,8.9030851 16.72248,2.345142 26.508228,0.63586976 29.124745,0.17884394 34.909219,0.18108198 37.44055,0.64009952 41.957021,1.4590919 46.966707,3.5340989 50.357283,5.9901958 69.811322,20.082496 67.705776,49.298666 46.444768,60.279546 43.09799,62.00809 38.849606,63.298256 35.71865,63.536896 34.465392,63.632416 33.08,63.750192 32.64,63.798618 32.2,63.847043 30.544,63.775194 28.96,63.638976 Z M 39.301725,60.494784 C 47.528522,58.468845 54.471251,52.934413 58.274944,45.370189 59.540195,42.854045 61.12,37.986461 61.12,36.604202 61.12,35.878688 61.016944,35.84 59.08441,35.84 h -2.035588 l -0.681968,1.78209 c -1.899657,4.964112 -5.87847,8.645363 -11.461948,10.604745 -2.488528,0.87329 -2.569245,0.879767 -12.344906,0.990509 l -9.84,0.111475 V 45.78441 42.24 H 15.185454 7.6509091 L 6.8654544,41.454544 C 5.8100262,40.399117 5.7436422,37.63392 6.7432256,36.363155 L 7.4064512,35.52 H 15.063226 22.72 l 2.79e-4,-3.44 2.79e-4,-3.44 -7.278747,0.09208 C 7.690608,28.830134 7.0844483,28.73441 6.4353462,27.309786 5.917328,26.17286 5.9980224,23.619444 6.5781453,22.791202 7.0698118,22.08925 7.1780198,22.08 14.898145,22.08 H 22.72 v -3.540068 -3.540068 l 10.32,0.100068 c 10.186445,0.09877 10.349309,0.110792 12.58463,0.928745 5.057581,1.850679 8.431216,4.940336 10.536669,9.649732 l 0.958701,2.144385 2,0.0086 c 2.367046,0.01018 2.387325,-0.04655 1.352106,-3.782266 -1.331744,-4.805763 -3.643703,-8.793985 -7.330151,-12.64481 -3.90152,-4.0754864 -8.810093,-6.9079846 -14.301318,-8.2525895 -3.957443,-0.9690371 -9.723831,-0.9690371 -13.681275,0 C 14.744478,5.7019645 6.4956973,13.663006 3.4999936,24.055563 2.6337799,27.060591 2.3193552,33.292566 2.8637046,36.666966 4.845585,48.95257 14.359951,58.590147 26.850772,60.964669 c 3.219394,0.612013 8.933302,0.396377 12.450953,-0.469885 z m 6.218416,-19.129286 c 3.340166,-1.817949 5.482157,-5.404784 5.49735,-9.205498 0.01232,-3.078816 -0.779869,-5.200895 -2.743587,-7.349514 -2.338141,-2.558299 -4.486819,-3.505198 -7.953904,-3.505198 -2.314438,0 -2.991494,0.13144 -4.540848,0.881535 -6.559461,3.175658 -8.205969,11.699779 -3.307274,17.122051 3.064,3.391481 8.904359,4.312019 13.048263,2.056624 z m -9.223395,-2.83378 c 1.353958,-3.381795 2.147827,-5.633811 2.028179,-5.753459 -0.0798,-0.0798 -0.761658,0.07245 -1.515242,0.338323 C 36.056102,33.382464 35.293936,33.6 35.115978,33.6 c -0.335639,0 0.93527,-1.442202 5.36079,-6.083323 l 2.59681,-2.723322 -1.09697,2.816474 c -0.603334,1.549061 -1.004246,2.909198 -0.890922,3.022526 0.113328,0.113328 0.951626,-0.03238 1.862887,-0.323783 0.911257,-0.291409 1.692899,-0.493767 1.736982,-0.449684 0.04408,0.04408 -1.88047,2.151141 -4.276784,4.682347 -2.396313,2.53121 -4.246726,4.326925 -4.112025,3.990483 z m -24.789212,2.047943 c 0.948971,-1.018602 0.860696,-2.609415 -0.190689,-3.436435 -1.118482,-0.879799 -2.2114892,-0.837674 -3.1713906,0.12223 -0.9599011,0.959901 -1.0020269,2.052906 -0.1222288,3.171389 0.8567978,1.089241 2.5383654,1.158166 3.4843084,0.142816 z M 11.374546,26.734546 C 12.963232,25.145859 12.00165,22.72 9.7832256,22.72 8.5209987,22.72 7.36,23.897516 7.36,25.1777 c 0,1.017549 1.3573853,2.3423 2.4,2.3423 0.456,0 1.182546,-0.353454 1.614546,-0.785454 z"
       style="fill:#e64b3b;stroke-width:0.31999999" />
  </g>
</svg>
