<?xml version="1.0" encoding="UTF-8" standalone="no"?>
<!-- Created with Inkscape (http://www.inkscape.org/) -->

<svg
   xmlns:dc="http://purl.org/dc/elements/1.1/"
   xmlns:cc="http://creativecommons.org/ns#"
   xmlns:rdf="http://www.w3.org/1999/02/22-rdf-syntax-ns#"
   xmlns:svg="http://www.w3.org/2000/svg"
   xmlns="http://www.w3.org/2000/svg"
   xmlns:sodipodi="http://sodipodi.sourceforge.net/DTD/sodipodi-0.dtd"
   xmlns:inkscape="http://www.inkscape.org/namespaces/inkscape"
   version="1.1"
   id="svg3975"
   width="266.66666"
   height="266.66666"
   viewBox="0 0 266.66666 266.66666"
   sodipodi:docname="robotIcon.svg"
   inkscape:version="0.92.4 (5da689c313, 2019-01-14)">
  <metadata
     id="metadata3981">
    <rdf:RDF>
      <cc:Work
         rdf:about="">
        <dc:format>image/svg+xml</dc:format>
        <dc:type
           rdf:resource="http://purl.org/dc/dcmitype/StillImage" />
        <dc:title></dc:title>
      </cc:Work>
    </rdf:RDF>
  </metadata>
  <defs
     id="defs3979" />
  <sodipodi:namedview
     pagecolor="#ffffff"
     bordercolor="#666666"
     borderopacity="1"
     objecttolerance="10"
     gridtolerance="10"
     guidetolerance="10"
     inkscape:pageopacity="0"
     inkscape:pageshadow="2"
     inkscape:window-width="1920"
     inkscape:window-height="1017"
     id="namedview3977"
     showgrid="false"
     inkscape:zoom="0.88500003"
     inkscape:cx="133.33333"
     inkscape:cy="133.33333"
     inkscape:window-x="1912"
     inkscape:window-y="-8"
     inkscape:window-maximized="1"
     inkscape:current-layer="svg3975" />
  <g
     id="g3985"
     transform="translate(-1.7551642e-6,1.1299437)">
    <path
       style="fill:#fefefe;stroke-width:1.33333325"
       d="M 0,133.33333 V 0 H 133.33333 266.66666 V 133.33333 266.66666 H 133.33333 0 Z"
       id="path4001"
       inkscape:connector-curvature="0" />
    <path
       style="fill:#c9cfd4;stroke-width:1.33333325"
       d="m 0,262.93333 c 0,-0.58667 0.54970837,-1.63667 1.2215742,-2.33334 0.6718658,-0.69666 5.1718656,-11.14858 9.9999998,-23.22649 l 8.778425,-21.95981 v -58.54947 c 0,-55.98902 0.11524,-58.735926 2.635166,-62.813252 4.34467,-7.029825 9.586749,-8.953253 23.084826,-8.470302 l 11.719992,0.419332 -0.07752,64.256812 -0.07752,64.25682 9.357533,23.42578 c 5.146633,12.88418 9.357522,24.01862 9.357522,24.74318 0,0.83683 -13.861994,1.3174 -37.999999,1.3174 C 17.1,263.99999 0,263.51999 0,262.93333 Z m 188,0.41593 c 0,-0.35789 4.2,-11.16507 9.33333,-24.01593 l 9.33333,-23.3652 v -65.3174 -65.317399 l 12.33333,0.0049 c 14.8195,0.006 19.7554,2.30017 23.71491,11.022562 2.39632,5.278847 2.56173,9.324097 2.58915,63.316467 l 0.0293,57.67735 8.76005,21.65598 c 4.81803,11.9108 9.08222,22.40599 9.47599,23.32266 0.56323,1.31117 -7.41965,1.66666 -37.42672,1.66666 C 205.16418,263.99999 188,263.70717 188,263.34926 Z M 76.299961,226.30197 66.666665,216.60395 V 150.96864 85.333331 h 65.999995 66 v 65.031279 65.03128 L 188.30384,225.69794 177.941,235.99999 H 131.93713 85.933258 Z M 166.0606,156.72726 c 3.78374,-3.78373 4.1222,-6.92113 1.19713,-11.09725 -2.04688,-2.92232 -2.5188,-2.96335 -34.08766,-2.96335 -19.51692,0 -33.0187,0.53875 -34.59106,1.38024 -1.874403,1.00316 -2.579012,2.8039 -2.579012,6.59107 0,9.00597 1.382728,9.36203 36.357282,9.36203 h 30.4306 z m 0,-37.33332 c 3.93237,-3.93237 4.14678,-7.35148 0.72614,-11.57956 -2.51694,-3.11109 -2.88784,-3.15242 -31.87245,-3.55223 -36.035546,-0.49707 -39.315888,0.29528 -38.659347,9.33805 0.628747,8.65992 2.109424,9.02387 36.805657,9.04681 l 29.72728,0.0196 z M 66.666665,66.140445 c 0,-30.219183 20.950038,-56.109794 51.774355,-63.9841169 11.57341,-2.95652133 19.10062,-2.70879819 31.20832,1.0270765 12.45851,3.8441195 21.1707,9.2323944 29.94639,18.5211224 11.94503,12.643335 16.96873,24.490871 18.58065,43.819226 l 0.87368,10.476245 H 132.85836 66.666665 Z M 175.39393,63.393938 c 1.8,-1.8 3.27273,-4.239445 3.27273,-5.420989 0,-6.50308 -6.87298,-11.03679 -12.70392,-8.380038 -5.90614,2.69102 -6.30789,12.491441 -0.62941,15.354055 4.74977,2.394439 6.36201,2.145563 10.0606,-1.553028 z M 144.03152,47.303139 c 5.37742,-5.151904 7.3638,-11.613307 5.4914,-17.862809 -4.36324,-14.56318 -22.63205,-17.954604 -32.07186,-5.953825 -3.48958,4.436278 -3.83939,15.747259 -0.62878,20.331054 6.30939,9.007918 19.66004,10.718172 27.20924,3.48558 z"
       id="path3999"
       inkscape:connector-curvature="0" />
    <path
       style="fill:#98a2ad;stroke-width:1.33333325"
       d="m 1.3333333,263.34926 c 0,-0.35789 4.1999999,-11.16507 9.3333327,-24.01593 l 9.333333,-23.3652 0.0049,-58.3174 c 0.0048,-55.83989 0.117546,-58.502011 2.65448,-62.662919 4.55746,-7.474748 9.729165,-9.643824 23.007253,-9.649496 l 11.666666,-0.005 v 65.064645 65.06465 l 9.333333,23.20403 c 5.133333,12.76221 9.333333,23.68312 9.333333,24.26868 0,0.58556 -16.799999,1.06465 -37.333332,1.06465 -20.533333,0 -37.3333327,-0.29282 -37.3333327,-0.65073 z M 188,263.60201 c 0,-0.2189 4.2,-10.8398 9.33333,-23.60202 l 9.33333,-23.20402 V 151.06465 85.333331 h 11.46516 c 13.40229,0 19.17353,2.149273 23.18049,8.632661 2.58715,4.186092 2.68768,6.524308 2.68768,62.508778 v 58.16002 l 9.33334,23.3652 c 5.13333,12.85087 9.33333,23.95804 9.33333,24.6826 0,0.83628 -13.6344,1.3174 -37.33333,1.3174 C 204.79999,263.99999 188,263.8209 188,263.60201 Z M 75.630905,225.63319 66.666665,216.59974 V 150.96653 85.333331 H 132 197.33333 v 65.702429 65.70242 l -9.03347,8.96424 -9.03345,8.96424 H 131.93078 84.595146 Z m 90.784345,-68.35181 c 4.09151,-3.81181 3.82541,-9.70746 -0.59507,-13.18461 -3.32196,-2.61305 -5.17549,-2.76344 -34.0606,-2.76344 h -30.54746 l -3.272729,3.27273 c -1.8,1.8 -3.272727,4.52727 -3.272727,6.0606 0,1.53334 1.472727,4.2606 3.272727,6.0606 L 101.21212,160 h 31.14252 c 29.49786,0 31.29664,-0.14358 34.06061,-2.71862 z m -0.16785,-37.5138 c 4.21202,-3.957 4.03,-9.4981 -0.42722,-13.00414 C 162.49822,104.15038 160.64469,104 131.75958,104 h -30.54746 l -3.272729,3.27272 c -1.8,1.8 -3.272727,4.52728 -3.272727,6.06061 0,1.53333 1.472727,4.26061 3.272727,6.06061 l 3.272729,3.27272 h 30.97467 c 29.96734,0 31.07503,-0.0943 34.06061,-2.89908 z M 66.666665,68.065626 c 0,-18.426818 6.666508,-34.72039 19.452521,-47.543787 9.73226,-9.760715 21.006384,-15.636641 35.800974,-18.6589988 9.77584,-1.99708866 11.35896,-1.99603604 20.66666,0.013742 32.92283,7.1089085 54.74651,32.7669808 54.74651,64.3654178 v 9.757998 H 132 66.666665 Z M 175.58073,63.76758 c 4.21203,-3.956999 4.03,-9.498101 -0.42721,-13.004141 -1.93223,-1.519892 -4.65951,-2.76344 -6.0606,-2.76344 -3.3981,0 -9.09292,5.845402 -9.09292,9.333333 0,3.679025 5.76746,9.333333 9.52012,9.333333 1.63608,0 4.36334,-1.304588 6.06061,-2.899085 z M 142.41357,49.299152 c 4.63688,-2.827028 8.25309,-9.53058 8.25309,-15.299153 0,-10.111884 -8.07808,-17.986085 -18.46094,-17.995015 -7.68207,-0.0067 -12.98583,3.343605 -16.37421,10.343061 -3.7743,7.796673 -2.54922,13.914634 4.12222,20.586075 4.48041,4.480412 5.81595,5.065303 11.55607,5.060895 4.1555,-0.0032 8.07786,-0.972962 10.90377,-2.695863 z"
       id="path3997"
       inkscape:connector-curvature="0" />
    <path
       style="fill:#788694;stroke-width:1.33333325"
       d="m 2.3630367,263.25191 c -0.4114409,-0.41144 3.388559,-11.03234 8.4444443,-23.602 l 9.192518,-22.85394 0.0021,-58.06465 c 0.0019,-52.64538 0.219653,-58.49136 2.333333,-62.636542 4.126215,-8.09201 8.255957,-10.036059 22.42584,-10.55682 l 12.572026,-0.462039 v 65.446101 65.44611 l 9.333333,23.3652 c 5.133333,12.85086 9.333333,23.65804 9.333333,24.01593 0,0.91367 -72.7220818,0.81753 -73.6369613,-0.0973 z M 189.33333,262.29315 c 0,-0.93877 3.9,-11.43396 8.66667,-23.32265 l 8.66666,-21.61581 V 151.34401 85.333331 h 10.70949 c 11.9172,0 17.60063,1.825664 22.62384,7.267359 l 3.33334,3.611034 0.66666,60.894136 0.66667,60.89413 9,21.95983 c 4.95,12.07789 9,22.42789 9,23 0,0.57209 -16.5,1.04017 -36.66667,1.04017 -28.90475,0 -36.66666,-0.36132 -36.66666,-1.70684 z M 76.299961,224.96863 66.666665,215.27062 V 150.30197 85.333331 H 132 197.33333 v 65.702429 65.70242 l -9.03347,8.96424 -9.03345,8.96424 H 132.59983 85.933258 Z m 90.366699,-67.6353 c 1.48148,-1.48148 2.66667,-4.44444 2.66667,-6.66667 0,-2.22222 -1.18519,-5.18518 -2.66667,-6.66666 -2.51565,-2.51566 -4.44444,-2.66667 -34.0606,-2.66667 h -31.39394 l -3.272729,3.27273 c -4.04358,4.04358 -4.171736,8.26511 -0.373641,12.308 2.87305,3.05823 3.18435,3.08594 34.66667,3.08594 29.9898,0 31.9168,-0.14923 34.43424,-2.66667 z m 0,-37.33333 c 1.48148,-1.48148 2.66667,-4.44445 2.66667,-6.66667 0,-2.22222 -1.18519,-5.18518 -2.66667,-6.66667 C 164.15101,104.15101 162.22222,104 132.60606,104 h -31.39394 l -3.272729,3.27272 c -4.04358,4.04359 -4.171736,8.26512 -0.373641,12.30801 2.87305,3.05822 3.18435,3.08593 34.66667,3.08593 29.9898,0 31.9168,-0.14923 34.43424,-2.66666 z M 66.686373,68.333332 C 66.751928,42.831822 81.013746,19.56767 103.34862,8.5291783 128.83985,-4.0692732 158.04938,0.68640064 178,20.68335 c 13.10754,13.13799 19.33333,28.035898 19.33333,46.263447 v 9.053201 H 132 66.666665 Z M 176,63.999998 c 5.73134,-5.731347 1.51485,-15.999999 -6.5699,-15.999999 -4.2156,0 -9.4301,5.160997 -9.4301,9.333333 0,1.268873 1.24354,3.887958 2.76344,5.820188 3.38101,4.298264 9.39986,4.683169 13.23656,0.846478 z M 142.39698,49.828917 c 13.22771,-8.522163 9.76896,-29.834908 -5.5094,-33.948945 -10.89923,-2.934859 -21.95404,4.981617 -23.14604,16.575145 -1.53736,14.952618 15.95342,25.557287 28.65544,17.3738 z"
       id="path3995"
       inkscape:connector-curvature="0" />
    <path
       style="fill:#687987;stroke-width:1.33333325"
       d="m 225.66666,262.97857 c -19.98333,-0.19512 -36.33333,-0.64316 -36.33333,-0.99564 0,-0.35248 3.91629,-10.42916 8.70287,-22.39264 l 8.70287,-21.75176 0.29712,-65.91927 0.29714,-65.919262 10.66666,-0.358147 c 12.51274,-0.420129 18.23339,1.793252 22.97343,8.888657 l 3.02657,4.530511 v 58.453551 58.45356 l 9.39222,23.5126 c 5.16572,12.93194 9.21572,23.5891 9,23.68261 -0.21572,0.0935 -16.74222,0.0107 -36.72555,-0.18477 z m -214.847543,-22.64524 9.083355,-22.33334 0.05084,-58.66666 c 0.04607,-53.15907 0.269693,-59.09587 2.382097,-63.238552 4.081821,-8.004947 8.112841,-9.903664 22.347445,-10.526236 l 12.650478,-0.553289 v 65.890357 65.89036 l 9.225264,22.93534 9.225262,22.93535 H 38.759811 1.7357632 Z m 65.480844,-15.3647 -9.633296,-9.69801 V 150.30197 85.333331 H 132 197.33333 v 65.702429 65.70242 l -9.03347,8.96424 -9.03345,8.96424 H 132.59983 85.933258 Z m 90.595049,-67.17529 c 3.29895,-2.9855 3.17639,-10.38861 -0.22835,-13.79334 -2.51654,-2.51655 -4.44444,-2.66667 -34.2474,-2.66667 -30.5896,0 -31.67757,0.0909 -34.666661,2.89908 -3.827068,3.59535 -4.016163,9.50403 -0.419268,13.10092 C 99.852899,159.8529 101.77777,160 132.22834,160 c 28.11772,0 32.53935,-0.28146 34.66667,-2.20666 z M 166.66666,120 c 1.48148,-1.48148 2.66667,-4.44445 2.66667,-6.66667 0,-2.22222 -1.18519,-5.18518 -2.66667,-6.66667 C 164.15012,104.15011 162.22222,104 132.41926,104 c -30.5896,0 -31.67757,0.091 -34.666661,2.89908 -3.816333,3.58526 -3.970605,8.98184 -0.367328,12.8495 2.650579,2.84506 3.518099,2.91808 34.666669,2.91808 30.17028,0 32.09644,-0.14839 34.61472,-2.66666 z M 66.676737,70.333332 C 66.711962,50.515817 73.862133,33.036235 87.154739,20.272018 129.10576,-20.011425 197.33333,9.5845398 197.33333,68.065626 v 7.934372 H 132 66.666665 l 0.01013,-5.666666 z M 176,63.999998 c 5.60525,-5.605249 1.54649,-15.999999 -6.2474,-15.999999 -4.59511,0 -9.7526,4.836956 -9.7526,9.146484 0,7.923963 10.45234,12.401171 16,6.853515 z M 142.20468,49.988495 c 8.38752,-5.495716 10.95917,-17.856072 5.43541,-26.124652 -11.60256,-17.3679729 -37.57227,-6.355231 -33.69911,14.29048 1.05067,5.600575 8.01703,13.228594 13.05508,14.295048 4.70898,0.996797 11.64419,-0.125374 15.20862,-2.460876 z"
       id="path3993"
       inkscape:connector-curvature="0" />
    <path
       style="fill:#516374;stroke-width:1.33333325"
       d="m 2.6666666,261.59126 c 0,-0.59147 3.737146,-10.04147 8.3047684,-21 l 8.30477,-19.9246 0.695231,-61.33333 c 0.689467,-60.824987 0.719953,-61.367991 3.678037,-65.515014 4.124944,-5.782877 11.675841,-8.484985 23.71084,-8.484985 h 9.973019 v 65.731319 65.73132 l 9.225264,22.93534 9.225262,22.93535 H 39.225263 c -20.107229,0 -36.5585964,-0.48393 -36.5585964,-1.0754 z m 186.6666634,0.42467 c 0,-0.3579 4.2,-11.16507 9.33333,-24.01594 l 9.33333,-23.3652 V 149.82097 85.007146 l 11.83095,0.565645 c 13.15459,0.628928 17.25336,2.434817 21.56105,9.499652 2.47039,4.051535 2.59828,7.125947 2.60302,62.572397 l 0.005,58.31149 6.80425,17.02184 c 3.74234,9.362 7.93358,19.87182 9.31387,23.35516 l 2.50964,6.33333 h -36.64721 c -20.15632,0 -36.64756,-0.29283 -36.64756,-0.65073 z m -113.046349,-37.06036 -9.646277,-9.71108 0.346314,-64.62225 0.346314,-64.622242 64.999998,-0.346017 65,-0.346016 v 65.715115 65.7151 l -9.03347,8.96424 -9.03345,8.96424 H 132.59983 85.933258 Z m 90.637029,-67.28891 c 1.1022,-1.28333 2.39095,-3.42134 2.86388,-4.75113 1.03787,-2.91816 -2.18296,-9.60352 -5.18096,-10.75396 -1.18711,-0.45553 -16.02063,-0.82824 -32.96338,-0.82824 -29.79316,0 -30.90638,0.0952 -33.890951,2.89908 -3.827068,3.59535 -4.016163,9.50403 -0.419268,13.10092 C 99.85395,159.85394 101.77777,160 132.46001,160 c 29.262,0 32.65745,-0.22988 34.464,-2.33334 z m 0.42489,-37.68387 c 3.44056,-3.80178 3.14006,-10.48913 -0.60773,-13.5239 C 163.97981,104.22287 160.82224,104 131.90422,104 c -30.99661,0 -31.86905,0.0738 -34.518949,2.91808 -3.460936,3.71488 -3.484499,9.64936 -0.05194,13.08192 2.520619,2.52062 4.444439,2.66666 35.126679,2.66666 30.83607,0 32.58153,-0.13427 34.88889,-2.68387 z M 67.156948,65.523753 C 68.735953,46.590116 73.768221,34.455922 85.037973,22.407647 105.19321,0.8600691 136.7857,-4.331503 162.98248,9.5990836 183.91818,20.73201 197.33333,43.87092 197.33333,68.848652 v 7.151346 H 131.8083 66.283262 Z M 176.68224,63.982792 C 180.1228,60.181009 179.82229,53.493659 176.0745,50.458889 169.6662,45.26975 160,49.403605 160,57.333332 c 0,8.104817 11.2919,12.605714 16.68224,6.64946 z M 142.46885,49.681929 c 6.09436,-4.550097 8.42004,-8.881566 8.42004,-15.68193 0,-18.85121 -24.00031,-25.8966205 -34.52898,-10.136156 -11.0579,16.552663 10.27034,37.643305 26.10894,25.818086 z"
       id="path3991"
       inkscape:connector-curvature="0" />
    <path
       style="fill:#47596c;stroke-width:1.33333325"
       d="m 2.6666666,261.64323 c 0,-0.56288 3.9012568,-10.53664 8.6694594,-22.16389 l 8.66946,-21.14047 0.33054,-59.50277 c 0.299909,-53.98874 0.548857,-59.902241 2.686443,-63.813533 3.488012,-6.382268 9.178317,-8.751652 22.644097,-9.428769 l 11.666666,-0.586652 0.04876,66.496424 0.04876,66.49642 9.083354,22.33334 9.083355,22.33333 H 39.13211 c -20.05599,0 -36.4654434,-0.46055 -36.4654434,-1.02343 z M 190.0793,259.75011 c 0.50912,-1.6041 4.74956,-12.1993 9.42319,-23.54488 l 8.4975,-20.62833 V 150.27018 84.96345 l 11.88306,0.677541 c 9.52705,0.543208 12.7292,1.280056 16.15085,3.716483 7.90159,5.626426 7.96609,6.190554 7.96609,69.664346 v 57.77415 l 9.22527,22.93534 9.22527,22.93535 h -36.64846 -36.64845 z m -113.141205,-34.14326 -8.990385,-9.0598 -1.82e-4,-65.27353 -1.83e-4,-65.273522 64.692995,-0.346017 64.69299,-0.346016 v 65.046045 65.04606 l -9.69803,9.6333 -9.69801,9.63329 H 131.93288 85.928479 Z m 89.916385,-67.86611 c 3.59002,-3.59325 3.8225,-10.04605 0.49442,-13.72353 -2.30736,-2.54961 -4.05282,-2.68388 -34.88889,-2.68388 -30.68224,0 -32.60606,0.14605 -35.126679,2.66667 -4.593801,4.5938 -2.867813,13.55398 3.087159,16.02649 1.60206,0.66519 16.54736,1.08133 33.21177,0.9248 29.22552,-0.27455 30.4025,-0.38828 33.22222,-3.21055 z m 6e-5,-37.33334 c 3.58996,-3.59326 3.8224,-10.04608 0.49436,-13.72353 C 165.04154,104.13427 163.29608,104 132.46001,104 c -30.68224,0 -32.60606,0.14605 -35.126679,2.66666 -1.466667,1.46667 -2.666667,4.1176 -2.666667,5.89095 0,10.51218 3.465178,11.48215 39.632336,11.09386 28.51601,-0.30615 29.74245,-0.42837 32.55554,-3.24407 z M 67.902442,74.999998 c -0.05365,-0.55 -0.01013,-5.498056 0.09667,-10.995678 0.680884,-35.041671 28.802867,-61.8476199 64.667548,-61.6412861 18.59122,0.1069574 32.52979,5.8810398 45.49526,18.8465011 11.94792,11.94792 19.08866,29.769874 19.14826,47.790463 l 0.0231,7 h -64.66667 c -35.566659,0 -64.710559,-0.45 -64.764215,-1 z M 176.68224,63.982792 c 5.5659,-6.150253 1.32789,-15.982793 -6.8889,-15.982793 -5.6078,0 -9.79334,3.988948 -9.79334,9.333333 0,8.27227 11.18053,12.728776 16.68224,6.64946 z m -35.33535,-13.64946 c 6.95237,-4.731745 9.76421,-9.435325 9.76421,-16.333333 0,-6.898008 -2.81184,-11.601588 -9.76421,-16.333333 -7.95165,-5.411844 -19.07456,-2.653181 -24.98698,6.197177 -10.72395,16.05278 9.23171,37.192434 24.98698,26.469489 z"
       id="path3989"
       inkscape:connector-curvature="0" />
    <path
       style="fill:#33485d;stroke-width:1.33333325"
       d="m 2.6666666,262.01593 c 0,-0.3579 4.1999999,-11.16507 9.3333334,-24.01594 l 9.333333,-23.3652 v -58.11167 c 0,-51.40155 0.251806,-58.537952 2.180721,-61.803345 3.772396,-6.386156 8.262465,-8.053111 21.691668,-8.053111 h 12.12761 v 65.344016 65.34401 l 8.666666,21.61581 c 4.766667,11.88869 8.666667,22.08388 8.666667,22.65599 0,0.57209 -16.2,1.04017 -35.999999,1.04017 -19.8,0 -35.9999994,-0.29283 -35.9999994,-0.65073 z m 186.6666634,0.25274 c 0,-0.21889 4.2,-10.8398 9.33333,-23.60201 l 9.33333,-23.20403 V 151.06465 86.666664 l 11.66667,0.0049 c 9.34883,0.004 12.54352,0.539588 16.08024,2.695862 8.15648,4.972927 8.25309,5.788271 8.25309,69.654364 v 57.77415 l 9.22527,22.93534 9.22527,22.93535 h -36.5586 c -20.10723,0 -36.5586,-0.17909 -36.5586,-0.39799 z M 76.633294,224.99999 67.333332,215.33333 67.67947,151 68.025609,86.666664 h 64.653861 64.65386 v 64.366706 64.3667 l -9.69803,9.6333 -9.69801,9.63329 H 131.93527 85.933258 Z m 90.135926,-67.5641 c 4.60768,-4.60768 4.89587,-7.80699 1.134,-12.58941 l -2.76344,-3.51315 h -32.56989 c -30.79212,0 -32.715448,0.14556 -35.236559,2.66667 -5.021017,5.02101 -2.862508,13.86412 3.999999,16.38741 1.1,0.40447 15.39615,0.78276 31.76923,0.84065 l 29.76924,0.10534 3.89742,-3.89744 z m 0.68183,-37.84358 c 3.93995,-4.5837 4.04935,-7.5061 0.45217,-12.07917 L 165.13978,104 h -32.56989 c -30.79212,0 -32.715448,0.14555 -35.236559,2.66666 -5.020668,5.02067 -2.890313,13.76729 3.999999,16.42284 1.1,0.42395 15.70298,0.65224 32.45105,0.50732 l 30.45106,-0.26349 z M 68.279329,62.7952 C 68.843188,51.085557 69.464008,48.434736 73.762235,39.38389 81.825925,22.404051 97.920302,8.8683562 115.75703,4.0654243 c 8.97705,-2.4172678 26.38506,-1.9030605 35.90749,1.0606554 15.57489,4.8474514 31.05328,17.8365173 38.30278,32.1427233 4.17015,8.229401 7.31003,21.797916 7.34288,31.731195 l 0.0231,7 H 132.4884 67.643473 Z M 177,63.151229 c 3.54724,-3.901881 3.77529,-6.784333 0.86545,-10.938713 -6.96025,-9.937141 -21.06984,-2.527043 -17.03485,8.946388 1.42585,4.054362 6.7164,7.095636 10.50273,6.037493 C 172.8,66.786518 175.35,64.966192 177,63.151229 Z M 141.3209,50.859551 C 146.19682,48.244563 152,39.082847 152,33.999999 c 0,-5.082848 -5.80318,-14.244563 -10.6791,-16.859551 -12.63628,-6.776909 -27.9776,2.46791 -27.9776,16.859551 0,14.391641 15.34132,23.63646 27.9776,16.859552 z"
       id="path3987"
       inkscape:connector-curvature="0" />
  </g>
</svg>
