<?xml version="1.0" encoding="UTF-8" standalone="no"?>
<svg
   xmlns:dc="http://purl.org/dc/elements/1.1/"
   xmlns:cc="http://creativecommons.org/ns#"
   xmlns:rdf="http://www.w3.org/1999/02/22-rdf-syntax-ns#"
   xmlns:svg="http://www.w3.org/2000/svg"
   xmlns="http://www.w3.org/2000/svg"
   viewBox="0 0 64 64"
   height="64"
   width="64"
   id="svg10"
   version="1.1">
  <metadata
     id="metadata16">
    <rdf:RDF>
      <cc:Work
         rdf:about="">
        <dc:format>image/svg+xml</dc:format>
        <dc:type
           rdf:resource="http://purl.org/dc/dcmitype/StillImage" />
        <dc:title></dc:title>
      </cc:Work>
    </rdf:RDF>
  </metadata>
  <defs
     id="defs14" />
  <g
     id="g20">
    <path
       id="path36"
       d="M 0,32 V 0 H 32 64 V 32 64 H 32 0 Z"
       style="fill:#fefefe;stroke-width:0.31999999" />
    <path
       id="path34"
       d="M 25.496618,63.497562 C 12.621389,60.628189 3.0616137,50.91575 0.45613888,38.057203 -0.34338173,34.111408 -0.05012658,27.046632 1.0680528,23.315658 2.2121667,19.49815 3.232321,17.303663 5.3247517,14.158933 7.6057696,10.730775 10.730775,7.6057696 14.158933,5.3247517 17.270154,3.254617 19.443,2.238638 23.315658,1.0432532 25.887978,0.24924774 26.491227,0.18997561 32,0.18997561 c 5.508771,0 6.112022,0.0592721 8.684342,0.85327759 5.696231,1.7582731 10.080029,4.3473257 14.002554,8.2698502 3.922525,3.9225246 6.511578,8.3063226 8.26985,14.0025546 0.794006,2.57232 0.85328,3.175569 0.85328,8.684342 0,5.508771 -0.05927,6.112022 -0.85328,8.684342 -1.758272,5.696231 -4.347325,10.080029 -8.26985,14.002554 -3.942445,3.942448 -8.379942,6.556432 -14.002554,8.248448 -2.371401,0.713629 -3.492131,0.847293 -7.884342,0.940342 -3.751236,0.07947 -5.703698,-0.02163 -7.303382,-0.378124 z"
       style="fill:#f1f1f2;stroke-width:0.31999999" />
    <path
       id="path32"
       d="M 27.36,63.789558 C 14.661706,61.771581 4.2849139,52.439811 0.90635574,40 0.2723965,37.66577 0.16865093,36.531152 0.17486238,32 0.18101161,27.514237 0.29247996,26.310848 0.91589162,24 3.4008947,14.788649 9.5532995,7.3282688 18.08,3.1868731 23.112459,0.74262109 25.69642,0.18350353 32,0.17486238 36.531152,0.16865093 37.66577,0.2723965 40,0.90635574 51.252509,3.9624515 60.053821,12.7674 63.084109,24 c 0.625507,2.318618 0.733792,3.499154 0.733792,8 0,4.500845 -0.108285,5.681382 -0.733792,8 C 60.050397,51.24529 51.134666,60.152054 40,63.060896 c -2.054566,0.536736 -3.81601,0.73145 -7.2,0.795901 -2.464,0.04693 -4.912,0.01667 -5.44,-0.06724 z m 12.16,-3.592947 c 1.408,-0.368653 3.887878,-1.323923 5.510838,-2.122822 C 52.613555,54.341206 57.808758,48.043808 60.204435,39.681018 61.16376,36.332227 61.109363,36.16 59.092314,36.16 h -1.707687 l -1.381331,2.8 c -1.716931,3.480282 -4.539418,6.402602 -7.8728,8.151264 C 44.136403,49.206534 43.192554,49.35096 32.4,49.518336 l -9.68,0.150122 V 46.130394 42.59233 L 15.072926,42.49617 C 5.851327,42.380198 6.08,42.470854 6.08,38.931027 6.08,37.061542 6.1976122,36.556058 6.7757805,35.940624 7.465313,35.20665 7.5400243,35.2 15.09578,35.2 H 22.72 V 32.16 29.12 H 15.504109 C 6.1117722,29.12 6.08,29.105948 6.08,24.951973 6.08,21.685709 5.8698051,21.76 15.111202,21.76 H 22.72 v -3.52 -3.52 l 9.2,0.0056 c 10.776272,0.0065 12.264189,0.223513 16.653834,2.42887 3.607097,1.812204 5.558976,3.823162 7.498617,7.725574 l 1.312176,2.64 h 1.707687 C 60.690912,27.52 60.8,27.46995 60.8,26.736519 60.8,24.179219 57.874685,17.550996 55.238998,14.136315 52.279792,10.302499 48.877622,7.5689635 44.403011,5.4299478 40.04209,3.34528 37.388314,2.7778258 32,2.7778258 c -5.388314,0 -8.042091,0.5674542 -12.403011,2.652122 C 16.322351,6.995336 14.459125,8.2562675 12.04148,10.543113 6.7858128,15.514435 3.638832,21.856245 2.9145483,28.935748 1.3941537,43.796829 11.23835,57.312106 25.92,60.520358 c 3.627512,0.792685 9.906883,0.643207 13.6,-0.323747 z m 5.492624,-18.923053 c 2.286579,-1.120566 3.70472,-2.603849 4.875021,-5.098956 1.099277,-2.343687 1.155462,-6.109751 0.125177,-8.390816 C 49.061936,25.678505 46.96233,23.526203 44.845283,22.48655 43.300045,21.727705 42.648192,21.60045 40.32,21.603126 c -3.221974,0.0037 -4.918438,0.647969 -7.169194,2.722644 -4.076662,3.757735 -4.382884,10.271942 -0.688227,14.640505 2.910922,3.441875 8.236832,4.421027 12.550045,2.307283 z m -8.188208,-4.816857 c 0.700061,-1.796362 1.232957,-3.303261 1.184211,-3.348669 -0.04874,-0.04541 -0.946857,0.184483 -1.995805,0.510861 -1.048947,0.326381 -1.938598,0.561997 -1.977004,0.52359 -0.03841,-0.0384 2.038787,-2.329211 4.615987,-5.09068 2.577197,-2.761469 4.732185,-4.974478 4.788867,-4.917797 0.05668,0.05668 -0.454397,1.540553 -1.135725,3.297495 l -1.238781,3.194441 2.056311,-0.616908 c 1.130973,-0.3393 2.106646,-0.566577 2.168163,-0.50506 0.135248,0.135247 -9.063651,9.973287 -9.460141,10.117431 -0.153408,0.05577 0.293853,-1.368346 0.993917,-3.164704 z M 11.254803,40.430403 C 12.09553,39.669555 12.025396,37.926147 11.128798,37.298144 9.630409,36.248634 7.68,37.174218 7.68,38.934803 c 0,1.782093 2.2281616,2.714295 3.574803,1.4956 z M 11.128798,26.701855 c 0.862924,-0.604416 0.9582,-2.218531 0.181606,-3.076658 C 10.65052,22.896034 9.041929,22.866663 8.2651971,23.569596 7.0183699,24.697959 7.9995027,27.2 9.6887981,27.2 c 0.4008389,0 1.0488389,-0.224165 1.4399999,-0.498145 z"
       style="fill:#aecce0;stroke-width:0.31999999" />
    <path
       id="path30"
       d="M 26.703873,63.554022 C 15.690475,61.44777 6.9399235,54.626003 2.6993414,44.840531 0.771292,40.391408 0.17743479,37.304323 0.19844999,31.84 0.21440681,27.690944 0.33260342,26.606037 1.0700206,23.84 4.9544883,9.269439 18.480666,-0.64963264 33.44,0.10231437 47.602611,0.81421328 59.289507,10.250142 62.956131,23.933463 63.683296,26.647138 63.78857,27.667256 63.78857,32 c 0,4.332742 -0.105274,5.352861 -0.832439,8.066538 -3.019536,11.268473 -11.737286,19.975321 -22.889593,22.860969 -3.847015,0.995411 -9.939988,1.281082 -13.362665,0.626515 z M 40,60.178288 C 49.411328,57.457994 56.906954,50.245578 59.806646,41.12 c 0.503322,-1.584 1.011258,-3.42 1.128743,-4.08 l 0.213613,-1.2 h -1.964461 c -1.768691,0 -1.983021,0.07175 -2.150723,0.72 -0.351376,1.358234 -2.287008,4.759162 -3.603821,6.331949 -1.631533,1.948685 -5.336765,4.462531 -8.035427,5.451699 -1.943988,0.71255 -2.494042,0.75089 -12.35457,0.86112 l -10.32,0.11537 V 45.780067 42.24 H 14.985197 C 5.7228307,42.24 6.08,42.375821 6.08,38.853629 6.08,36.720685 6.1503722,36.471098 6.9231549,35.863226 7.7215104,35.235238 8.1635744,35.2 15.243155,35.2 H 22.72 V 32 28.8 H 15.09578 C 7.4939885,28.8 7.4694704,28.797775 6.7608832,28.043518 6.137057,27.379485 6.0618026,26.9992 6.1451027,24.931776 6.2756333,21.692133 6.0493936,21.77057 15.28,21.764717 L 22.72,21.76 v -3.547439 -3.547439 l 10,0.13961 c 11.067405,0.154513 11.686566,0.246075 15.822995,2.339925 1.266647,0.641174 2.983274,1.833924 3.814723,2.650557 1.806599,1.774401 3.82904,4.805811 4.336698,6.50022 L 57.061306,27.52 h 2.035443 2.035443 L 60.941728,26.64 C 58.317238,14.514156 49.539562,5.5610701 37.925677,3.164002 22.335334,-0.05379382 7.1850566,9.7142858 3.3075462,25.4839 2.4918764,28.801182 2.5645756,35.201318 3.4589904,38.816432 6.1827664,49.82559 14.679898,58.031974 26.08,60.663411 29.036794,61.345917 36.909632,61.071539 40,60.178288 Z m 4.606051,-18.530301 c 2.028234,-0.897187 4.19512,-3.020672 5.227399,-5.122704 0.770416,-1.568797 0.886163,-2.182557 0.883603,-4.685283 -0.0026,-2.525279 -0.11232,-3.088274 -0.89096,-4.570993 -1.093466,-2.082221 -2.948778,-3.922682 -4.950503,-4.910873 -1.264636,-0.624314 -2.018956,-0.74877 -4.55559,-0.751631 -2.674557,-0.003 -3.232339,0.09834 -4.64,0.843159 -2.162736,1.14434 -3.916992,2.950767 -4.923904,5.070338 -1.11679,2.350866 -1.185054,6.411171 -0.145921,8.679168 1.301035,2.839619 3.919479,5.124253 6.814004,5.945325 1.911149,0.542121 5.375277,0.302633 7.181872,-0.496506 z M 36.00529,38.88 c 0.119001,-0.352 0.650249,-1.764246 1.180547,-3.138323 0.530301,-1.37408 0.900915,-2.561591 0.823593,-2.638915 -0.07732,-0.07732 -0.899283,0.08472 -1.826572,0.360096 -0.927293,0.275376 -1.733623,0.453043 -1.791847,0.394819 -0.05823,-0.05822 1.963175,-2.264022 4.492,-4.90177 L 43.480877,24.16 l -1.227939,3.2 c -0.675367,1.76 -1.200381,3.230181 -1.166704,3.267068 0.03368,0.03689 0.976403,-0.217763 2.094944,-0.565892 1.118537,-0.348128 2.071638,-0.594308 2.118006,-0.547068 0.04637,0.04724 -2.07448,2.317892 -4.712982,5.045892 -2.638506,2.728 -4.699917,4.672 -4.580912,4.32 z m -25.356095,2.106922 c 0.423972,-0.161197 0.958616,-0.746368 1.188096,-1.300381 0.370825,-0.895251 0.346167,-1.102925 -0.221665,-1.866922 -0.791316,-1.064685 -2.4354423,-1.318073 -3.3255588,-0.512531 -0.9201504,0.832726 -0.8031104,2.494614 0.2330877,3.309686 0.9586541,0.754077 1.0667318,0.772893 2.1260401,0.370148 z m 0.956737,-14.793759 c 1.595144,-2.14584 -1.53661,-4.53677 -3.4440376,-2.629343 -0.6452288,0.645229 -0.6114515,2.322627 0.061749,3.066506 0.7957018,0.87924 2.5746396,0.649311 3.3822886,-0.437163 z"
       style="fill:#8ab8d5;stroke-width:0.31999999" />
    <path
       id="path28"
       d="M 27.36,63.647904 C 20.940658,62.731635 14.144207,59.293171 9.4255184,54.574483 5.434016,50.582979 2.3624893,45.144723 0.92274749,39.52 c -1.05493992,-4.121395 -1.05493992,-10.918604 0,-15.04 C 2.3624893,18.855276 5.434016,13.41702 9.4255184,9.4255184 13.41702,5.434016 18.855276,2.3624893 24.48,0.92274749 c 4.121396,-1.05493992 10.918605,-1.05493992 15.04,0 C 48.779632,3.2929043 56.322285,9.329272 60.558746,17.76 65.14328,26.883415 65.046698,37.480125 60.29479,46.72 54.153763,58.66096 40.736483,65.557206 27.36,63.647904 Z m 9.92,-2.879184 c 5.716358,-0.95911 10.640179,-3.464115 14.99568,-7.629088 2.757594,-2.636963 4.66745,-5.291139 6.267219,-8.709706 C 59.651155,42.061677 61.12,37.404992 61.12,36.259731 61.12,35.959894 60.569606,35.84 59.193139,35.84 c -1.801811,0 -1.950118,0.05711 -2.285261,0.88 -2.110355,5.181661 -4.8464,8.286755 -9.291132,10.544365 C 44.081344,49.060099 42.379427,49.28 32.016829,49.28 H 22.72 V 45.76 42.24 H 15.111202 C 5.8734221,42.24 6.08,42.3128 6.08,39.057306 c 0,-1.675101 0.1429402,-2.363072 0.611232,-2.941856 0.6075203,-0.750861 0.6580422,-0.756032 8.32,-0.851616 L 22.72,35.16767 V 31.983835 28.8 H 15.063226 7.4064512 L 6.7304067,27.940548 C 6.1615718,27.217392 6.0690816,26.723919 6.1471808,24.828806 6.2757645,21.708675 6.0913594,21.770543 15.28,21.764717 L 22.72,21.76 v -3.52 -3.52 h 8.296845 c 4.563264,0 9.414342,0.15543 10.780176,0.345399 6.584889,0.915874 11.727923,4.549172 14.241363,10.060813 L 57.12,27.49805 l 2.014499,0.01098 2.014503,0.01098 -0.217943,-1.2 C 60.81119,25.66 60.311706,23.92958 59.821091,22.474623 56.405818,12.346317 47.569341,4.7716986 36.981229,2.8963137 c -2.438007,-0.4318243 -7.52445,-0.4318243 -9.962458,0 C 15.697876,4.9014906 6.4723088,13.420768 3.4724285,24.64 c -1.017598,3.805707 -1.0168877,10.795846 0.00147,14.56 0.7722656,2.854496 2.6905718,7.077267 4.2343405,9.321056 2.753148,4.001565 7.870878,8.257398 12.268297,10.202144 5.329221,2.356835 11.2655,3.058589 17.303455,2.04552 z M 44.64,41.636592 C 46.63672,40.754029 48.752755,38.73065 49.865402,36.64 50.614922,35.231664 50.717107,34.67584 50.718461,32 50.720381,28.44424 50.042042,26.665199 47.848422,24.471579 45.655821,22.278979 43.875741,21.6 40.32,21.6 c -3.552611,0 -5.336755,0.679376 -7.51929,2.863233 -3.864985,3.867331 -4.048023,10.509625 -0.398704,14.468671 2.436871,2.64369 4.916324,3.682285 8.397994,3.517754 1.415018,-0.06687 2.829274,-0.366317 3.84,-0.813066 z m -7.986413,-4.313878 c 0.444941,-1.208509 1.012557,-2.684509 1.26137,-3.28 C 38.448662,32.765376 38.257837,32.69984 36.16,33.44 c -0.748256,0.264 -1.499786,0.48 -1.67007,0.48 -0.170282,0 1.670182,-2.08964 4.089923,-4.643644 2.419737,-2.554005 4.448941,-4.594228 4.509337,-4.533831 0.0604,0.0604 -0.390857,1.385141 -1.00279,2.943875 -0.611933,1.558734 -1.065059,2.881609 -1.006944,2.939723 0.05812,0.05811 0.991011,-0.16989 2.073104,-0.506676 1.082093,-0.336785 1.96159,-0.519436 1.954445,-0.405891 C 45.099869,29.8271 43.01289,32.08 40.469306,34.72 l -4.624704,4.8 z m -25.279041,3.17183 c 0.868908,-0.868906 0.968493,-1.468874 0.417549,-2.515581 -0.495961,-0.942249 -0.893029,-1.168278 -2.0624988,-1.174064 -1.6660474,-0.0083 -2.6714432,1.683175 -1.8940644,3.186461 0.7781949,1.504864 2.3183532,1.723846 3.5390142,0.503184 z m -0.03788,-13.796921 c 1.743524,-1.743523 3.1e-5,-4.571956 -2.3570767,-3.823839 -0.8323498,0.264177 -1.6840151,1.851781 -1.4086807,2.625946 0.5842477,1.642744 2.6604604,2.303191 3.7657574,1.197893 z"
       style="fill:#70a8cd;stroke-width:0.31999999" />
    <path
       id="path26"
       d="M 27.919899,63.680445 C 14.816814,61.835104 4.4435523,52.621773 1.0780134,39.84 0.35376653,37.089427 0.23542879,35.98833 0.23542879,32 c 0,-3.970533 0.12048923,-5.101701 0.83509751,-7.84 C 3.42456,15.139607 9.5339152,7.5743107 17.76,3.4932016 22.639842,1.0722237 26.297543,0.23542879 32,0.23542879 c 3.98833,0 5.089427,0.11833774 7.84,0.84258461 11.530608,3.0360983 20.039462,11.5714026 23.104304,23.1761266 0.699843,2.649891 0.820269,3.787055 0.820269,7.74586 0,3.948621 -0.121175,5.09864 -0.813213,7.718042 -3.075546,11.641107 -11.70849,20.277404 -23.177824,23.186841 -3.417741,0.866983 -8.734454,1.214845 -11.853637,0.775562 z M 39.485302,60.336826 C 47.111811,58.402202 53.892963,53.18464 57.742301,46.289498 58.920954,44.178234 60.603498,39.423677 60.958893,37.2 l 0.217363,-1.36 h -2.108128 c -1.497984,0 -2.108128,0.118384 -2.108128,0.409027 0,0.224967 -0.508163,1.469389 -1.129251,2.765383 -1.396714,2.914451 -4.812211,6.432844 -7.730285,7.963174 C 44.24009,49.002086 42.290506,49.28 31.948812,49.28 H 22.72 v -3.52 -3.52 h -7.68 c -9.1598909,0 -8.96,0.07496 -8.96,-3.36 0,-3.43496 -0.1998909,-3.36 8.96,-3.36 h 7.68 V 32.16 28.8 H 15.185454 7.6509091 L 6.8654544,28.014546 c -0.6690243,-0.669025 -0.784728,-1.084077 -0.7805542,-2.8 C 6.0875882,24.106546 6.2261392,22.984 6.3927754,22.72 6.644136,22.321773 8.0470669,22.212742 14.627876,22.08 L 22.56,21.92 l 0.09083,-3.44 0.09083,-3.44 9.669174,0.0047 c 11.075177,0.0054 12.294329,0.179082 16.329635,2.326102 3.276729,1.743412 5.537037,4.15275 7.286285,7.766691 L 57.334819,27.84 h 1.742634 c 1.215667,0 1.795718,-0.138337 1.918182,-0.45747 0.258471,-0.673565 -1.01888,-5.048488 -2.255427,-7.72483 C 55.905949,13.523314 51.163562,8.6352592 45.083808,5.5818234 40.338362,3.1985165 38.150659,2.72 32,2.72 27.431679,2.72 26.374944,2.8198239 24.16,3.4606013 6.9887734,8.4281914 -1.9153676,26.925628 4.9018784,43.467366 c 2.1453101,5.205498 7.3551566,11.03416 12.4390726,13.91656 3.00107,1.701501 7.556052,3.276858 10.751738,3.718528 3.09854,0.428244 7.979253,0.10024 11.392613,-0.765628 z m 5.56569,-18.853162 c 2.06815,-1.058646 3.945139,-2.941696 4.926058,-4.941965 1.069286,-2.180461 1.195756,-5.98884 0.279907,-8.428769 -1.767837,-4.709725 -6.927059,-7.617298 -11.811181,-6.656406 -5.269875,1.036785 -8.686113,5.216619 -8.685524,10.62691 3.04e-4,2.783254 1.102957,5.430121 3.077722,7.38792 2.332199,2.312163 4.457872,3.10623 7.962026,2.974288 2.026531,-0.0763 2.912381,-0.276768 4.250992,-0.961978 z M 36.484669,37.76 C 36.834102,36.88 37.408,35.434669 37.76,34.548154 c 0.352,-0.886516 0.64,-1.665316 0.64,-1.730666 0,-0.06535 -0.864419,0.142909 -1.920928,0.462794 -1.219821,0.369331 -1.839811,0.44622 -1.698675,0.210665 0.357741,-0.597078 8.208669,-8.848549 8.316461,-8.740757 0.05393,0.05393 -0.412295,1.363706 -1.036058,2.91061 -0.623763,1.546904 -1.063946,2.88272 -0.978186,2.96848 0.08576,0.08576 0.894583,-0.08942 1.797386,-0.38928 0.902803,-0.299863 1.716662,-0.470005 1.808573,-0.378094 0.144259,0.144258 -8.45984,9.498094 -8.736794,9.498094 -0.05634,0 0.183459,-0.72 0.53289,-1.6 z m -25.110123,2.734544 c 1.296918,-1.296918 0.93379,-2.970358 -0.800428,-3.688698 -0.8201871,-0.339731 -1.0926866,-0.321763 -1.7609708,0.116112 -1.599817,1.04824 -1.7840608,2.905834 -0.3853808,3.885508 0.9878899,0.691945 2.0552586,0.578601 2.9467796,-0.312922 z M 10.857113,27.051835 c 1.527354,-0.789825 1.749747,-2.314066 0.517433,-3.546381 -1.370196,-1.370195 -3.414555,-0.733443 -3.87357,1.206492 -0.1653802,0.698946 -0.014246,1.064015 0.7617395,1.84 1.1027296,1.10273 1.3401639,1.148479 2.5943975,0.499889 z"
       style="fill:#4f96c4;stroke-width:0.31999999" />
    <path
       id="path24"
       d="M 28.392619,63.65192 C 15.878282,62.328986 4.6744586,52.811696 1.3011045,40.638541 -1.8404156,29.301984 1.3965696,17.400964 9.8449056,9.2266112 15.363838,3.8866608 21.174811,1.1590564 28.825898,0.31715031 38.121526,-0.70571702 47.248576,2.5065464 54.189725,9.2439456 c 12.854397,12.4770704 12.854397,33.0350404 0,45.5121084 -5.399623,5.241124 -11.643338,8.139421 -19.261895,8.941264 -3.073855,0.32352 -3.043418,0.323732 -6.535211,-0.0454 z m 7.664226,-2.55089 C 47.731082,59.520147 57.600717,50.777891 60.497309,39.45232 61.441357,35.761126 61.472243,35.84 59.082877,35.84 h -2.037123 l -0.703101,1.92832 c -1.459491,4.00279 -5.53064,8.120963 -9.774989,9.887888 -3.341837,1.39121 -5.464307,1.618694 -15.127664,1.621376 L 22.72,49.28 v -3.52 -3.52 h -7.381037 c -9.203763,0 -9.2455636,-0.01526 -9.2540628,-3.379661 -0.00382,-1.514201 0.138216,-2.093277 0.6475654,-2.64 C 7.3686035,35.537526 7.5768093,35.52 15.052466,35.52 H 22.72 V 32.16 28.8 H 15.185454 7.6509091 L 6.8654544,28.014546 C 6.199976,27.349067 6.08,26.925224 6.08,25.239742 6.08,21.975914 5.7884832,22.08 14.929596,22.08 H 22.72 v -3.539823 -3.539822 l 10.48,0.112709 c 9.906691,0.106543 10.585034,0.151797 12.4,0.82725 2.165789,0.806013 5.301018,2.619963 6.683402,3.866816 1.266432,1.142267 3.78751,5.02852 4.331632,6.677226 L 57.062438,27.84 h 2.065114 2.065117 l -0.21784,-1.45266 C 60.663978,24.314432 59.633302,21.309382 58.36047,18.764871 54.350755,10.749078 46.787043,4.9005498 37.925286,2.963668 35.008218,2.3260953 28.991782,2.3260953 26.074715,2.963668 16.456864,5.0658064 8.2572595,11.926715 4.6920403,20.855331 3.012145,25.062405 2.7244165,26.690949 2.7230181,32 c -0.00111,4.199216 0.109367,5.342282 0.7202382,7.45232 C 7.674969,54.069274 21.28231,63.101747 36.056845,61.10103 Z M 44.96,41.613501 c 2.241981,-1.097437 4.439091,-3.453536 5.305859,-5.689808 2.075671,-5.355257 -0.346864,-11.341496 -5.546665,-13.706177 -2.760788,-1.255504 -5.995402,-1.286709 -8.597597,-0.08294 -8.911364,4.12236 -8.538241,16.482382 0.602435,19.956244 1.933174,0.734691 6.273853,0.483126 8.235968,-0.477315 z m -7.837514,-5.299613 c 0.70809,-1.740266 1.249204,-3.264189 1.202477,-3.386499 -0.04673,-0.122311 -0.914659,0.03593 -1.928733,0.351651 l -1.843766,0.574032 1.018451,-1.166534 C 36.131062,32.044941 38.087325,29.936 39.918163,28 l 3.328797,-3.52 -0.630662,1.6 c -0.346864,0.88 -0.879456,2.217974 -1.183536,2.973276 -0.304084,0.755302 -0.477386,1.448766 -0.38512,1.541032 0.155734,0.155736 2.129443,-0.285029 3.372374,-0.753111 0.657789,-0.247722 -0.514211,1.121436 -5.117011,5.977805 l -3.467952,3.659001 z m -25.625712,4.122957 c 0.889079,-1.130282 0.835722,-2.21344 -0.157986,-3.207149 C 10.67638,36.56729 10.320565,36.446525 9.4987878,36.605206 7.4426621,37.00223 6.7225802,39.07167 8.1454544,40.494544 9.214328,41.563418 10.629781,41.53905 11.496774,40.436845 Z M 11.374546,26.734546 c 0.976627,-0.976628 1.012641,-2.291468 0.08967,-3.273922 -0.922358,-0.981804 -2.3108872,-0.963048 -3.3187656,0.04483 -1.5982141,1.598215 -0.516407,3.910045 1.8690916,3.994262 0.316,0.01116 0.928,-0.33317 1.36,-0.76517 z"
       style="fill:#3285bb;stroke-width:0.31999999" />
    <path
       id="path22"
       d="M 28.96,63.638976 C 14.025347,62.354566 1.5761911,49.864166 0.3764871,34.960765 -0.70093808,21.576381 6.0383651,9.4253699 17.802716,3.5411501 29.583095,-2.3510859 44.056934,-0.23201332 53.722083,8.8 66.487178,20.728887 67.151862,40.932406 55.2,53.722083 50.168022,59.1068 42.382986,63.028944 35.71865,63.536896 34.465392,63.632416 33.08,63.750192 32.64,63.798618 32.2,63.847043 30.544,63.775194 28.96,63.638976 Z M 39.301725,60.494784 C 47.528522,58.468845 54.471251,52.934413 58.274944,45.370189 59.540195,42.854045 61.12,37.986461 61.12,36.604202 61.12,35.878653 61.016995,35.84 59.083475,35.84 H 57.04695 l -0.569619,1.52 C 54.901936,41.563866 51.786544,44.966419 47.64247,47.009219 43.543606,49.029731 41.855981,49.268026 31.6,49.274445 L 22.72,49.28 V 45.76 42.24 H 15.185454 7.6509091 L 6.8654544,41.454544 C 5.8100262,40.399117 5.7436422,37.63392 6.7432256,36.363155 L 7.4064512,35.52 H 15.063226 22.72 l 2.79e-4,-3.44 2.79e-4,-3.44 -7.278747,0.09208 C 7.690608,28.830134 7.0844483,28.73441 6.4353462,27.309786 5.917328,26.17286 5.9980224,23.619444 6.5781453,22.791202 7.0698118,22.08925 7.1780198,22.08 14.898145,22.08 H 22.72 v -3.540068 -3.540068 l 10.32,0.100068 c 10.186445,0.09877 10.349309,0.110792 12.58463,0.928745 5.068276,1.854593 8.522285,5.027167 10.556333,9.696191 L 57.102416,27.84 h 2.00879 c 2.376631,0 2.396256,-0.05466 1.3609,-3.790869 C 58.175773,15.762537 52.269238,8.8089882 44.390563,5.1169171 40.321069,3.2098874 36.811123,2.4561596 32,2.4561596 c -8.526831,0 -15.469333,3.0046046 -21.476702,9.2947754 C 5.2572653,17.26487 2.56,24.055176 2.56,31.798359 c 0,14.545494 9.892869,26.432022 24.271737,29.163097 3.23935,0.61527 8.943325,0.401808 12.469988,-0.466672 z M 42.72,42.391565 c 3.012701,-0.483229 5.958957,-2.928826 7.461014,-6.193162 1.030468,-2.239449 1.136852,-5.432675 0.265264,-7.962096 C 49.67503,25.998079 47.218582,23.33198 44.860829,22.174156 43.290966,21.403242 42.665101,21.281743 40.32,21.292644 c -3.469622,0.01613 -5.624627,0.96924 -7.953904,3.517842 -5.643103,6.174453 -2.144949,16.374292 6.070592,17.7005 0.947821,0.153004 2.011312,0.234921 2.363312,0.182038 0.352,-0.05288 1.216,-0.188538 1.92,-0.301459 z m -6.485811,-3.700669 c 1.567763,-3.890019 2.239219,-5.764154 2.111062,-5.89231 -0.08619,-0.0862 -0.836944,0.07506 -1.668329,0.358336 -0.831383,0.283283 -1.571674,0.454992 -1.645088,0.38158 -0.07341,-0.07341 1.661827,-1.997609 3.856089,-4.27599 L 42.877491,25.12 42.202915,26.88 c -1.187033,3.097024 -1.320985,3.548595 -1.114045,3.755538 0.111578,0.111577 0.948442,-0.03556 1.859703,-0.326966 0.911257,-0.291409 1.690448,-0.496218 1.731536,-0.455131 0.04109,0.04109 -1.883325,2.147775 -4.276471,4.681529 -2.393145,2.533753 -4.269398,4.40392 -4.169449,4.155926 z M 11.52,40.64 C 12.472851,39.687149 12.373336,37.974262 11.316845,37.143226 10.198363,36.263427 9.1053558,36.305552 8.1454544,37.265456 7.1855533,38.225357 7.1434275,39.318362 8.0232256,40.436845 8.8542618,41.493338 10.567149,41.592851 11.52,40.64 Z M 11.316845,26.856774 C 12.373336,26.025738 12.472851,24.312851 11.52,23.36 10.567149,22.407149 8.8542618,22.506664 8.0232256,23.563155 c -0.8797981,1.118482 -0.8376723,2.211489 0.1222288,3.171391 0.9599014,0.959901 2.0529086,1.002026 3.1713906,0.122228 z"
       style="fill:#287fb8;stroke-width:0.31999999" />
  </g>
</svg>
