<?xml version="1.0" encoding="UTF-8" standalone="no"?>
<svg
   xmlns:dc="http://purl.org/dc/elements/1.1/"
   xmlns:cc="http://creativecommons.org/ns#"
   xmlns:rdf="http://www.w3.org/1999/02/22-rdf-syntax-ns#"
   xmlns:svg="http://www.w3.org/2000/svg"
   xmlns="http://www.w3.org/2000/svg"
   viewBox="0 0 266.66666 266.66666"
   height="266.66666"
   width="266.66666"
   id="svg3868"
   version="1.1">
  <metadata
     id="metadata3874">
    <rdf:RDF>
      <cc:Work
         rdf:about="">
        <dc:format>image/svg+xml</dc:format>
        <dc:type
           rdf:resource="http://purl.org/dc/dcmitype/StillImage" />
        <dc:title></dc:title>
      </cc:Work>
    </rdf:RDF>
  </metadata>
  <defs
     id="defs3872" />
  <g

     id="g3878">
    <path
       id="path3894"
       d="M 0,133.33333 V 0 H 133.33333 266.66666 V 133.33333 266.66666 H 133.33333 0 Z"
       style="fill:#fefefe;stroke-width:1.33333325" />
    <path
       id="path3892"
       d="m 0,263.53818 c 0,-0.254 0.85579055,-2.204 1.9017568,-4.33333 1.0459662,-2.12934 5.5459661,-13.02982 10.0000002,-24.22328 l 8.098242,-20.35175 0.0049,-58.31492 c 0.0048,-55.48577 0.131253,-58.521992 2.607704,-62.583504 4.084638,-6.698949 8.803016,-8.398065 23.321149,-8.398065 h 12.732879 v 66.373509 66.37351 l 8.666667,21.6158 c 4.766666,11.8887 8.666666,22.22062 8.666666,22.95983 0,0.87169 -13.354216,1.34401 -37.999999,1.34401 C 17.1,263.99999 0,263.79218 0,263.53818 Z m 188,-0.60284 c 0,-0.58556 4.2,-11.50647 9.33333,-24.26868 l 9.33333,-23.20403 V 150.39798 85.333331 h 12.46949 c 10.7443,0 13.0963,0.418738 17,3.026577 9.26928,6.192286 9.19279,5.60457 9.19511,70.650772 l 0.003,58.34401 8.76005,21.65598 c 4.81803,11.9108 9.08221,22.40599 9.47599,23.32266 0.56322,1.31117 -7.41966,1.66666 -37.42672,1.66666 C 205.16418,263.99999 188,263.5209 188,262.93534 Z M 76.299961,226.30197 66.666665,216.60395 V 150.96864 85.333331 h 65.999995 66 v 65.168949 65.16895 L 188.33333,225.81442 178,235.95762 l -46.03337,0.0212 -46.033372,0.0212 z m 87.677889,-68.01664 c 4.79108,-2.42412 6.37464,-7.86464 3.54579,-12.182 l -2.25179,-3.43667 h -32.54069 c -36.645814,0 -37.224432,0.14495 -36.468429,9.13519 0.641897,7.63333 2.943713,8.15884 35.737269,8.15884 20.36685,0 29.62534,-0.48507 31.97785,-1.67536 z m 0,-37.33333 c 4.79108,-2.42412 6.37464,-7.86464 3.54579,-12.18201 l -2.25179,-3.43666 h -32.54069 c -36.645814,0 -37.224432,0.14494 -36.468429,9.13518 0.641897,7.63334 2.943713,8.15884 35.737269,8.15884 20.36685,0 29.62534,-0.48506 31.97785,-1.67535 z M 66.68249,67.012562 c 0.04612,-30.154244 17.801653,-54.002173 47.39984,-63.6639949 12.91276,-4.21515052 22.2874,-4.26263392 35.51921,-0.179908 13.23646,4.0841545 20.78471,8.5821399 29.83599,17.7791919 12.21096,12.407627 20.16344,33.259768 18.98565,49.782155 L 198,76.666665 132.33333,77.012562 66.666665,77.358459 Z m 109.65084,-4.60947 c 2.6848,-3.104995 2.91987,-5.482459 0.91284,-9.232624 -3.17553,-5.933535 -13.83516,-5.267069 -15.39876,0.962765 -2.55412,10.176421 7.75061,16.059285 14.48592,8.269859 z M 141.46949,48.973421 c 11.79983,-7.882797 11.52995,-23.004734 -0.54193,-30.365425 -8.20668,-5.003923 -20.28349,-1.676555 -24.55515,6.765357 -2.13961,4.228433 -2.13961,13.024859 0,17.253293 4.43124,8.757289 16.80474,11.886413 25.09708,6.346775 z"
       style="fill:#fae6e6;stroke-width:1.33333325" />
    <path
       id="path3890"
       d="m 0,262.93333 c 0,-0.58667 0.54970837,-1.63667 1.2215742,-2.33334 0.6718658,-0.69666 5.1718656,-11.14858 9.9999998,-23.22649 l 8.778425,-21.95981 v -57.83868 c 0,-64.122254 0.01297,-64.226732 8.632662,-69.553995 3.528936,-2.181004 6.644166,-2.687684 16.524717,-2.687684 h 12.175954 v 64.650729 64.65073 l 9.333333,23.3652 c 5.133333,12.85087 9.333333,23.95804 9.333333,24.6826 0,0.83683 -13.861994,1.3174 -37.999999,1.3174 C 17.1,263.99999 0,263.51999 0,262.93333 Z m 188,0.41593 c 0,-0.35789 4.2,-11.16507 9.33333,-24.01593 l 9.33333,-23.3652 v -65.3174 -65.317399 l 12.33333,0.0049 c 14.8195,0.006 19.7554,2.30017 23.71491,11.022562 2.39729,5.280997 2.56172,9.330247 2.58915,63.760907 l 0.0293,58.12179 8.66667,21.03898 c 4.76666,11.57143 8.66666,21.86663 8.66666,22.8782 0,1.51964 -6.48737,1.83924 -37.33333,1.83924 -20.53333,0 -37.33333,-0.29282 -37.33333,-0.65073 z M 76.299961,226.30197 66.666665,216.60395 V 150.96864 85.333331 h 65.999995 66 v 65.031279 65.03128 L 188.30384,225.69794 177.941,235.99999 H 131.93713 85.933258 Z M 166.0606,156.72726 c 3.93308,-3.93306 4.14684,-7.35237 0.72386,-11.57956 L 164.23561,142 h -32.07019 c -28.42351,0 -32.328286,0.2581 -34.340025,2.26984 -3.31924,3.31924 -2.916573,10.28869 0.766759,13.27126 C 101.34595,159.771 104.4767,160 132.20832,160 h 30.57956 z m 0,-37.33332 c 3.93308,-3.93308 4.14684,-7.35238 0.72386,-11.57956 l -2.54885,-3.14772 h -32.07019 c -28.42351,0 -32.328286,0.25811 -34.340025,2.26985 -3.31924,3.31923 -2.916573,10.28868 0.766759,13.27126 2.753796,2.22989 5.884546,2.45889 33.616166,2.45889 h 30.57956 z M 66.666665,66.946797 c 0,-30.070486 18.683188,-54.505768 48.668015,-63.6517015 12.6311,-3.85272155 18.68044,-4.08314552 30.22429,-1.1512664 12.30215,3.1244665 21.96459,8.2487929 30.59636,16.2262959 13.69693,12.65875 20.31927,26.747762 21.99024,46.784228 l 0.90449,10.845645 H 132.85836 66.666665 Z M 175.39393,63.393938 c 4.18771,-4.187695 4.14824,-7.972981 -0.12773,-12.248915 -2.65643,-2.656422 -4.18639,-3.203171 -6.99255,-2.49887 -5.75717,1.444959 -7.10785,3.30862 -6.67304,9.207372 0.3114,4.224411 1.13341,5.787012 3.73268,7.095635 4.75095,2.391902 6.36263,2.142761 10.0606,-1.555222 z M 141.25112,49.563645 c 2.49856,-1.339994 5.6392,-4.480633 6.97918,-6.979198 7.07458,-13.191294 -2.85544,-27.511798 -18.1476,-26.171469 -5.49001,0.48119 -7.31771,1.377727 -11,5.3958 -4.22876,4.614375 -5.06831,7.539796 -4.45531,15.524554 0.87521,11.40006 15.57802,18.154188 26.62373,12.230313 z"
       style="fill:#f7cfcf;stroke-width:1.33333325" />
    <path
       id="path3888"
       d="m 1.3333333,263.34926 c 0,-0.35789 4.1999999,-11.16507 9.3333327,-24.01593 l 9.333333,-23.3652 0.0049,-58.3174 c 0.0048,-55.83989 0.117546,-58.502011 2.65448,-62.662919 4.55746,-7.474748 9.729165,-9.643824 23.007253,-9.649496 l 11.666666,-0.005 v 65.064645 65.06465 l 9.333333,23.20403 c 5.133333,12.76221 9.333333,23.68312 9.333333,24.26868 0,0.58556 -16.799999,1.06465 -37.333332,1.06465 -20.533333,0 -37.3333327,-0.29282 -37.3333327,-0.65073 z M 188,263.60201 c 0,-0.2189 4.2,-10.8398 9.33333,-23.60202 l 9.33333,-23.20402 V 151.06465 85.333331 h 11.46516 c 13.40229,0 19.17353,2.149273 23.18049,8.632661 2.58715,4.186092 2.68768,6.524308 2.68768,62.508778 v 58.16002 l 9.33334,23.3652 c 5.13333,12.85087 9.33333,23.95804 9.33333,24.6826 0,0.83628 -13.6344,1.3174 -37.33333,1.3174 C 204.79999,263.99999 188,263.8209 188,263.60201 Z M 75.630905,225.63319 66.666665,216.59974 V 150.96653 85.333331 H 132 197.33333 v 65.702429 65.70242 l -9.03347,8.96424 -9.03345,8.96424 H 131.93078 84.595146 Z M 166.2474,157.10092 c 4.21202,-3.957 4.03,-9.49811 -0.42722,-13.00415 -3.32196,-2.61305 -5.17549,-2.76344 -34.0606,-2.76344 h -30.54746 l -3.272729,3.27273 c -1.8,1.8 -3.272727,4.52727 -3.272727,6.0606 0,1.53334 1.472727,4.2606 3.272727,6.0606 L 101.21212,160 h 30.97467 c 29.96734,0 31.07503,-0.0943 34.06061,-2.89908 z m 0,-37.33334 c 4.21202,-3.957 4.03,-9.4981 -0.42722,-13.00414 C 162.49822,104.15038 160.64469,104 131.75958,104 h -30.54746 l -3.272729,3.27272 c -1.8,1.8 -3.272727,4.52728 -3.272727,6.06061 0,1.53333 1.472727,4.26061 3.272727,6.06061 l 3.272729,3.27272 h 30.97467 c 29.96734,0 31.07503,-0.0943 34.06061,-2.89908 z M 66.666665,68.065626 c 0,-18.426818 6.666508,-34.72039 19.452521,-47.543787 C 95.845972,10.766615 107.09426,4.8966719 122,1.7973569 c 9.96442,-2.07187971 11.32881,-2.07043151 20.72436,0.021997 15.04144,3.3497954 25.57037,8.8951291 35.23008,18.5548441 13.2166,13.21659 19.33322,27.734714 19.36306,45.959134 l 0.0158,9.666666 H 132 66.666665 Z M 175.15352,63.903225 c 2.32958,-1.832453 3.51314,-4.045813 3.51314,-6.569893 0,-4.219117 -5.24596,-9.333333 -9.57374,-9.333333 -3.3981,0 -9.09292,5.845402 -9.09292,9.333333 0,3.48793 5.69482,9.333333 9.09292,9.333333 1.40109,0 4.12837,-1.243548 6.0606,-2.76344 z M 142.41357,49.299152 c 2.42745,-1.479983 5.27745,-4.758468 6.33333,-7.285524 5.61006,-13.426774 -2.6227,-25.997219 -17.03384,-26.008644 -5.11115,-0.004 -7.15316,0.755564 -10.91859,4.061662 -9.26272,8.132768 -9.28975,19.710204 -0.0649,27.809693 3.8324,3.36489 5.85341,4.122742 10.98353,4.118676 3.95154,-0.0031 7.92643,-1.004558 10.70051,-2.695863 z"
       style="fill:#f2adad;stroke-width:1.33333325" />
    <path
       id="path3886"
       d="m 1.3333333,263.60201 c 0,-0.2189 4.1999999,-10.8398 9.3333327,-23.60202 l 9.333333,-23.20402 0.0021,-58.06465 c 0.0019,-52.64538 0.219653,-58.49136 2.333333,-62.636542 4.126215,-8.09201 8.255957,-10.036059 22.42584,-10.55682 l 12.572026,-0.462039 v 65.446101 65.44611 l 9.333333,23.3652 c 5.133333,12.85086 9.333333,23.65804 9.333333,24.01593 0,0.35791 -16.799999,0.65073 -37.333332,0.65073 -20.533333,0 -37.3333327,-0.17909 -37.3333327,-0.39798 z M 189.09614,263.31837 c -0.37489,-0.3749 3.40316,-10.7249 8.39568,-23 l 9.07731,-22.31838 0.0488,-66.33333 0.0488,-66.333329 h 11.39955 c 12.30409,0 16.36316,1.353253 21.93378,7.312512 l 3.33334,3.565881 0.66666,60.894136 0.66667,60.89413 9,21.95983 c 4.95,12.07789 9,22.42789 9,23 0,1.12771 -72.44828,1.48079 -73.57052,0.35855 z m -113.544059,-37.8554 -8.885416,-9.2037 V 150.7963 85.333331 H 132 197.33333 v 65.702429 65.70242 l -9.03347,8.96424 -9.03345,8.96424 H 131.85195 84.437497 Z m 91.114579,-68.12964 c 3.49055,-3.49055 3.39036,-9.0578 -0.23241,-12.91407 -2.87,-3.05496 -3.2118,-3.08593 -34.06061,-3.08593 h -31.16152 l -3.272729,3.27273 c -4.04358,4.04358 -4.171736,8.26511 -0.373641,12.308 2.87305,3.05823 3.18435,3.08594 34.66667,3.08594 29.9898,0 31.9168,-0.14923 34.43424,-2.66667 z m 0,-37.33333 c 3.5491,-3.54909 3.42979,-9.85184 -0.25141,-13.2814 C 163.65128,104.14357 161.8525,104 132.35464,104 h -31.14252 l -3.272729,3.27272 c -3.998175,3.99818 -4.138308,7.26725 -0.509287,11.8808 l 2.763436,3.51314 h 31.90323 c 30.12545,0 32.05183,-0.14859 34.56989,-2.66666 z M 66.686373,68.333332 c 0.07935,-30.868894 20.389681,-57.236603 50.035697,-64.9584092 21.61018,-5.6287359 44.79018,0.8532606 61.0811,17.0805602 13.26245,13.210655 19.53016,28.13086 19.53016,46.491314 v 9.053201 H 132 66.666665 Z M 176,63.999998 c 5.73134,-5.731347 1.51485,-15.999999 -6.5699,-15.999999 -4.2156,0 -9.4301,5.160997 -9.4301,9.333333 0,1.268873 1.24354,3.887958 2.76344,5.820188 3.38101,4.298264 9.39986,4.683169 13.23656,0.846478 z M 143.02012,49.062431 c 12.53158,-8.857947 9.05176,-28.835473 -5.76287,-33.08425 -9.39055,-2.693175 -21.24074,4.174022 -23.28807,13.495465 -3.70469,16.867321 15.02965,29.499718 29.05094,19.588785 z"
       style="fill:#ed8b8b;stroke-width:1.33333325" />
    <path
       id="path3884"
       d="m 10.501684,241.66666 8.796829,-21 0.684076,-61.33333 c 0.629494,-56.43955 0.877645,-61.618503 3.110054,-64.907355 4.470012,-6.585357 8.607154,-8.257786 21.907356,-8.855998 l 12.333333,-0.554724 v 65.890357 65.89036 l 9.225264,22.93534 9.225262,22.93535 H 38.744356 1.7048549 Z m 178.831646,20.33769 c 0,-0.36426 3.92685,-10.47698 8.72633,-22.4727 l 8.72635,-21.81043 0.27365,-65.86061 0.27367,-65.860612 10.66666,-0.358147 c 12.51274,-0.420129 18.23339,1.793252 22.97343,8.888657 l 3.02657,4.530511 v 58.447661 58.44765 l 6.80426,17.02184 c 3.74233,9.362 7.93357,19.87182 9.31386,23.35516 l 2.50964,6.33333 h -36.64721 c -20.15597,0 -36.64721,-0.29804 -36.64721,-0.66231 z M 76.299961,224.96863 66.666665,215.27062 V 150.30197 85.333331 H 132 197.33333 v 65.702429 65.70242 l -9.03347,8.96424 -9.03345,8.96424 H 132.59983 85.933258 Z m 90.595049,-67.17529 c 3.29895,-2.9855 3.17639,-10.38861 -0.22835,-13.79334 -2.51654,-2.51655 -4.44444,-2.66667 -34.2474,-2.66667 -30.5896,0 -31.67757,0.0909 -34.666661,2.89908 -3.827068,3.59535 -4.016163,9.50403 -0.419268,13.10092 C 99.852899,159.8529 101.77777,160 132.22834,160 c 28.11772,0 32.53935,-0.28146 34.66667,-2.20666 z m -0.52503,-37.20228 c 3.87394,-2.7134 4.03319,-10.18789 0.29668,-13.9244 C 164.15012,104.15011 162.22222,104 132.41926,104 c -30.5896,0 -31.67757,0.091 -34.666661,2.89908 -3.827068,3.59535 -4.016163,9.50402 -0.419268,13.10092 2.517132,2.51713 4.444439,2.66666 34.369989,2.66666 26.53604,0 32.18632,-0.3383 34.66666,-2.0756 z M 67.125985,64.906334 C 68.632746,45.303911 74.616611,32.203705 87.811678,19.620077 129.04482,-19.702388 197.33333,10.222261 197.33333,67.613464 v 8.386534 H 131.80329 66.273258 Z M 176,63.999998 c 5.60525,-5.605249 1.54649,-15.999999 -6.2474,-15.999999 -4.59511,0 -9.7526,4.836956 -9.7526,9.146484 0,7.923963 10.45234,12.401171 16,6.853515 z M 142.20468,49.988495 c 9.29706,-6.091669 11.25502,-20.86891 3.79658,-28.653845 -14.99329,-15.6496175 -39.19702,0.458019 -30.81878,20.509965 1.88431,4.509783 7.34739,9.26217 12.15085,10.570148 4.08933,1.11352 11.2526,-0.05517 14.87135,-2.426268 z"
       style="fill:#e86b6b;stroke-width:1.33333325" />
    <path
       id="path3882"
       d="m 2.6666666,261.59126 c 0,-0.59147 3.7368555,-10.04147 8.3041234,-21 L 19.274913,220.66666 19.97079,160 c 0.627103,-54.671 0.928709,-61.092701 3.051779,-64.977433 3.488012,-6.382268 9.178317,-8.751652 22.644097,-9.428769 l 11.666666,-0.586652 0.04876,66.496424 0.04876,66.49642 9.083354,22.33334 9.083355,22.33333 H 39.13211 c -20.05599,0 -36.4654434,-0.48393 -36.4654434,-1.0754 z m 186.6666634,0.34837 c 0,-0.39986 4.2,-11.13098 9.33333,-23.84692 l 9.33333,-23.11988 V 149.99 85.007146 l 12.00616,0.574023 c 13.52616,0.646693 17.64726,2.647182 21.65844,10.513609 2.11368,4.145182 2.33146,9.991162 2.33334,62.636542 l 0.002,58.06465 9.22527,22.93534 9.22527,22.93535 h -36.5586 c -20.10723,0 -36.5586,-0.32716 -36.5586,-0.72703 z m -113.046349,-36.98406 -9.646277,-9.71108 0.346314,-64.62225 0.346314,-64.622242 64.999998,-0.346017 65,-0.346016 v 65.046045 65.04606 l -9.69803,9.6333 -9.69801,9.63329 H 131.93527 85.933258 Z m 90.567559,-67.21483 c 3.94955,-3.9532 3.89468,-10.703 -0.11333,-13.94852 -2.76172,-2.23628 -5.92043,-2.45889 -34.88893,-2.45889 -30.07451,0 -32.001117,0.14884 -34.518949,2.66667 -4.942395,4.9424 -2.261679,15.07801 4.345059,16.42838 1.64355,0.33595 16.32282,0.52698 32.62061,0.42454 28.60552,-0.1798 29.73361,-0.28764 32.55554,-3.11218 z m 0.24219,-37.57822 c 3.35079,-3.35079 3.47367,-9.91893 0.25217,-13.47865 C 165.04154,104.13427 163.29608,104 132.46001,104 c -30.68224,0 -32.60606,0.14605 -35.126679,2.66666 -2.686303,2.68631 -3.401101,7.20133 -1.800452,11.37256 1.7593,4.58466 7.220811,5.30114 38.488321,5.04922 28.49289,-0.22956 30.56224,-0.41262 33.07553,-2.92592 z M 67.368978,74.724343 C 66.192332,72.820488 67.946637,56.370499 70.21899,47.999999 75.165034,29.780631 91.412738,12.322753 109.29497,6.0135346 152.91729,-9.377315 197.19445,21.972217 197.31362,68.333332 l 0.0197,7.666666 h -64.58798 c -39.673511,0 -64.892093,-0.492077 -65.376372,-1.275655 z M 176.68224,63.982792 c 5.5659,-6.150253 1.32789,-15.982793 -6.8889,-15.982793 -5.6078,0 -9.79334,3.988948 -9.79334,9.333333 0,8.27227 11.18053,12.728776 16.68224,6.64946 z m -35.33535,-13.64946 c 6.95237,-4.731745 9.76421,-9.435325 9.76421,-16.333333 0,-6.898008 -2.81184,-11.601588 -9.76421,-16.333333 -7.95165,-5.411844 -19.07456,-2.653181 -24.98698,6.197177 -10.72395,16.05278 9.23171,37.192434 24.98698,26.469489 z"
       style="fill:#e65a5a;stroke-width:1.33333325" />
    <path
       id="path3880"
       d="m 2.6666666,262.01593 c 0,-0.3579 4.1999999,-11.16507 9.3333334,-24.01594 l 9.333333,-23.3652 v -58.11167 c 0,-51.40155 0.251806,-58.537952 2.180721,-61.803345 3.772396,-6.386156 8.262465,-8.053111 21.691668,-8.053111 h 12.12761 v 65.344016 65.34401 l 8.666666,21.61581 c 4.766667,11.88869 8.666667,22.08388 8.666667,22.65599 0,0.57209 -16.2,1.04017 -35.999999,1.04017 -19.8,0 -35.9999994,-0.29283 -35.9999994,-0.65073 z m 186.6666634,0.25274 c 0,-0.21889 4.2,-10.8398 9.33333,-23.60201 l 9.33333,-23.20403 V 151.06465 86.666664 l 11.66667,0.0049 c 9.34883,0.004 12.54352,0.539588 16.08024,2.695862 8.15648,4.972927 8.25309,5.788271 8.25309,69.654364 v 57.77415 l 9.22527,22.93534 9.22527,22.93535 h -36.5586 c -20.10723,0 -36.5586,-0.17909 -36.5586,-0.39799 z M 76.633294,224.99999 67.333332,215.33333 67.67947,151 68.025609,86.666664 h 64.653861 64.65386 v 64.366706 64.3667 l -9.69803,9.6333 -9.69801,9.63329 H 131.93527 85.933258 Z m 90.135926,-67.5641 c 4.60768,-4.60768 4.89587,-7.80699 1.134,-12.58941 l -2.76344,-3.51315 h -32.56989 c -30.79212,0 -32.715448,0.14556 -35.236559,2.66667 -5.021017,5.02101 -2.862508,13.86412 3.999999,16.38741 1.1,0.40447 15.39615,0.78276 31.76923,0.84065 l 29.76924,0.10534 3.89742,-3.89744 z m 0.68183,-37.84358 c 3.93995,-4.5837 4.04935,-7.5061 0.45217,-12.07917 L 165.13978,104 h -32.56989 c -30.79212,0 -32.715448,0.14555 -35.236559,2.66666 -5.020668,5.02067 -2.890313,13.76729 3.999999,16.42284 1.1,0.42395 15.70298,0.65224 32.45105,0.50732 l 30.45106,-0.26349 z M 68.279329,62.7952 C 68.843188,51.085557 69.464008,48.434736 73.762235,39.38389 81.825925,22.404051 97.920302,8.8683562 115.75703,4.0654243 c 8.97705,-2.4172678 26.38506,-1.9030605 35.90749,1.0606554 15.57489,4.8474514 31.05328,17.8365173 38.30278,32.1427233 4.17015,8.229401 7.31003,21.797916 7.34288,31.731195 l 0.0231,7 H 132.4884 67.643473 Z M 177,63.151229 c 3.54724,-3.901881 3.77529,-6.784333 0.86545,-10.938713 -6.96025,-9.937141 -21.06984,-2.527043 -17.03485,8.946388 1.42585,4.054362 6.7164,7.095636 10.50273,6.037493 C 172.8,66.786518 175.35,64.966192 177,63.151229 Z M 141.3209,50.859551 C 146.19682,48.244563 152,39.082847 152,33.999999 c 0,-5.082848 -5.80318,-14.244563 -10.6791,-16.859551 -12.63628,-6.776909 -27.9776,2.46791 -27.9776,16.859551 0,14.391641 15.34132,23.63646 27.9776,16.859552 z"
       style="fill:#e44a4a;stroke-width:1.33333325" />
  </g>
</svg>
