<?xml version="1.0" encoding="UTF-8" standalone="no"?>
<!-- Created with Inkscape (http://www.inkscape.org/) -->

<svg
   xmlns:dc="http://purl.org/dc/elements/1.1/"
   xmlns:cc="http://creativecommons.org/ns#"
   xmlns:rdf="http://www.w3.org/1999/02/22-rdf-syntax-ns#"
   xmlns:svg="http://www.w3.org/2000/svg"
   xmlns="http://www.w3.org/2000/svg"
   xmlns:sodipodi="http://sodipodi.sourceforge.net/DTD/sodipodi-0.dtd"
   xmlns:inkscape="http://www.inkscape.org/namespaces/inkscape"
   version="1.1"
   id="svg4047"
   width="64"
   height="64"
   viewBox="0 0 64 64"
   sodipodi:docname="traffic_red.svg"
   inkscape:version="0.92.4 (5da689c313, 2019-01-14)">
  <metadata
     id="metadata4053">
    <rdf:RDF>
      <cc:Work
         rdf:about="">
        <dc:format>image/svg+xml</dc:format>
        <dc:type
           rdf:resource="http://purl.org/dc/dcmitype/StillImage" />
        <dc:title></dc:title>
      </cc:Work>
    </rdf:RDF>
  </metadata>
  <defs
     id="defs4051" />
  <sodipodi:namedview
     pagecolor="#ffffff"
     bordercolor="#666666"
     borderopacity="1"
     objecttolerance="10"
     gridtolerance="10"
     guidetolerance="10"
     inkscape:pageopacity="0"
     inkscape:pageshadow="2"
     inkscape:window-width="1920"
     inkscape:window-height="1017"
     id="namedview4049"
     showgrid="false"
     inkscape:zoom="13.28125"
     inkscape:cx="32"
     inkscape:cy="32"
     inkscape:window-x="1912"
     inkscape:window-y="-8"
     inkscape:window-maximized="1"
     inkscape:current-layer="svg4047" />
  <g
     id="g4057"
     transform="translate(0.07529359)">
    <path
       style="fill:#fefefe;stroke-width:0.31999999"
       d="M 0,32 V 0 H 32 64 V 32 64 H 32 0 Z"
       id="path4073"
       inkscape:connector-curvature="0" />
    <path
       style="fill:#d1d1d1;stroke-width:0.31999999"
       d="M 17.373212,62 C 17.01112,61.604 16.446019,60.776 16.117431,60.16 15.547581,59.091706 15.52,57.776909 15.52,31.68 15.52,5.5830918 15.547581,4.2682944 16.117431,3.2 16.446019,2.584 17.01112,1.756 17.373212,1.36 L 18.031561,0.64 H 31.36 44.688438 l 0.658349,0.72 C 45.70888,1.756 46.273981,2.584 46.60257,3.2 47.172419,4.2682944 47.2,5.5830918 47.2,31.68 c 0,26.096909 -0.02758,27.411706 -0.59743,28.48 -0.328589,0.616 -0.89369,1.444 -1.255783,1.84 l -0.658349,0.72 H 31.36 18.031561 Z m 17.910302,-5.23441 c 7.68759,-2.680761 9.916886,-12.87256 4.090172,-18.699276 -6.532995,-6.532994 -17.722033,-2.911383 -19.207725,6.217059 -1.384763,8.50831 6.899093,15.348099 15.117553,12.482217 z"
       id="path4071"
       inkscape:connector-curvature="0" />
    <path
       style="fill:#9d9d9d;stroke-width:0.31999999"
       d="M 17.251828,61.729843 C 15.341546,59.684877 15.36,59.978 15.36,31.68 15.36,3.382 15.341546,3.6751216 17.251828,1.6301581 L 18.176774,0.64 H 31.36 44.543226 l 0.924947,0.9901581 C 47.378454,3.6751216 47.36,3.382 47.36,31.68 c 0,28.298 0.01846,28.004877 -1.891827,30.049843 L 44.543226,62.72 H 31.36 18.176774 Z m 18.80422,-5.236486 c 2.362602,-1.078573 4.409581,-3.100621 5.612544,-5.544189 0.9188,-1.866346 1.02855,-2.385907 1.02855,-4.869168 0,-2.488704 -0.108764,-3.000816 -1.038355,-4.889085 -2.928909,-5.949462 -10.015901,-8.233033 -15.831075,-5.101088 -1.996747,1.075411 -3.917308,3.186832 -4.961112,5.454125 -1.198162,2.602589 -1.198162,6.469507 0,9.072096 1.530148,3.323706 4.70884,5.969261 8.004605,6.662051 2.051933,0.431331 5.297557,0.07684 7.184843,-0.784742 z"
       id="path4069"
       inkscape:connector-curvature="0" />
    <path
       style="fill:#626262;stroke-width:0.31999999"
       d="M 17.692685,62.152883 C 17.303662,61.848797 16.655662,60.88 16.252685,60 L 15.52,58.4 V 31.68 4.96 L 16.272827,3.2952944 C 17.531956,0.51101386 16.799067,0.64 31.36,0.64 45.920931,0.64 45.188045,0.51101386 46.447174,3.2952944 L 47.2,4.96 V 31.68 58.4 l -0.752826,1.664707 c -1.259971,2.786141 -0.51664,2.656259 -15.155915,2.648176 -11.721327,-0.0065 -12.955451,-0.05729 -13.598574,-0.56 z m 18.324819,-5.636656 c 2.471683,-1.127574 4.665366,-3.307462 5.79736,-5.760902 0.765437,-1.658986 0.902166,-2.367555 0.902166,-4.675325 0,-2.30777 -0.136729,-3.016339 -0.902166,-4.675325 C 40.686006,38.958026 38.500938,36.782742 36,35.615843 34.370557,34.855571 33.668378,34.72 31.36,34.72 c -2.308377,0 -3.010557,0.135571 -4.64,0.895843 -2.500939,1.166899 -4.686006,3.342183 -5.814863,5.788832 -0.764803,1.65761 -0.902392,2.369472 -0.903652,4.675325 -0.0012,2.310762 0.133359,3.008874 0.894755,4.64 2.735772,5.860797 9.38921,8.411171 15.121264,5.796227 z"
       id="path4067"
       inkscape:connector-curvature="0" />
    <path
       style="fill:#fd0000;stroke-width:0.31999999"
       d="M 17.436671,61.660672 C 15.481928,59.70593 15.52,60.301446 15.52,31.68 15.52,7.2819014 15.557571,5.4922659 16.10258,3.9294464 16.438838,2.9652211 17.091892,1.9166499 17.647132,1.4494463 L 18.609104,0.64 H 31.416552 44.224 l 1.059328,1.0593289 C 47.23807,3.6540717 47.2,3.0585546 47.2,31.68 c 0,24.398099 -0.03757,26.187734 -0.582579,27.750554 -0.336259,0.964224 -0.989312,2.012796 -1.544554,2.48 L 44.110896,62.72 H 31.303448 18.496 Z M 36.22288,56.580531 C 38.545139,55.498378 40.774045,53.27145 41.865542,50.94288 42.603603,49.36832 42.72,48.705882 42.72,46.08 42.72,43.454118 42.603603,42.79168 41.865542,41.21712 40.775546,38.89175 38.54825,36.664454 36.22288,35.574458 34.64832,34.836397 33.985882,34.72 31.36,34.72 c -2.625881,0 -3.288319,0.116397 -4.862879,0.854458 -6.422827,3.010643 -8.644533,11.066038 -4.69612,17.027052 1.225067,1.849517 3.016214,3.275028 5.341908,4.25144 2.553285,1.071965 6.445574,0.955188 9.079971,-0.272419 z"
       id="path4065"
       inkscape:connector-curvature="0" />
    <path
       style="fill:#a30000;stroke-width:0.31999999"
       d="M 17.436671,61.660672 C 15.481928,59.70593 15.52,60.301446 15.52,31.68 15.52,7.2819014 15.557571,5.4922659 16.10258,3.9294464 16.438838,2.9652211 17.091892,1.9166499 17.647132,1.4494463 L 18.609104,0.64 H 31.416552 44.224 l 1.059328,1.0593289 C 47.23807,3.6540717 47.2,3.0585546 47.2,31.68 c 0,24.398099 -0.03757,26.187734 -0.582579,27.750554 -0.336259,0.964224 -0.989312,2.012796 -1.544554,2.48 L 44.110896,62.72 H 31.303448 18.496 Z M 36.22288,56.580531 C 38.545139,55.498378 40.774045,53.27145 41.865542,50.94288 42.603603,49.36832 42.72,48.705882 42.72,46.08 42.72,43.454118 42.603603,42.79168 41.865542,41.21712 40.775546,38.89175 38.54825,36.664454 36.22288,35.574458 34.64832,34.836397 33.985882,34.72 31.36,34.72 c -2.625881,0 -3.288319,0.116397 -4.862879,0.854458 -6.422827,3.010643 -8.644533,11.066038 -4.69612,17.027052 1.225067,1.849517 3.016214,3.275028 5.341908,4.25144 2.553285,1.071965 6.445574,0.955188 9.079971,-0.272419 z M 35.722787,28.116508 c 1.325018,-0.495752 2.395946,-1.224039 3.662813,-2.490908 2.330563,-2.330564 3.278925,-4.6518 3.278925,-8.0256 0,-3.3738 -0.948362,-5.695036 -3.278925,-8.0256 C 37.055037,7.2438365 34.733798,6.2954765 31.36,6.2954765 c -3.3738,0 -5.695036,0.94836 -8.0256,3.2789235 -2.340547,2.340547 -3.284862,4.658281 -3.269875,8.0256 0.03687,8.283108 7.761391,13.471107 15.658262,10.516508 z"
       id="path4063"
       inkscape:connector-curvature="0" />
    <path
       style="fill:#610000;stroke-width:0.31999999"
       d="M 17.436671,61.660672 C 15.481928,59.70593 15.52,60.301446 15.52,31.68 15.52,7.2819014 15.557571,5.4922659 16.10258,3.9294464 16.438838,2.9652211 17.091892,1.9166499 17.647132,1.4494463 L 18.609104,0.64 H 31.416552 44.224 l 1.059328,1.0593289 C 47.23807,3.6540717 47.2,3.0585546 47.2,31.68 c 0,24.398099 -0.03757,26.187734 -0.582579,27.750554 -0.336259,0.964224 -0.989312,2.012796 -1.544554,2.48 L 44.110896,62.72 H 31.303448 18.496 Z M 36.22288,56.580531 C 38.545139,55.498378 40.774045,53.27145 41.865542,50.94288 42.603603,49.36832 42.72,48.705882 42.72,46.08 42.72,43.454118 42.603603,42.79168 41.865542,41.21712 40.775546,38.89175 38.54825,36.664454 36.22288,35.574458 34.64832,34.836397 33.985882,34.72 31.36,34.72 c -2.625881,0 -3.288319,0.116397 -4.862879,0.854458 -6.422827,3.010643 -8.644533,11.066038 -4.69612,17.027052 1.225067,1.849517 3.016214,3.275028 5.341908,4.25144 2.553285,1.071965 6.445574,0.955188 9.079971,-0.272419 z M 36.017504,28.036228 c 2.471683,-1.127574 4.665366,-3.307462 5.79736,-5.760903 C 42.580301,20.61634 42.71703,19.907769 42.71703,17.6 c 0,-2.307769 -0.136729,-3.01634 -0.902166,-4.675325 C 40.686006,10.478027 38.500938,8.3027414 36,7.1358422 34.370557,6.3755696 33.668378,6.24 31.36,6.24 c -2.308377,0 -3.010557,0.1355696 -4.64,0.8958422 -2.500939,1.1668992 -4.686006,3.3421848 -5.814863,5.7888328 -0.764803,1.657608 -0.902392,2.369471 -0.903652,4.675325 -0.0012,2.31076 0.133359,3.008875 0.894755,4.64 2.735772,5.860798 9.38921,8.411171 15.121264,5.796228 z"
       id="path4061"
       inkscape:connector-curvature="0" />
    <path
       style="fill:#000000;stroke-width:0.31999999"
       d="m 17.647132,61.910554 c -0.55524,-0.467204 -1.208294,-1.515776 -1.544552,-2.48 C 15.557571,57.867734 15.52,56.078099 15.52,31.68 15.52,7.2819014 15.557571,5.4922659 16.10258,3.9294464 16.438838,2.9652211 17.091892,1.9166499 17.647132,1.4494463 L 18.609104,0.64 H 31.36 44.110896 l 0.961971,0.8094463 c 0.555242,0.4672036 1.208295,1.5157748 1.544554,2.4800001 C 47.162429,5.4922659 47.2,7.2819014 47.2,31.68 c 0,24.398099 -0.03757,26.187734 -0.582579,27.750554 -0.336259,0.964224 -0.989312,2.012796 -1.544554,2.48 L 44.110896,62.72 H 31.36 18.609104 Z M 36.22288,56.580531 C 38.545139,55.498378 40.774045,53.27145 41.865542,50.94288 42.603603,49.36832 42.72,48.705882 42.72,46.08 42.72,43.454118 42.603603,42.79168 41.865542,41.21712 40.775546,38.89175 38.54825,36.664454 36.22288,35.574458 34.64832,34.836397 33.985882,34.72 31.36,34.72 c -2.625881,0 -3.288319,0.116397 -4.862879,0.854458 -6.422827,3.010643 -8.644533,11.066038 -4.69612,17.027052 1.225067,1.849517 3.016214,3.275028 5.341908,4.25144 2.553285,1.071965 6.445574,0.955188 9.079971,-0.272419 z m 0,-28.480001 c 2.322259,-1.082154 4.551165,-3.309079 5.642662,-5.637651 C 42.603603,20.888319 42.72,20.225881 42.72,17.6 42.72,14.974119 42.603603,14.311681 41.865542,12.737121 40.775546,10.411751 38.54825,8.1844544 36.22288,7.0944582 34.64832,6.3563971 33.985882,6.24 31.36,6.24 c -2.625881,0 -3.288319,0.1163971 -4.862879,0.8544582 -6.422827,3.0106428 -8.644533,11.0660378 -4.69612,17.0270538 1.225067,1.849514 3.016214,3.275025 5.341908,4.251438 2.553285,1.071964 6.445574,0.955187 9.079971,-0.27242 z"
       id="path4059"
       inkscape:connector-curvature="0" />
  </g>
</svg>
